<svg width="565" height="350" viewBox="0 0 565 350" fill="none" xmlns="http://www.w3.org/2000/svg">
<path d="M114.463 29.9965H18.0872V203.129H114.463V29.9965Z" fill="#EBEBEB"/>
<path d="M109.619 35.0177H21.938V197.972H109.619V35.0177Z" fill="#FAFAFA"/>
<path d="M109.619 36.9367L21.938 148.471V35.0177H109.619V36.9367Z" fill="#F5F5F5"/>
<path d="M111.523 81.895H21.938V83.6302H111.523V81.895Z" fill="#EBEBEB"/>
<path d="M111.523 120.701H21.938V122.436H111.523V120.701Z" fill="#EBEBEB"/>
<path d="M111.523 159.506H21.938V161.242H111.523V159.506Z" fill="#EBEBEB"/>
<path d="M63.563 82.7621L63.563 202.593H67.9933V82.7621H63.563Z" fill="#EBEBEB"/>
<path d="M40.8287 35.0177H38.8219V82.7622H40.8287V35.0177Z" fill="#EBEBEB"/>
<path d="M58.1373 35.0177H56.1305V82.7622H58.1373V35.0177Z" fill="#EBEBEB"/>
<path d="M75.4459 35.0177H73.4391V82.7622H75.4459V35.0177Z" fill="#EBEBEB"/>
<path d="M92.7554 35.0177H90.7485V82.7622H92.7554V35.0177Z" fill="#EBEBEB"/>
<path d="M18.0871 27.0605H14.0106V204.201H18.0871V27.0605Z" fill="#F5F5F5"/>
<path d="M118.539 204.69L114.463 203.129V27.0605H118.539V204.69Z" fill="#8469C7"/>
<path d="M118.539 25.2729H14.0106V29.9966H118.539V25.2729Z" fill="#8469C7"/>
<path d="M121.299 205.272H11.1189V209.674H121.299V205.272Z" fill="#8469C7"/>
<path d="M114.463 203.129L121.299 205.272H11.1189L18.0872 203.129H114.463Z" fill="#EBEBEB"/>
<path d="M529.031 137.924C529.031 137.924 522.219 137.434 522.846 152.715C523.473 167.996 525.033 176.135 525.033 176.135C525.033 176.135 524.833 179.523 522.209 178.858C519.585 178.193 514.648 174.895 512.21 177.361C509.682 179.917 510.581 183.838 513.935 188.456C517.288 193.075 524.266 203.463 524.893 204.405C525.509 205.329 525.757 207.063 523.896 206.896C522.036 206.729 509.48 202.474 507.818 208.553C506.155 214.631 517.613 225.963 518.842 227.225C520.071 228.488 520.137 229.285 519.638 230.049C519.139 230.813 515.054 228.985 511.433 227.921C507.813 226.857 503.428 226.257 502.762 229.845C502.096 233.433 507.143 243.932 526.042 254.966L535.134 259.506L543.74 254.017C561.44 241.147 565.411 230.197 564.391 226.693C563.37 223.19 559.067 224.225 555.57 225.645C552.074 227.066 548.192 229.294 547.62 228.584C547.047 227.874 547.034 227.074 548.13 225.695C549.226 224.316 559.493 211.895 557.231 206.013C554.968 200.131 542.901 205.622 541.067 205.973C539.233 206.325 539.305 204.575 539.826 203.594C540.356 202.594 546.259 191.56 549.134 186.629C552.009 181.699 552.512 177.707 549.74 175.417C547.068 173.208 542.486 176.983 539.941 177.907C537.397 178.832 536.859 175.481 536.859 175.481C536.859 175.481 537.596 167.226 536.691 151.959C535.787 136.692 528.894 137.924 528.894 137.924" fill="#EBEBEB"/>
<path d="M529.57 151.61C529.57 151.61 529.588 151.718 529.606 151.929C529.624 152.156 529.648 152.467 529.678 152.867C529.736 153.709 529.818 154.922 529.923 156.476C530.132 159.611 530.401 164.147 530.71 169.755C531.333 180.97 532.062 196.47 532.81 213.59C533.557 230.716 534.247 246.217 534.807 257.434C535.092 263.031 535.323 267.565 535.483 270.717C535.56 272.273 535.621 273.487 535.663 274.329C535.679 274.73 535.692 275.042 535.701 275.269C535.707 275.481 535.701 275.589 535.701 275.589C535.701 275.589 535.683 275.481 535.665 275.27C535.647 275.045 535.623 274.733 535.592 274.332C535.535 273.491 535.453 272.278 535.348 270.724C535.139 267.59 534.871 263.054 534.561 257.446C533.938 246.231 533.209 230.73 532.461 213.604C531.713 196.484 531.024 180.984 530.463 169.766C530.179 164.17 529.948 159.636 529.787 156.483C529.71 154.926 529.649 153.713 529.608 152.87C529.591 152.469 529.579 152.157 529.57 151.931C529.564 151.719 529.57 151.61 529.57 151.61Z" fill="#8469C7"/>
<path d="M518.929 182.252C518.946 182.235 519.147 182.404 519.495 182.723C519.845 183.04 520.337 183.516 520.938 184.109C522.138 185.298 523.751 186.983 525.497 188.875C527.205 190.744 528.749 192.434 529.944 193.741C530.475 194.316 530.927 194.806 531.298 195.209C531.618 195.554 531.788 195.754 531.771 195.771C531.755 195.788 531.553 195.621 531.202 195.304C530.853 194.985 530.362 194.51 529.767 193.911C528.578 192.71 526.987 191.005 525.242 189.112C523.522 187.257 521.966 185.579 520.762 184.281C520.228 183.708 519.774 183.22 519.401 182.82C519.08 182.47 518.912 182.269 518.929 182.252Z" fill="#8469C7"/>
<path d="M532.672 195.47C532.604 195.403 535.929 191.921 540.098 187.694C544.269 183.466 547.704 180.094 547.773 180.161C547.841 180.229 544.517 183.71 540.346 187.939C536.177 192.165 532.74 195.538 532.672 195.47Z" fill="#8469C7"/>
<path d="M532.635 221.818C532.623 221.797 532.85 221.654 533.268 221.415C533.753 221.142 534.347 220.809 535.047 220.417C536.548 219.574 538.616 218.402 540.851 217.028C543.091 215.658 545.075 214.35 546.506 213.392C547.173 212.947 547.739 212.569 548.202 212.26C548.605 211.996 548.834 211.858 548.849 211.877C548.863 211.897 548.66 212.071 548.281 212.37C547.903 212.668 547.346 213.089 546.646 213.593C545.249 214.604 543.28 215.95 541.033 217.324C538.79 218.703 536.696 219.844 535.162 220.633C534.394 221.025 533.769 221.334 533.329 221.535C532.893 221.737 532.646 221.839 532.635 221.818Z" fill="#8469C7"/>
<path d="M517.572 212.597C517.584 212.576 517.808 212.683 518.201 212.892C518.594 213.102 519.158 213.415 519.849 213.808C521.233 214.595 523.133 215.702 525.22 216.944C527.308 218.186 529.188 219.326 530.54 220.167C531.216 220.587 531.76 220.932 532.132 221.177C532.503 221.423 532.703 221.568 532.691 221.589C532.679 221.61 532.456 221.504 532.062 221.294C531.669 221.085 531.106 220.772 530.414 220.379C529.03 219.592 527.13 218.485 525.043 217.243C522.955 216.002 521.076 214.862 519.723 214.02C519.047 213.6 518.503 213.255 518.132 213.009C517.76 212.763 517.56 212.618 517.572 212.597Z" fill="#8469C7"/>
<path d="M514.585 235.853C514.597 235.832 514.881 235.97 515.384 236.24C515.944 236.548 516.653 236.94 517.501 237.407C519.279 238.405 521.725 239.806 524.416 241.371C527.107 242.937 529.533 244.372 531.281 245.424C532.105 245.929 532.796 246.353 533.341 246.687C533.824 246.992 534.085 247.171 534.073 247.192C534.06 247.213 533.776 247.073 533.273 246.805C532.713 246.496 532.004 246.104 531.157 245.638C529.378 244.639 526.933 243.238 524.242 241.672C521.551 240.107 519.125 238.673 517.378 237.62C516.554 237.115 515.863 236.692 515.317 236.357C514.834 236.052 514.573 235.873 514.585 235.853Z" fill="#8469C7"/>
<path d="M533.682 246.789C533.67 246.769 533.952 246.581 534.473 246.26C535.052 245.908 535.793 245.456 536.683 244.914C538.548 243.778 541.119 242.2 543.909 240.379C546.702 238.562 549.189 236.853 550.98 235.605C551.836 235.011 552.55 234.515 553.106 234.129C553.609 233.782 553.895 233.6 553.909 233.619C553.924 233.639 553.665 233.858 553.186 234.238C552.707 234.617 552.004 235.156 551.125 235.804C549.367 237.106 546.898 238.851 544.099 240.671C541.304 242.495 538.707 244.042 536.808 245.126C535.857 245.665 535.082 246.094 534.54 246.377C533.999 246.662 533.694 246.81 533.682 246.789Z" fill="#8469C7"/>
<path d="M547.347 262.48H522.194L530.404 324.624H539.138L547.347 262.48Z" fill="#8469C7"/>
<path d="M523.499 270.119C523.49 270.126 523.527 270.207 523.634 270.341C523.741 270.473 523.938 270.645 524.241 270.775C524.837 271.035 525.884 271.056 526.897 270.449C527.913 269.889 528.798 268.788 530.159 268.302C531.509 267.786 533.181 267.879 534.784 268.394C536.406 268.896 537.815 269.716 539.091 270.48C540.37 271.241 541.542 271.92 542.594 272.36C543.638 272.816 544.547 273.026 545.177 273.106C545.493 273.148 545.739 273.161 545.907 273.155C546.075 273.155 546.162 273.148 546.163 273.134C546.177 273.052 544.739 273.065 542.712 272.094C541.697 271.63 540.556 270.935 539.287 270.156C538.024 269.376 536.581 268.519 534.907 268.001C533.252 267.469 531.473 267.373 530.025 267.948C529.301 268.224 528.694 268.657 528.187 269.085C527.674 269.509 527.214 269.91 526.748 270.2C525.828 270.794 524.861 270.819 524.298 270.625C523.718 270.423 523.532 270.084 523.499 270.119Z" fill="#F5F5F5"/>
<path d="M524.417 281.565C524.451 281.586 524.616 281.308 525.01 280.898C525.41 280.499 526.065 279.977 527.018 279.624C527.962 279.262 529.174 279.047 530.516 279.097C531.863 279.144 533.332 279.439 534.893 279.693C536.452 279.955 537.995 280.072 539.374 279.879C540.753 279.702 541.95 279.305 542.9 278.872C543.853 278.438 544.557 277.962 545.021 277.612C545.485 277.259 545.706 277.023 545.692 277.007C545.645 276.939 544.673 277.809 542.784 278.606C541.841 278.995 540.668 279.352 539.329 279.503C537.99 279.669 536.507 279.547 534.958 279.288C533.409 279.037 531.917 278.746 530.527 278.719C529.135 278.688 527.88 278.941 526.909 279.355C525.929 279.759 525.267 280.345 524.89 280.791C524.709 281.023 524.578 281.209 524.51 281.349C524.437 281.484 524.405 281.558 524.417 281.565Z" fill="#F5F5F5"/>
<path d="M544.498 287.692C544.508 287.674 544.275 287.517 543.805 287.332C543.337 287.147 542.622 286.957 541.721 286.885C540.82 286.813 539.741 286.871 538.569 287.065C537.395 287.256 536.139 287.58 534.818 287.86C533.499 288.138 532.225 288.325 531.072 288.283C529.919 288.243 528.894 287.991 528.098 287.64C526.48 286.93 525.903 285.895 525.842 285.961C525.827 285.971 525.941 286.23 526.268 286.618C526.592 287.006 527.157 287.5 527.975 287.904C528.792 288.305 529.855 288.598 531.055 288.661C532.258 288.726 533.567 288.544 534.902 288.262C536.237 287.979 537.485 287.645 538.633 287.439C539.779 287.228 540.827 287.143 541.703 287.176C543.469 287.234 544.473 287.767 544.498 287.692Z" fill="#F5F5F5"/>
<path d="M526.64 296.311C526.652 296.377 527.538 295.751 529.082 296.065C529.839 296.201 530.685 296.584 531.637 297.017C532.585 297.459 533.728 297.838 534.953 297.931C537.424 298.169 539.622 297.37 540.971 296.537C541.661 296.127 542.143 295.687 542.468 295.385C542.774 295.06 542.932 294.872 542.911 294.852C542.857 294.792 542.196 295.536 540.826 296.286C539.479 297.032 537.358 297.751 534.991 297.523C532.609 297.386 530.781 295.966 529.13 295.778C528.325 295.658 527.653 295.774 527.233 295.943C526.807 296.109 526.627 296.297 526.64 296.311Z" fill="#F5F5F5"/>
<path d="M528.041 308.239C528.041 308.286 528.884 308.28 530.138 307.823C531.402 307.4 532.967 306.431 534.794 305.705C535.712 305.355 536.63 305.14 537.467 305.144C538.304 305.148 539.051 305.352 539.617 305.634C540.772 306.21 541.107 307.027 541.17 306.976C541.189 306.967 541.137 306.763 540.932 306.445C540.729 306.129 540.343 305.717 539.754 305.378C539.165 305.042 538.373 304.791 537.473 304.766C536.571 304.739 535.599 304.958 534.649 305.32C532.755 306.075 531.239 307.072 530.032 307.551C528.839 308.067 528.031 308.173 528.041 308.239Z" fill="#F5F5F5"/>
<path d="M529.274 313.788C529.26 313.84 529.863 314.056 530.866 314.306C531.869 314.555 533.276 314.821 534.847 314.977C536.419 315.13 537.851 315.143 538.883 315.094C539.915 315.045 540.549 314.949 540.546 314.897C540.539 314.773 537.996 314.882 534.887 314.569C531.778 314.27 529.304 313.668 529.274 313.788Z" fill="#F5F5F5"/>
<path d="M533.071 37.118H455.407V88.1799H533.071V37.118Z" fill="#8469C7"/>
<path d="M530.329 39.2062H458.109V85.8965H530.329V39.2062Z" fill="#FAFAFA"/>
<path d="M505.999 56.2256H482.439V69.0733H505.999V56.2256Z" fill="#8469C7"/>
<path d="M554.895 325.448C554.895 325.564 430.667 325.657 277.461 325.657C124.201 325.657 0 325.564 0 325.448C0 325.332 124.2 325.238 277.461 325.238C430.668 325.237 554.895 325.332 554.895 325.448Z" fill="#263238"/>
<path d="M362.261 171.472H209.019V0H375.334V158.398C375.333 165.619 369.48 171.472 362.261 171.472Z" fill="#EBEBEB"/>
<path d="M361.6 51.0337C361.6 51.3811 331.539 51.6632 294.467 51.6632C257.382 51.6632 227.328 51.3811 227.328 51.0337C227.328 50.6864 257.382 50.4043 294.467 50.4043C331.539 50.4043 361.6 50.6864 361.6 51.0337Z" fill="#455A64"/>
<path d="M295.262 62.6491C295.262 62.9973 280.411 63.2786 262.095 63.2786C243.772 63.2786 228.924 62.9965 228.924 62.6491C228.924 62.3017 243.772 62.0197 262.095 62.0197C280.41 62.0197 295.262 62.3017 295.262 62.6491Z" fill="#455A64"/>
<path d="M321.797 61.5732C321.797 61.9213 317.863 62.2026 313.012 62.2026C308.159 62.2026 304.226 61.9205 304.226 61.5732C304.226 61.2258 308.159 60.9437 313.012 60.9437C317.863 60.9437 321.797 61.2258 321.797 61.5732Z" fill="#455A64"/>
<path d="M365.185 60.8566C365.185 61.2048 357.398 61.4861 347.795 61.4861C338.188 61.4861 330.402 61.204 330.402 60.8566C330.402 60.5093 338.188 60.2272 347.795 60.2272C357.398 60.2272 365.185 60.5085 365.185 60.8566Z" fill="#455A64"/>
<path d="M289.722 73.7654C289.722 74.1136 275.754 74.3949 258.527 74.3949C241.294 74.3949 227.328 74.1128 227.328 73.7654C227.328 73.4181 241.294 73.136 258.527 73.136C275.753 73.136 289.722 73.4173 289.722 73.7654Z" fill="#455A64"/>
<path d="M365.185 73.4448C365.185 73.7929 349.933 74.0742 331.122 74.0742C312.305 74.0742 297.055 73.7921 297.055 73.4448C297.055 73.0974 312.305 72.8153 331.122 72.8153C349.933 72.8153 365.185 73.0974 365.185 73.4448Z" fill="#455A64"/>
<path d="M365.185 84.6307C365.185 84.9788 358.394 85.2601 350.019 85.2601C341.64 85.2601 334.851 84.978 334.851 84.6307C334.851 84.2833 341.641 84.0012 350.019 84.0012C358.394 84.0012 365.185 84.2833 365.185 84.6307Z" fill="#455A64"/>
<path d="M302.432 38.5825C302.432 38.9306 285.975 39.2119 265.679 39.2119C245.377 39.2119 228.924 38.9298 228.924 38.5825C228.924 38.2351 245.377 37.953 265.679 37.953C285.975 37.953 302.432 38.2351 302.432 38.5825Z" fill="#856AC8"/>
<path d="M404.679 324.509H82.6761C76.1922 324.509 70.9358 319.252 70.9358 312.769V107.785C70.9358 101.301 76.1922 96.0443 82.6761 96.0443H404.679C411.162 96.0443 416.419 101.301 416.419 107.785V312.769C416.419 319.252 411.162 324.509 404.679 324.509Z" fill="#263238"/>
<path d="M416.931 327.602H71.3154C63.3937 327.602 56.9711 321.18 56.9711 313.258V307.611H431.276V313.258C431.276 321.18 424.854 327.602 416.931 327.602Z" fill="#263238"/>
<path d="M406.663 105.121H80.6926V298.056H406.663V105.121Z" fill="#455A64"/>
<path d="M210.103 307.611C210.096 307.608 210.218 307.604 210.462 307.601C210.728 307.598 211.091 307.594 211.557 307.59C212.55 307.584 213.98 307.576 215.814 307.565C219.556 307.55 224.941 307.528 231.609 307.501C245.052 307.472 263.66 307.432 284.418 307.387L284.807 307.386L284.61 307.723C283.946 308.862 283.232 310.085 282.514 311.315C281.761 312.604 281.013 313.885 280.297 315.112L280.232 315.223H280.103C251.381 315.169 226.853 315.123 214.745 315.1H214.688L214.659 315.053C213.17 312.631 212.023 310.766 211.236 309.487C210.865 308.878 210.58 308.41 210.376 308.077C210.188 307.764 210.103 307.611 210.103 307.611C210.103 307.611 210.219 307.781 210.427 308.101C210.643 308.434 210.946 308.904 211.341 309.513C212.143 310.762 213.313 312.582 214.833 314.945L214.747 314.898C226.854 314.875 251.383 314.829 280.106 314.775L279.913 314.886C280.629 313.659 281.377 312.378 282.13 311.089C282.848 309.859 283.562 308.637 284.227 307.498L284.419 307.834C263.747 307.789 245.214 307.749 231.825 307.72C225.126 307.693 219.715 307.671 215.957 307.656C214.094 307.645 212.643 307.637 211.634 307.631C211.151 307.627 210.776 307.623 210.501 307.621C210.244 307.619 210.103 307.611 210.103 307.611Z" fill="#455A64"/>
<path d="M416.419 307.611C416.419 307.727 339.073 307.821 243.686 307.821C148.264 307.821 70.9358 307.727 70.9358 307.611C70.9358 307.495 148.264 307.402 243.686 307.402C339.073 307.402 416.419 307.495 416.419 307.611Z" fill="#455A64"/>
<path d="M328.248 66.5902C333.578 66.5902 337.898 70.9109 337.898 76.2406V96.0436H309.04V77.7743C309.04 71.5975 314.048 66.5894 320.225 66.5894L328.248 66.5902Z" fill="#263238"/>
<path d="M328.248 66.5902C328.248 66.7063 301.02 66.7764 267.44 66.7466C233.848 66.7168 206.626 66.5991 206.627 66.483C206.627 66.367 233.849 66.2969 267.44 66.3267C301.02 66.3565 328.248 66.4742 328.248 66.5902Z" fill="#263238"/>
<path d="M327.994 66.5659L315.96 66.4829L298.478 66.5893H170.057C159.152 66.5893 150.312 75.4298 150.312 86.3343V294.872V298.519H316.626V77.4156C317.114 66.5901 327.994 66.5659 327.994 66.5659Z" fill="#FAFAFA"/>
<path d="M327.994 66.566L227.713 66.7852L177.571 66.823L171.303 66.8271C170.253 66.8069 169.225 66.8682 168.195 66.923C167.175 67.0672 166.144 67.1801 165.154 67.4775C161.139 68.472 157.538 70.8802 154.92 74.0589C153.614 75.6595 152.6 77.4834 151.858 79.4031C151.696 79.8915 151.472 80.3614 151.359 80.8659L150.975 82.3642C150.818 83.3829 150.623 84.3984 150.616 85.4325C150.528 89.5847 150.596 93.7821 150.578 97.9545L150.713 298.519L150.312 298.118L316.626 298.226L316.333 298.519L316.414 179.235L316.51 119.594L316.568 89.7749L316.582 82.3199L316.59 78.5924C316.592 77.971 316.57 77.3496 316.668 76.7306C316.744 76.1132 316.769 75.4862 316.96 74.889C317.51 72.4728 318.895 70.196 320.988 68.817C322.005 68.1037 323.141 67.5589 324.333 67.2018C325.52 66.84 326.752 66.6054 327.994 66.566ZM327.994 66.566C326.751 66.6095 325.521 66.8496 324.337 67.2164C323.149 67.5774 322.016 68.1263 321.005 68.842C318.923 70.2258 317.555 72.4969 317.017 74.9035C316.829 75.4983 316.807 76.1221 316.733 76.7371C316.639 77.3512 316.662 77.9742 316.662 78.5948L316.67 82.3223L316.684 89.7773L316.742 119.598L316.838 179.24L316.919 298.519V298.811H316.625L150.312 298.919H149.91V298.518L150.045 97.9537C150.068 93.7708 150.004 89.6073 150.1 85.4075C150.11 84.3468 150.309 83.3039 150.473 82.2594L150.869 80.7225C150.986 80.2051 151.215 79.7231 151.383 79.2218C152.147 77.2529 153.19 75.383 154.531 73.7437C157.22 70.4877 160.915 68.0255 165.031 67.01C166.047 66.707 167.104 66.5917 168.148 66.4467C169.205 66.3903 170.262 66.3306 171.302 66.3524L177.57 66.3564L227.71 66.3943L327.994 66.566Z" fill="#263238"/>
<path d="M175.365 104.767H204.388L204.434 114.489H203.046C202.59 111.011 201.288 108.658 199.139 107.43C197.93 106.753 196.126 106.384 193.724 106.32V131.714C193.724 133.489 194.034 134.666 194.654 135.247C195.274 135.829 196.564 136.12 198.526 136.12V137.343H181.344V136.12C183.227 136.12 184.478 135.825 185.098 135.236C185.717 134.647 186.027 133.473 186.027 131.714V106.32C183.674 106.384 181.869 106.753 180.614 107.43C178.307 108.69 177.004 111.042 176.706 114.489H175.317L175.365 104.767Z" fill="#856AC8"/>
<path d="M293.805 106.959C293.805 107.306 277.795 107.588 258.051 107.588C238.301 107.588 222.294 107.306 222.294 106.959C222.294 106.611 238.301 106.329 258.051 106.329C277.795 106.329 293.805 106.611 293.805 106.959Z" fill="#856AC8"/>
<path d="M251.378 118.384C251.378 118.732 245.188 119.013 237.554 119.013C229.918 119.013 223.729 118.731 223.729 118.384C223.729 118.036 229.918 117.754 237.554 117.754C245.188 117.754 251.378 118.036 251.378 118.384Z" fill="#455A64"/>
<path d="M216.528 153.236C216.528 153.585 204.773 153.866 190.275 153.866C175.772 153.866 164.019 153.584 164.019 153.236C164.019 152.889 175.772 152.607 190.275 152.607C204.773 152.607 216.528 152.888 216.528 153.236Z" fill="#455A64"/>
<path d="M275.989 153.236C275.989 153.585 264.234 153.866 249.736 153.866C235.233 153.866 223.48 153.584 223.48 153.236C223.48 152.889 235.233 152.607 249.736 152.607C264.234 152.607 275.989 152.888 275.989 153.236Z" fill="#856AC8"/>
<path d="M216.528 162.543C216.528 162.892 204.773 163.173 190.275 163.173C175.772 163.173 164.019 162.891 164.019 162.543C164.019 162.196 175.772 161.914 190.275 161.914C204.773 161.914 216.528 162.196 216.528 162.543Z" fill="#455A64"/>
<path d="M216.528 171.851C216.528 172.2 204.773 172.481 190.275 172.481C175.772 172.481 164.019 172.199 164.019 171.851C164.019 171.504 175.772 171.222 190.275 171.222C204.773 171.222 216.528 171.503 216.528 171.851Z" fill="#856AC8"/>
<path d="M251.378 137.342C251.378 137.691 245.188 137.972 237.554 137.972C229.918 137.972 223.729 137.69 223.729 137.342C223.729 136.995 229.918 136.713 237.554 136.713C245.188 136.713 251.378 136.995 251.378 137.342Z" fill="#455A64"/>
<path d="M299.33 153.236C299.33 153.585 295.204 153.866 290.114 153.866C285.023 153.866 280.897 153.584 280.897 153.236C280.897 152.889 285.023 152.607 290.114 152.607C295.204 152.607 299.33 152.888 299.33 153.236Z" fill="#455A64"/>
<path d="M304.262 118.384C304.262 118.732 293.641 119.013 280.542 119.013C267.439 119.013 256.82 118.731 256.82 118.384C256.82 118.036 267.438 117.754 280.542 117.754C293.64 117.754 304.262 118.036 304.262 118.384Z" fill="#455A64"/>
<path d="M302.12 127.46C302.12 127.808 284.57 128.089 262.926 128.089C241.274 128.089 223.728 127.807 223.728 127.46C223.728 127.112 241.274 126.83 262.926 126.83C284.57 126.83 302.12 127.112 302.12 127.46Z" fill="#455A64"/>
<path d="M299.33 162.543C299.33 162.892 282.35 163.173 261.407 163.173C240.458 163.173 223.481 162.891 223.481 162.543C223.481 162.196 240.458 161.914 261.407 161.914C282.349 161.914 299.33 162.196 299.33 162.543Z" fill="#455A64"/>
<path d="M299.33 189.49C299.33 189.837 283.396 190.119 263.745 190.119C244.087 190.119 228.156 189.837 228.156 189.49C228.156 189.142 244.086 188.86 263.745 188.86C283.396 188.859 299.33 189.142 299.33 189.49Z" fill="#856AC8"/>
<path d="M299.33 198.548C299.33 198.896 283.396 199.177 263.745 199.177C244.087 199.177 228.156 198.895 228.156 198.548C228.156 198.201 244.086 197.918 263.745 197.918C283.396 197.918 299.33 198.201 299.33 198.548Z" fill="#455A64"/>
<path d="M299.33 207.607C299.33 207.955 283.396 208.236 263.745 208.236C244.087 208.236 228.156 207.954 228.156 207.607C228.156 207.259 244.086 206.977 263.745 206.977C283.396 206.977 299.33 207.259 299.33 207.607Z" fill="#455A64"/>
<path d="M299.33 216.665C299.33 217.012 283.396 217.294 263.745 217.294C244.087 217.294 228.156 217.012 228.156 216.665C228.156 216.317 244.086 216.035 263.745 216.035C283.396 216.035 299.33 216.317 299.33 216.665Z" fill="#455A64"/>
<path d="M269.13 225.724C269.13 225.898 266.837 226.055 263.129 226.169C259.422 226.283 254.3 226.354 248.644 226.354C242.985 226.354 237.864 226.284 234.156 226.169C230.449 226.056 228.156 225.898 228.156 225.724C228.156 225.55 230.449 225.392 234.156 225.279C237.864 225.165 242.985 225.094 248.644 225.094C254.3 225.094 259.422 225.164 263.129 225.279C266.837 225.392 269.13 225.55 269.13 225.724Z" fill="#455A64"/>
<path d="M286.434 172.338C286.434 172.686 272.71 172.968 255.783 172.968C238.851 172.968 225.13 172.686 225.13 172.338C225.13 171.991 238.851 171.709 255.783 171.709C272.71 171.709 286.434 171.991 286.434 172.338Z" fill="#455A64"/>
<path d="M215.286 190.512L219.062 260.435L150.694 268.998L150.64 189.919L215.286 190.512Z" fill="#8469C7"/>
<path d="M126.756 185.653L126.282 259.831L219.064 260.425L219.539 186.247L126.756 185.653Z" fill="#F5F5F5"/>
<path d="M129.926 190.344L129.511 255.182L215.775 255.734L216.19 190.896L129.926 190.344Z" fill="#856AC8"/>
<g opacity="0.2">
<path d="M129.51 255.19L159.898 215.082L178.4 240.416L191.145 227.018L215.772 255.744L129.51 255.19Z" fill="black"/>
</g>
<g opacity="0.2">
<path d="M186.516 210.315C186.492 214.066 183.432 217.088 179.68 217.064C175.929 217.04 172.908 213.979 172.932 210.228C172.956 206.477 176.017 203.455 179.768 203.479C183.52 203.504 186.541 206.564 186.516 210.315Z" fill="black"/>
</g>
<path d="M227.998 277.937C227.998 278.73 227.356 279.372 226.563 279.372C225.771 279.372 225.129 278.73 225.129 277.937C225.129 277.145 225.771 276.503 226.563 276.503C227.356 276.503 227.998 277.145 227.998 277.937Z" fill="#263238"/>
<path d="M236.512 277.937C236.512 278.729 235.87 279.372 235.077 279.372C234.285 279.372 233.643 278.729 233.643 277.937C233.643 277.145 234.285 276.503 235.077 276.503C235.87 276.503 236.512 277.145 236.512 277.937Z" fill="#263238"/>
<path d="M245.025 277.937C245.025 278.729 244.383 279.372 243.591 279.372C242.798 279.372 242.156 278.729 242.156 277.937C242.156 277.145 242.798 276.503 243.591 276.503C244.383 276.503 245.025 277.145 245.025 277.937Z" fill="#263238"/>
<path d="M276.389 244.6C276.389 244.947 264.633 245.229 250.136 245.229C235.633 245.229 223.88 244.947 223.88 244.6C223.88 244.252 235.633 243.97 250.136 243.97C264.633 243.97 276.389 244.252 276.389 244.6Z" fill="#856AC8"/>
<path d="M299.729 253.908C299.729 254.256 282.749 254.537 261.806 254.537C240.857 254.537 223.88 254.255 223.88 253.908C223.88 253.56 240.857 253.278 261.806 253.278C282.749 253.278 299.729 253.56 299.729 253.908Z" fill="#455A64"/>
<path d="M466.595 269.396L466.309 314.078L522.198 314.435L522.483 269.754L466.595 269.396Z" fill="#F5F5F5"/>
<path d="M468.503 272.221L468.253 311.277L520.215 311.609L520.465 272.554L468.503 272.221Z" fill="#856AC8"/>
<path opacity="0.2" d="M468.259 311.295L486.563 287.135L497.708 302.395L505.385 294.325L520.22 311.628L468.259 311.295Z" fill="black"/>
<g opacity="0.2">
<path d="M502.597 284.264C502.582 286.524 500.739 288.344 498.479 288.329C496.219 288.315 494.399 286.471 494.414 284.211C494.428 281.952 496.272 280.132 498.532 280.146C500.791 280.161 502.611 282.005 502.597 284.264Z" fill="black"/>
</g>
<path d="M458.398 264.731L458.112 309.412L514.001 309.769L514.287 265.088L458.398 264.731Z" fill="#F5F5F5"/>
<path d="M460.308 267.555L460.058 306.611L512.02 306.944L512.27 267.888L460.308 267.555Z" fill="#856AC8"/>
<path opacity="0.2" d="M460.063 306.629L478.367 282.47L489.512 297.73L497.189 289.66L512.024 306.963L460.063 306.629Z" fill="black"/>
<g opacity="0.2">
<path d="M494.401 279.598C494.386 281.858 492.543 283.678 490.283 283.663C488.023 283.649 486.204 281.806 486.218 279.546C486.233 277.286 488.076 275.466 490.336 275.48C492.596 275.495 494.415 277.339 494.401 279.598Z" fill="black"/>
</g>
<path d="M451.1 260.875L450.814 305.557L506.703 305.914L506.989 261.233L451.1 260.875Z" fill="#F5F5F5"/>
<path d="M453.009 263.701L452.759 302.757L504.721 303.089L504.971 264.034L453.009 263.701Z" fill="#856AC8"/>
<path opacity="0.2" d="M452.765 302.773L471.069 278.614L482.214 293.874L489.891 285.804L504.725 303.107L452.765 302.773Z" fill="black"/>
<g opacity="0.2">
<path d="M487.102 275.742C487.088 278.002 485.245 279.822 482.985 279.808C480.725 279.793 478.905 277.95 478.92 275.69C478.934 273.43 480.777 271.61 483.037 271.625C485.297 271.639 487.117 273.483 487.102 275.742Z" fill="black"/>
</g>
<path d="M442.905 265.675L442.619 310.356L498.508 310.713L498.794 266.032L442.905 265.675Z" fill="#F5F5F5"/>
<path d="M444.814 268.5L444.564 307.556L496.526 307.888L496.776 268.833L444.814 268.5Z" fill="#455A64"/>
<path opacity="0.2" d="M444.568 307.573L462.873 283.413L474.018 298.673L481.695 290.602L496.53 307.906L444.568 307.573Z" fill="black"/>
<g opacity="0.2">
<path d="M478.907 280.542C478.892 282.802 477.049 284.622 474.789 284.607C472.529 284.592 470.709 282.749 470.724 280.489C470.738 278.229 472.581 276.41 474.841 276.424C477.101 276.439 478.921 278.282 478.907 280.542Z" fill="black"/>
</g>
<path d="M531.065 282.307H498.798V325.448H531.065V282.307Z" fill="#263238"/>
<path d="M437.003 282.307V325.448H501.535V282.307H437.003ZM476.129 292.517H462.41C460.769 292.517 459.44 291.188 459.44 289.548C459.44 287.907 460.77 286.578 462.41 286.578H476.129C477.769 286.578 479.098 287.907 479.098 289.548C479.098 291.187 477.769 292.517 476.129 292.517Z" fill="#856AC8"/>
<path d="M395.16 320.939L335.152 317.264C334.774 316.406 334.521 315.906 334.521 315.906L318.257 316.23L312.965 315.906C312.965 315.906 312.885 316.067 312.756 316.339L258.161 317.427C247.276 317.427 235.832 324.068 235.833 332.553C235.695 340.63 239.606 349.395 249.359 349.197L323.744 348.947L398.129 349.197C407.882 349.395 410.461 343.514 410.476 336.538C411.615 323.543 403.475 321.047 395.16 320.939Z" fill="#455A64"/>
<path d="M256.185 349.201C256.185 349.201 256.306 349.187 256.543 349.18C256.798 349.175 257.147 349.169 257.595 349.16C258.539 349.151 259.901 349.138 261.647 349.122C265.189 349.107 270.291 349.084 276.615 349.057C289.305 349.04 306.892 349.017 326.562 348.99L326.353 349.213C326.251 347.582 326.142 345.837 326.032 344.078C325.808 340.48 325.588 336.94 325.379 333.573L325.563 333.767C307.293 331.734 291.149 329.938 279.551 328.647C273.777 327.986 269.135 327.455 265.917 327.086C264.333 326.897 263.1 326.749 262.244 326.646C261.839 326.594 261.524 326.553 261.293 326.523C261.079 326.493 260.97 326.475 260.971 326.468C260.972 326.462 261.082 326.467 261.297 326.484C261.53 326.505 261.846 326.533 262.252 326.57C263.111 326.655 264.346 326.778 265.934 326.937C269.155 327.276 273.802 327.764 279.582 328.372C291.184 329.628 307.333 331.376 325.608 333.353L325.782 333.372L325.794 333.547C326.005 336.913 326.226 340.453 326.451 344.052C326.561 345.81 326.67 347.555 326.771 349.186L326.785 349.409H326.562C306.892 349.383 289.306 349.36 276.615 349.343C270.292 349.315 265.189 349.293 261.647 349.277C259.901 349.261 258.539 349.248 257.595 349.24C257.147 349.231 256.798 349.224 256.543 349.219C256.306 349.215 256.185 349.201 256.185 349.201Z" fill="#263238"/>
<path d="M271.523 327.862C271.477 327.918 270.73 327.317 269.42 326.518C268.113 325.716 266.203 324.767 263.957 324.117C261.707 323.474 259.586 323.264 258.052 323.248C256.517 323.228 255.566 323.341 255.557 323.27C255.553 323.241 255.787 323.188 256.216 323.117C256.644 323.04 257.272 322.979 258.049 322.951C259.603 322.891 261.778 323.057 264.073 323.713C266.365 324.376 268.296 325.39 269.58 326.267C270.224 326.704 270.724 327.089 271.045 327.382C271.37 327.671 271.541 327.84 271.523 327.862Z" fill="#263238"/>
<path d="M390.502 324.669C390.528 324.782 378.692 327.644 364.069 331.061C349.441 334.479 337.565 337.158 337.538 337.045C337.511 336.932 349.345 334.071 363.973 330.652C378.597 327.236 390.475 324.557 390.502 324.669Z" fill="#263238"/>
<path d="M380.494 323.513C380.533 323.644 378.207 324.113 375.856 325.733C373.484 327.325 372.195 329.317 372.088 329.232C372.046 329.205 372.309 328.675 372.894 327.92C373.477 327.166 374.411 326.211 375.62 325.386C376.831 324.565 378.062 324.046 378.977 323.781C379.894 323.515 380.485 323.465 380.494 323.513Z" fill="#263238"/>
<path d="M358.157 255.384L377.164 288.472C379.511 292.558 379.655 297.547 377.549 301.762C375.103 306.653 370.044 309.682 364.578 309.528L335.391 308.704L334.622 298.091L360.328 293.168L342.997 263.172L358.157 255.384Z" fill="#FFBE9D"/>
<path d="M287.316 312.005L314.154 319.115L314.738 311.067L290.005 296.701L308.068 263.172L292.908 255.384L273.9 288.472C269.299 297.018 273.598 307.642 282.847 310.585L287.316 312.005Z" fill="#FFBE9D"/>
<path d="M350.087 276.628L368.431 266.968C368.431 266.968 365.378 260.507 360.572 253.863C354.888 246.005 346.079 240.511 336.075 238.42L336.074 238.42L314.974 238.669C311.965 238.993 309.505 239.567 307.449 240.401L307.465 240.319C296.014 242.844 283.307 267.819 283.307 267.819L300 276.607L300.369 279.233C300.855 282.689 302.365 285.937 304.72 288.589L299.858 320.561L354.035 321.681L347.137 298.785L350.087 276.628Z" fill="#856AC8"/>
<path d="M305.21 288.764C305.195 288.781 304.895 288.581 304.403 288.153C303.908 287.729 303.242 287.048 302.56 286.093C301.2 284.199 299.985 280.995 300.3 277.376C300.554 275.593 301.061 273.976 301.539 272.516C302.025 271.058 302.517 269.767 302.947 268.69C303.377 267.612 303.747 266.75 304.016 266.16C304.285 265.57 304.451 265.251 304.478 265.262C304.504 265.273 304.39 265.613 304.168 266.222C303.915 266.91 303.599 267.772 303.225 268.795C302.832 269.883 302.37 271.181 301.908 272.636C301.454 274.09 300.963 275.707 300.718 277.428C300.554 279.136 300.783 280.834 301.174 282.28C301.563 283.741 302.191 284.966 302.808 285.927C304.085 287.837 305.278 288.695 305.21 288.764Z" fill="#263238"/>
<path d="M297.089 328.282L294.03 292.621H360.023L355.649 328.726L297.089 328.282Z" fill="#263238"/>
<path d="M331.229 311.639C331.229 313.959 329.348 315.841 327.027 315.841C324.706 315.841 322.825 313.96 322.825 311.639C322.825 309.318 324.706 307.437 327.027 307.437C329.347 307.437 331.229 309.318 331.229 311.639Z" fill="#FAFAFA"/>
<path d="M325.872 335.249L337.076 336.812V348.992L326.771 348.726L325.872 335.249Z" fill="#FFBE9D"/>
<path d="M337.076 336.812H342.113C343.094 336.812 344.057 337.07 344.906 337.561L347.563 339.095C348.433 339.598 351.247 341.001 352.205 341.309C355.268 342.293 360.421 343.618 361.506 344.454C364.605 346.844 363.663 349.67 361.961 349.965C360.466 350.224 337.076 348.991 337.076 348.991V336.812Z" fill="#856AC8"/>
<path d="M345.352 347.985C345.245 348.009 344.859 346.605 344.809 344.819C344.751 343.034 345.052 341.608 345.161 341.627C345.282 341.643 345.171 343.062 345.228 344.807C345.277 346.552 345.471 347.962 345.352 347.985Z" fill="#263238"/>
<path d="M347.741 347.918C347.625 347.917 347.542 346.615 347.554 345.01C347.567 343.405 347.671 342.105 347.787 342.105C347.903 342.106 347.987 343.408 347.974 345.013C347.961 346.618 347.857 347.919 347.741 347.918Z" fill="#263238"/>
<path d="M350.565 348.401C350.449 348.41 350.251 347.075 350.121 345.42C349.992 343.765 349.981 342.416 350.097 342.407C350.212 342.398 350.411 343.732 350.541 345.387C350.669 347.043 350.681 348.392 350.565 348.401Z" fill="#263238"/>
<path d="M343.171 344.743C343.164 344.764 342.783 344.688 342.138 344.418C341.496 344.148 340.581 343.679 339.622 342.863C339.383 342.658 339.141 342.434 338.902 342.188C338.666 341.94 338.411 341.658 338.259 341.279C338.107 340.902 338.104 340.411 338.4 340.028C338.549 339.837 338.789 339.711 339.026 339.684C339.265 339.653 339.493 339.696 339.705 339.76C341.338 340.316 342.742 341.922 342.998 343.898C343.245 345.895 342.172 347.754 340.76 348.684C340.407 348.913 340.033 349.124 339.605 349.202C339.394 349.239 339.169 349.243 338.948 349.171C338.725 349.096 338.538 348.929 338.439 348.723C338.244 348.283 338.417 347.866 338.587 347.563C338.768 347.244 339.014 347.003 339.235 346.785C340.145 345.904 341.066 345.423 341.711 345.163C342.363 344.904 342.749 344.845 342.754 344.868C342.764 344.901 342.396 345.013 341.777 345.312C341.165 345.611 340.294 346.12 339.444 346.994C339.232 347.216 339.015 347.443 338.87 347.721C338.72 347.99 338.626 348.327 338.751 348.569C338.873 348.827 339.195 348.913 339.538 348.839C339.877 348.775 340.217 348.583 340.544 348.363C341.834 347.493 342.81 345.761 342.582 343.95C342.357 342.147 341.048 340.643 339.588 340.129C339.234 340.007 338.871 340.025 338.687 340.262C338.494 340.497 338.469 340.864 338.585 341.155C338.835 341.757 339.391 342.223 339.817 342.64C341.662 344.269 343.218 344.66 343.171 344.743Z" fill="#263238"/>
<path d="M361.961 349.965C361.926 349.928 362.295 349.766 362.575 349.2C362.86 348.642 362.805 347.646 362.245 346.66C361.696 345.671 360.556 344.814 359.133 344.314C357.709 343.801 356.01 343.554 354.295 343.019C350.853 341.993 347.945 340.488 345.972 339.227C344.984 338.597 344.22 338.033 343.705 337.63C343.194 337.221 342.924 336.978 342.941 336.956C342.96 336.932 343.263 337.13 343.801 337.498C344.344 337.858 345.128 338.382 346.129 338.974C348.125 340.161 351.018 341.603 354.416 342.617C356.104 343.145 357.787 343.398 359.268 343.951C360.743 344.491 361.948 345.428 362.507 346.518C363.071 347.584 363.084 348.678 362.722 349.275C362.552 349.574 362.346 349.748 362.203 349.848C362.052 349.941 361.967 349.976 361.961 349.965Z" fill="#263238"/>
<path d="M354.332 247.174C354.337 247.175 354.337 247.233 354.331 247.346C354.321 247.48 354.309 247.644 354.294 247.849C354.251 248.319 354.191 248.968 354.116 249.797C353.942 251.527 353.693 254.003 353.381 257.113L353.363 257.302L353.194 257.213C350.494 255.791 347.194 254.054 343.465 252.091L343.695 252.027C342.092 254.732 340.307 257.744 338.411 260.943L338.298 261.134L338.121 260.999C335.34 258.866 332.338 256.563 329.222 254.175L329.478 254.173C328.241 255.143 326.929 256.171 325.601 257.211C323.807 258.616 322.042 259.998 320.317 261.349L320.123 261.501L320.006 261.285C318.252 258.039 316.565 254.918 314.972 251.972L315.224 252.057C311.344 253.786 307.759 255.383 304.549 256.814L304.353 256.901L304.317 256.691C303.696 253.032 303.156 249.847 302.706 247.196L302.871 247.288C300.268 248.281 298.204 249.069 296.758 249.619C296.069 249.875 295.527 250.075 295.132 250.221C294.962 250.281 294.824 250.329 294.711 250.368C294.616 250.399 294.567 250.412 294.565 250.408C294.562 250.402 294.608 250.379 294.699 250.337C294.809 250.289 294.943 250.23 295.109 250.158C295.498 249.998 296.031 249.778 296.712 249.498C298.147 248.921 300.198 248.098 302.783 247.061L302.921 247.006L302.947 247.153C303.422 249.801 303.991 252.979 304.646 256.633L304.415 256.51C307.619 255.064 311.195 253.448 315.066 251.699L315.231 251.625L315.318 251.785C316.918 254.727 318.612 257.845 320.374 261.086L320.063 261.021C321.787 259.67 323.551 258.287 325.344 256.88C326.672 255.84 327.984 254.812 329.221 253.843L329.349 253.743L329.477 253.843C332.588 256.238 335.585 258.546 338.362 260.685L338.073 260.741C339.983 257.551 341.782 254.547 343.398 251.849L343.483 251.706L343.629 251.784C347.342 253.779 350.627 255.542 353.314 256.987L353.127 257.086C353.489 253.981 353.778 251.509 353.979 249.782C354.083 248.956 354.165 248.31 354.224 247.841C354.253 247.639 354.276 247.475 354.295 247.343C354.313 247.23 354.326 247.174 354.332 247.174Z" fill="#F5F5F5"/>
<path d="M362.163 256.147C362.169 256.148 362.154 256.228 362.118 256.383C362.075 256.557 362.02 256.783 361.949 257.067C361.785 257.692 361.555 258.573 361.259 259.704C360.635 262.022 359.738 265.353 358.618 269.51L358.576 269.669L358.426 269.597C355.193 268.046 351.34 266.196 347.057 264.14L347.28 264.082C344.376 268.223 341.148 272.827 337.704 277.739L337.564 277.939L337.392 277.765C334.468 274.801 331.372 271.664 328.189 268.437C327.541 267.779 326.896 267.125 326.257 266.477L326.517 266.508C322.202 269.214 318.04 271.824 314.115 274.285L313.937 274.397L313.834 274.215C311.439 269.985 309.195 266.021 307.148 262.406L307.358 262.485C302.453 264.174 298.144 265.657 294.605 266.875L294.484 266.917L294.443 266.797C293.235 263.295 292.278 260.517 291.613 258.59C291.299 257.655 291.054 256.927 290.88 256.409C290.806 256.176 290.746 255.989 290.699 255.844C290.661 255.717 290.644 255.652 290.649 255.649C290.655 255.647 290.683 255.709 290.733 255.832C290.788 255.975 290.858 256.156 290.946 256.385C291.135 256.899 291.401 257.619 291.742 258.545C292.433 260.462 293.427 263.227 294.683 266.713L294.52 266.634C298.05 265.392 302.35 263.877 307.242 262.155L307.379 262.107L307.452 262.234C309.512 265.842 311.77 269.797 314.181 274.019L313.901 273.948C317.823 271.481 321.981 268.866 326.293 266.154L326.436 266.065L326.554 266.185C327.194 266.833 327.838 267.486 328.486 268.144C331.667 271.373 334.761 274.514 337.681 277.479L337.37 277.505C340.829 272.604 344.072 268.01 346.989 263.878L347.076 263.754L347.211 263.82C351.48 265.903 355.321 267.777 358.544 269.35L358.352 269.437C359.523 265.294 360.461 261.974 361.114 259.664C361.439 258.542 361.693 257.666 361.873 257.046C361.958 256.766 362.026 256.543 362.078 256.371C362.129 256.222 362.157 256.145 362.163 256.147Z" fill="#F5F5F5"/>
<path d="M354.033 199.923C350.811 200.281 347.457 199.223 345.025 197.079C347.961 198.562 351.873 196.527 352.906 193.405C353.939 190.283 353.092 184.473 350.528 182.412C348.09 180.452 344.707 179.701 341.685 180.51C338.662 181.319 335.46 185.914 334.471 188.883L334.527 188.973C334.062 188.788 333.594 188.615 333.121 188.457C329.774 187.332 326.198 186.788 322.69 187.194C319.183 187.601 315.748 188.995 313.156 191.393L333.649 224.333C337.372 224.005 340.669 221.494 342.62 218.307C344.57 215.12 345.319 211.328 345.502 207.595C345.548 206.66 345.546 205.713 345.507 204.767C347.704 205.12 349.901 205.473 352.098 205.827C350.922 204.244 349.421 202.903 347.716 201.91C349.942 202.758 352.695 201.892 354.033 199.923Z" fill="#263238"/>
<path d="M328.129 251.046C333.688 250.927 338.15 246.42 338.214 240.86L338.691 199.879C338.724 198.186 337.457 196.749 335.772 196.571L318.463 192.196C312.919 191.609 309.233 198.436 308.882 203.999C308.493 210.18 308.261 217.742 308.994 222.354C310.466 231.627 317.574 232.807 317.574 232.807C317.575 232.783 317.579 236.396 317.6 240.79C317.628 246.55 322.372 251.17 328.129 251.046Z" fill="#FFBE9D"/>
<path d="M312.479 210.001C312.457 210.629 312.97 211.166 313.626 211.201C314.28 211.236 314.829 210.757 314.851 210.129C314.873 209.501 314.36 208.964 313.706 208.928C313.05 208.893 312.5 209.373 312.479 210.001Z" fill="#263238"/>
<path d="M310.523 207.932C310.67 208.088 311.571 207.42 312.851 207.424C314.129 207.408 315.068 208.067 315.208 207.91C315.276 207.841 315.125 207.561 314.717 207.263C314.315 206.967 313.628 206.678 312.83 206.682C312.033 206.686 311.362 206.98 310.977 207.28C310.583 207.582 310.45 207.863 310.523 207.932Z" fill="#263238"/>
<path d="M324.653 210.001C324.631 210.629 325.145 211.166 325.8 211.201C326.455 211.236 327.003 210.757 327.026 210.129C327.049 209.501 326.534 208.964 325.88 208.928C325.225 208.893 324.675 209.373 324.653 210.001Z" fill="#263238"/>
<path d="M323.102 208.171C323.249 208.325 324.152 207.659 325.43 207.662C326.709 207.647 327.648 208.305 327.787 208.149C327.855 208.08 327.706 207.8 327.296 207.502C326.893 207.205 326.207 206.917 325.41 206.92C324.613 206.925 323.942 207.218 323.556 207.518C323.164 207.821 323.03 208.101 323.102 208.171Z" fill="#263238"/>
<path d="M318.458 217.663C318.464 217.59 317.668 217.452 316.379 217.288C316.053 217.254 315.743 217.19 315.688 216.966C315.611 216.73 315.747 216.378 315.906 215.998C316.213 215.207 316.535 214.378 316.873 213.51C318.215 209.967 319.186 207.053 319.043 207.001C318.9 206.948 317.695 209.776 316.354 213.32C316.03 214.194 315.722 215.026 315.428 215.823C315.304 216.195 315.091 216.617 315.258 217.106C315.346 217.35 315.586 217.527 315.796 217.584C316.005 217.647 316.189 217.651 316.351 217.661C317.648 217.73 318.453 217.735 318.458 217.663Z" fill="#263238"/>
<path d="M317.574 232.806C317.574 232.806 323.813 233.208 329.994 229.493C329.994 229.493 326.98 235.863 317.699 234.995L317.574 232.806Z" fill="#EB996E"/>
<path d="M318.999 220.746C319.459 220.138 320.266 219.803 321.066 219.889C321.621 219.949 322.182 220.216 322.52 220.669C322.858 221.121 322.928 221.763 322.621 222.194C322.277 222.68 321.554 222.792 320.943 222.618C320.333 222.445 319.807 222.043 319.308 221.642C319.17 221.531 319.029 221.416 318.942 221.264C318.856 221.113 318.838 220.914 318.944 220.788" fill="#EB996E"/>
<path d="M322.224 218.548C322.016 218.535 322.013 219.925 320.824 220.911C319.637 221.899 318.157 221.744 318.146 221.938C318.127 222.025 318.476 222.208 319.101 222.225C319.714 222.246 320.61 222.049 321.337 221.446C322.062 220.841 322.374 220.034 322.422 219.465C322.474 218.884 322.319 218.539 322.224 218.548Z" fill="#263238"/>
<path d="M322.526 205.93C322.653 206.278 323.93 206.113 325.432 206.295C326.937 206.445 328.148 206.885 328.347 206.573C328.436 206.423 328.224 206.096 327.735 205.759C327.25 205.422 326.476 205.103 325.575 205.003C324.673 204.904 323.847 205.047 323.301 205.269C322.75 205.492 322.472 205.765 322.526 205.93Z" fill="#263238"/>
<path d="M310.701 205.571C310.926 205.862 311.807 205.559 312.868 205.546C313.928 205.494 314.826 205.741 315.033 205.437C315.123 205.289 314.982 204.999 314.589 204.723C314.203 204.449 313.556 204.225 312.828 204.247C312.099 204.27 311.468 204.534 311.099 204.831C310.725 205.13 310.602 205.429 310.701 205.571Z" fill="#263238"/>
<path d="M337.663 211.404C338.366 210.918 339.348 211.098 340.088 211.526C341.792 212.512 342.639 214.765 342.007 216.629C341.374 218.494 339.33 219.765 337.379 219.511" fill="#FFBE9D"/>
<path d="M338.311 216.744C338.338 216.678 338.671 216.823 339.119 216.617C339.559 216.442 339.961 215.791 339.914 215.033C339.888 214.264 339.391 213.713 338.924 213.546C338.46 213.355 338.118 213.448 338.099 213.376C338.067 213.33 338.414 213.085 339.027 213.222C339.322 213.291 339.665 213.467 339.933 213.787C340.199 214.103 340.372 214.542 340.394 215.008C340.46 215.943 339.874 216.791 339.233 216.937C338.604 217.102 338.262 216.781 338.311 216.744Z" fill="#EB996E"/>
<path d="M340.846 218.621C340.858 218.606 341.005 218.711 341.27 218.921C341.581 219.174 341.956 219.481 342.406 219.848C343.432 220.72 344.793 221.876 346.407 223.247L346.542 223.361L346.428 223.498C344.938 225.288 343.278 227.528 341.412 229.869C340.99 230.397 340.568 230.913 340.157 231.397L339.814 231.801L339.791 231.272C339.622 227.496 339.492 224.154 339.418 221.754C339.391 220.613 339.368 219.666 339.351 218.927C339.343 218.263 339.352 217.898 339.379 217.897C339.405 217.896 339.448 218.258 339.502 218.92C339.553 219.657 339.618 220.603 339.696 221.741C339.845 224.138 340.025 227.477 340.207 231.253L339.841 231.128C340.24 230.642 340.659 230.129 341.085 229.608C342.944 227.275 344.626 225.045 346.158 223.269L346.179 223.519C344.603 222.103 343.275 220.907 342.274 220.006C341.849 219.609 341.494 219.278 341.201 219.004C340.958 218.768 340.834 218.635 340.846 218.621Z" fill="#455A64"/>
<path d="M322.093 188.142C319.823 188.237 317.536 188.333 315.331 188.881C313.127 189.429 310.984 190.467 309.484 192.173C307.985 193.879 307.221 196.32 307.869 198.497C308.517 200.674 310.752 202.379 313.003 202.078C314.713 201.849 316.352 200.584 318.002 201.087C319.56 201.561 320.419 203.463 322.021 203.76C323.603 204.052 325.011 202.632 326.614 202.493C328.382 202.34 329.917 203.791 330.704 205.382C331.492 206.972 331.79 208.77 332.581 210.359C333.086 211.375 333.871 212.348 334.969 212.632C335.978 212.892 337.075 212.502 337.86 211.819C338.646 211.135 339.16 210.191 339.554 209.228C341.224 205.128 340.862 200.258 338.605 196.451C336.348 192.643 332.249 189.988 327.852 189.485" fill="#263238"/>
<path d="M344.688 197.992C344.615 198.013 344.4 197.244 343.83 196.109C343.266 194.974 342.279 193.501 340.847 192.201C339.408 190.907 337.842 190.074 336.656 189.628C335.47 189.176 334.683 189.039 334.696 188.965C334.701 188.937 334.9 188.949 335.26 188.996C335.621 189.035 336.135 189.152 336.755 189.348C337.994 189.732 339.642 190.553 341.128 191.89C342.608 193.233 343.591 194.788 344.099 195.983C344.356 196.58 344.524 197.079 344.6 197.434C344.684 197.787 344.716 197.985 344.688 197.992Z" fill="#856AC8"/>
<path d="M351.782 184.407C351.745 184.482 350.968 183.971 349.548 183.715C348.148 183.447 346.074 183.555 344.109 184.534C342.143 185.52 340.758 187.034 339.905 188.191C339.045 189.359 338.644 190.176 338.58 190.143C338.556 190.131 338.628 189.914 338.801 189.54C338.973 189.166 339.254 188.638 339.662 188.021C340.468 186.798 341.866 185.19 343.922 184.158C345.984 183.131 348.168 183.069 349.607 183.425C350.334 183.596 350.893 183.834 351.254 184.039C351.616 184.241 351.794 184.386 351.782 184.407Z" fill="#455A64"/>
<path d="M342.865 195.303C342.912 195.302 342.988 196.032 342.88 197.211C342.774 198.387 342.436 200.006 341.721 201.671C341.001 203.334 340.056 204.692 339.273 205.577C338.491 206.465 337.908 206.91 337.877 206.876C337.767 206.786 339.947 204.783 341.335 201.505C342.765 198.246 342.725 195.285 342.865 195.303Z" fill="#455A64"/>
<path d="M343.133 195.5C343.16 195.492 343.239 195.679 343.359 196.031C343.487 196.38 343.615 196.904 343.722 197.56C343.943 198.869 343.968 200.746 343.472 202.728C342.967 204.709 342.053 206.349 341.237 207.396C340.83 207.923 340.469 208.322 340.191 208.569C339.919 208.821 339.76 208.949 339.739 208.929C339.686 208.876 340.261 208.296 340.996 207.222C341.732 206.154 342.574 204.546 343.064 202.625C343.546 200.703 343.568 198.888 343.428 197.598C343.292 196.305 343.061 195.521 343.133 195.5Z" fill="#455A64"/>
<path d="M367.521 197.614C365.179 198.353 364.163 201.691 365.699 203.609C367.233 205.526 370.713 205.268 371.947 203.144C373.181 201.02 371.683 197.868 369.257 197.485" fill="#EBEBEB"/>
<path d="M378.417 181.78C375.73 182.628 374.565 186.458 376.326 188.657C378.087 190.857 382.079 190.56 383.494 188.124C384.909 185.687 383.191 182.072 380.407 181.632" fill="#EBEBEB"/>
<path d="M401.687 111.981C394.396 111.365 387.021 112.993 382.022 118.335C377.022 123.677 374.639 131.361 375.737 138.595C367.982 141.817 363.754 151.679 366.767 159.517C369.779 167.356 379.523 171.847 387.44 169.047C390.998 178.064 399.542 184.922 409.115 186.446C418.688 187.97 428.939 184.103 435.12 176.636C442.726 178.356 451.262 178.243 457.652 173.774C464.042 169.305 466.934 159.472 462.064 153.382C470.825 151.248 475.278 140.306 472.68 131.671C470.082 123.036 462.304 116.839 453.997 113.331C448.507 111.011 441.662 109.801 436.978 113.485C433.229 107.717 426.594 103.932 419.721 103.637C412.847 103.346 405.914 106.553 401.687 111.981Z" fill="#F5F5F5"/>
<path d="M401.687 111.98C401.687 111.98 401.83 111.786 402.129 111.417C402.418 111.041 402.891 110.516 403.543 109.856C404.86 108.565 407.003 106.756 410.277 105.338C411.908 104.637 413.813 104.033 415.967 103.728C418.117 103.441 420.52 103.42 423.019 103.944C425.52 104.434 428.107 105.447 430.563 106.996C433.002 108.565 435.316 110.693 437.097 113.409L436.891 113.375C438.775 111.911 441.232 111.072 443.789 111.008C446.346 110.915 448.983 111.395 451.559 112.248C454.138 113.107 456.688 114.289 459.171 115.739C461.649 117.192 464.068 118.931 466.227 121.062C468.407 123.166 470.298 125.694 471.679 128.559C472.339 130.005 472.889 131.521 473.231 133.116C473.518 134.715 473.69 136.362 473.558 138.017C473.345 141.316 472.329 144.66 470.408 147.52C469.434 148.93 468.293 150.275 466.866 151.304C465.454 152.342 463.84 153.125 462.113 153.578L462.223 153.256C463.271 154.59 464.015 156.176 464.387 157.858C464.764 159.54 464.785 161.305 464.514 163.03C463.967 166.486 462.244 169.783 459.698 172.321C457.116 174.861 453.677 176.435 450.104 177.222C446.512 178.008 442.753 178.024 439.06 177.548C437.711 177.383 436.381 177.12 435.076 176.842L435.284 176.771C428.59 184.796 417.642 188.399 408.051 186.447C403.249 185.483 398.846 183.217 395.272 180.176C391.691 177.133 388.92 173.296 387.263 169.117L387.506 169.228C382.92 170.812 377.91 170.001 373.977 167.813C370.005 165.648 367.029 161.923 366.061 157.781C365.074 153.642 365.878 149.381 367.699 145.955C369.525 142.51 372.412 139.84 375.684 138.461L375.596 138.616C375.101 135.26 375.369 131.993 376.098 129.045C376.861 126.1 378.078 123.464 379.575 121.249C380.31 120.13 381.148 119.144 381.982 118.226C382.856 117.343 383.737 116.53 384.68 115.88C386.53 114.528 388.464 113.676 390.238 113.087C393.814 111.931 396.76 111.832 398.709 111.82C400.668 111.84 401.687 111.98 401.687 111.98C401.687 111.98 401.43 111.978 400.93 111.952C400.43 111.919 399.685 111.901 398.707 111.903C396.763 111.942 393.829 112.067 390.286 113.239C388.53 113.836 386.616 114.692 384.793 116.039C383.862 116.688 382.995 117.496 382.135 118.373C381.313 119.286 380.487 120.267 379.763 121.379C378.289 123.579 377.094 126.193 376.349 129.11C375.637 132.03 375.383 135.262 375.88 138.574L375.897 138.686L375.792 138.73C372.591 140.09 369.765 142.716 367.978 146.105C366.196 149.475 365.42 153.661 366.393 157.701C367.344 161.74 370.256 165.377 374.153 167.494C378.01 169.633 382.916 170.413 387.376 168.866L387.551 168.806L387.619 168.977C389.257 173.092 391.994 176.875 395.529 179.873C399.057 182.869 403.402 185.101 408.13 186.046C417.57 187.966 428.376 184.405 434.959 176.505L435.04 176.407L435.167 176.434C436.461 176.71 437.777 176.971 439.113 177.133C442.769 177.605 446.482 177.587 450.013 176.815C453.523 176.045 456.902 174.492 459.406 172.026C461.887 169.557 463.574 166.331 464.108 162.966C464.663 159.618 463.96 156.084 461.907 153.509L461.713 153.267L462.017 153.187C463.69 152.749 465.254 151.993 466.626 150.985C468.013 149.987 469.127 148.677 470.08 147.301C471.959 144.509 472.962 141.228 473.174 137.994C473.306 136.371 473.138 134.757 472.86 133.192C472.529 131.635 471.99 130.14 471.343 128.718C469.988 125.897 468.129 123.401 465.978 121.317C463.846 119.207 461.453 117.479 458.998 116.032C456.54 114.589 454.006 113.409 451.458 112.554C448.911 111.705 446.309 111.227 443.801 111.311C441.292 111.369 438.904 112.181 437.066 113.598L436.943 113.692L436.859 113.563C435.111 110.879 432.832 108.769 430.426 107.21C428.003 105.67 425.447 104.657 422.974 104.162C420.503 103.632 418.126 103.643 415.993 103.915C413.857 104.206 411.963 104.794 410.338 105.48C407.077 106.866 404.929 108.645 403.599 109.913C402.94 110.561 402.458 111.076 402.159 111.443C401.852 111.803 401.687 111.98 401.687 111.98Z" fill="#263238"/>
<path d="M451.523 137.104C451.523 137.452 437.231 137.733 419.604 137.733C401.971 137.733 387.683 137.451 387.683 137.104C387.683 136.756 401.972 136.474 419.604 136.474C437.231 136.474 451.523 136.756 451.523 137.104Z" fill="#455A64"/>
<path d="M451.523 144.03C451.523 144.378 437.231 144.659 419.604 144.659C401.971 144.659 387.683 144.377 387.683 144.03C387.683 143.682 401.972 143.4 419.604 143.4C437.231 143.4 451.523 143.682 451.523 144.03Z" fill="#455A64"/>
<path d="M451.523 150.955C451.523 151.304 437.231 151.585 419.604 151.585C401.971 151.585 387.683 151.303 387.683 150.955C387.683 150.608 401.972 150.326 419.604 150.326C437.231 150.326 451.523 150.608 451.523 150.955Z" fill="#455A64"/>
<path d="M451.523 157.882C451.523 158.229 437.231 158.511 419.604 158.511C401.971 158.511 387.683 158.229 387.683 157.882C387.683 157.534 401.972 157.252 419.604 157.252C437.231 157.252 451.523 157.534 451.523 157.882Z" fill="#455A64"/>
</svg>
