<svg width="410" height="408" viewBox="0 0 410 408" fill="none" xmlns="http://www.w3.org/2000/svg">
<mask id="mask0_43_1776" style="mask-type:luminance" maskUnits="userSpaceOnUse" x="34" y="0" width="352" height="395">
<path d="M174.739 394.601C168.559 394.601 162.471 394.352 156.496 393.859C133.995 391.995 88.7236 388.249 53.3749 354.82C46.1118 347.952 39.7468 340.285 34.2479 331.967C93.511 333.4 243.386 336.113 333.331 336.726C288.653 375.836 228.445 394.601 174.739 394.601ZM385.128 108.341C384.987 108.333 384.845 108.328 384.706 108.323C370.725 107.876 344.72 107.185 312.604 106.422L312.648 55.4599C312.648 50.4077 308.552 46.3103 303.5 46.3103H92.6799C119.491 24.6151 161.744 -3.05176e-05 215.698 -3.05176e-05C216.297 -3.05176e-05 216.893 0.00289917 217.495 0.00872803C283.583 0.676819 329.971 38.0107 335.612 42.6612C342.737 48.5373 358.453 62.4991 372.617 84.6484C377.415 92.1518 381.583 100.086 385.128 108.341ZM76.0176 102.214C65.2248 102.13 55.3028 102.083 46.4996 102.083C45.4677 102.083 44.4484 102.083 43.448 102.085C48.7397 93.4153 54.5723 85.1637 60.9303 77.4346C63.0041 74.9136 68.1194 68.8322 76.0176 61.1235V102.214Z" fill="white"/>
</mask>
<g mask="url(#mask0_43_1776)">
<path d="M174.739 394.601C168.559 394.601 162.471 394.352 156.496 393.859C133.995 391.995 88.7236 388.249 53.3749 354.82C46.1118 347.952 39.7468 340.285 34.2479 331.967C93.511 333.4 243.386 336.113 333.331 336.726C288.653 375.836 228.445 394.601 174.739 394.601ZM385.128 108.341C384.987 108.333 384.845 108.328 384.706 108.323C370.725 107.876 344.72 107.185 312.604 106.422L312.648 55.4599C312.648 50.4077 308.552 46.3103 303.5 46.3103H92.6799C119.491 24.6151 161.744 -3.05176e-05 215.698 -3.05176e-05C216.297 -3.05176e-05 216.893 0.00289917 217.495 0.00872803C283.583 0.676819 329.971 38.0107 335.612 42.6612C342.737 48.5373 358.453 62.4991 372.617 84.6484C377.415 92.1518 381.583 100.086 385.128 108.341ZM76.0176 102.214C65.2248 102.13 55.3028 102.083 46.4996 102.083C45.4677 102.083 44.4484 102.083 43.448 102.085C48.7397 93.4153 54.5723 85.1637 60.9303 77.4346C63.0041 74.9136 68.1194 68.8322 76.0176 61.1235V102.214Z" fill="url(#paint0_linear_43_1776)"/>
</g>
<mask id="mask1_43_1776" style="mask-type:luminance" maskUnits="userSpaceOnUse" x="163" y="317" width="104" height="63">
<path d="M172.54 317.983L163.687 379.079H266.399L253.021 317.983H172.54Z" fill="white"/>
</mask>
<g mask="url(#mask1_43_1776)">
<path d="M172.54 317.983L163.687 379.079H266.399L253.021 317.983H172.54Z" fill="url(#paint1_linear_43_1776)"/>
</g>
<mask id="mask2_43_1776" style="mask-type:luminance" maskUnits="userSpaceOnUse" x="0" y="102" width="410" height="235">
<path d="M365.432 336.851C356.005 336.851 345.186 336.806 333.331 336.726C243.386 336.113 93.5109 333.4 34.2479 331.966C31.6035 331.902 29.1451 331.841 26.8748 331.783C11.9206 331.397 0 319.165 0 304.204V122.359C0 111.457 8.70297 102.553 19.6022 102.309C25.8741 102.168 33.9354 102.098 43.4479 102.085C44.4483 102.083 45.4677 102.083 46.4995 102.083C55.3028 102.083 65.2248 102.13 76.0175 102.214V110.201L24.0361 109.151C23.9343 109.148 23.8314 109.147 23.7301 109.147C16.9456 109.147 11.4103 114.65 11.4103 121.474V294.24C11.4103 302.974 18.4212 310.091 27.1543 310.222L160.972 311.874L304.842 313.901V313.861L312.425 313.965V313.746L379.726 314.577C379.805 314.578 379.885 314.578 379.963 314.578C388.513 314.578 395.481 307.661 395.513 299.081L396.046 144.407L400.407 116.949C400.44 116.735 400.462 116.522 400.472 116.311C402.625 119.054 404.111 122.359 404.677 126.002C412.005 173.166 410.025 274.751 408.805 316.996C408.492 327.86 399.689 336.556 388.822 336.716C382.57 336.809 374.667 336.851 365.432 336.851ZM352.006 115.777L312.597 114.981L312.604 106.422C344.72 107.185 370.725 107.876 384.706 108.323C384.845 108.327 384.986 108.333 385.128 108.341C387.935 108.486 390.608 109.189 393.027 110.343L352.006 115.777Z" fill="white"/>
</mask>
<g mask="url(#mask2_43_1776)">
<path d="M365.432 336.851C356.005 336.851 345.186 336.806 333.331 336.726C243.386 336.113 93.5109 333.4 34.2479 331.966C31.6035 331.902 29.1451 331.841 26.8748 331.783C11.9206 331.397 0 319.165 0 304.204V122.359C0 111.457 8.70297 102.553 19.6022 102.309C25.8741 102.168 33.9354 102.098 43.4479 102.085C44.4483 102.083 45.4677 102.083 46.4995 102.083C55.3028 102.083 65.2248 102.13 76.0175 102.214V110.201L24.0361 109.151C23.9343 109.148 23.8314 109.147 23.7301 109.147C16.9456 109.147 11.4103 114.65 11.4103 121.474V294.24C11.4103 302.974 18.4212 310.091 27.1543 310.222L160.972 311.874L304.842 313.901V313.861L312.425 313.965V313.746L379.726 314.577C379.805 314.578 379.885 314.578 379.963 314.578C388.513 314.578 395.481 307.661 395.513 299.081L396.046 144.407L400.407 116.949C400.44 116.735 400.462 116.522 400.472 116.311C402.625 119.054 404.111 122.359 404.677 126.002C412.005 173.166 410.025 274.751 408.805 316.996C408.492 327.86 399.689 336.556 388.822 336.716C382.57 336.809 374.667 336.851 365.432 336.851ZM352.006 115.777L312.597 114.981L312.604 106.422C344.72 107.185 370.725 107.876 384.706 108.323C384.845 108.327 384.986 108.333 385.128 108.341C387.935 108.486 390.608 109.189 393.027 110.343L352.006 115.777Z" fill="url(#paint2_linear_43_1776)"/>
</g>
<mask id="mask3_43_1776" style="mask-type:luminance" maskUnits="userSpaceOnUse" x="11" y="109" width="386" height="206">
<path d="M379.963 314.578C379.885 314.578 379.805 314.578 379.726 314.577L312.425 313.746L312.597 114.981L352.006 115.777L341.515 117.167C338.745 117.534 336.621 119.809 336.445 122.596L333.387 171.042C333.177 174.374 335.791 177.205 339.128 177.26L385.618 178.024C385.65 178.026 385.682 178.026 385.716 178.026C388.586 178.026 391.04 175.938 391.492 173.094L396.046 144.406L395.513 299.081C395.481 307.661 388.513 314.578 379.963 314.578ZM160.972 311.874L27.1544 310.222C18.4213 310.091 11.4104 302.974 11.4104 294.24V121.474C11.4104 114.65 16.9456 109.147 23.7302 109.147C23.8315 109.147 23.9344 109.148 24.0361 109.151L76.0176 110.201V310.677L83.0106 310.773V310.776L160.972 311.874Z" fill="white"/>
</mask>
<g mask="url(#mask3_43_1776)">
<path d="M379.963 314.578C379.885 314.578 379.805 314.578 379.726 314.577L312.425 313.746L312.597 114.981L352.006 115.777L341.515 117.167C338.745 117.534 336.621 119.809 336.445 122.596L333.387 171.042C333.177 174.374 335.791 177.205 339.128 177.26L385.618 178.024C385.65 178.026 385.682 178.026 385.716 178.026C388.586 178.026 391.04 175.938 391.492 173.094L396.046 144.406L395.513 299.081C395.481 307.661 388.513 314.578 379.963 314.578ZM160.972 311.874L27.1544 310.222C18.4213 310.091 11.4104 302.974 11.4104 294.24V121.474C11.4104 114.65 16.9456 109.147 23.7302 109.147C23.8315 109.147 23.9344 109.148 24.0361 109.151L76.0176 110.201V310.677L83.0106 310.773V310.776L160.972 311.874Z" fill="url(#paint3_linear_43_1776)"/>
</g>
<path d="M398.168 321.658H398.159L11.4019 315.067C11.1319 315.063 10.9168 314.84 10.9215 314.571C10.926 314.3 11.1516 314.095 11.4187 314.091L398.175 320.68C398.446 320.684 398.662 320.907 398.657 321.176C398.651 321.444 398.435 321.658 398.168 321.658Z" fill="#91B3FA"/>
<path d="M208.604 321.658C206.655 321.658 205.068 323.243 205.068 325.194C205.068 327.143 206.655 328.728 208.604 328.728C210.553 328.728 212.14 327.143 212.14 325.194C212.14 323.243 210.553 321.658 208.604 321.658ZM208.604 329.706C206.116 329.706 204.092 327.681 204.092 325.194C204.092 322.705 206.116 320.68 208.604 320.68C211.093 320.68 213.118 322.705 213.118 325.194C213.118 327.681 211.093 329.706 208.604 329.706Z" fill="#91B3FA"/>
<mask id="mask4_43_1776" style="mask-type:luminance" maskUnits="userSpaceOnUse" x="131" y="373" width="165" height="23">
<path d="M288.523 395.324H138.197C134.113 395.324 131.046 392.416 131.835 389.294L133.765 381.665C134.344 379.37 136.868 377.686 139.866 377.593L284.787 373.07C287.919 372.973 290.692 374.635 291.375 377.019L294.852 389.17C295.755 392.327 292.673 395.324 288.523 395.324Z" fill="white"/>
</mask>
<g mask="url(#mask4_43_1776)">
<path d="M288.523 395.324H138.197C134.113 395.324 131.046 392.416 131.835 389.294L133.765 381.665C134.344 379.37 136.868 377.686 139.866 377.593L284.787 373.07C287.919 372.973 290.692 374.635 291.375 377.019L294.852 389.17C295.755 392.327 292.673 395.324 288.523 395.324Z" fill="url(#paint4_linear_43_1776)"/>
</g>
<path d="M219.121 379.658C218.854 379.658 218.636 379.444 218.632 379.176C218.627 378.906 218.843 378.684 219.113 378.68L225.323 378.59C225.583 378.591 225.815 378.802 225.819 379.071C225.823 379.342 225.608 379.563 225.337 379.568L219.128 379.658H219.121Z" fill="#91B3FA"/>
<path d="M137.401 391.116C137.374 391.116 137.348 391.115 137.322 391.111C137.056 391.068 136.875 390.818 136.917 390.552L137.804 385.003C138.278 382.022 140.815 379.826 143.834 379.782L209.701 378.818H209.709C209.975 378.818 210.193 379.032 210.198 379.3C210.201 379.569 209.985 379.792 209.716 379.795L143.849 380.759C141.306 380.796 139.169 382.645 138.769 385.156L137.882 390.704C137.845 390.946 137.636 391.116 137.401 391.116Z" fill="#91B3FA"/>
<path d="M312.425 313.966L76.0176 310.677V56.0888C76.0176 50.6887 80.3951 46.3103 85.7951 46.3103H303.5C308.552 46.3103 312.648 50.4077 312.648 55.46L312.425 313.966Z" fill="#91B3FA"/>
<path d="M304.842 313.901L83.0106 310.776V62.8339C83.0106 57.4818 87.2958 53.1442 92.581 53.1442H295.884C300.832 53.1442 304.842 57.2038 304.842 62.2124V313.901Z" fill="#BDD0FB"/>
<path d="M285.421 211.064H107.227C106.521 211.064 105.949 210.492 105.949 209.786V124.914C105.949 124.208 106.521 123.636 107.227 123.636H285.421C286.127 123.636 286.699 124.208 286.699 124.914V209.786C286.699 210.492 286.127 211.064 285.421 211.064Z" fill="#E2EBFD"/>
<path d="M294.527 246.151H94.8457C94.4949 246.151 94.2096 245.865 94.2096 245.515V227.431C94.2096 227.08 94.4949 226.795 94.8457 226.795H294.527C294.878 226.795 295.164 227.08 295.164 227.431V245.515C295.164 245.865 294.878 246.151 294.527 246.151Z" fill="#E2EBFD"/>
<path d="M293.755 278.224H94.8312C94.2708 278.224 93.8167 277.77 93.8167 277.21V259.885C93.8167 259.324 94.2708 258.869 94.8312 258.869H293.755C294.315 258.869 294.769 259.324 294.769 259.885V277.21C294.769 277.77 294.315 278.224 293.755 278.224Z" fill="#E2EBFD"/>
<path d="M294.06 308.146H95.428C94.7876 308.146 94.2679 307.626 94.2679 306.985V289.952C94.2679 289.311 94.7876 288.791 95.428 288.791H294.06C294.701 288.791 295.22 289.311 295.22 289.952V306.985C295.22 307.626 294.701 308.146 294.06 308.146Z" fill="#E2EBFD"/>
<mask id="mask5_43_1776" style="mask-type:luminance" maskUnits="userSpaceOnUse" x="23" y="218" width="70" height="90">
<path d="M23.4587 218.531C23.4587 218.531 48.8256 285.432 56.84 299.35C66.1431 315.506 93.3129 305.21 91.9607 291.69C90.6085 278.17 58.8651 222.287 58.8651 222.287L23.4587 218.531Z" fill="white"/>
</mask>
<g mask="url(#mask5_43_1776)">
<path d="M23.4587 218.531C23.4587 218.531 48.8256 285.432 56.84 299.35C66.1431 315.506 93.3129 305.21 91.9607 291.69C90.6085 278.17 58.8651 222.287 58.8651 222.287L23.4587 218.531Z" fill="url(#paint5_linear_43_1776)"/>
</g>
<mask id="mask6_43_1776" style="mask-type:luminance" maskUnits="userSpaceOnUse" x="53" y="115" width="163" height="149">
<path d="M57.7342 169.798L215.399 115.132L213.744 263.064L53.4254 227.294L57.7342 169.798Z" fill="white"/>
</mask>
<g mask="url(#mask6_43_1776)">
<path d="M57.7342 169.798L215.399 115.132L213.744 263.064L53.4254 227.294L57.7342 169.798Z" fill="url(#paint6_linear_43_1776)"/>
</g>
<path d="M231.037 189.528C231.037 231.515 224.103 265.552 215.547 265.552C206.993 265.552 200.058 231.515 200.058 189.528C200.058 147.542 206.993 113.505 215.547 113.505C224.103 113.505 231.037 147.542 231.037 189.528Z" fill="#7D97F4"/>
<mask id="mask7_43_1776" style="mask-type:luminance" maskUnits="userSpaceOnUse" x="205" y="117" width="23" height="144">
<path d="M216.723 260.353C215.323 258.929 212.274 253.436 209.659 239.232C207.131 225.505 205.74 207.7 205.74 189.098C205.74 170.496 207.131 152.693 209.659 138.966C212.274 124.762 215.323 119.269 216.723 117.845C218.123 119.269 221.173 124.762 223.789 138.966C226.315 152.693 227.707 170.496 227.707 189.098C227.707 207.7 226.315 225.505 223.789 239.232C221.173 253.436 218.123 258.929 216.723 260.353Z" fill="white"/>
</mask>
<g mask="url(#mask7_43_1776)">
<path d="M216.723 260.353C215.323 258.929 212.274 253.436 209.659 239.232C207.131 225.505 205.74 207.7 205.74 189.098C205.74 170.496 207.131 152.693 209.659 138.966C212.274 124.762 215.323 119.269 216.723 117.845C218.123 119.269 221.173 124.762 223.789 138.966C226.315 152.693 227.707 170.496 227.707 189.098C227.707 207.7 226.315 225.505 223.789 239.232C221.173 253.436 218.123 258.929 216.723 260.353Z" fill="url(#paint7_linear_43_1776)"/>
</g>
<mask id="mask8_43_1776" style="mask-type:luminance" maskUnits="userSpaceOnUse" x="205" y="117" width="42" height="144">
<path d="M216.723 260.353C215.323 258.929 212.274 253.436 209.659 239.231C207.131 225.505 205.74 207.7 205.74 189.098C205.74 170.496 207.131 152.693 209.659 138.966C212.274 124.762 215.323 119.269 216.723 117.845C218.123 119.269 221.173 124.762 223.789 138.966C226.315 152.693 246.257 170.496 246.257 189.098C246.257 207.7 226.315 225.505 223.789 239.231C221.173 253.436 218.123 258.929 216.723 260.353Z" fill="white"/>
</mask>
<g mask="url(#mask8_43_1776)">
<mask id="mask9_43_1776" style="mask-type:luminance" maskUnits="userSpaceOnUse" x="190" y="165" width="47" height="47">
<path d="M236.577 188.532C236.577 201.45 229.619 211.922 215.847 211.922C202.074 211.922 190.909 201.45 190.909 188.532C190.909 175.615 202.074 165.144 215.847 165.144C229.619 165.144 236.577 175.615 236.577 188.532Z" fill="white"/>
</mask>
<g mask="url(#mask9_43_1776)">
<path d="M215.305 211.93V211.916H214.84V211.901H214.476V211.887H214.243V211.872H213.995V211.858H213.792V211.843H213.617V211.828H213.442V211.814H213.282V211.799H213.137V211.785H213.006V211.77H212.875V211.756H212.729V211.741H212.613V211.727H212.496V211.712H212.394V211.697H212.278V211.683H212.161V211.668H212.059V211.654H211.958V211.639H211.87V211.625H211.768V211.61H211.681V211.596H211.579V211.581H211.492V211.566H211.404V211.552H211.317V211.537H211.244V211.523H211.157V211.508H211.07V211.494H210.997V211.479H210.91V211.465H210.837V211.45H210.764V211.435H210.691V211.421H210.618V211.406H210.546V211.392H210.473V211.377H210.4V211.363H210.327V211.348H210.255V211.334H210.196V211.319H210.124V211.304H210.065V211.29H210.007V211.275H209.934V211.261H209.876V211.246H209.803V211.232H209.745V211.217H209.687V211.203H209.614V211.188H209.556V211.173H209.498V211.159H209.439V211.144H209.396V211.13H209.338V211.115H209.279V211.101H209.221V211.086H209.163V211.072H209.105V211.057H209.046V211.042H208.988V211.028H208.945V211.013H208.886V210.999H208.828V210.984H208.784V210.97H208.726V210.955H208.683V210.941H208.624V210.926H208.566V210.911H208.522V210.897H208.464V210.882H208.421V210.868H208.362V210.853H208.319V210.839H208.275V210.824H208.231V210.81H208.173V210.795H208.129V210.78H208.086V210.766H208.028V210.751H207.984V210.737H207.94V210.722H207.897V210.708H207.838V210.693H207.795V210.679H207.751V210.664H207.707V210.649H207.664V210.635H207.62V210.62H207.576V210.606H207.533V210.591H207.489V210.577H207.445V210.562H207.402V210.548H207.358V210.533H207.314V210.518H207.271V210.504H207.227V210.489H207.183V210.475H207.154V210.46H207.111V210.446H207.067V210.431H207.023V210.417H206.98V210.402H206.936V210.387H206.907V210.373H206.863V210.358H206.819V210.344H206.776V210.329H206.732V210.315H206.703V210.3H206.659V210.286H206.616V210.271H206.587V210.256H206.543V210.242H206.514V210.227H206.47V210.213H206.426V210.198H206.397V210.184H206.354V210.169H206.339V209.951H206.325V209.718H206.31V209.47H206.295V209.208H206.281V208.932H206.266V208.67H206.252V208.408H206.237V208.146H206.223V207.884H206.208V207.593H206.194V207.302H206.179V207.01H206.164V206.719H206.15V206.428H206.135V206.123H206.121V205.802H206.106V205.482H206.092V205.147H206.077V204.827H206.063V204.507H206.048V204.143H206.033V203.779H206.019V203.415H206.004V203.051H205.99V202.673H205.975V202.265H205.961V201.843H205.946V201.436H205.932V200.999H205.917V200.519H205.902V200.053H205.888V199.573H205.873V199.034H205.859V198.466H205.844V197.899H205.83V197.244H205.815V196.56H205.801V195.817H205.786V194.929H205.771V193.925H205.757V192.688H205.742V190.461H205.728V187.739H205.742V185.512H205.757V184.26H205.771V183.27H205.786V182.382H205.801V181.64H205.815V180.956H205.83V180.301H205.844V179.733H205.859V179.166H205.873V178.627H205.888V178.147H205.902V177.666H205.917V177.2H205.932V176.764H205.946V176.356H205.961V175.934H205.975V175.527H205.99V175.148H206.004V174.784H206.019V174.42H206.033V174.056H206.048V173.693H206.063V173.372H206.077V173.038H206.092V172.717H206.106V172.397H206.121V172.077H206.135V171.771H206.15V171.48H206.164V171.189H206.179V170.898H206.194V170.607H206.208V170.316H206.223V170.054H206.237V169.792H206.252V169.53H206.266V169.253H206.281V168.991H206.295V168.729H206.31V168.482H206.325V168.234H206.339V168.001H206.354V167.754H206.368V167.506H206.383V167.274H206.397V167.026H206.412V166.866H206.441V166.851H206.47V166.837H206.514V166.822H206.543V166.808H206.587V166.793H206.63V166.779H206.659V166.764H206.703V166.75H206.747V166.735H206.79V166.72H206.819V166.706H206.863V166.691H206.907V166.677H206.95V166.662H206.994V166.648H207.023V166.633H207.067V166.619H207.111V166.604H207.154V166.589H207.198V166.575H207.227V166.56H207.271V166.546H207.314V166.531H207.358V166.517H207.402V166.502H207.445V166.488H207.489V166.473H207.533V166.458H207.576V166.444H207.62V166.429H207.664V166.415H207.722V166.4H207.766V166.386H207.809V166.371H207.853V166.357H207.897V166.342H207.94V166.327H207.984V166.313H208.042V166.298H208.086V166.284H208.129V166.269H208.188V166.255H208.231V166.24H208.275V166.226H208.319V166.211H208.377V166.196H208.421V166.182H208.479V166.167H208.522V166.153H208.581V166.138H208.624V166.124H208.683V166.109H208.741V166.095H208.784V166.08H208.843V166.065H208.886V166.051H208.945V166.036H208.988V166.022H209.046V166.007H209.105V165.993H209.163V165.978H209.221V165.964H209.279V165.949H209.338V165.934H209.396V165.92H209.454V165.905H209.512V165.891H209.57V165.876H209.629V165.862H209.687V165.847H209.76V165.833H209.818V165.818H209.876V165.803H209.949V165.789H210.007V165.774H210.065V165.76H210.138V165.745H210.196V165.731H210.269V165.716H210.342V165.702H210.415V165.687H210.487V165.672H210.56V165.658H210.618V165.643H210.691V165.629H210.764V165.614H210.837V165.6H210.924V165.585H210.997V165.571H211.084V165.556H211.172V165.541H211.244V165.527H211.332V165.512H211.404V165.498H211.506V165.483H211.594V165.469H211.681V165.454H211.783V165.44H211.87V165.425H211.972V165.41H212.059V165.396H212.176V165.381H212.292V165.367H212.394V165.352H212.511V165.338H212.627V165.323H212.744V165.309H212.889V165.294H213.02V165.279H213.151V165.265H213.282V165.25H213.457V165.236H213.646V165.221H213.821V165.207H214.01V165.192H214.257V165.178H214.505V165.163H214.883V165.148H215.407V165.134H216.31V165.148H216.761V165.163H217.169V165.178H217.358V165.192H217.562V165.207H217.765V165.221H217.955V165.236H218.158V165.25H218.362V165.265H218.479V165.279H218.595V165.294H218.711V165.309H218.828V165.323H218.944V165.338H219.061V165.352H219.177V165.367H219.294V165.381H219.41V165.396H219.527V165.41H219.614V165.425H219.687V165.44H219.774V165.454H219.861V165.469H219.934V165.483H220.021V165.498H220.094V165.512H220.182V165.527H220.269V165.541H220.342V165.556H220.429V165.571H220.502V165.585H220.589V165.6H220.676V165.614H220.735V165.629H220.807V165.643H220.866V165.658H220.924V165.672H220.982V165.687H221.055V165.702H221.113V165.716H221.171V165.731H221.23V165.745H221.302V165.76H221.361V165.774H221.419V165.789H221.477V165.803H221.55V165.818H221.608V165.833H221.666V165.847H221.724V165.862H221.797V165.876H221.841V165.891H221.899V165.905H221.943V165.92H222.001V165.934H222.045V165.949H222.088V165.964H222.147V165.978H222.19V165.993H222.248V166.007H222.292V166.022H222.336V166.036H222.394V166.051H222.438V166.065H222.496V166.08H222.54V166.095H222.583V166.109H222.641V166.124H222.685V166.138H222.729V166.153H222.787V166.167H222.831V166.182H222.889V166.196H222.918V166.211H222.962V166.226H223.005V166.24H223.049V166.255H223.093V166.269H223.122V166.284H223.165V166.298H223.209V166.313H223.253V166.327H223.296V166.342H223.326V166.357H223.369V166.371H223.413V166.386H223.457V166.4H223.5V166.415H223.544V166.429H223.573V166.444H223.617V166.458H223.66V166.473H223.704V166.488H223.748V166.502H223.777V166.517H223.82V166.531H223.864V166.546H223.908V166.56H223.937V166.575H223.981V166.589H224.01V166.604H224.039V166.619H224.082V166.633H224.112V166.648H224.141V166.662H224.184V166.677H224.213V166.691H224.257V166.706H224.286V166.72H224.315V166.735H224.359V166.75H224.388V166.764H224.417V166.779H224.461V166.793H224.49V166.808H224.519V166.822H224.563V166.837H224.592V166.851H224.636V166.866H224.665V166.881H224.694V166.895H224.737V166.91H224.767V166.924H224.796V166.939H224.839V166.953H224.868V166.968H224.898V166.982H224.927V166.997H224.97V167.012H224.999V167.026H225.029V167.041H225.058V167.055H225.087V167.07H225.116V167.084H225.145V167.099H225.174V167.113H225.203V167.128H225.232V167.143H225.261V167.157H225.291V167.172H225.32V167.186H225.349V167.201H225.378V167.215H225.407V167.23H225.436V167.244H225.465V167.259H225.494V167.274H225.523V167.288H225.553V167.303H225.582V167.317H225.611V167.332H225.64V167.346H225.669V167.361H225.698V167.375H225.727V167.39H225.756V167.405H225.785V167.419H225.815V167.434H225.844V167.448H225.873V167.463H225.902V167.477H225.931V167.492H225.96V167.506H225.975V167.521H226.004V167.536H226.033V167.55H226.062V167.565H226.077V167.579H226.106V167.594H226.135V167.608H226.164V167.623H226.178V167.637H226.208V167.652H226.237V167.667H226.266V167.681H226.28V167.696H226.309V167.71H226.339V167.725H226.368V167.739H226.382V167.754H226.411V167.768H226.44V167.783H226.47V167.798H226.499V167.812H226.513V167.827H226.542V167.841H226.571V167.856H226.601V167.87H226.615V167.885H226.644V167.899H226.673V167.914H226.702V167.929H226.717V167.943H226.746V167.958H226.775V167.972H226.79V167.987H226.819V168.001H226.833V168.016H226.863V168.03H226.892V168.045H226.906V168.06H226.935V168.074H226.95V168.089H226.979V168.103H226.994V168.118H227.023V168.132H227.037V168.147H227.066V168.161H227.081V168.176H227.11V168.191H227.139V168.205H227.154V168.22H227.183V168.234H227.197V168.249H227.226V168.263H227.241V168.278H227.27V168.292H227.285V168.307H227.314V168.322H227.343V168.336H227.357V168.351H227.387V168.365H227.401V168.38H227.43V168.394H227.445V168.409H227.474V168.423H227.488V168.438H227.518V168.453H227.532V168.467H227.561V168.482H227.59V168.496H227.605V168.511H227.634V168.525H227.649V168.54H227.663V168.554H227.692V168.569H227.707V168.584H227.721V168.598H227.75V168.613H227.765V168.627H227.794V168.642H227.809V168.656H227.823V168.671H227.852V168.685H227.867V168.7H227.881V168.715H227.911V168.729H227.925V168.744H227.94V168.758H227.969V168.773H227.983V168.787H228.012V168.802H228.027V168.816H228.042V168.831H228.071V168.846H228.085V168.86H228.1V168.875H228.129V168.889H228.143V168.904H228.173V168.918H228.187V168.933H228.202V168.947H228.231V168.962H228.245V168.977H228.26V168.991H228.289V169.006H228.304V169.02H228.318V169.035H228.347V169.049H228.362V169.064H228.391V169.078H228.405V169.093H228.42V169.108H228.449V169.122H228.464V169.137H228.478V169.151H228.493V169.166H228.522V169.18H228.536V169.195H228.551V169.209H228.566V169.224H228.58V169.239H228.609V169.253H228.624V169.268H228.638V169.282H228.653V169.297H228.682V169.311H228.697V169.326H228.711V169.34H228.726V169.355H228.74V169.37H228.769V169.384H228.784V169.399H228.799V169.413H228.813V169.428H228.828V169.442H228.857V169.457H228.871V169.471H228.886V169.486H228.9V169.501H228.915V169.515H228.944V169.53H228.959V169.544H228.973V169.559H228.988V169.573H229.017V169.588H229.031V169.602H229.046V169.617H229.061V169.632H229.075V169.646H229.104V169.661H229.119V169.675H229.133V169.69H229.148V169.704H229.162V169.719H229.192V169.733H229.206V169.748H229.221V169.763H229.235V169.777H229.25V169.792H229.279V169.806H229.293V169.821H229.308V169.835H229.323V169.85H229.337V169.864H229.352V169.879H229.366V169.894H229.381V169.908H229.395V169.923H229.41V169.937H229.424V169.952H229.439V169.966H229.468V169.981H229.483V169.995H229.497V170.01H229.512V170.025H229.526V170.039H229.541V170.054H229.555V170.068H229.57V170.083H229.585V170.097H229.599V170.112H229.614V170.126H229.628V170.141H229.643V170.156H229.672V170.17H229.686V170.185H229.701V170.199H229.716V170.214H229.73V170.228H229.745V170.243H229.759V170.257H229.774V170.272H229.788V170.287H229.803V170.301H229.817V170.316H229.832V170.33H229.861V170.345H229.876V170.359H229.89V170.374H229.905V170.388H229.919V170.403H229.934V170.418H229.948V170.432H229.963V170.447H229.978V170.461H229.992V170.476H230.007V170.49H230.021V170.505H230.036V170.519H230.05V170.534H230.065V170.549H230.079V170.563H230.094V170.578H230.109V170.592H230.123V170.607H230.138V170.621H230.152V170.636H230.167V170.65H230.181V170.665H230.196V170.68H230.21V170.694H230.225V170.709H230.24V170.723H230.254V170.738H230.269V170.752H230.283V170.767H230.298V170.781H230.312V170.796H230.327V170.825H230.341V170.84H230.356V170.854H230.371V170.869H230.385V170.883H230.4V170.898H230.414V170.912H230.429V170.927H230.443V170.942H230.458V170.956H230.472V170.971H230.487V170.985H230.502V171H230.516V171.014H230.531V171.029H230.545V171.043H230.56V171.058H230.574V171.073H230.589V171.087H230.603V171.102H230.618V171.116H230.633V171.131H230.647V171.145H230.662V171.16H230.676V171.174H230.691V171.189H230.705V171.204H230.72V171.233H230.734V171.247H230.749V171.262H230.764V171.276H230.778V171.291H230.793V171.305H230.807V171.335H230.822V171.349H230.836V171.364H230.851V171.378H230.865V171.393H230.88V171.407H230.895V171.422H230.909V171.451H230.924V171.466H230.938V171.48H230.953V171.495H230.967V171.509H230.982V171.524H230.996V171.553H231.011V171.567H231.026V171.582H231.04V171.597H231.055V171.611H231.069V171.626H231.084V171.655H231.098V171.669H231.113V171.684H231.127V171.698H231.142V171.713H231.157V171.728H231.171V171.742H231.186V171.771H231.2V171.786H231.215V171.8H231.229V171.815H231.244V171.829H231.258V171.844H231.273V171.873H231.288V171.888H231.302V171.902H231.317V171.917H231.331V171.931H231.346V171.946H231.36V171.975H231.375V171.99H231.389V172.004H231.404V172.019H231.419V172.048H231.433V172.062H231.448V172.077H231.462V172.091H231.477V172.121H231.491V172.135H231.506V172.15H231.52V172.179H231.535V172.193H231.55V172.208H231.564V172.222H231.579V172.252H231.593V172.266H231.608V172.281H231.622V172.31H231.637V172.324H231.651V172.339H231.666V172.368H231.681V172.383H231.695V172.397H231.71V172.412H231.724V172.441H231.739V172.455H231.753V172.47H231.768V172.499H231.782V172.514H231.797V172.528H231.812V172.543H231.826V172.572H231.841V172.586H231.855V172.601H231.87V172.63H231.884V172.645H231.899V172.659H231.913V172.674H231.928V172.703H231.943V172.717H231.957V172.732H231.972V172.761H231.986V172.776H232.001V172.79H232.015V172.819H232.03V172.834H232.044V172.848H232.059V172.877H232.074V172.892H232.088V172.921H232.103V172.936H232.117V172.965H232.132V172.979H232.146V173.008H232.161V173.023H232.175V173.038H232.19V173.067H232.205V173.081H232.219V173.11H232.234V173.125H232.248V173.154H232.263V173.169H232.277V173.198H232.292V173.212H232.306V173.227H232.321V173.256H232.336V173.27H232.35V173.3H232.365V173.314H232.379V173.343H232.394V173.358H232.408V173.387H232.423V173.401H232.437V173.416H232.452V173.445H232.467V173.46H232.481V173.489H232.496V173.503H232.51V173.532H232.525V173.547H232.539V173.576H232.554V173.591H232.568V173.605H232.583V173.634H232.598V173.649H232.612V173.678H232.627V173.707H232.641V173.722H232.656V173.751H232.67V173.765H232.685V173.794H232.699V173.824H232.714V173.838H232.729V173.867H232.743V173.882H232.758V173.911H232.772V173.94H232.787V173.955H232.801V173.984H232.816V174.013H232.83V174.027H232.845V174.056H232.86V174.071H232.874V174.1H232.889V174.129H232.903V174.144H232.918V174.173H232.932V174.187H232.947V174.217H232.961V174.246H232.976V174.26H232.991V174.289H233.005V174.304H233.02V174.333H233.034V174.362H233.049V174.377H233.063V174.406H233.078V174.435H233.092V174.449H233.107V174.479H233.122V174.493H233.136V174.522H233.151V174.551H233.165V174.58H233.18V174.595H233.194V174.624H233.209V174.653H233.223V174.682H233.238V174.711H233.253V174.726H233.267V174.755H233.282V174.784H233.296V174.813H233.311V174.842H233.325V174.857H233.34V174.886H233.354V174.915H233.369V174.944H233.384V174.973H233.398V174.988H233.413V175.017H233.427V175.046H233.442V175.075H233.456V175.104H233.471V175.119H233.485V175.148H233.5V175.177H233.515V175.206H233.529V175.235H233.544V175.265H233.558V175.279H233.573V175.308H233.587V175.337H233.602V175.366H233.616V175.396H233.631V175.41H233.646V175.439H233.66V175.468H233.675V175.497H233.689V175.527H233.704V175.556H233.718V175.585H233.733V175.614H233.747V175.643H233.762V175.672H233.777V175.701H233.791V175.73H233.806V175.759H233.82V175.789H233.835V175.832H233.849V175.861H233.864V175.89H233.878V175.92H233.893V175.949H233.908V175.978H233.922V176.007H233.937V176.036H233.951V176.065H233.966V176.094H233.98V176.123H233.995V176.152H234.009V176.182H234.024V176.211H234.039V176.24H234.053V176.269H234.068V176.298H234.082V176.327H234.097V176.356H234.111V176.385H234.126V176.414H234.14V176.458H234.155V176.487H234.17V176.516H234.184V176.56H234.199V176.589H234.213V176.618H234.228V176.647H234.242V176.691H234.257V176.72H234.271V176.749H234.286V176.793H234.301V176.822H234.315V176.851H234.33V176.88H234.344V176.924H234.359V176.953H234.373V176.982H234.388V177.026H234.402V177.055H234.417V177.084H234.432V177.128H234.446V177.157H234.461V177.186H234.475V177.215H234.49V177.259H234.504V177.288H234.519V177.317H234.533V177.361H234.548V177.39H234.563V177.433H234.577V177.462H234.592V177.506H234.606V177.535H234.621V177.579H234.635V177.623H234.65V177.652H234.664V177.695H234.679V177.739H234.694V177.768H234.708V177.812H234.723V177.841H234.737V177.885H234.752V177.928H234.766V177.957H234.781V178.001H234.795V178.03H234.81V178.074H234.825V178.118H234.839V178.147H234.854V178.19H234.868V178.219H234.883V178.263H234.897V178.307H234.912V178.336H234.926V178.38H234.941V178.423H234.956V178.467H234.97V178.511H234.985V178.554H234.999V178.598H235.014V178.642H235.028V178.685H235.043V178.729H235.057V178.773H235.072V178.816H235.087V178.86H235.101V178.904H235.116V178.947H235.13V178.991H235.145V179.035H235.159V179.078H235.174V179.122H235.188V179.166H235.203V179.209H235.218V179.253H235.232V179.297H235.247V179.34H235.261V179.384H235.276V179.428H235.29V179.471H235.305V179.529H235.319V179.573H235.334V179.631H235.349V179.675H235.363V179.733H235.378V179.777H235.392V179.835H235.407V179.879H235.421V179.937H235.436V179.981H235.45V180.039H235.465V180.083H235.48V180.141H235.494V180.184H235.509V180.243H235.523V180.286H235.538V180.345H235.552V180.388H235.567V180.432H235.581V180.49H235.596V180.548H235.611V180.607H235.625V180.665H235.64V180.723H235.654V180.796H235.669V180.854H235.683V180.912H235.698V180.97H235.712V181.029H235.727V181.087H235.742V181.145H235.756V181.203H235.771V181.262H235.785V181.334H235.8V181.393H235.814V181.451H235.829V181.509H235.843V181.567H235.858V181.64H235.873V181.713H235.887V181.786H235.902V181.858H235.916V181.931H235.931V182.004H235.945V182.077H235.96V182.149H235.974V182.222H235.989V182.295H236.004V182.368H236.018V182.426H236.033V182.499H236.047V182.572H236.062V182.644H236.076V182.732H236.091V182.819H236.105V182.906H236.12V183.008H236.135V183.096H236.149V183.183H236.164V183.27H236.178V183.358H236.193V183.445H236.207V183.547H236.222V183.634H236.236V183.721H236.251V183.809H236.266V183.925H236.28V184.042H236.295V184.158H236.309V184.275H236.324V184.406H236.338V184.522H236.353V184.638H236.367V184.755H236.382V184.871H236.397V185.002H236.411V185.162H236.426V185.337H236.44V185.497H236.455V185.672H236.469V185.832H236.484V186.007H236.498V186.196H236.513V186.472H236.528V186.764H236.542V187.04H236.557V187.331H236.571V187.972H236.586V189.092H236.571V189.733H236.557V190.024H236.542V190.315H236.528V190.592H236.513V190.868H236.498V191.057H236.484V191.232H236.469V191.392H236.455V191.567H236.44V191.727H236.426V191.902H236.411V192.062H236.397V192.193H236.382V192.309H236.367V192.426H236.353V192.542H236.338V192.659H236.324V192.79H236.309V192.906H236.295V193.022H236.28V193.139H236.266V193.255H236.251V193.343H236.236V193.43H236.222V193.517H236.207V193.619H236.193V193.707H236.178V193.794H236.164V193.881H236.149V193.969H236.135V194.071H236.12V194.158H236.105V194.245H236.091V194.333H236.076V194.42H236.062V194.493H236.047V194.565H236.033V194.638H236.018V194.711H236.004V194.769H235.989V194.842H235.974V194.915H235.96V194.988H235.945V195.06H235.931V195.133H235.916V195.206H235.902V195.279H235.887V195.351H235.873V195.424H235.858V195.497H235.843V195.555H235.829V195.613H235.814V195.672H235.8V195.73H235.785V195.803H235.771V195.861H235.756V195.919H235.742V195.977H235.727V196.036H235.712V196.094H235.698V196.152H235.683V196.21H235.669V196.268H235.654V196.341H235.64V196.399H235.625V196.458H235.611V196.516H235.596V196.574H235.581V196.632H235.567V196.676H235.552V196.734H235.538V196.778H235.523V196.836H235.509V196.88H235.494V196.923H235.48V196.982H235.465V197.025H235.45V197.084H235.436V197.127H235.421V197.185H235.407V197.229H235.392V197.287H235.378V197.331H235.363V197.389H235.349V197.433H235.334V197.491H235.319V197.535H235.305V197.593H235.29V197.637H235.276V197.68H235.261V197.724H235.247V197.768H235.232V197.811H235.218V197.855H235.203V197.899H235.188V197.942H235.174V197.986H235.159V198.03H235.145V198.073H235.13V198.117H235.116V198.161H235.101V198.204H235.087V198.248H235.072V198.292H235.057V198.335H235.043V198.379H235.028V198.423H235.014V198.466H234.999V198.51H234.985V198.554H234.97V198.597H234.956V198.641H234.941V198.685H234.926V198.728H234.912V198.757H234.897V198.801H234.883V198.845H234.868V198.874H234.854V198.918H234.839V198.947H234.825V198.99H234.81V199.034H234.795V199.063H234.781V199.107H234.766V199.136H234.752V199.18H234.737V199.223H234.723V199.252H234.708V199.296H234.694V199.34H234.679V199.369H234.664V199.412H234.65V199.442H234.635V199.485H234.621V199.529H234.606V199.558H234.592V199.602H234.577V199.631H234.563V199.674H234.548V199.704H234.533V199.747H234.519V199.776H234.504V199.805H234.49V199.849H234.475V199.878H234.461V199.907H234.446V199.951H234.432V199.98H234.417V200.009H234.402V200.038H234.388V200.082H234.373V200.111H234.359V200.14H234.344V200.184H234.33V200.213H234.315V200.242H234.301V200.271H234.286V200.315H234.271V200.344H234.257V200.373H234.242V200.417H234.228V200.446H234.213V200.475H234.199V200.519H234.184V200.548H234.17V200.577H234.155V200.606H234.14V200.65H234.126V200.679H234.111V200.708H234.097V200.737H234.082V200.766H234.068V200.795H234.053V200.824H234.039V200.853H234.024V200.883H234.009V200.912H233.995V200.941H233.98V200.97H233.966V200.999H233.951V201.028H233.937V201.057H233.922V201.086H233.908V201.115H233.893V201.145H233.878V201.174H233.864V201.217H233.849V201.246H233.835V201.276H233.82V201.305H233.806V201.334H233.791V201.363H233.777V201.392H233.762V201.421H233.747V201.45H233.733V201.479H233.718V201.508H233.704V201.538H233.689V201.567H233.675V201.596H233.66V201.625H233.646V201.654H233.631V201.683H233.616V201.698H233.602V201.727H233.587V201.756H233.573V201.785H233.558V201.814H233.544V201.829H233.529V201.858H233.515V201.887H233.5V201.916H233.485V201.945H233.471V201.96H233.456V201.989H233.442V202.018H233.427V202.047H233.413V202.076H233.398V202.091H233.384V202.12H233.369V202.149H233.354V202.178H233.34V202.207H233.325V202.222H233.311V202.251H233.296V202.28H233.282V202.309H233.267V202.338H233.253V202.367H233.238V202.382H233.223V202.411H233.209V202.44H233.194V202.469H233.18V202.498H233.165V202.513H233.151V202.542H233.136V202.571H233.122V202.586H233.107V202.615H233.092V202.644H233.078V202.658H233.063V202.687H233.049V202.702H233.034V202.731H233.02V202.76H233.005V202.775H232.991V202.804H232.976V202.818H232.961V202.848H232.947V202.877H232.932V202.891H232.918V202.92H232.903V202.935H232.889V202.964H232.874V202.993H232.86V203.008H232.845V203.037H232.83V203.066H232.816V203.08H232.801V203.11H232.787V203.124H232.772V203.153H232.758V203.182H232.743V203.197H232.729V203.226H232.714V203.241H232.699V203.27H232.685V203.299H232.67V203.313H232.656V203.342H232.641V203.372H232.627V203.386H232.612V203.415H232.598V203.43H232.583V203.459H232.568V203.473H232.554V203.503H232.539V203.517H232.525V203.532H232.51V203.561H232.496V203.575H232.481V203.604H232.467V203.619H232.452V203.648H232.437V203.663H232.423V203.692H232.408V203.706H232.394V203.721H232.379V203.75H232.365V203.765H232.35V203.794H232.336V203.808H232.321V203.837H232.306V203.852H232.292V203.881H232.277V203.896H232.263V203.91H232.248V203.939H232.234V203.954H232.219V203.983H232.205V203.997H232.19V204.027H232.175V204.041H232.161V204.056H232.146V204.085H232.132V204.099H232.117V204.128H232.103V204.143H232.088V204.172H232.074V204.187H232.059V204.216H232.044V204.23H232.03V204.245H232.015V204.274H232.001V204.289H231.986V204.303H231.972V204.332H231.957V204.347H231.943V204.361H231.928V204.39H231.913V204.405H231.899V204.42H231.884V204.434H231.87V204.463H231.855V204.478H231.841V204.492H231.826V204.521H231.812V204.536H231.797V204.551H231.782V204.58H231.768V204.594H231.753V204.609H231.739V204.623H231.724V204.652H231.71V204.667H231.695V204.682H231.681V204.711H231.666V204.725H231.651V204.74H231.637V204.754H231.622V204.783H231.608V204.798H231.593V204.813H231.579V204.842H231.564V204.856H231.55V204.871H231.535V204.9H231.52V204.914H231.506V204.929H231.491V204.944H231.477V204.973H231.462V204.987H231.448V205.002H231.433V205.031H231.419V205.045H231.404V205.06H231.389V205.075H231.375V205.104H231.36V205.118H231.346V205.133H231.331V205.147H231.317V205.162H231.302V205.176H231.288V205.206H231.273V205.22H231.258V205.235H231.244V205.249H231.229V205.264H231.215V205.278H231.2V205.293H231.186V205.322H231.171V205.337H231.157V205.351H231.142V205.366H231.127V205.38H231.113V205.395H231.098V205.424H231.084V205.438H231.069V205.453H231.055V205.468H231.04V205.482H231.026V205.497H231.011V205.511H230.996V205.54H230.982V205.555H230.967V205.569H230.953V205.584H230.938V205.599H230.924V205.613H230.909V205.642H230.895V205.657H230.88V205.671H230.865V205.686H230.851V205.7H230.836V205.715H230.822V205.744H230.807V205.759H230.793V205.773H230.778V205.788H230.764V205.802H230.749V205.817H230.734V205.831H230.72V205.861H230.705V205.875H230.691V205.89H230.676V205.904H230.662V205.919H230.647V205.933H230.633V205.948H230.618V205.962H230.603V205.977H230.589V205.992H230.574V206.006H230.56V206.021H230.545V206.035H230.531V206.05H230.516V206.064H230.502V206.079H230.487V206.093H230.472V206.108H230.458V206.123H230.443V206.137H230.429V206.152H230.414V206.166H230.4V206.181H230.385V206.195H230.371V206.21H230.356V206.239H230.341V206.254H230.327V206.268H230.312V206.283H230.298V206.297H230.283V206.312H230.269V206.326H230.254V206.341H230.24V206.355H230.225V206.37H230.21V206.385H230.196V206.399H230.181V206.414H230.167V206.428H230.152V206.443H230.138V206.457H230.123V206.472H230.109V206.486H230.094V206.501H230.079V206.516H230.065V206.53H230.05V206.545H230.036V206.559H230.021V206.574H230.007V206.588H229.992V206.603H229.978V206.617H229.963V206.632H229.948V206.647H229.934V206.661H229.919V206.676H229.905V206.69H229.89V206.705H229.876V206.719H229.861V206.734H229.847V206.748H229.817V206.763H229.803V206.778H229.788V206.792H229.774V206.807H229.759V206.821H229.745V206.836H229.73V206.85H229.716V206.865H229.701V206.879H229.686V206.894H229.672V206.909H229.657V206.923H229.643V206.938H229.614V206.952H229.599V206.967H229.585V206.981H229.57V206.996H229.555V207.01H229.541V207.025H229.526V207.04H229.512V207.054H229.497V207.069H229.483V207.083H229.468V207.098H229.454V207.112H229.424V207.127H229.41V207.141H229.395V207.156H229.381V207.171H229.366V207.185H229.352V207.2H229.337V207.214H229.323V207.229H229.308V207.243H229.293V207.258H229.279V207.272H229.264V207.287H229.235V207.302H229.221V207.316H229.206V207.331H229.192V207.345H229.177V207.36H229.148V207.374H229.133V207.389H229.119V207.403H229.104V207.418H229.09V207.433H229.061V207.447H229.046V207.462H229.031V207.476H229.017V207.491H228.988V207.505H228.973V207.52H228.959V207.534H228.944V207.549H228.93V207.564H228.9V207.578H228.886V207.593H228.871V207.607H228.857V207.622H228.842V207.636H228.813V207.651H228.799V207.665H228.784V207.68H228.769V207.695H228.74V207.709H228.726V207.724H228.711V207.738H228.697V207.753H228.682V207.767H228.653V207.782H228.638V207.796H228.624V207.811H228.609V207.826H228.595V207.84H228.566V207.855H228.551V207.869H228.536V207.884H228.522V207.898H228.507V207.913H228.478V207.927H228.464V207.942H228.449V207.957H228.42V207.971H228.405V207.986H228.391V208H228.362V208.015H228.347V208.029H228.333V208.044H228.304V208.058H228.289V208.073H228.26V208.088H228.245V208.102H228.231V208.117H228.202V208.131H228.187V208.146H228.173V208.16H228.143V208.175H228.129V208.189H228.114V208.204H228.085V208.219H228.071V208.233H228.042V208.248H228.027V208.262H228.012V208.277H227.983V208.291H227.969V208.306H227.954V208.32H227.925V208.335H227.911V208.35H227.896V208.364H227.867V208.379H227.852V208.393H227.823V208.408H227.809V208.422H227.794V208.437H227.765V208.451H227.75V208.466H227.736V208.481H227.707V208.495H227.692V208.51H227.678V208.524H227.649V208.539H227.634V208.553H227.605V208.568H227.59V208.582H227.561V208.597H227.547V208.612H227.518V208.626H227.488V208.641H227.474V208.655H227.445V208.67H227.43V208.684H227.401V208.699H227.387V208.713H227.357V208.728H227.343V208.743H227.314V208.757H227.299V208.772H227.27V208.786H227.241V208.801H227.226V208.815H227.197V208.83H227.183V208.844H227.154V208.859H227.139V208.874H227.11V208.888H227.095V208.903H227.066V208.917H227.052V208.932H227.023V208.946H226.994V208.961H226.979V208.975H226.95V208.99H226.935V209.005H226.906V209.019H226.892V209.034H226.863V209.048H226.848V209.063H226.819V209.077H226.804V209.092H226.775V209.107H226.746V209.121H226.732V209.136H226.702V209.15H226.673V209.165H226.644V209.179H226.63V209.194H226.601V209.208H226.571V209.223H226.542V209.238H226.513V209.252H226.499V209.267H226.47V209.281H226.44V209.296H226.411V209.31H226.397V209.325H226.368V209.339H226.339V209.354H226.309V209.369H226.295V209.383H226.266V209.398H226.237V209.412H226.208V209.427H226.193V209.441H226.164V209.456H226.135V209.47H226.106V209.485H226.077V209.5H226.062V209.514H226.033V209.529H226.004V209.543H225.975V209.558H225.96V209.572H225.931V209.587H225.902V209.601H225.873V209.616H225.858V209.631H225.829V209.645H225.8V209.66H225.771V209.674H225.727V209.689H225.698V209.703H225.669V209.718H225.64V209.732H225.611V209.747H225.582V209.762H225.553V209.776H225.523V209.791H225.494V209.805H225.465V209.82H225.436V209.834H225.407V209.849H225.378V209.863H225.349V209.878H225.32V209.893H225.291V209.907H225.261V209.922H225.232V209.936H225.203V209.951H225.174V209.965H225.145V209.98H225.116V209.994H225.087V210.009H225.058V210.024H225.029V210.038H224.999V210.053H224.97V210.067H224.941V210.082H224.912V210.096H224.868V210.111H224.839V210.125H224.81V210.14H224.767V210.155H224.737V210.169H224.708V210.184H224.665V210.198H224.636V210.213H224.592V210.227H224.563V210.242H224.534V210.256H224.49V210.271H224.461V210.286H224.432V210.3H224.388V210.315H224.359V210.329H224.315V210.344H224.286V210.358H224.257V210.373H224.213V210.387H224.184V210.402H224.155V210.417H224.112V210.431H224.082V210.446H224.053V210.46H224.01V210.475H223.981V210.489H223.937V210.504H223.908V210.518H223.864V210.533H223.82V210.548H223.791V210.562H223.748V210.577H223.704V210.591H223.66V210.606H223.617V210.62H223.588V210.635H223.544V210.649H223.5V210.664H223.457V210.679H223.413V210.693H223.384V210.708H223.34V210.722H223.296V210.737H223.253V210.751H223.209V210.766H223.18V210.78H223.136V210.795H223.093V210.81H223.049V210.824H223.005V210.839H222.976V210.853H222.933V210.868H222.889V210.882H222.845V210.897H222.787V210.911H222.743V210.926H222.685V210.941H222.641V210.955H222.598V210.97H222.54V210.984H222.496V210.999H222.438V211.013H222.394V211.028H222.35V211.042H222.292V211.057H222.248V211.072H222.19V211.086H222.147V211.101H222.103V211.115H222.045V211.13H222.001V211.144H221.943V211.159H221.899V211.173H221.855V211.188H221.797V211.203H221.739V211.217H221.681V211.232H221.608V211.246H221.55V211.261H221.492V211.275H221.433V211.29H221.361V211.304H221.302V211.319H221.244V211.334H221.186V211.348H221.113V211.363H221.055V211.377H220.997V211.392H220.938V211.406H220.866V211.421H220.807V211.435H220.749V211.45H220.676V211.465H220.604V211.479H220.516V211.494H220.429V211.508H220.356V211.523H220.269V211.537H220.196V211.552H220.109V211.566H220.021V211.581H219.949V211.596H219.861V211.61H219.789V211.625H219.701V211.639H219.614V211.654H219.541V211.668H219.425V211.683H219.308V211.697H219.177V211.712H219.061V211.727H218.959V211.741H218.842V211.756H218.711V211.77H218.595V211.785H218.479V211.799H218.362V211.814H218.173V211.828H217.984V211.843H217.78V211.858H217.591V211.872H217.387V211.887H217.183V211.901H216.805V211.916H216.353V211.93" fill="url(#paint8_linear_43_1776)"/>
</g>
</g>
<mask id="mask10_43_1776" style="mask-type:luminance" maskUnits="userSpaceOnUse" x="17" y="166" width="47" height="64">
<path d="M32.3054 166.617C39.722 165.757 50.3577 165.447 61.8571 168.08C58.0684 187.871 58.6402 208.498 63.0219 229.859H30.5876C25.4166 229.859 21.0071 226.102 20.2007 220.994C18.5842 210.756 16.6081 193.548 18.7152 179.726C19.7726 172.79 25.3358 167.427 32.3054 166.617Z" fill="white"/>
</mask>
<g mask="url(#mask10_43_1776)">
<path d="M32.3054 166.617C39.722 165.757 50.3577 165.447 61.8571 168.08C58.0684 187.871 58.6402 208.498 63.0219 229.859H30.5876C25.4166 229.859 21.0071 226.102 20.2007 220.994C18.5842 210.756 16.6081 193.548 18.7152 179.726C19.7726 172.79 25.3358 167.427 32.3054 166.617Z" fill="url(#paint9_linear_43_1776)"/>
</g>
<path d="M51.7707 181.775H26.5004C25.6427 181.775 24.8858 181.326 24.4759 180.572C24.0663 179.819 24.0996 178.938 24.5656 178.218C24.7606 177.917 25.1629 177.832 25.4642 178.026C25.7654 178.221 25.8517 178.624 25.6567 178.925C25.4536 179.238 25.4391 179.623 25.6175 179.952C25.7963 180.279 26.1264 180.476 26.5004 180.476H51.7707C52.3248 180.476 52.7754 180.024 52.7754 179.471V177.672C52.7754 177.118 52.3248 176.668 51.7707 176.668H26.313C25.954 176.668 25.6632 176.377 25.6632 176.017C25.6632 175.659 25.954 175.368 26.313 175.368H51.7707C53.0414 175.368 54.0751 176.401 54.0751 177.672V179.471C54.0751 180.74 53.0414 181.775 51.7707 181.775Z" fill="#91B3FA"/>
<path d="M49.5173 192.967H24.2471C23.3893 192.967 22.6326 192.517 22.2225 191.763C21.8128 191.009 21.8463 190.13 22.3122 189.41C22.5074 189.11 22.9099 189.024 23.2109 189.218C23.512 189.413 23.5983 189.814 23.4033 190.117C23.2002 190.43 23.1857 190.814 23.3641 191.142C23.5429 191.471 23.873 191.667 24.2471 191.667H49.5173C50.0715 191.667 50.5222 191.216 50.5222 190.663V188.864C50.5222 188.311 50.0715 187.86 49.5173 187.86H24.0598C23.7007 187.86 23.4099 187.568 23.4099 187.209C23.4099 186.851 23.7007 186.56 24.0598 186.56H49.5173C50.788 186.56 51.8218 187.593 51.8218 188.864V190.663C51.8218 191.932 50.788 192.967 49.5173 192.967Z" fill="#91B3FA"/>
<path d="M80.6439 165.793C80.3686 165.793 80.113 165.617 80.0251 165.341C79.9161 164.998 80.1053 164.633 80.4471 164.524L199.861 126.525C200.203 126.416 200.568 126.605 200.677 126.947C200.786 127.289 200.597 127.654 200.255 127.764L80.8418 165.763C80.7763 165.784 80.7094 165.793 80.6439 165.793Z" fill="#BDD0FB"/>
<path d="M64.4959 172.394C64.2398 172.394 63.9971 172.243 63.8942 171.991C63.7584 171.659 63.9176 171.279 64.2499 171.144L70.3958 168.632C70.7276 168.495 71.1073 168.655 71.2431 168.987C71.3789 169.319 71.2196 169.699 70.8873 169.834L64.7415 172.346C64.6611 172.38 64.5777 172.394 64.4959 172.394Z" fill="#BDD0FB"/>
<path d="M51.7706 206.075H26.5004C25.6426 206.075 24.886 205.625 24.4762 204.871C24.0663 204.117 24.0996 203.238 24.5655 202.517C24.7606 202.216 25.1629 202.13 25.4642 202.325C25.7653 202.52 25.8517 202.922 25.6566 203.223C25.4533 203.538 25.4387 203.922 25.6176 204.249C25.7963 204.578 26.1263 204.775 26.5004 204.775H51.7706C52.3248 204.775 52.7754 204.324 52.7754 203.769V201.971C52.7754 201.417 52.3248 200.967 51.7706 200.967H26.3129C25.954 200.967 25.6632 200.676 25.6632 200.316C25.6632 199.958 25.954 199.667 26.3129 199.667H51.7706C53.0413 199.667 54.0751 200.701 54.0751 201.971V203.769C54.0751 205.04 53.0413 206.075 51.7706 206.075Z" fill="#91B3FA"/>
<path d="M54.1368 220.623H28.8666C28.0089 220.623 27.2523 220.173 26.8423 219.419C26.4324 218.665 26.4659 217.786 26.9318 217.066C27.127 216.764 27.5293 216.68 27.8303 216.873C28.1315 217.068 28.2179 217.47 28.0228 217.771C27.8196 218.086 27.805 218.47 27.9839 218.798C28.1626 219.127 28.4926 219.323 28.8666 219.323H54.1368C54.6909 219.323 55.1417 218.872 55.1417 218.317V216.52C55.1417 215.965 54.6909 215.515 54.1368 215.515H28.6792C28.3203 215.515 28.0295 215.224 28.0295 214.865C28.0295 214.507 28.3203 214.216 28.6792 214.216H54.1368C55.4076 214.216 56.4414 215.249 56.4414 216.52V218.317C56.4414 219.588 55.4076 220.623 54.1368 220.623Z" fill="#91B3FA"/>
<path d="M76.7062 299.723C75.5417 299.723 74.3649 299.598 73.1907 299.342C68.053 298.222 63.8704 294.834 61.7154 290.046L41.526 245.193C41.3785 244.867 41.5245 244.481 41.8517 244.334C42.179 244.187 42.5637 244.333 42.7108 244.66L62.9004 289.514C64.8846 293.921 68.7362 297.04 73.4674 298.071C78.1172 299.085 82.8227 297.882 86.3772 294.771C86.5679 294.604 86.7586 294.432 86.9522 294.257C87.2156 294.016 87.6276 294.033 87.8692 294.298C88.1123 294.563 88.0933 294.975 87.8284 295.216C87.629 295.398 87.431 295.576 87.2331 295.749C84.2637 298.347 80.5564 299.723 76.7062 299.723Z" fill="#91B3FA"/>
<path d="M39.1336 238.944C38.8858 238.944 38.6491 238.801 38.5408 238.561L36.2884 233.557C36.141 233.231 36.287 232.847 36.6142 232.698C36.9413 232.551 37.3263 232.698 37.4734 233.024L39.7258 238.027C39.8731 238.355 39.7272 238.74 39.4 238.887C39.3135 238.927 39.2227 238.944 39.1336 238.944Z" fill="#91B3FA"/>
<path d="M232.886 187.86C232.548 187.86 232.263 187.598 232.238 187.256C231.79 180.927 229.595 176.208 225.719 173.231C219.013 168.083 209.445 169.851 209.349 169.87C208.994 169.939 208.656 169.709 208.588 169.356C208.52 169.004 208.751 168.662 209.103 168.595C209.518 168.515 219.346 166.7 226.509 172.199C230.695 175.413 233.058 180.448 233.535 187.164C233.56 187.522 233.29 187.832 232.932 187.858C232.916 187.858 232.9 187.86 232.886 187.86Z" fill="#BDD0FB"/>
<path d="M296.575 149.386L258.457 151.551C255.266 151.731 252.521 149.318 252.293 146.13L249.112 101.911C248.869 98.5243 251.552 95.6423 254.946 95.6423H296.244C299.475 95.6423 302.093 98.2608 302.093 101.491V143.546C302.093 146.648 299.671 149.21 296.575 149.386Z" fill="#7D97F4"/>
<path d="M275.595 103.098C267.426 103.098 260.782 109.156 260.782 116.6C260.782 120.467 265.157 129.915 272.787 142.52C273.387 143.512 274.436 144.104 275.595 144.104C276.754 144.104 277.803 143.512 278.403 142.52C286.033 129.915 290.41 120.467 290.41 116.6C290.41 109.156 283.764 103.098 275.595 103.098ZM275.595 146.277C273.669 146.277 271.926 145.295 270.927 143.647C265.307 134.36 258.607 122.131 258.607 116.6C258.607 107.956 266.229 100.925 275.595 100.925C284.963 100.925 292.583 107.956 292.583 116.6C292.583 122.131 285.883 134.36 280.263 143.647C279.266 145.295 277.521 146.277 275.595 146.277Z" fill="black"/>
<path d="M274.279 127.544C268.471 127.544 263.747 122.819 263.747 117.011C263.747 116.41 264.233 115.924 264.833 115.924C265.434 115.924 265.92 116.41 265.92 117.011C265.92 121.621 269.669 125.371 274.279 125.371C278.887 125.371 282.638 121.621 282.638 117.011C282.638 112.402 278.887 108.652 274.279 108.652C271.614 108.652 269.17 109.879 267.573 112.019C267.215 112.501 266.534 112.6 266.052 112.24C265.572 111.882 265.473 111.201 265.831 110.719C267.812 108.064 270.971 106.479 274.279 106.479C280.087 106.479 284.812 111.204 284.812 117.011C284.812 122.819 280.087 127.544 274.279 127.544Z" fill="black"/>
<path d="M385.618 178.024L339.128 177.26C335.791 177.205 333.177 174.374 333.387 171.042L336.445 122.596C336.621 119.809 338.745 117.534 341.515 117.167L393.861 110.233C397.74 109.719 401.02 113.084 400.407 116.949L391.492 173.094C391.034 175.971 388.531 178.072 385.618 178.024Z" fill="#7D97F4"/>
<path d="M364.406 165.093C354.324 165.093 346.122 156.891 346.122 146.81C346.122 136.727 354.324 128.525 364.406 128.525C374.488 128.525 382.69 136.727 382.69 146.81C382.69 156.891 374.488 165.093 364.406 165.093ZM364.406 131.589C356.014 131.589 349.186 138.417 349.186 146.81C349.186 155.203 356.014 162.029 364.406 162.029C372.799 162.029 379.626 155.203 379.626 146.81C379.626 138.417 372.799 131.589 364.406 131.589Z" fill="#F2F4FE"/>
<path d="M360.494 155.665C359.548 155.665 358.679 154.91 358.679 153.85V140.707C358.679 139.647 359.548 138.891 360.494 138.891C360.802 138.891 361.118 138.972 361.415 139.148L372.492 145.72C373.675 146.423 373.675 148.134 372.492 148.837L361.415 155.409C361.118 155.585 360.802 155.665 360.494 155.665Z" fill="#F2F4FE"/>
<path d="M275.356 247.755L247.433 250.696C243.979 251.06 240.97 248.352 240.97 244.88V212.648C240.97 209.74 243.107 207.274 245.986 206.859L273.909 202.839C277.435 202.331 280.592 205.066 280.592 208.628V241.938C280.592 244.931 278.333 247.442 275.356 247.755Z" fill="#7D97F4"/>
<path d="M258.531 237.065C255.39 237.065 252.125 235.707 251.159 233.685C250.053 231.371 252.256 229.723 252.958 229.273C255.087 227.908 256.981 227.439 258.585 227.88C260.255 228.339 260.933 229.608 261.004 229.751L258.837 230.837L258.85 230.861C258.838 230.843 258.565 230.371 257.897 230.206C257.271 230.051 256.133 230.118 254.267 231.314C253.478 231.821 253.168 232.266 253.347 232.639C253.971 233.946 257.818 235.273 260.656 234.327C261.6 234.013 262.421 231.26 261.626 224.54C261.045 219.627 259.873 214.847 259.862 214.801C259.753 214.358 259.901 213.891 260.246 213.594C260.591 213.296 261.073 213.216 261.495 213.387C261.783 213.504 268.566 216.312 270.41 221.613C271.247 224.02 270.946 226.521 269.514 229.048C269.185 229.631 268.444 229.835 267.861 229.505C267.279 229.176 267.074 228.435 267.404 227.853C268.492 225.936 268.726 224.157 268.123 222.416C267.228 219.836 264.677 217.903 262.787 216.773C263.183 218.675 263.697 221.421 264.033 224.255C264.927 231.803 264.097 235.735 261.422 236.627C260.524 236.927 259.534 237.065 258.531 237.065Z" fill="black"/>
<path d="M364.534 103.002H322.295C319.065 103.002 316.447 100.382 316.447 97.1517V54.7991C316.447 51.7511 318.786 49.214 321.824 48.9681L366.827 45.3262C370.373 45.0395 373.351 47.9564 373.138 51.5066L370.374 97.5024C370.188 100.591 367.629 103.002 364.534 103.002Z" fill="#7D97F4"/>
<path d="M354.573 63.9721C351.488 60.9416 346.679 61.8528 343.368 64.6329C342.893 65.0317 342.206 65.0361 341.724 64.646C338.369 61.9241 333.564 61.0959 330.534 64.1788C327.243 67.5266 327.289 72.9078 330.637 76.1988L341.838 87.2102C342.347 87.7094 343.165 87.7022 343.666 87.1942L354.676 75.9922C357.967 72.6444 357.92 67.2631 354.573 63.9721Z" fill="black"/>
<path d="M330.786 178.026C330.786 190.069 321.022 199.833 308.978 199.833C296.935 199.833 287.171 190.069 287.171 178.026C287.171 165.982 296.935 156.219 308.978 156.219C321.022 156.219 330.786 165.982 330.786 178.026Z" fill="#7D97F4"/>
<path d="M303.69 170.78C303.69 170.218 303.235 169.763 302.673 169.763H298.98C298.417 169.763 297.963 170.218 297.963 170.78V186.884C297.963 187.446 298.417 187.903 298.98 187.903H302.673C303.235 187.903 303.69 187.446 303.69 186.884V170.78Z" fill="black"/>
<path d="M316.192 169.763H312.601V165.419C312.601 164.009 311.769 163.08 310.358 163.08H310.268C308.856 163.08 307.712 164.117 307.712 165.527L306.45 169.882C305.888 169.882 304.964 170.284 304.964 170.846V187.54C304.964 188.101 306.358 188.857 306.92 188.857H307.712H316.192C318.303 188.857 319.921 186.845 319.921 184.735V173.652C319.921 171.54 318.303 169.763 316.192 169.763Z" fill="black"/>
<mask id="mask11_43_1776" style="mask-type:luminance" maskUnits="userSpaceOnUse" x="334" y="395" width="24" height="13">
<path d="M356.754 395.946C356.754 395.946 357.495 399.911 357.877 403.841C358.025 405.377 356.853 406.721 355.312 406.802C350.078 407.069 338.879 407.601 334.858 407.459C334.253 407.438 333.853 406.823 334.071 406.259C334.253 405.786 334.611 405.401 335.069 405.186L353.493 396.505L356.754 395.946Z" fill="white"/>
</mask>
<g mask="url(#mask11_43_1776)">
<path d="M356.754 395.946C356.754 395.946 357.495 399.911 357.877 403.841C358.025 405.377 356.853 406.721 355.312 406.802C350.078 407.069 338.879 407.601 334.858 407.459C334.253 407.438 333.853 406.823 334.071 406.259C334.253 405.786 334.611 405.401 335.069 405.186L353.493 396.505L356.754 395.946Z" fill="url(#paint10_linear_43_1776)"/>
</g>
<mask id="mask12_43_1776" style="mask-type:luminance" maskUnits="userSpaceOnUse" x="351" y="392" width="7" height="8">
<path d="M357.308 393.605L356.789 398.362C356.789 398.362 353.562 399.902 351.333 398.225L352.624 392.917L357.308 393.605Z" fill="white"/>
</mask>
<g mask="url(#mask12_43_1776)">
<path d="M357.308 393.605L356.789 398.362C356.789 398.362 353.562 399.902 351.333 398.225L352.624 392.917L357.308 393.605Z" fill="url(#paint11_linear_43_1776)"/>
</g>
<mask id="mask13_43_1776" style="mask-type:luminance" maskUnits="userSpaceOnUse" x="351" y="304" width="20" height="92">
<path d="M356.031 304.273C356.287 305.512 357.929 366.185 351.702 393.442C351.6 393.886 351.83 394.342 352.254 394.511C353.252 394.908 355.209 395.477 357.548 395.534C358.271 395.551 358.916 395.074 359.114 394.378C360.907 388.051 369.491 356.353 370.361 326.143C371.335 292.387 370.351 324.994 370.351 324.994L369.392 304.143L356.031 304.273Z" fill="white"/>
</mask>
<g mask="url(#mask13_43_1776)">
<path d="M356.031 304.273C356.287 305.512 357.929 366.185 351.702 393.442C351.6 393.886 351.83 394.342 352.254 394.511C353.252 394.908 355.209 395.477 357.548 395.534C358.271 395.551 358.916 395.074 359.114 394.378C360.907 388.051 369.491 356.353 370.361 326.143C371.335 292.387 370.351 324.994 370.351 324.994L369.392 304.143L356.031 304.273Z" fill="url(#paint12_linear_43_1776)"/>
</g>
<mask id="mask14_43_1776" style="mask-type:luminance" maskUnits="userSpaceOnUse" x="370" y="397" width="11" height="11">
<path d="M378.061 397.815C378.061 397.815 379.196 399.809 380.329 405.129C380.533 406.09 379.869 407.017 378.894 407.122C377.166 407.308 374.505 407.553 372.373 407.558C371.39 407.561 370.614 406.713 370.724 405.736C370.94 403.788 371.646 400.589 373.897 398.08L378.061 397.815Z" fill="white"/>
</mask>
<g mask="url(#mask14_43_1776)">
<path d="M378.061 397.815C378.061 397.815 379.196 399.809 380.329 405.129C380.533 406.09 379.869 407.017 378.894 407.122C377.166 407.308 374.505 407.553 372.373 407.558C371.39 407.561 370.614 406.713 370.724 405.736C370.94 403.788 371.646 400.589 373.897 398.08L378.061 397.815Z" fill="url(#paint13_linear_43_1776)"/>
</g>
<mask id="mask15_43_1776" style="mask-type:luminance" maskUnits="userSpaceOnUse" x="373" y="391" width="6" height="9">
<path d="M378.982 391.693L377.733 398.892C377.733 398.892 376.441 399.873 373.857 399.196L374.412 391.458L378.982 391.693Z" fill="white"/>
</mask>
<g mask="url(#mask15_43_1776)">
<path d="M378.982 391.693L377.733 398.892C377.733 398.892 376.441 399.873 373.857 399.196L374.412 391.458L378.982 391.693Z" fill="url(#paint14_linear_43_1776)"/>
</g>
<mask id="mask16_43_1776" style="mask-type:luminance" maskUnits="userSpaceOnUse" x="355" y="302" width="30" height="94">
<path d="M381.723 305.89C387.334 337.857 381.327 385.035 379.239 394.278C379.11 394.844 378.659 395.281 378.087 395.381C377.118 395.551 375.518 395.697 373.936 395.254C373.392 395.102 373.004 394.615 372.978 394.049C372.614 386.597 372.703 340.822 367.588 322.78C367.328 321.866 366.761 321.073 365.981 320.529L356.322 313.8L355.481 302.781L381.723 305.89Z" fill="white"/>
</mask>
<g mask="url(#mask16_43_1776)">
<path d="M381.723 305.89C387.334 337.857 381.327 385.035 379.239 394.278C379.11 394.844 378.659 395.281 378.087 395.381C377.118 395.551 375.518 395.697 373.936 395.254C373.392 395.102 373.004 394.615 372.978 394.049C372.614 386.597 372.703 340.822 367.588 322.78C367.328 321.866 366.761 321.073 365.981 320.529L356.322 313.8L355.481 302.781L381.723 305.89Z" fill="url(#paint15_linear_43_1776)"/>
</g>
<mask id="mask17_43_1776" style="mask-type:luminance" maskUnits="userSpaceOnUse" x="324" y="243" width="60" height="68">
<path d="M347.34 245.545C363.236 245.132 380.821 249.401 380.821 249.401C385.824 277.009 382.218 308.941 382.218 308.941C369.94 312.286 356.006 307.218 356.006 307.218C353.851 295.679 343.995 263.242 343.995 263.242C336.218 262.351 329.797 260.172 324.499 257.258C328.474 252.561 330.313 246.614 331.102 243.101C336.74 244.794 342.438 245.673 347.34 245.545Z" fill="white"/>
</mask>
<g mask="url(#mask17_43_1776)">
<path d="M347.34 245.545C363.236 245.132 380.821 249.401 380.821 249.401C385.824 277.009 382.218 308.941 382.218 308.941C369.94 312.286 356.006 307.218 356.006 307.218C353.851 295.679 343.995 263.242 343.995 263.242C336.218 262.351 329.797 260.172 324.499 257.258C328.474 252.561 330.313 246.614 331.102 243.101C336.74 244.794 342.438 245.673 347.34 245.545Z" fill="url(#paint16_linear_43_1776)"/>
</g>
<mask id="mask18_43_1776" style="mask-type:luminance" maskUnits="userSpaceOnUse" x="300" y="221" width="32" height="37">
<path d="M300.155 222.576C301.698 220.674 303.683 221.547 303.683 221.547C306.117 231.409 318.461 239.305 331.101 243.101C330.313 246.614 328.474 252.561 324.499 257.258C303.47 245.698 300.155 222.576 300.155 222.576Z" fill="white"/>
</mask>
<g mask="url(#mask18_43_1776)">
<path d="M300.155 222.576C301.698 220.674 303.683 221.547 303.683 221.547C306.117 231.409 318.461 239.305 331.101 243.101C330.313 246.614 328.474 252.561 324.499 257.258C303.47 245.698 300.155 222.576 300.155 222.576Z" fill="url(#paint17_linear_43_1776)"/>
</g>
<mask id="mask19_43_1776" style="mask-type:luminance" maskUnits="userSpaceOnUse" x="293" y="206" width="11" height="18">
<path d="M300.538 223.052C300.379 223.573 302.28 224.346 303.373 222.211C303.402 221.192 303.98 216.823 303.364 215.999C300.081 211.612 293.744 206.133 293.744 206.133C292.692 207.191 293.577 208.213 293.577 208.213L296.656 211.358C296.03 212.517 295.261 213.497 294.91 214.894C294.644 215.952 294.823 217.077 295.366 218.034C295.91 218.991 296.651 220.239 297.351 221.213C298.676 223.055 300.538 223.052 300.538 223.052Z" fill="white"/>
</mask>
<g mask="url(#mask19_43_1776)">
<path d="M300.538 223.052C300.379 223.573 302.28 224.346 303.373 222.211C303.402 221.192 303.98 216.823 303.364 215.999C300.081 211.612 293.744 206.133 293.744 206.133C292.692 207.191 293.577 208.213 293.577 208.213L296.656 211.358C296.03 212.517 295.261 213.497 294.91 214.894C294.644 215.952 294.823 217.077 295.366 218.034C295.91 218.991 296.651 220.239 297.351 221.213C298.676 223.055 300.538 223.052 300.538 223.052Z" fill="url(#paint18_linear_43_1776)"/>
</g>
<mask id="mask20_43_1776" style="mask-type:luminance" maskUnits="userSpaceOnUse" x="297" y="213" width="5" height="8">
<path d="M298.009 213.406L300.808 215.734L301.703 218.07L299.254 220.841C299.254 220.841 298.376 216.198 297.747 215.197C297.118 214.195 297.436 213.706 298.009 213.406Z" fill="white"/>
</mask>
<g mask="url(#mask20_43_1776)">
<path d="M298.009 213.406L300.808 215.734L301.703 218.07L299.254 220.841C299.254 220.841 298.376 216.198 297.747 215.197C297.118 214.195 297.436 213.706 298.009 213.406Z" fill="url(#paint19_linear_43_1776)"/>
</g>
<mask id="mask21_43_1776" style="mask-type:luminance" maskUnits="userSpaceOnUse" x="374" y="249" width="25" height="27">
<path d="M374.87 264.855L380.821 249.401C380.821 249.401 395.768 259.35 398.331 272.119C395.528 272.352 390.429 273.131 385.455 275.703C384.3 269.673 374.87 264.855 374.87 264.855Z" fill="white"/>
</mask>
<g mask="url(#mask21_43_1776)">
<path d="M374.87 264.855L380.821 249.401C380.821 249.401 395.768 259.35 398.331 272.119C395.528 272.352 390.429 273.131 385.455 275.703C384.3 269.673 374.87 264.855 374.87 264.855Z" fill="url(#paint20_linear_43_1776)"/>
</g>
<mask id="mask22_43_1776" style="mask-type:luminance" maskUnits="userSpaceOnUse" x="359" y="272" width="40" height="21">
<path d="M362.031 279.464C362.031 279.464 378.793 288.728 384.343 280.627C385.495 278.946 385.758 277.282 385.455 275.703C390.429 273.131 395.528 272.352 398.331 272.12C399.106 275.969 398.755 280.076 396.528 284.243C386.845 302.363 359.864 283.595 359.864 283.595L362.031 279.464Z" fill="white"/>
</mask>
<g mask="url(#mask22_43_1776)">
<path d="M362.031 279.464C362.031 279.464 378.793 288.728 384.343 280.627C385.495 278.946 385.758 277.282 385.455 275.703C390.429 273.131 395.528 272.352 398.331 272.12C399.106 275.969 398.755 280.076 396.528 284.243C386.845 302.363 359.864 283.595 359.864 283.595L362.031 279.464Z" fill="url(#paint21_linear_43_1776)"/>
</g>
<mask id="mask23_43_1776" style="mask-type:luminance" maskUnits="userSpaceOnUse" x="353" y="232" width="16" height="18">
<path d="M363.32 232.484L368.52 247.066C368.606 247.308 368.508 247.577 368.285 247.704C366.913 248.478 361.967 250.73 355.942 246.991C355.315 246.602 354.884 245.96 354.784 245.229L353.024 232.583L363.32 232.484Z" fill="white"/>
</mask>
<g mask="url(#mask23_43_1776)">
<path d="M363.32 232.484L368.52 247.066C368.606 247.308 368.508 247.577 368.285 247.704C366.913 248.478 361.967 250.73 355.942 246.991C355.315 246.602 354.884 245.96 354.784 245.229L353.024 232.583L363.32 232.484Z" fill="url(#paint22_linear_43_1776)"/>
</g>
<mask id="mask24_43_1776" style="mask-type:luminance" maskUnits="userSpaceOnUse" x="347" y="219" width="19" height="18">
<path d="M352.184 219.042C352.184 219.042 346.73 229.551 347.481 233.77C348.233 237.986 355.115 237.618 361.095 234.129L365.188 222.799L352.184 219.042Z" fill="white"/>
</mask>
<g mask="url(#mask24_43_1776)">
<path d="M352.184 219.042C352.184 219.042 346.73 229.551 347.481 233.77C348.233 237.986 355.115 237.618 361.095 234.129L365.188 222.799L352.184 219.042Z" fill="url(#paint23_linear_43_1776)"/>
</g>
<mask id="mask25_43_1776" style="mask-type:luminance" maskUnits="userSpaceOnUse" x="349" y="211" width="24" height="24">
<path d="M360.776 228.588C360.53 228.482 360.438 228.183 360.582 227.958C361.021 227.273 361.842 225.879 362.096 224.662C362.096 224.662 363.089 224.013 359.54 223.199C355.992 222.386 350.699 221.121 349.561 218.118C348.452 215.191 351.223 207.775 355.815 213.619C355.99 213.84 356.328 213.843 356.498 213.616C357.232 212.642 359.168 210.614 361.892 211.807C364.444 212.922 364.747 214.78 364.722 215.718C364.713 215.994 364.962 216.207 365.233 216.151C366.515 215.895 369.594 215.655 371.063 218.802C372.272 221.394 371.517 222.876 370.822 223.602C370.597 223.838 370.7 224.223 371.013 224.314C371.859 224.565 372.955 225.271 372.865 227.249C372.741 229.984 369.683 229.771 368.811 229.655C368.668 229.636 368.525 229.687 368.429 229.794C367.691 230.627 364.364 234.164 360.729 234.621C360.415 234.66 360.168 234.352 360.268 234.052L361.799 229.46C361.871 229.247 361.766 229.014 361.561 228.925L360.776 228.588Z" fill="white"/>
</mask>
<g mask="url(#mask25_43_1776)">
<path d="M360.776 228.588C360.53 228.482 360.438 228.183 360.582 227.958C361.021 227.273 361.842 225.879 362.096 224.662C362.096 224.662 363.089 224.013 359.54 223.199C355.992 222.386 350.699 221.121 349.561 218.118C348.452 215.191 351.223 207.775 355.815 213.619C355.99 213.84 356.328 213.843 356.498 213.616C357.232 212.642 359.168 210.614 361.892 211.807C364.444 212.922 364.747 214.78 364.722 215.718C364.713 215.994 364.962 216.207 365.233 216.151C366.515 215.895 369.594 215.655 371.063 218.802C372.272 221.394 371.517 222.876 370.822 223.602C370.597 223.838 370.7 224.223 371.013 224.314C371.859 224.565 372.955 225.271 372.865 227.249C372.741 229.984 369.683 229.771 368.811 229.655C368.668 229.636 368.525 229.687 368.429 229.794C367.691 230.627 364.364 234.164 360.729 234.621C360.415 234.66 360.168 234.352 360.268 234.052L361.799 229.46C361.871 229.247 361.766 229.014 361.561 228.925L360.776 228.588Z" fill="url(#paint24_linear_43_1776)"/>
</g>
<mask id="mask26_43_1776" style="mask-type:luminance" maskUnits="userSpaceOnUse" x="358" y="227" width="7" height="5">
<path d="M360.15 229.243C360.15 229.243 364.079 226.492 364.39 228.774C364.7 231.056 360.859 232.118 358.944 231.283L360.15 229.243Z" fill="white"/>
</mask>
<g mask="url(#mask26_43_1776)">
<path d="M360.15 229.243C360.15 229.243 364.079 226.492 364.39 228.774C364.7 231.056 360.859 232.118 358.944 231.283L360.15 229.243Z" fill="url(#paint25_linear_43_1776)"/>
</g>
<mask id="mask27_43_1776" style="mask-type:luminance" maskUnits="userSpaceOnUse" x="323" y="259" width="43" height="37">
<path d="M365.456 294.104L356.325 262.214C356.222 261.853 355.912 261.588 355.538 261.545C353.884 261.353 349.089 260.81 343.554 260.343C336.887 259.778 329.144 259.321 324.518 259.709C323.86 259.765 323.463 260.46 323.755 261.053C326.386 266.376 337.209 288.029 342.628 295.122C342.807 295.356 343.085 295.494 343.381 295.492L364.568 295.294C365.185 295.288 365.626 294.697 365.456 294.104Z" fill="white"/>
</mask>
<g mask="url(#mask27_43_1776)">
<path d="M365.456 294.104L356.325 262.214C356.222 261.853 355.912 261.588 355.538 261.545C353.884 261.353 349.089 260.81 343.554 260.343C336.887 259.778 329.144 259.321 324.518 259.709C323.86 259.765 323.463 260.46 323.755 261.053C326.386 266.376 337.209 288.029 342.628 295.122C342.807 295.356 343.085 295.494 343.381 295.492L364.568 295.294C365.185 295.288 365.626 294.697 365.456 294.104Z" fill="url(#paint26_linear_43_1776)"/>
</g>
<mask id="mask28_43_1776" style="mask-type:luminance" maskUnits="userSpaceOnUse" x="351" y="275" width="14" height="12">
<path d="M363.251 286.4C363.251 286.4 364.523 281.169 364.009 279.313C363.495 277.458 362.501 275.071 359.188 275.603C355.874 276.132 351.966 277.528 351.966 277.528C351.966 277.528 352.162 279.946 354.682 279.166L353.12 280.374C353.12 280.374 353.343 282.31 355.469 281.275L354.018 282.878C354.018 282.878 354.931 284.467 356.497 283.448C358.061 282.428 358.811 287.03 363.251 286.4Z" fill="white"/>
</mask>
<g mask="url(#mask28_43_1776)">
<path d="M363.251 286.4C363.251 286.4 364.523 281.169 364.009 279.313C363.495 277.458 362.501 275.071 359.188 275.603C355.874 276.132 351.966 277.528 351.966 277.528C351.966 277.528 352.162 279.946 354.682 279.166L353.12 280.374C353.12 280.374 353.343 282.31 355.469 281.275L354.018 282.878C354.018 282.878 354.931 284.467 356.497 283.448C358.061 282.428 358.811 287.03 363.251 286.4Z" fill="url(#paint27_linear_43_1776)"/>
</g>
<path d="M344.164 269.862C344.164 271.342 342.963 272.542 341.483 272.542C340.002 272.542 338.803 271.342 338.803 269.862C338.803 268.382 340.002 267.181 341.483 267.181C342.963 267.181 344.164 268.382 344.164 269.862Z" fill="#7D97F4"/>
<path d="M355.294 271.627L355.973 271.428L354.113 265.121C353.811 264.095 352.983 263.323 351.952 263.109C346.059 261.88 330.538 261.628 329.88 261.618L329.87 262.325C330.03 262.328 345.98 262.585 351.807 263.802C352.583 263.964 353.206 264.546 353.434 265.322L355.294 271.627Z" fill="#91B3FA"/>
<defs>
<linearGradient id="paint0_linear_43_1776" x1="424.333" y1="445.904" x2="134.36" y2="132.916" gradientUnits="userSpaceOnUse">
<stop stop-color="#003DF4"/>
<stop offset="1" stop-color="#99B8FF"/>
</linearGradient>
<linearGradient id="paint1_linear_43_1776" x1="214" y1="305.058" x2="215.982" y2="445.761" gradientUnits="userSpaceOnUse">
<stop stop-color="#09005D"/>
<stop offset="1" stop-color="#1A0F91"/>
</linearGradient>
<linearGradient id="paint2_linear_43_1776" x1="233.146" y1="-21.6967" x2="197.475" y2="277.547" gradientUnits="userSpaceOnUse">
<stop stop-color="#09005D"/>
<stop offset="1" stop-color="#1A0F91"/>
</linearGradient>
<linearGradient id="paint3_linear_43_1776" x1="406.402" y1="323.453" x2="24.916" y2="114.378" gradientUnits="userSpaceOnUse">
<stop stop-color="#8B70CD"/>
<stop offset="1" stop-color="#6749AE"/>
</linearGradient>
<linearGradient id="paint4_linear_43_1776" x1="206.523" y1="303.676" x2="215.44" y2="416.636" gradientUnits="userSpaceOnUse">
<stop stop-color="#09005D"/>
<stop offset="1" stop-color="#1A0F91"/>
</linearGradient>
<linearGradient id="paint5_linear_43_1776" x1="19.3182" y1="175.177" x2="71.8342" y2="288.136" gradientUnits="userSpaceOnUse">
<stop stop-color="#09005D"/>
<stop offset="1" stop-color="#1A0F91"/>
</linearGradient>
<linearGradient id="paint6_linear_43_1776" x1="111.572" y1="130.532" x2="212.466" y2="310.228" gradientUnits="userSpaceOnUse">
<stop stop-color="#4042E2"/>
<stop offset="1" stop-color="#4F52FF"/>
</linearGradient>
<linearGradient id="paint7_linear_43_1776" x1="214.648" y1="191.296" x2="282.027" y2="119.953" gradientUnits="userSpaceOnUse">
<stop stop-color="#4042E2"/>
<stop offset="1" stop-color="#4F52FF"/>
</linearGradient>
<linearGradient id="paint8_linear_43_1776" x1="252.239" y1="166.972" x2="170.249" y2="214.854" gradientUnits="userSpaceOnUse">
<stop stop-color="#09005D"/>
<stop offset="1" stop-color="#1A0F91"/>
</linearGradient>
<linearGradient id="paint9_linear_43_1776" x1="116.465" y1="57.7453" x2="86.7391" y2="115.216" gradientUnits="userSpaceOnUse">
<stop stop-color="#09005D"/>
<stop offset="1" stop-color="#1A0F91"/>
</linearGradient>
<linearGradient id="paint10_linear_43_1776" x1="335.285" y1="390.659" x2="403.743" y2="463.717" gradientUnits="userSpaceOnUse">
<stop stop-color="#09005D"/>
<stop offset="1" stop-color="#1A0F91"/>
</linearGradient>
<linearGradient id="paint11_linear_43_1776" x1="357.329" y1="395.924" x2="351.311" y2="395.981" gradientUnits="userSpaceOnUse">
<stop stop-color="#FEBBBA"/>
<stop offset="1" stop-color="#FF928E"/>
</linearGradient>
<linearGradient id="paint12_linear_43_1776" x1="-1676.28" y1="-2169.19" x2="-1730.77" y2="-2236.57" gradientUnits="userSpaceOnUse">
<stop stop-color="#09005D"/>
<stop offset="1" stop-color="#1A0F91"/>
</linearGradient>
<linearGradient id="paint13_linear_43_1776" x1="350.351" y1="376.537" x2="418.812" y2="449.598" gradientUnits="userSpaceOnUse">
<stop stop-color="#09005D"/>
<stop offset="1" stop-color="#1A0F91"/>
</linearGradient>
<linearGradient id="paint14_linear_43_1776" x1="379.019" y1="395.407" x2="373.822" y2="395.457" gradientUnits="userSpaceOnUse">
<stop stop-color="#FEBBBA"/>
<stop offset="1" stop-color="#FF928E"/>
</linearGradient>
<linearGradient id="paint15_linear_43_1776" x1="-1666.65" y1="-2176.97" x2="-1721.15" y2="-2244.35" gradientUnits="userSpaceOnUse">
<stop stop-color="#09005D"/>
<stop offset="1" stop-color="#1A0F91"/>
</linearGradient>
<linearGradient id="paint16_linear_43_1776" x1="307.293" y1="160.168" x2="377.78" y2="304.918" gradientUnits="userSpaceOnUse">
<stop stop-color="#4042E2"/>
<stop offset="1" stop-color="#4F52FF"/>
</linearGradient>
<linearGradient id="paint17_linear_43_1776" x1="331.064" y1="239.136" x2="300.314" y2="239.428" gradientUnits="userSpaceOnUse">
<stop stop-color="#FEBBBA"/>
<stop offset="1" stop-color="#FF928E"/>
</linearGradient>
<linearGradient id="paint18_linear_43_1776" x1="306.307" y1="231.199" x2="294.912" y2="207.914" gradientUnits="userSpaceOnUse">
<stop stop-color="#FEBBBA"/>
<stop offset="1" stop-color="#FF928E"/>
</linearGradient>
<linearGradient id="paint19_linear_43_1776" x1="300.264" y1="218.639" x2="291.528" y2="205.484" gradientUnits="userSpaceOnUse">
<stop stop-color="#FEBBBA"/>
<stop offset="1" stop-color="#FF928E"/>
</linearGradient>
<linearGradient id="paint20_linear_43_1776" x1="329.084" y1="149.556" x2="399.571" y2="294.306" gradientUnits="userSpaceOnUse">
<stop stop-color="#4042E2"/>
<stop offset="1" stop-color="#4F52FF"/>
</linearGradient>
<linearGradient id="paint21_linear_43_1776" x1="398.765" y1="282.049" x2="359.852" y2="282.419" gradientUnits="userSpaceOnUse">
<stop stop-color="#FEBBBA"/>
<stop offset="1" stop-color="#FF928E"/>
</linearGradient>
<linearGradient id="paint22_linear_43_1776" x1="370.753" y1="262.014" x2="355.889" y2="232.783" gradientUnits="userSpaceOnUse">
<stop stop-color="#FEBBBA"/>
<stop offset="1" stop-color="#FF928E"/>
</linearGradient>
<linearGradient id="paint23_linear_43_1776" x1="649.738" y1="-1440.6" x2="654.456" y2="-1467.42" gradientUnits="userSpaceOnUse">
<stop stop-color="#FEBBBA"/>
<stop offset="1" stop-color="#FF928E"/>
</linearGradient>
<linearGradient id="paint24_linear_43_1776" x1="375.019" y1="209.689" x2="353.33" y2="227.156" gradientUnits="userSpaceOnUse">
<stop stop-color="#09005D"/>
<stop offset="1" stop-color="#1A0F91"/>
</linearGradient>
<linearGradient id="paint25_linear_43_1776" x1="655.429" y1="-1439.6" x2="660.147" y2="-1466.42" gradientUnits="userSpaceOnUse">
<stop stop-color="#FEBBBA"/>
<stop offset="1" stop-color="#FF928E"/>
</linearGradient>
<linearGradient id="paint26_linear_43_1776" x1="349.417" y1="257.324" x2="327.945" y2="346.791" gradientUnits="userSpaceOnUse">
<stop stop-color="#09005D"/>
<stop offset="1" stop-color="#1A0F91"/>
</linearGradient>
<linearGradient id="paint27_linear_43_1776" x1="364.131" y1="280.993" x2="351.966" y2="280.993" gradientUnits="userSpaceOnUse">
<stop stop-color="#FEBBBA"/>
<stop offset="1" stop-color="#FF928E"/>
</linearGradient>
</defs>
</svg>
