<svg width="246" height="210" viewBox="0 0 246 210" fill="none" xmlns="http://www.w3.org/2000/svg">
<path d="M33.8633 81.8503C47.2188 37.6657 105.733 -12.4085 176.984 2.77326C197.611 7.16814 210.48 15.5383 218.362 33.64C231.539 63.8998 219.631 90.6917 209.163 102.509C199.007 113.973 183.297 119.245 174.02 131.474C168.966 138.137 166.293 146.67 166.611 155.116C166.752 158.826 167.446 162.536 167.065 166.227C166.308 173.56 161.186 179.693 155.21 183.758C138.895 194.852 98.1315 200.619 66.0269 178.876C27.3073 152.654 28.4892 99.6295 33.8633 81.8503Z" fill="#E1E2F2"/>
<path d="M243.209 209.675H29.5675C28.0255 209.675 26.776 208.425 26.776 206.883C26.776 205.341 28.0255 204.092 29.5675 204.092H243.209C244.751 204.092 246 205.342 246 206.883C246 208.425 244.75 209.675 243.209 209.675Z" fill="#E1E2F2"/>
<path d="M61.3882 52.4168H32.3933C30.0982 52.4168 28.2374 50.556 28.2374 48.2609V32.3953C28.2374 30.1002 30.0982 28.2394 32.3933 28.2394H61.3882C63.6833 28.2394 65.5441 30.1002 65.5441 32.3953V48.2609C65.5435 50.556 63.6833 52.4168 61.3882 52.4168Z" fill="#F78FE2"/>
<path d="M64.6896 52.4168H35.6947C33.3996 52.4168 31.5388 50.556 31.5388 48.2609V32.3953C31.5388 30.1002 33.3996 28.2394 35.6947 28.2394H64.6896C66.9847 28.2394 68.8455 30.1002 68.8455 32.3953V48.2609C68.8455 50.556 66.9847 52.4168 64.6896 52.4168Z" fill="#F7C3ED"/>
<path d="M36.2445 39.0627V37.8739L45.8142 32.9999V34.902L38.4735 38.4386L38.5329 38.3197V38.6169L38.4735 38.498L45.8142 42.0346V43.9367L36.2445 39.0627ZM54.9101 28.4826L50.0064 46.7006H48.4016L53.3053 28.4826H54.9101ZM67.0635 39.0627L57.4939 43.9367V42.0346L64.8345 38.498L64.7751 38.6169V38.3197L64.8345 38.4386L57.4939 34.902V32.9999L67.0635 37.8739V39.0627Z" fill="#F78FE2"/>
<path d="M216.834 46.9635H195.692C193.397 46.9635 191.536 45.1027 191.536 42.8076V26.942C191.536 24.6469 193.397 22.7861 195.692 22.7861H216.834C219.129 22.7861 220.99 24.6469 220.99 26.942V42.8076C220.989 45.1027 219.129 46.9635 216.834 46.9635Z" fill="#F78FE2"/>
<path d="M220.786 46.9635H199.644C197.349 46.9635 195.488 45.1027 195.488 42.8076V26.942C195.488 24.6469 197.349 22.7861 199.644 22.7861H220.786C223.081 22.7861 224.942 24.6469 224.942 26.942V42.8076C224.942 45.1027 223.081 46.9635 220.786 46.9635Z" fill="#F7C3ED"/>
<path d="M200.2 38.6492V29.189H203.397C204.139 29.189 204.746 29.323 205.217 29.5909C205.691 29.8557 206.042 30.2145 206.27 30.6672C206.498 31.1199 206.612 31.6249 206.612 32.1823C206.612 32.7397 206.498 33.2462 206.27 33.702C206.045 34.1578 205.697 34.5211 205.226 34.7921C204.755 35.06 204.151 35.194 203.415 35.194H201.124V34.1778H203.378C203.887 34.1778 204.295 34.09 204.603 33.9145C204.91 33.7389 205.134 33.5018 205.272 33.2031C205.414 32.9013 205.485 32.561 205.485 32.1823C205.485 31.8035 205.414 31.4648 205.272 31.166C205.134 30.8673 204.909 30.6333 204.598 30.4639C204.287 30.2915 203.874 30.2052 203.36 30.2052H201.346V38.6492H200.2ZM208.457 38.6492V29.189H209.603V33.4017H214.647V29.189H215.793V38.6492H214.647V34.418H209.603V38.6492H208.457ZM218.086 38.6492V29.189H221.283C222.025 29.189 222.631 29.323 223.102 29.5909C223.577 29.8557 223.928 30.2145 224.156 30.6672C224.384 31.1199 224.497 31.6249 224.497 32.1823C224.497 32.7397 224.384 33.2462 224.156 33.702C223.931 34.1578 223.583 34.5211 223.112 34.7921C222.641 35.06 222.037 35.194 221.301 35.194H219.01V34.1778H221.264C221.772 34.1778 222.18 34.09 222.488 33.9145C222.796 33.7389 223.019 33.5018 223.158 33.2031C223.3 32.9013 223.37 32.561 223.37 32.1823C223.37 31.8035 223.3 31.4648 223.158 31.166C223.019 30.8673 222.795 30.6333 222.484 30.4639C222.172 30.2915 221.76 30.2052 221.246 30.2052H219.232V38.6492H218.086Z" fill="#F78FE2"/>
<path d="M42.6894 111.409H4.1559C1.86079 111.409 0 109.548 0 107.253V96.1684C0 93.8733 1.86079 92.0125 4.1559 92.0125H42.6894C44.9845 92.0125 46.8453 93.8733 46.8453 96.1684V107.253C46.8447 109.548 44.9845 111.409 42.6894 111.409Z" fill="#F78FE2"/>
<path d="M46.4085 111.409H7.87502C5.5799 111.409 3.71912 109.548 3.71912 107.253V96.1684C3.71912 93.8733 5.5799 92.0125 7.87502 92.0125H46.4085C48.7036 92.0125 50.5644 93.8733 50.5644 96.1684V107.253C50.5644 109.548 48.7042 111.409 46.4085 111.409Z" fill="#F7C3ED"/>
<path d="M11.2248 105.641V95.3456H12.4715V99.9302H17.961V95.3456H19.2077V105.641H17.961V101.036H12.4715V105.641H11.2248ZM21.1406 96.4515V95.3456H28.8621V96.4515H25.6247V105.641H24.378V96.4515H21.1406ZM30.7861 95.3456H32.2741L35.7729 103.891H35.8936L39.3924 95.3456H40.8804V105.641H39.7141V97.8188H39.6136L36.3963 105.641H35.2702L32.0529 97.8188H31.9524V105.641H30.7861V95.3456ZM43.3801 105.641V95.3456H44.6268V104.535H49.4125V105.641H43.3801Z" fill="#F78FE2"/>
<path d="M226.404 203.707H193.152C192.895 203.707 192.686 203.498 192.686 203.241V129.865H226.871V203.241C226.871 203.498 226.662 203.707 226.404 203.707Z" fill="#D69532"/>
<path d="M223.804 132.444H195.751V147.894H223.804V132.444Z" fill="#FAAE3A"/>
<path d="M217.121 134.868H204.043V136.52H217.121V134.868Z" fill="#BD642C"/>
<path d="M223.804 151.336H195.751V166.786H223.804V151.336Z" fill="#FAAE3A"/>
<path d="M217.121 153.76H204.043V155.412H217.121V153.76Z" fill="#BD642C"/>
<path d="M223.804 170.228H195.751V185.679H223.804V170.228Z" fill="#FAAE3A"/>
<path d="M217.121 172.652H204.043V174.304H217.121V172.652Z" fill="#BD642C"/>
<path d="M156.083 203.707H192.219C192.476 203.707 192.685 203.498 192.685 203.241V129.865H155.616V203.241C155.616 203.498 155.825 203.707 156.083 203.707Z" fill="#BD642C"/>
<path d="M155.616 129.865V169.613L156.161 170.139L192.685 131.503L192.568 129.865H155.616Z" fill="#A15525"/>
<path d="M107.216 162.285H101.634H83.1507C83.1507 163.567 84.1895 164.606 85.4716 164.606H101.634V189.43H107.216V164.606H130.237C131.518 164.606 132.558 163.567 132.558 162.285H107.216Z" fill="#706593"/>
<path d="M109.88 177.251H98.9676V191.691H109.88V177.251Z" fill="#827D93"/>
<path d="M130.433 199.105H127.34V196.168C127.34 193.752 125.375 191.787 122.959 191.787H87.532C85.1158 191.787 83.1506 193.752 83.1506 196.168V199.105H80.0581V196.168C80.0581 192.047 83.4111 188.694 87.532 188.694H122.959C127.08 188.694 130.433 192.047 130.433 196.168V199.105Z" fill="#827D93"/>
<path d="M85.493 198.873C85.493 201.26 83.5579 203.195 81.1706 203.195C78.7834 203.195 76.8482 201.26 76.8482 198.873C76.8482 196.486 78.7834 194.551 81.1706 194.551C83.5579 194.551 85.493 196.486 85.493 198.873Z" fill="black"/>
<path d="M133.55 198.873C133.55 201.26 131.615 203.195 129.227 203.195C126.84 203.195 124.905 201.26 124.905 198.873C124.905 196.486 126.84 194.551 129.227 194.551C131.615 194.551 133.55 196.486 133.55 198.873Z" fill="black"/>
<path d="M70.1399 89.5969H110.407C114.087 89.5969 117.254 92.1967 117.971 95.8059L131.185 162.286H80.0318C77.3527 162.286 75.0809 160.318 74.6976 157.667L65.6136 94.8248C65.2155 92.0671 67.354 89.5969 70.1399 89.5969Z" fill="#324BBF"/>
<path d="M95.3948 150.341H144.647C148.274 150.341 151.214 153.281 151.214 156.908V162.285H95.3948V150.341Z" fill="#2440BF"/>
<path d="M65.6142 94.8242L74.6982 157.667C75.0816 160.318 77.354 162.285 80.0324 162.285H110.827V158.879C110.827 154.164 107.005 150.341 102.29 150.341H83.574L74.6577 93.4616C74.3088 91.2365 72.3921 89.5969 70.14 89.5969C67.354 89.5969 65.2155 92.0671 65.6142 94.8242Z" fill="#1E2D72"/>
<path d="M140.969 101.945C145.12 107.835 147.176 112.854 149.272 117.108C151.456 121.541 147.328 123.781 141.742 123.778C139.06 123.776 137.984 122.588 135.267 118.457L122.579 98.3193C121.271 96.2423 119.451 92.423 119.891 90.0874C120.84 85.0505 123.997 83.0699 123.997 83.0699C126.842 84.4896 135.597 94.3225 140.969 101.945Z" fill="#FF6666"/>
<path d="M139.228 99.5539C133.871 92.4031 126.551 84.3444 123.996 83.0685C123.996 83.0685 120.838 85.0491 119.89 90.0859C119.45 92.4216 121.27 96.2408 122.579 98.3179L127.65 106.369C129.897 104.484 133.907 101.582 139.228 99.5539Z" fill="#6C57E5"/>
<path d="M139.425 98.1704C139.245 97.9351 138.945 97.8135 138.652 97.8608C131.057 99.0901 127.241 103.232 125.459 106.117L125.623 106.377L126.865 108.347C127.185 108.857 127.924 108.844 128.236 108.329C130.419 104.717 135.642 102.471 140.277 101.096C140.812 100.938 141.028 100.295 140.694 99.8469C140.28 99.2934 139.856 98.7331 139.425 98.1704Z" fill="#C0B9E5"/>
<path d="M137.576 121.931C136.024 118.395 138.004 113.105 144.91 109.912C152.221 106.532 163.886 105.932 163.886 105.932L165.919 110.061C165.919 110.061 164.214 113.362 155.616 118.811C146.626 124.509 138.837 124.954 137.576 121.931Z" fill="#FF6666"/>
<path d="M153.095 111.589C153.095 111.589 151.663 113.737 148.117 112.819C144.57 111.902 154.127 107.481 154.127 107.481L153.095 111.589Z" fill="#FF9999"/>
<path d="M168.612 108.878C167.5 106.98 164.871 105.726 162.227 105.747L158.092 105.779C158.091 105.784 158.092 105.788 158.092 105.792C156.124 105.884 154.379 106.503 153.358 108.036C150.752 112.823 152.979 117.79 154.218 118.007C156.035 118.326 156.83 111.734 157.319 110.413C156.926 111.741 157.26 116.979 159.146 117.665C161.086 118.32 160.95 113.476 161.194 111.584C161.266 113.133 162.555 117.541 164.413 117.89C166.104 118.159 165.586 111.633 165.657 111.663C165.588 111.636 166.854 116.147 168.842 116.738C170.703 117.275 169.938 113.682 169.907 112.742C169.907 112.743 169.807 110.919 168.612 108.878Z" fill="#FF9999"/>
<path d="M155.685 136.871C150.726 131.633 106.051 130.638 106.051 130.638C106.051 130.638 103.499 140.611 105.458 145.598C107.185 149.995 133.381 149.996 143.02 150.162C142.516 150.852 138.901 156.175 140.514 164.722L148.52 198.528L154.722 198.297L159.167 146.639C159.521 143.972 159.113 140.492 155.685 136.871Z" fill="black"/>
<path d="M148.521 198.528H148.521L154.723 198.297L155.844 185.266L145.906 187.485L148.521 198.528Z" fill="#CFCFFF"/>
<path d="M146.083 192.414C146.03 192.057 146.588 191.867 146.858 192.15C147.31 192.627 147.828 193.068 148.604 193.203C151.071 193.63 152.161 190.671 154.23 189.672C156.299 188.674 158.474 192.626 158.474 192.626C158.656 192.616 158.849 192.6 159.043 192.584C159.042 192.598 159.039 192.611 159.037 192.625C162.814 191.767 168.711 191.198 172.433 195.086C173.79 196.504 174.47 199.758 174.098 202.4C174.098 202.4 157.54 206.32 147.593 201.217C146.927 200.875 146.46 200.331 146.369 199.696L146.083 192.414Z" fill="black"/>
<path d="M142.564 139.008C137.938 133.474 93.4067 129.212 93.4067 129.212C93.4067 129.212 87.6621 140.835 92.3378 147.736C95.668 152.651 112.601 153.593 126.551 153.422C126.553 153.428 126.557 153.442 126.557 153.442C126.557 153.442 122.68 160.196 123.27 166.48L126.33 200.567H132.537L144.342 149.988C144.876 146.782 145.74 142.807 142.564 139.008Z" fill="#301F55"/>
<path d="M125.339 189.525L126.33 200.567H132.537L135.541 187.695L125.339 189.525Z" fill="white"/>
<path d="M125.323 192.414C125.27 192.057 125.828 191.867 126.097 192.15C126.549 192.627 127.067 193.068 127.843 193.203C130.311 193.63 131.401 190.671 133.469 189.672C135.538 188.674 137.713 192.626 137.713 192.626C137.895 192.616 138.088 192.6 138.282 192.583C138.281 192.598 138.278 192.611 138.277 192.625C142.054 191.767 147.95 191.198 151.672 195.086C153.029 196.503 153.709 199.758 153.338 202.4C153.338 202.4 136.78 206.32 126.831 201.217C126.166 200.875 125.699 200.331 125.608 199.696L125.323 192.414Z" fill="#301F55"/>
<path d="M128.009 100.017L126.764 87.5156C126.631 85.2358 125.173 83.2466 123.035 82.4382C118.715 80.8047 112.971 78.8579 110.141 78.8579C107.311 78.8579 101.566 80.8047 97.2457 82.4382C95.0919 83.2528 93.6274 85.2659 93.5125 87.6108L92.7796 116.334L91.3672 131.844L92.8539 132.273C93.3902 132.428 106.093 136.059 116.178 136.06H116.18C122.776 136.06 126.822 134.527 128.55 131.373L128.78 130.953L128.786 115.72C128.788 110.494 128.527 105.211 128.009 100.017Z" fill="#8170E5"/>
<path d="M105.653 76.0849L106.75 68.7375L116.847 71.158L117.092 77.6029C117.156 79.3113 118.275 80.7912 119.893 81.3441L119.92 81.3533C121.596 84.6473 123.767 90.339 119.615 91.7004C113.171 93.813 112.193 84.6522 101.417 81.1033V80.9399C103.647 80.1947 105.306 78.4113 105.653 76.0849Z" fill="#FC596C"/>
<path d="M128.624 108.696C123.592 111.916 118.545 113.393 113.839 113.502C106.923 113.661 101.234 108.067 101.075 101.151L100.827 90.3962L93.4615 89.5969L93.1476 101.899L92.7796 116.334L91.3672 131.844L92.8539 132.273C93.3902 132.428 106.093 136.059 116.178 136.06H116.18C122.776 136.06 126.822 134.527 128.55 131.373L128.78 130.953L128.786 115.72C128.787 113.385 128.727 111.04 128.624 108.696Z" fill="#7360E5"/>
<path d="M120.917 96.7501H126.476V101.616C126.476 103.151 125.232 104.395 123.697 104.395C122.161 104.395 120.917 103.151 120.917 101.616L120.917 96.7501Z" fill="#8D7EE5"/>
<path d="M71.3427 125.236C70.834 121.409 74.2054 116.876 81.726 115.727C89.6882 114.51 106.434 114.494 106.434 114.494L105.213 122.236C105.213 122.236 94.2699 124.979 88.2102 127.893C78.6175 132.505 71.7137 128.491 71.3427 125.236Z" fill="#FF9999"/>
<path d="M114.095 115.048C114.949 115.445 115.906 115.709 116.848 115.979C118.319 115.423 121.108 114.282 122.366 113.199C123.568 112.166 122.945 110.744 122.945 110.744C122.945 110.744 118.378 111.468 115.105 112.001C114.716 112.064 114.331 112.081 113.948 112.081C114.26 113.042 114.339 114.073 114.095 115.048Z" fill="#E83F53"/>
<path d="M125.503 120.708C126.263 120.094 124.403 115.602 119.799 112.21C119.19 111.822 118.582 111.589 117.982 111.477C117.905 111.456 117.804 111.446 117.691 111.441C117.07 111.367 116.459 111.42 115.868 111.574C114.197 111.738 110.213 112.95 110.191 112.955C107.263 113.619 105.676 115.027 104.152 116.026C100.019 118.735 102.042 121.356 102.042 121.356C105.611 126.151 109.788 120.719 109.788 120.719C110.304 121.569 112.34 125.545 113.361 124.435C114.441 123.234 113.131 119.569 113.098 119.616C113.132 119.566 116.026 125.289 117.078 124.476C118.204 123.535 117.075 119.441 116.239 118.033C117.498 119.64 119.699 123.732 120.709 122.49C121.662 121.239 119.376 116.727 118.334 115.674C119.44 116.689 124.388 121.608 125.503 120.708Z" fill="#FF9999"/>
<path d="M71.2923 123.142C71.0631 124.79 77.0092 126.151 77.0092 126.151L86.3635 117.867C86.3635 117.867 95.7516 105.203 98.0099 100.485C99.0726 98.2644 101.238 93.528 100.944 91.0836C100.678 88.8733 99.0026 82.7263 96.7781 82.6397C95.8155 82.6022 90.5415 86.9578 89.4689 88.0716C82.0098 95.817 73.4307 107.76 71.2923 123.142Z" fill="#FF9999"/>
<path d="M98.0099 100.485C99.0727 98.2644 101.238 93.528 100.944 91.0836C100.679 88.8733 99.0027 82.7263 96.7782 82.6397C95.8155 82.6022 90.5416 86.9578 89.469 88.0716C86.6787 90.9693 83.7312 94.455 81.0232 98.4887C84.2742 98.8358 89.1532 100.455 94.7552 105.932C96.1608 103.792 97.371 101.82 98.0099 100.485Z" fill="#8170E5"/>
<path d="M97.3525 102.751C93.8927 98.5348 87.9933 96.0756 83.1647 94.6903C82.5535 94.5152 81.8974 94.7321 81.5214 95.2451C81.3156 95.5264 81.1098 95.8102 80.9052 96.0965C80.2805 96.9713 80.74 98.2092 81.7874 98.4525C85.2116 99.2474 89.6336 101.221 94.5887 105.705C95.289 106.338 96.3887 106.198 96.8961 105.402C97.089 105.099 97.277 104.801 97.4594 104.51C97.8022 103.96 97.7629 103.252 97.3525 102.751Z" fill="#C0B9E5"/>
<path d="M96.3592 75.3544C93.9443 74.6031 91.4219 73.4531 90.1717 71.1641C89.0635 69.135 89.1913 66.6347 89.4948 64.3193C89.6207 63.361 89.77 62.3768 89.558 61.4351C89.4131 60.79 89.1047 60.1972 88.7527 59.6462C87.4509 57.6103 85.5293 56.0475 84.375 53.9164C83.0339 51.44 82.8773 48.358 83.7078 45.6476C84.5384 42.9372 86.2954 40.5941 88.4547 38.8617C90.6208 37.1244 93.2655 35.8829 94.7792 33.5073C95.7682 31.9549 96.1651 30.0695 97.0485 28.4489C98.1973 26.3412 100.362 24.6985 102.678 24.8324C104.877 24.9596 106.715 26.5765 108.805 27.3094C112.553 28.624 116.577 26.9973 120.455 26.195C123.91 25.4805 127.566 25.4455 130.883 26.6846C134.2 27.9237 137.136 30.5548 138.317 34.0252C138.883 35.6888 139.036 37.4703 139.178 39.2297C139.546 43.8126 139.716 48.9231 136.881 52.4383C134.826 54.9871 131.622 56.1144 128.587 57.1342C123.754 58.7585 118.707 60.5406 115.24 64.4195C113.537 66.3251 112.315 68.6356 111.112 70.9196C111.112 72.0021 109.316 74.5011 108.714 75.4355C108.124 76.3515 107.611 76.8405 106.544 76.9959C103.358 77.4597 99.3872 76.2962 96.3592 75.3544Z" fill="#6B2709"/>
<path d="M126.753 60.0989C124.893 63.6565 125.673 67.7362 128.494 69.2118C131.316 70.6874 135.111 68.9987 136.972 65.4411C138.832 61.8836 138.052 57.8032 135.231 56.3282C132.409 54.8532 128.614 56.5414 126.753 60.0989Z" fill="#FF6666"/>
<path d="M128.386 66.8915C128.397 66.7466 128.424 66.6218 128.439 66.4812C128.418 66.5825 128.405 66.6667 128.397 66.7336C128.415 66.01 128.521 65.4172 128.705 64.9521C130.174 58.9299 135.805 58.3235 135.805 58.3235C132.953 60.0455 131.171 61.945 130.068 63.5189C132.093 62.6945 135.223 64.4404 135.223 64.4404C131.51 63.4562 129.821 64.2708 129.046 65.2169C128.534 66.236 128.386 66.8915 128.386 66.8915Z" fill="#C23232"/>
<path d="M98.2213 60.0989C100.081 63.6565 99.3019 67.7362 96.4803 69.2118C93.6587 70.6874 89.8634 68.9987 88.0038 65.4411C86.1436 61.8836 86.9232 57.8032 89.7448 56.3282C92.5658 54.8532 96.3611 56.5414 98.2213 60.0989Z" fill="#FF6666"/>
<path d="M96.5882 66.8915C96.5771 66.7466 96.5495 66.6218 96.5347 66.4812C96.5556 66.5825 96.5692 66.6667 96.5765 66.7336C96.5587 66.01 96.453 65.4172 96.2694 64.9521C94.7993 58.9299 89.169 58.3235 89.169 58.3235C92.0219 60.0455 93.8029 61.945 94.9056 63.5189C92.8814 62.6945 89.7514 64.4404 89.7514 64.4404C93.4644 63.4562 95.1531 64.2708 95.9284 65.2169C96.4395 66.236 96.5882 66.8915 96.5882 66.8915Z" fill="#C23232"/>
<path d="M127.708 52.8358C125.75 50.4055 122.622 45.9732 119.246 39.0258C119.246 39.0258 100.938 41.5783 96.0354 52.2982C95.6637 53.111 95.3388 53.9483 95.1299 54.8372V61.7932L95.1833 63.0231C95.1833 73.4169 102.9 81.8429 112.419 81.8429C121.939 81.8429 129.656 73.4175 129.656 63.0231L129.791 59.9042V58.7149C129.791 56.5727 129.052 54.5037 127.708 52.8358Z" fill="#FF9999"/>
<path d="M104.571 60.5087C105.136 60.5087 105.594 59.4123 105.594 58.06C105.594 56.7076 105.136 55.6113 104.571 55.6113C104.006 55.6113 103.548 56.7076 103.548 58.06C103.548 59.4123 104.006 60.5087 104.571 60.5087Z" fill="#28202E"/>
<path d="M99.5279 55.4067C99.5279 55.4067 105.122 52.1889 108.137 51.7736C108.137 51.7736 108.555 46.87 104.553 48.6694C100.55 50.4681 99.5279 55.4067 99.5279 55.4067Z" fill="#6B2709"/>
<path d="M120.269 60.5087C120.834 60.5087 121.291 59.4123 121.291 58.06C121.291 56.7076 120.834 55.6113 120.269 55.6113C119.704 55.6113 119.246 56.7076 119.246 58.06C119.246 59.4123 119.704 60.5087 120.269 60.5087Z" fill="#28202E"/>
<path d="M125.602 55.3803C125.602 55.3803 119.977 52.2159 116.959 51.8301C116.959 51.8301 116.818 46.9088 120.838 48.6694C124.858 50.4294 125.602 55.3803 125.602 55.3803Z" fill="#6B2709"/>
<path d="M110.141 63.8506C110.141 65.1794 111.161 66.2563 112.419 66.2563C113.678 66.2563 114.698 65.1794 114.698 63.8506C114.698 62.5218 113.678 58.9802 112.419 58.9802C111.161 58.9802 110.141 62.5218 110.141 63.8506Z" fill="#FF6666"/>
<path d="M109.539 68.8887C109.319 68.7793 109.119 68.6669 108.942 68.5563C108.73 68.4243 108.665 68.1447 108.798 67.9328C108.93 67.7215 109.204 67.6557 109.422 67.7878C109.59 67.8916 113.525 70.2875 115.792 67.4192C115.948 67.2226 116.231 67.1907 116.429 67.3449C116.625 67.5003 116.658 67.7854 116.503 67.9813C114.523 70.4853 111.365 69.7966 109.539 68.8887Z" fill="#FF6666"/>
<path d="M122.72 66.3749C122.785 66.3749 122.853 66.3607 122.916 66.33C123.142 66.2213 123.236 65.9504 123.128 65.7255L121.699 62.7682C121.591 62.5433 121.32 62.45 121.095 62.5575C120.869 62.6662 120.775 62.9371 120.884 63.162L122.312 66.1193C122.39 66.2809 122.551 66.3749 122.72 66.3749Z" fill="#FF6666"/>
<path d="M125.576 66.3749C125.642 66.3749 125.71 66.3607 125.773 66.33C125.998 66.2213 126.093 65.9504 125.984 65.7255L124.556 62.7682C124.447 62.5433 124.176 62.45 123.951 62.5575C123.726 62.6662 123.632 62.9371 123.741 63.162L125.169 66.1193C125.246 66.2809 125.408 66.3749 125.576 66.3749Z" fill="#FF6666"/>
<path d="M102.391 66.3749C102.559 66.3749 102.72 66.2809 102.799 66.1187L104.227 63.1613C104.336 62.9365 104.242 62.6656 104.016 62.5569C103.79 62.4493 103.52 62.5427 103.412 62.7676L101.983 65.7249C101.875 65.9504 101.969 66.2207 102.195 66.3294C102.257 66.3608 102.324 66.3749 102.391 66.3749Z" fill="#FF6666"/>
<path d="M99.534 66.3749C99.7029 66.3749 99.8639 66.2809 99.9425 66.1187L101.371 63.1613C101.48 62.9365 101.386 62.6656 101.159 62.5569C100.934 62.4493 100.664 62.5427 100.555 62.7676L99.1267 65.7249C99.0179 65.9504 99.1119 66.2207 99.3374 66.3294C99.4013 66.3608 99.4682 66.3749 99.534 66.3749Z" fill="#FF6666"/>
<path opacity="0.77" d="M110.318 60.682C110.927 56.9401 108.388 53.4129 104.646 52.8037C100.904 52.1944 97.3768 54.7339 96.7676 58.4758C96.1584 62.2176 98.6979 65.7449 102.44 66.3541C106.182 66.9633 109.709 64.4238 110.318 60.682Z" fill="#9FB3E9"/>
<path opacity="0.22" d="M109.88 56.9327L99.3632 65.016C100.522 65.9104 101.971 66.4479 103.549 66.4479C107.34 66.4479 110.413 63.3745 110.413 59.5835C110.412 58.6442 110.222 57.7485 109.88 56.9327Z" fill="white"/>
<path opacity="0.22" d="M104.015 52.7436L97.0895 57.2773C96.8315 57.9991 96.6835 58.7738 96.6835 59.5847C96.6835 59.8569 96.7037 60.1241 96.7345 60.3882L106.307 53.302C105.598 52.9893 104.826 52.7983 104.015 52.7436Z" fill="white"/>
<path d="M103.548 52.7197C107.339 52.7197 110.413 55.7925 110.413 59.5841C110.413 63.3751 107.339 66.4486 103.548 66.4486C99.7571 66.4486 96.6836 63.3751 96.6836 59.5841C96.6836 55.7931 99.7571 52.7197 103.548 52.7197ZM103.548 52.1274C99.4364 52.1274 96.0914 55.4724 96.0914 59.5841C96.0914 63.6958 99.4364 67.0408 103.548 67.0408C107.66 67.0408 111.005 63.6958 111.005 59.5841C111.004 55.4724 107.66 52.1274 103.548 52.1274Z" fill="#1E2D72"/>
<path opacity="0.77" d="M127.782 59.5841C127.782 63.3751 124.708 66.4486 120.917 66.4486C117.126 66.4486 114.053 63.3751 114.053 59.5841C114.053 55.7931 117.126 52.7197 120.917 52.7197C124.708 52.7197 127.782 55.7931 127.782 59.5841Z" fill="#9FB3E9"/>
<path opacity="0.22" d="M124.773 53.9053L115.427 63.6921C116.234 64.7678 117.346 65.5971 118.638 66.0523L127.38 57.2896C126.888 55.9031 125.969 54.7193 124.773 53.9053Z" fill="white"/>
<path d="M120.917 52.7197C124.708 52.7197 127.782 55.7925 127.782 59.5841C127.782 63.3751 124.708 66.4486 120.917 66.4486C117.126 66.4486 114.053 63.3751 114.053 59.5841C114.053 55.7931 117.126 52.7197 120.917 52.7197ZM120.917 52.1274C116.806 52.1274 113.461 55.4724 113.461 59.5841C113.461 63.6958 116.806 67.0408 120.917 67.0408C125.029 67.0408 128.374 63.6958 128.374 59.5841C128.374 55.4724 125.029 52.1274 120.917 52.1274Z" fill="#1E2D72"/>
<path d="M109.928 56.8245L109.529 56.3865C109.55 56.3668 111.648 54.5011 114.374 56.024L114.085 56.5407C111.73 55.2248 109.946 56.8085 109.928 56.8245Z" fill="#1E2D72"/>
<path d="M95.1305 58.9802C95.0334 58.9802 94.9388 58.9329 94.8823 58.8456C94.7932 58.7086 94.8313 58.525 94.9683 58.4359L96.4267 57.4849C96.5643 57.3958 96.7468 57.4339 96.8365 57.5709C96.9256 57.7085 96.8875 57.8916 96.7505 57.9807L95.2921 58.9316C95.2417 58.9642 95.1858 58.9802 95.1305 58.9802Z" fill="#1E2D72"/>
<path d="M129.791 58.9802C129.741 58.9802 129.691 58.9679 129.645 58.9415L127.636 57.8081C127.494 57.7282 127.444 57.547 127.524 57.4051C127.606 57.2619 127.787 57.2128 127.928 57.2926L129.937 58.4261C130.079 58.5066 130.129 58.6872 130.049 58.8297C129.994 58.9261 129.893 58.9802 129.791 58.9802Z" fill="#1E2D72"/>
<path d="M185.748 124.199H52.4467C50.0195 124.199 48.0525 126.166 48.0525 128.594V129.824H185.748V124.199Z" fill="#BD642C"/>
<path d="M57.169 203.707H103.394C103.652 203.707 103.861 203.498 103.861 203.241V129.865H56.7021V203.241C56.7027 203.498 56.9116 203.707 57.169 203.707Z" fill="#BD642C"/>
<path d="M56.7027 153.634L103.861 129.865H56.7027V153.634Z" fill="#A15525"/>
<path d="M109.668 203.707H104.328C104.07 203.707 103.861 203.498 103.861 203.241V129.865H110.135V203.241C110.134 203.498 109.925 203.707 109.668 203.707Z" fill="#D69532"/>
<path d="M227.04 124.199H97.7039C95.112 124.199 93.0104 126.3 93.0104 128.893V129.824H230.706V127.865C230.706 125.84 229.064 124.199 227.04 124.199Z" fill="#FAAE3A"/>
<path opacity="0.61" d="M69.5746 103.826C68.2544 102.783 68.6863 100.865 70.1742 99.9686C70.8641 99.5527 71.7813 99.256 72.0657 98.6146C72.3679 97.9321 71.78 97.2017 71.0858 96.7231C69.4302 95.5817 66.9772 95.1885 64.8762 95.7273C65.7007 95.6978 66.6848 95.7365 67.1204 96.2814C67.6561 96.9523 66.8906 97.8271 65.9968 98.2018C65.1029 98.5765 64.0285 98.7264 63.3024 99.2787C62.473 99.9084 62.3188 100.945 62.7003 101.796C63.0818 102.647 63.9148 103.333 64.8345 103.881C65.2215 104.112 65.6356 104.33 65.9132 104.641C66.1915 104.953 66.3021 105.391 66.0355 105.708C65.8469 105.932 65.5164 106.051 65.224 106.192C64.6158 106.484 64.1096 106.918 63.8645 107.441C63.3761 108.481 64.0395 109.707 65.1896 110.359C67.191 111.495 72.1247 111.351 73.5732 109.532C74.3534 108.553 74.453 107.071 73.7127 106.073C72.7777 104.813 70.8032 104.797 69.5746 103.826Z" fill="url(#paint0_linear_24_251)"/>
<path d="M77.8932 121.326C74.8327 121.326 72.3422 118.836 72.3422 115.775C72.3422 112.714 74.832 110.224 77.8932 110.224C80.9538 110.224 83.4436 112.713 83.4436 115.775C83.4436 118.836 80.9538 121.326 77.8932 121.326ZM77.8932 112.739C76.2186 112.739 74.8566 114.101 74.8566 115.775C74.8566 117.449 76.2186 118.811 77.8932 118.811C79.5673 118.811 80.9292 117.449 80.9292 115.775C80.9292 114.101 79.5673 112.739 77.8932 112.739Z" fill="#FDE98B"/>
<path d="M78.1157 108.245V121.448C78.1157 123.056 76.8127 124.359 75.205 124.359H63.2564C61.6488 124.359 60.3458 123.056 60.3458 121.448V108.245H78.1157V108.245Z" fill="#FDF7DA"/>
<path d="M60.4569 122.193C60.8053 123.441 61.9479 124.359 63.3074 124.359H75.154C76.79 124.359 78.1157 123.033 78.1157 121.397V115.297C72.5978 121.166 65.3642 122.26 60.4569 122.193Z" fill="#FDF3C3"/>
<path d="M151.929 124.199H123.111V118.941L151.929 116.536V124.199Z" fill="#838EF7"/>
<path d="M183.567 116.536H151.929V124.199H183.567V116.536Z" fill="#B7BDF7"/>
<path d="M220.246 110.061H162.381V60.4983H220.246C221.683 60.4983 222.848 61.663 222.848 63.1006V107.459C222.848 108.896 221.683 110.061 220.246 110.061Z" fill="#B7BDF7"/>
<path d="M209.993 82.1372H178.375C177.402 82.1372 176.613 81.3484 176.613 80.3754C176.613 79.4023 177.402 78.6135 178.375 78.6135H209.993C210.966 78.6135 211.755 79.4023 211.755 80.3754C211.755 81.3484 210.966 82.1372 209.993 82.1372Z" fill="#838EF7"/>
<path d="M159.552 110.061H162.381V60.4983H159.552C158.115 60.4983 156.949 61.663 156.949 63.1006V107.459C156.949 108.896 158.115 110.061 159.552 110.061Z" fill="#838EF7"/>
<path d="M186.149 92.0236V124.199H205.877L199.755 92.0236H186.149Z" fill="#6573F7"/>
<path d="M188.83 92.0236V124.199H208.558L202.952 94.7352C202.653 93.1619 201.277 92.0236 199.676 92.0236H188.83Z" fill="#838EF7"/>
<path d="M52.5377 176.193C50.6443 173.508 48.4758 170.886 45.6136 169.286C42.7515 167.687 38.2276 166.762 35.645 168.536C35.1197 168.898 32.7417 170.786 32.7816 173.051C32.824 175.451 34.8052 178.515 37.0297 179.539C38.211 180.083 39.5343 180.22 40.7015 180.798C42.7595 181.817 43.9623 183.983 45.1646 185.945C46.3668 187.907 47.9438 189.96 50.1738 190.395C52.2287 190.796 54.3033 189.581 55.2555 187.789C56.2077 185.998 56.1659 183.763 55.5417 181.756C54.9182 179.748 53.7614 177.928 52.5377 176.193Z" fill="#71BFB8"/>
<path d="M52.5377 176.193C50.6443 173.508 48.4757 170.886 45.6136 169.286C43.1379 167.903 39.4237 167.032 36.7938 167.968C38.7062 169.814 41.4116 171.001 42.8872 173.305C44.8881 176.429 42.9149 178.749 41.5566 181.328C43.1102 182.46 44.1399 184.274 45.1645 185.945C46.3668 187.907 47.9437 189.96 50.1737 190.396C52.2287 190.797 54.3038 189.581 55.256 187.79C56.2083 185.999 56.1665 183.764 55.5423 181.757C54.9182 179.748 53.7614 177.928 52.5377 176.193Z" fill="#23A195"/>
<path d="M40.7911 171.582C38.59 170.199 36.5854 169.438 35.041 169.014C34.9507 169.094 34.8561 169.178 34.7566 169.272C39.1975 170.456 47.9873 174.635 53.9677 189.336C54.0507 189.268 54.133 189.199 54.2116 189.126C50.1153 179.122 44.7676 174.08 40.7911 171.582Z" fill="#273350"/>
<path d="M62.2834 168.337C60.8102 163.772 58.9156 159.168 55.5651 155.658C52.2146 152.147 46.1881 148.811 41.6955 150.082C40.7814 150.341 36.529 151.862 35.5516 155.005C34.5165 158.334 35.9417 163.463 38.6448 165.887C40.0811 167.176 41.905 167.968 43.3044 169.296C45.7734 171.639 46.4989 175.175 47.3172 178.428C48.1348 181.682 49.4458 185.233 52.4265 186.848C55.1732 188.337 58.6865 187.606 60.8618 185.568C63.0377 183.53 63.9979 180.429 64.0256 177.377C64.0532 174.325 63.2356 171.287 62.2834 168.337Z" fill="#A4F4ED"/>
<path d="M50.6363 162.794C47.1599 160.126 40.4687 157.983 35.3096 158.85C35.6407 161.51 36.862 164.288 38.646 165.887C40.0823 167.176 41.9062 167.968 43.3056 169.296C45.7746 171.639 46.5001 175.175 47.3184 178.428C48.1361 181.682 49.447 185.233 52.4277 186.848C55.1744 188.337 58.6877 187.606 60.863 185.568C63.0389 183.53 63.9991 180.429 64.0268 177.377C64.0341 176.564 63.9782 175.752 63.8787 174.943C63.3817 174.672 62.889 174.396 62.4191 174.098C57.819 171.18 54.9643 166.115 50.6363 162.794Z" fill="#6FDED4"/>
<path d="M47.6409 156.627C45.1345 153.718 42.625 151.754 40.6155 150.467C40.4503 150.535 40.277 150.608 40.0921 150.693C45.8827 154.348 56.5056 164.116 58.3191 187.117C58.4684 187.061 58.6177 187.004 58.7627 186.938C57.4916 171.275 52.1697 161.884 47.6409 156.627Z" fill="#4A5C85"/>
<path d="M36.0977 182.375H66.8815L60.4649 203.85H44.4003L36.0977 182.375Z" fill="#B7BDF7"/>
<path d="M66.0933 185.012L66.8815 182.375H36.0977L37.1169 185.012H66.0933Z" fill="#E6E7F7"/>
<defs>
<linearGradient id="paint0_linear_24_251" x1="68.1953" y1="96.2927" x2="68.6347" y2="117.751" gradientUnits="userSpaceOnUse">
<stop offset="0.22" stop-color="white"/>
<stop offset="0.6986" stop-color="white" stop-opacity="0"/>
</linearGradient>
</defs>
</svg>
