<svg width="339" height="302" viewBox="0 0 339 302" fill="none" xmlns="http://www.w3.org/2000/svg">
<path d="M328.347 218.438C322.817 205.859 312.197 195.362 299.439 190.196C286.151 184.815 270.893 186.774 256.896 184.971C244.74 183.406 235.969 177.979 228.711 168.33C221.756 159.086 215.52 148.847 204.149 144.571C195.164 141.192 184.949 142.128 176.019 145.65C159.564 152.138 147.135 165.933 136.668 179.676C127.112 192.224 119.317 205.964 101.64 206.413C83.952 206.861 67.1127 196.771 49.3032 199.445C25.7651 202.978 6.16285 222.573 2.05498 245.9C-1.79476 267.763 7.86561 288.968 24.4616 301.426H309.721C330.633 279.242 341.606 248.596 328.347 218.438Z" fill="#C5B4F0"/>
<path d="M70.4776 301.427H71.2623C76.712 295.437 80.9809 288.168 83.6947 280.1C88.087 267.042 87.9019 253.338 83.1733 241.511C80.7836 235.535 77.3329 229.965 73.9957 224.578C70.6111 219.115 67.1117 213.466 64.7364 207.413C63.7544 204.91 63.0289 202.222 62.5925 199.481C62.3958 199.455 62.1989 199.434 62.0021 199.41C62.4406 202.25 63.1865 205.033 64.2025 207.622C66.5964 213.724 70.11 219.396 73.5079 224.881C76.832 230.246 80.2694 235.795 82.6403 241.724C87.3184 253.424 87.4997 266.988 83.1506 279.918C80.4036 288.086 76.0452 295.422 70.4776 301.427Z" fill="#261F38"/>
<path d="M308.342 276.549C314.22 277.801 319.884 278.924 325.361 279.631C325.455 279.45 325.547 279.268 325.639 279.087C320.116 278.384 314.399 277.253 308.462 275.988C299.422 274.062 289.637 271.977 279.933 271.977C273.924 271.977 267.946 272.776 262.196 274.907C260.017 275.714 257.918 276.738 255.919 277.958C250.727 275.746 245.507 273.33 240.336 270.678C244.088 267.851 247.88 265.083 251.712 262.407C280.159 242.543 306.412 231.282 331.776 228.086C331.725 227.9 331.672 227.714 331.619 227.528C306.188 230.751 279.877 242.041 251.384 261.937C247.47 264.67 243.599 267.498 239.77 270.386C233.955 267.382 228.21 264.08 222.649 260.436C212.563 253.828 200.566 244.395 190.089 231.861C230.69 227.307 272.027 221.567 305.783 199.007C307.065 198.15 308.485 197.14 309.956 195.994C309.793 195.878 309.629 195.764 309.464 195.65C308.055 196.742 306.695 197.707 305.464 198.529C271.716 221.085 230.304 226.779 189.65 231.334C182.246 222.379 175.631 211.86 171.034 199.683C163.874 180.715 164.252 162.1 172.072 148.612C172.411 148.027 172.77 147.45 173.14 146.879C172.813 147.029 172.489 147.185 172.166 147.34C171.965 147.666 171.767 147.994 171.575 148.324C163.669 161.962 163.275 180.755 170.497 199.885C175.07 211.997 181.626 222.474 188.969 231.409C186.616 231.673 184.262 231.932 181.915 232.191C173.45 233.126 164.695 234.092 156.195 235.186C153.092 235.586 149.937 236.052 146.797 236.635C140.067 222.431 132.674 208.573 123.117 196.688C122.981 196.825 122.841 196.957 122.703 197.091C132.178 208.885 139.525 222.64 146.215 236.745C132.521 239.357 119.224 244.266 112.124 255.693C105.493 266.365 105.499 281.116 112.142 299.538C112.372 300.175 112.608 300.803 112.848 301.427H113.463C113.2 300.745 112.938 300.055 112.682 299.343C106.102 281.095 106.078 266.511 112.612 255.996C119.627 244.705 132.851 239.861 146.469 237.281C148.845 242.306 151.14 247.374 153.421 252.41L153.669 252.958C161.591 270.446 169.785 287.324 180.514 301.427H181.23C170.404 287.298 162.164 270.319 154.192 252.722L153.944 252.174C151.682 247.18 149.406 242.156 147.052 237.172C150.131 236.603 153.225 236.147 156.269 235.755C164.764 234.662 173.515 233.696 181.978 232.762C184.45 232.489 186.927 232.216 189.406 231.938C199.983 244.668 212.133 254.232 222.334 260.916C227.834 264.52 233.515 267.791 239.263 270.77C229.505 278.15 220.013 285.915 210.746 293.498C207.537 296.123 204.291 298.775 201.02 301.427H201.929C205.015 298.923 208.079 296.42 211.109 293.941C220.442 286.307 230.001 278.486 239.828 271.062C244.97 273.707 250.161 276.119 255.325 278.329C248.259 282.822 242.502 289.78 239.02 298.229C238.584 299.287 238.204 300.355 237.851 301.427H238.455C238.788 300.429 239.144 299.433 239.551 298.447C243.042 289.975 248.848 283.024 255.967 278.602C270.404 284.735 284.592 289.288 296.784 292.895L297.243 293.031C302.38 294.55 307.635 296.107 312.283 298.607C312.413 298.459 312.543 298.312 312.673 298.163C307.949 295.6 302.617 294.022 297.405 292.481L296.946 292.345C284.879 288.775 270.854 284.277 256.572 278.235C258.432 277.128 260.38 276.192 262.396 275.445C277.278 269.93 293.782 273.447 308.342 276.549Z" fill="#261F38"/>
<path d="M25.8996 239.392C28.4332 249.763 27.3029 260.962 22.7981 270.12C19.8475 276.119 15.5866 281.549 10.3384 286.213C10.4428 286.375 10.5495 286.536 10.6555 286.697C15.9889 281.972 20.3177 276.463 23.313 270.374C27.8763 261.097 29.0222 249.755 26.4567 239.256C24.4524 231.052 20.4232 224.104 14.8565 219.077C14.7324 219.223 14.6092 219.369 14.4866 219.517C19.9607 224.466 23.9249 231.31 25.8996 239.392Z" fill="#261F38"/>
<path d="M155.728 108.017C160.725 113.124 162.965 121.726 160.21 129.658C157.542 137.337 151.693 143.699 144.667 147.788C139.013 151.079 131.639 152.894 126.079 149.448C121.924 146.873 119.769 141.822 119.65 136.935C119.53 132.048 121.173 127.286 123.204 122.84C126.067 116.573 129.921 110.495 135.661 106.684C143.573 101.431 150.925 103.109 155.728 108.017Z" fill="#C5B4F0"/>
<path d="M89.4877 18.4855H48.1084V0H89.4877V18.4855ZM48.9688 17.6251H88.6272V0.860443H48.9688V17.6251Z" fill="#E9DDCA"/>
<path d="M62.5681 36.1633H21.1888V17.6777H62.5681V36.1633ZM22.0493 35.3028H61.7077V18.5382H22.0493V35.3028Z" fill="#E9DDCA"/>
<path d="M324.927 55.861C322.248 46.9516 317.535 38.7719 310.789 31.2936C304.029 23.8153 294.81 17.6419 283.131 12.7594C271.452 7.87668 256.613 5.43555 238.614 5.43555C224.256 5.43555 209.624 7.37166 194.716 11.2441C179.794 15.1306 166.852 20.6585 155.874 27.8422L170.163 67.0736L162.505 73.2777L173.612 76.5419C184.576 70.8033 194.565 66.6365 203.578 64.0407C212.578 61.4591 222.14 60.1682 232.28 60.1682C242.406 60.1682 250.073 62.6096 255.281 67.4921C260.488 72.3888 263.085 78.2674 263.085 85.1704C263.085 93.5046 260.405 100.899 255.074 107.367C249.716 113.835 243.808 120.373 237.336 126.981C232.843 131.569 228.474 136.312 224.256 141.194C220.038 146.091 216.301 151.324 213.072 156.936C209.829 162.535 207.233 168.568 205.268 175.036C203.289 181.504 202.314 188.757 202.314 196.797C202.314 199.393 202.369 202.479 202.52 206.071C202.545 206.734 202.58 207.38 202.62 208.017H192.119L203.578 215.766H259.293C259.004 214.041 258.867 212.034 258.867 209.733C258.867 207.432 258.867 205.706 258.867 204.556C258.867 199.673 259.856 194.861 261.821 190.119C263.786 185.376 266.259 180.859 269.213 176.537C272.167 172.23 275.465 168.133 279.133 164.261C282.788 160.374 286.305 156.712 289.685 153.261C294.178 148.673 298.822 143.79 303.604 138.613C308.385 133.436 312.617 127.992 316.272 122.239C319.926 116.487 322.949 110.244 325.34 103.481C327.731 96.732 328.94 89.3379 328.94 81.2844C328.939 73.2447 327.593 64.7703 324.927 55.861Z" fill="#544183"/>
<path d="M220.485 57.4315C210.464 57.4315 201.013 58.6806 192.119 61.1791C183.212 63.6912 173.34 67.724 162.504 73.2776L144.975 26.1467C155.824 19.1945 168.615 13.8446 183.361 10.0832C198.094 6.3356 212.555 4.46167 226.744 4.46167C244.532 4.46167 259.197 6.82434 270.739 11.5497C282.281 16.275 291.392 22.2494 298.072 29.4868C304.739 36.7242 309.397 44.6405 312.045 53.2628C314.679 61.8851 316.01 70.0866 316.01 77.8671C316.01 85.6611 314.815 92.817 312.452 99.3484C310.089 105.893 307.102 111.936 303.49 117.503C299.878 123.07 295.696 128.338 290.971 133.349C286.246 138.359 281.656 143.085 277.216 147.525C273.875 150.865 270.399 154.409 266.787 158.171C263.162 161.918 259.903 165.883 256.984 170.052C254.064 174.234 251.62 178.606 249.678 183.196C247.737 187.785 246.759 192.443 246.759 197.168C246.759 198.281 246.759 199.952 246.759 202.178C246.759 204.405 246.895 206.347 247.18 208.017H192.119C191.549 205.234 191.21 202.111 191.074 198.635C190.924 195.158 190.87 192.171 190.87 189.659C190.87 181.879 191.834 174.859 193.789 168.599C195.731 162.339 198.297 156.5 201.502 151.083C204.693 145.651 208.386 140.586 212.555 135.847C216.723 131.122 221.041 126.533 225.482 122.093C231.877 115.697 237.716 109.369 243.011 103.11C248.28 96.8501 250.928 89.6942 250.928 81.6285C250.928 74.9478 248.361 69.2586 243.215 64.5197C238.069 59.7941 230.492 57.4315 220.485 57.4315Z" fill="#8B70CD"/>
<path d="M263.105 269.847C263.105 279.892 259.854 287.642 253.35 293.11C246.847 298.589 239.497 301.318 231.289 301.318C223.071 301.318 215.721 298.589 209.217 293.11C202.725 287.642 199.473 279.892 199.473 269.847C199.473 259.813 202.725 252.062 209.217 246.583C219.228 238.135 234.039 236.252 245.76 242.182C256.16 247.443 263.105 258.128 263.105 269.847Z" fill="#544183"/>
<path d="M252.207 269.847C252.207 279.892 248.955 287.642 242.451 293.11C235.948 298.589 228.598 301.318 220.39 301.318C212.172 301.318 204.822 298.589 198.318 293.11C191.826 287.642 188.574 279.892 188.574 269.847C188.574 259.813 191.826 252.062 198.318 246.583C204.822 241.115 212.172 238.375 220.39 238.375C228.598 238.375 235.948 241.115 242.451 246.583C248.955 252.062 252.207 259.813 252.207 269.847Z" fill="#8B70CD"/>
<path d="M87.2656 127.436C87.876 124.179 85.7304 121.044 82.4733 120.433C79.2161 119.823 76.0809 121.969 75.4705 125.226C74.8601 128.483 77.0057 131.618 80.2628 132.229C83.5199 132.839 86.6552 130.693 87.2656 127.436Z" fill="#D3DFFF"/>
<path d="M90.1359 138.716C90.4792 136.884 89.262 135.118 87.417 134.773C85.5721 134.427 83.7982 135.632 83.4549 137.464C83.1116 139.296 84.3289 141.061 86.1738 141.407C88.0187 141.753 89.7926 140.548 90.1359 138.716Z" fill="#D3DFFF"/>
<path d="M83.2652 112.833C92.491 103.607 92.491 88.6486 83.2652 79.4228C74.0393 70.1969 59.0812 70.1969 49.8553 79.4228C40.6294 88.6486 40.6294 103.607 49.8553 112.833C59.0812 122.058 74.0393 122.058 83.2652 112.833Z" fill="#D3DFFF"/>
<path d="M57.491 99.1045C59.1348 99.1045 60.4674 97.7719 60.4674 96.1281C60.4674 94.4842 59.1348 93.1516 57.491 93.1516C55.8471 93.1516 54.5145 94.4842 54.5145 96.1281C54.5145 97.7719 55.8471 99.1045 57.491 99.1045Z" fill="#261F38"/>
<path d="M66.5624 99.1045C68.2062 99.1045 69.5388 97.7719 69.5388 96.1281C69.5388 94.4842 68.2062 93.1516 66.5624 93.1516C64.9185 93.1516 63.5859 94.4842 63.5859 96.1281C63.5859 97.7719 64.9185 99.1045 66.5624 99.1045Z" fill="#261F38"/>
<path d="M75.6334 99.1045C77.2773 99.1045 78.6099 97.7719 78.6099 96.1281C78.6099 94.4842 77.2773 93.1516 75.6334 93.1516C73.9896 93.1516 72.657 94.4842 72.657 96.1281C72.657 97.7719 73.9896 99.1045 75.6334 99.1045Z" fill="#261F38"/>
<path d="M49.6385 289.492L51.8458 298.001C52.4215 300.22 54.5671 301.72 56.941 301.559C64.1786 301.067 79.2164 299.294 87.8472 292.932L85.3937 280.668C73.5269 279.998 62.429 280.658 52.8196 283.892C50.4135 284.703 49.0219 287.114 49.6385 289.492Z" fill="#102048"/>
<path d="M63.4695 296.265C63.344 296.265 63.2288 296.182 63.1932 296.056L60.2294 285.443C60.1867 285.291 60.276 285.133 60.4286 285.09C60.5821 285.048 60.7395 285.137 60.7822 285.289L63.746 295.901C63.7884 296.054 63.6994 296.212 63.5468 296.255C63.5209 296.262 63.4947 296.265 63.4695 296.265Z" fill="#261F38"/>
<path d="M69.8749 294.831C69.7494 294.831 69.6342 294.749 69.5987 294.622L66.6349 284.01C66.5924 283.857 66.6814 283.699 66.834 283.656C66.9878 283.613 67.1449 283.703 67.1876 283.855L70.1514 294.468C70.1941 294.62 70.1048 294.778 69.9523 294.821C69.9263 294.828 69.9004 294.831 69.8749 294.831Z" fill="#261F38"/>
<path d="M77.3144 243.491L49.7334 251.677L70.2163 279.742L99.6224 282.081L140.182 264.93L124.77 241.737L77.3144 243.491Z" fill="#8B70CD"/>
<path d="M111.317 247.389C171.887 229.459 181.621 282.99 87.1164 292.735C83.7783 288.979 79.8774 282.462 78.3284 277.014L128.235 253.951L111.317 247.389Z" fill="#8B70CD"/>
<path d="M113.89 285.755C111.057 284.848 108.343 283.055 108.343 283.055L98.6082 286.109L100.839 296.698L110.951 298.753C114.032 293.118 114.212 288.492 113.89 285.755Z" fill="#F9B384"/>
<path d="M78.5445 277.385L78.1122 276.641C88.5235 270.591 115.192 256.054 137.914 251.767L138.073 252.613C115.483 256.875 88.9175 271.357 78.5445 277.385Z" fill="#261F38"/>
<path d="M77.3144 243.492C20.9359 232.772 6.33426 286.953 100.839 296.698C104.177 292.942 106.794 288.504 108.343 283.056C93.826 273.342 77.5948 264.11 59.8059 255.315L77.3144 243.492Z" fill="#8B70CD"/>
<path d="M108.112 283.418C105.43 281.712 102.635 279.907 99.6767 277.997C84.825 268.408 67.9918 257.539 53.6901 251.342L54.0322 250.552C68.399 256.778 85.2637 267.667 100.143 277.274C103.101 279.183 105.894 280.987 108.573 282.692L108.112 283.418Z" fill="#261F38"/>
<path d="M35.9498 270.356L35.1968 269.94C37.313 266.109 40.7027 263.524 45.2715 262.259L45.5012 263.088C41.1024 264.307 37.9782 266.684 35.9498 270.356Z" fill="#261F38"/>
<path d="M153.62 267.094C151.592 263.422 148.468 261.045 144.069 259.827L144.298 258.998C148.867 260.263 152.257 262.847 154.373 266.678L153.62 267.094Z" fill="#261F38"/>
<path d="M95.5597 296.222L94.9308 295.635C99.4407 290.805 102.211 285.706 103.399 280.046L104.241 280.223C103.02 286.041 100.18 291.274 95.5597 296.222Z" fill="#261F38"/>
<path d="M142.008 282.6C134.784 278.138 120.781 285.849 117.266 286.239C116.241 286.352 115.056 286.128 113.89 285.755C114.212 288.492 114.032 293.118 110.952 298.753L112.669 299.102C112.669 299.102 124.544 303.454 137.14 300.921C148.767 298.582 147.686 286.108 142.008 282.6Z" fill="#102048"/>
<path d="M132.162 297.197C132.133 297.197 132.104 297.193 132.075 297.184C131.924 297.136 131.84 296.975 131.888 296.824C132.746 294.107 133.121 288.761 130.635 285.171C130.545 285.041 130.578 284.862 130.708 284.772C130.837 284.681 131.016 284.714 131.107 284.844C133.71 288.604 133.327 294.172 132.435 296.997C132.396 297.119 132.283 297.197 132.162 297.197Z" fill="#261F38"/>
<path d="M126.497 298.273C126.468 298.273 126.44 298.269 126.411 298.26C126.26 298.212 126.176 298.051 126.224 297.9C127.082 295.182 127.456 289.837 124.971 286.247C124.88 286.116 124.913 285.938 125.043 285.848C125.173 285.757 125.352 285.79 125.442 285.92C128.045 289.68 127.662 295.247 126.77 298.072C126.732 298.195 126.619 298.273 126.497 298.273Z" fill="#261F38"/>
<path d="M67.3401 173.632C67.3401 173.632 81.5388 161.558 81.0131 159.264C80.6373 157.624 76.6152 160.028 76.6152 160.028C76.6152 160.028 82.2558 153.336 81.969 152.524C81.4564 151.071 77.5553 153.778 77.5553 153.778C77.5553 153.778 80.1921 149.983 78.9315 149.364C77.6709 148.746 74.9225 151.085 74.9225 151.085C74.9225 151.085 76.5283 148.978 75.7738 148.425C75.0194 147.872 71.7648 150.145 71.7648 150.145C71.7648 150.145 72.9327 147.488 70.4517 148.496C67.9706 149.503 50.5736 165.468 50.5736 165.468L67.3401 173.632Z" fill="#F9B384"/>
<path d="M73.1494 159.311C73.0803 159.311 73.011 159.287 72.956 159.236C70.5187 157.009 69.4442 156.469 66.7553 155.642C66.6038 155.595 66.5189 155.435 66.5655 155.283C66.6121 155.132 66.7725 155.046 66.9241 155.093C69.7101 155.95 70.8227 156.51 73.3433 158.813C73.4603 158.92 73.4683 159.101 73.3616 159.218C73.3047 159.28 73.2272 159.311 73.1494 159.311Z" fill="#E28B6D"/>
<path d="M68.8715 165.86C68.8582 165.86 68.8448 165.859 68.8315 165.858C68.6746 165.836 68.5651 165.691 68.5872 165.534C68.8662 163.537 69.4946 162.29 70.5086 161.72C71.3752 161.232 72.503 161.282 73.8606 161.868C74.0061 161.931 74.0731 162.1 74.0103 162.245C73.9476 162.391 73.7787 162.458 73.6333 162.395C72.4491 161.883 71.4925 161.825 70.7897 162.22C69.9542 162.689 69.4042 163.831 69.1553 165.613C69.1351 165.756 69.0123 165.86 68.8715 165.86Z" fill="#E28B6D"/>
<path d="M68.202 153.79C68.1258 153.79 68.0496 153.76 67.9932 153.7C67.8844 153.585 67.8899 153.403 68.0051 153.294L71.568 149.936C71.6832 149.827 71.8647 149.833 71.9735 149.948C72.0822 150.064 72.0767 150.245 71.9615 150.354L68.3986 153.712C68.3433 153.764 68.2726 153.79 68.202 153.79Z" fill="#E28B6D"/>
<path d="M71.5004 154.937C71.4288 154.937 71.3574 154.911 71.3017 154.857C71.1874 154.748 71.1837 154.566 71.2934 154.452L74.7157 150.886C74.8254 150.771 75.0069 150.768 75.1214 150.878C75.2356 150.988 75.2393 151.169 75.1296 151.283L71.7073 154.849C71.6509 154.908 71.5756 154.937 71.5004 154.937Z" fill="#E28B6D"/>
<path d="M74.8703 156.945C74.8003 156.945 74.7301 156.92 74.6748 156.868C74.5589 156.76 74.5525 156.578 74.6605 156.463L77.3456 153.582C77.4539 153.467 77.6349 153.46 77.751 153.568C77.8669 153.676 77.8733 153.858 77.7652 153.973L75.0802 156.854C75.0235 156.914 74.9471 156.945 74.8703 156.945Z" fill="#E28B6D"/>
<path d="M120.976 254.389L69.0625 256.396L63.3262 209.072C63.3262 209.072 80.7055 192.588 87.392 186.517L98.6798 185.938C133.701 201.857 127.967 221.739 120.976 254.389Z" fill="#3A6BEA"/>
<path d="M98.6798 185.938C98.6798 185.938 138.747 189.365 151.378 216.816C163.738 243.677 112.945 253.241 112.945 253.241L98.6798 185.938Z" fill="#3A6BEA"/>
<path d="M52.8806 191.821L69.4376 171.673L53.9546 162.289C47.496 166.78 35.0065 176.952 24.4221 188.47C22.0859 191.013 20.261 193.982 19.3419 197.252C18.5576 200.043 18.4151 202.799 18.8559 205.497C20.0047 212.531 25.5377 217.959 32.9236 218.824C39.2314 219.563 63.3259 217.677 82.8293 211.941L88.5656 189.801C85.618 188.128 63.7107 187.838 52.8806 191.821Z" fill="#3A6BEA"/>
<g opacity="0.8">
<path d="M132.117 196.833C132.203 196.813 132.29 196.793 132.376 196.773C132.195 196.666 132.013 196.562 131.832 196.457C128.895 197.132 125.866 197.823 122.879 198.184C121.085 198.4 115.088 198.796 113.336 194.801C112.464 192.813 113.124 190.602 114.11 189.051C113.966 189.009 113.823 188.969 113.68 188.928C112.67 190.571 112.022 192.877 112.942 194.973C114.813 199.241 121.062 198.836 122.931 198.61C126.004 198.24 129.111 197.525 132.117 196.833Z" fill="#261F38"/>
<path d="M150.816 227.793C148.901 227.054 146.924 226.289 144.845 226.485C141.199 226.83 138.078 230.435 137.889 234.523C137.76 237.31 138.824 240.231 140.854 242.8C140.977 242.724 141.099 242.647 141.22 242.57C139.235 240.073 138.194 237.239 138.319 234.543C138.499 230.661 141.444 227.238 144.885 226.913C146.862 226.73 148.707 227.44 150.66 228.194C151.358 228.464 152.066 228.735 152.787 228.966C152.824 228.827 152.86 228.688 152.893 228.548C152.191 228.322 151.498 228.057 150.816 227.793Z" fill="#261F38"/>
<path d="M49.6851 214.111C47.1836 212.042 43.2967 211.489 39.0231 212.594C35.2145 213.579 31.9466 215.53 29.7017 218.113C29.8492 218.16 29.9933 218.214 30.1429 218.258C32.327 215.808 35.4731 213.956 39.1305 213.01C43.2687 211.939 47.0165 212.462 49.4111 214.442C50.5492 215.383 51.3539 216.605 51.9387 217.924C52.0865 217.907 52.2347 217.89 52.3834 217.872C51.7712 216.454 50.9179 215.13 49.6851 214.111Z" fill="#261F38"/>
<path d="M27.0712 185.657C31.7584 184.492 36.3323 182.856 40.551 180.426C42.145 179.508 43.945 178.337 45.2109 176.618C46.5576 174.789 47.005 172.612 46.408 170.794C46.1737 170.081 45.7591 169.455 45.2407 168.953C45.1311 169.043 45.0202 169.134 44.9099 169.225C45.3938 169.685 45.7816 170.266 45.9991 170.929C46.5527 172.614 46.1287 174.646 44.8647 176.363C43.6461 178.018 41.8919 179.157 40.3364 180.053C36.3573 182.345 32.0532 183.931 27.6322 185.076C27.4447 185.269 27.2579 185.462 27.0712 185.657Z" fill="#261F38"/>
</g>
<path d="M102.347 175.417L102.339 176.152L102.223 187.562L102.209 188.799C102.187 190.733 101.394 192.486 100.114 193.759C98.8414 195.024 97.0889 195.817 95.147 195.831C91.2344 195.853 88.0345 192.711 87.9982 188.791L87.8601 174.69L102.347 175.417Z" fill="#F9B384"/>
<path d="M102.339 176.152L102.223 187.562C95.8812 184.981 93.2705 178.115 93.2705 178.115L102.339 176.152Z" fill="#102048"/>
<path d="M104.848 156.24C107.121 158.967 113.757 174.421 107.03 179.694C99.4602 185.627 87.9396 175.876 87.9396 175.876L86.3943 157.876L96.394 155.24L104.848 156.24Z" fill="#F9B384"/>
<path d="M81.2998 155.248C81.2998 155.248 59.1194 166.816 77.2048 200.163C79.5275 204.445 84.6725 206.315 89.0739 204.225C93.7953 201.983 95.5829 196.215 93.0193 191.661C90.061 186.406 87.2057 179.638 88.4245 174.603L81.2998 155.248Z" fill="#102048"/>
<path d="M87.6344 164.966C89.9775 162.623 89.9775 158.824 87.6344 156.481C85.2913 154.138 81.4924 154.138 79.1493 156.481C76.8062 158.824 76.8062 162.623 79.1493 164.966C81.4924 167.309 85.2913 167.309 87.6344 164.966Z" fill="#FBC343"/>
<path d="M90.7755 167.933C90.1273 164.19 89.7321 161.623 93.5153 159.694C93.5153 159.694 106.848 162.118 109.394 157.088C111.939 152.058 108.06 144.119 99.9395 149.634C79.1521 145.573 76.3643 165.027 82.6671 171.512L88.888 170.557C90.1399 170.365 90.9914 169.181 90.7755 167.933Z" fill="#102048"/>
<path d="M101.098 168.83C101.588 168.83 101.985 168.434 101.985 167.944C101.985 167.454 101.588 167.058 101.098 167.058C100.609 167.058 100.212 167.454 100.212 167.944C100.212 168.434 100.609 168.83 101.098 168.83Z" fill="#102048"/>
<path d="M107.098 165.876C107.588 165.876 107.985 165.479 107.985 164.989C107.985 164.5 107.588 164.103 107.098 164.103C106.609 164.103 106.212 164.5 106.212 164.989C106.212 165.479 106.609 165.876 107.098 165.876Z" fill="#102048"/>
<path d="M106.485 170.672C106.423 170.672 106.36 170.649 106.312 170.603C106.211 170.507 106.207 170.349 106.303 170.248C106.658 169.874 107.048 169.348 106.884 168.966C106.714 168.57 105.996 168.399 105.667 168.399C104.96 168.399 104.62 167.141 104.559 166.889C104.527 166.754 104.609 166.619 104.744 166.586C104.879 166.553 105.014 166.636 105.047 166.771C105.176 167.303 105.469 167.897 105.667 167.897C106.005 167.897 107.04 168.057 107.345 168.768C107.563 169.276 107.335 169.89 106.667 170.594C106.617 170.646 106.551 170.672 106.485 170.672Z" fill="#102048"/>
<path d="M106.53 174.035C106.482 174.035 106.433 174.021 106.39 173.992C104.721 172.866 103.036 173.811 103.019 173.82C102.899 173.889 102.746 173.848 102.676 173.728C102.607 173.608 102.648 173.454 102.769 173.385C102.848 173.339 104.745 172.277 106.67 173.576C106.785 173.654 106.816 173.81 106.738 173.925C106.69 173.997 106.611 174.035 106.53 174.035Z" fill="#102048"/>
<path d="M100.71 164.105C101.214 165.054 100.336 165.244 99.3061 165.791C98.2766 166.338 97.2225 166.539 96.982 166.086C96.7415 165.633 97.381 164.823 98.4106 164.276C99.4401 163.729 100.32 163.37 100.71 164.105Z" fill="#102048"/>
<path d="M104.465 162.392C104.687 163.239 105.318 162.868 106.237 162.628C107.156 162.387 107.898 161.925 107.793 161.521C107.687 161.117 106.856 160.985 105.937 161.225C105.018 161.465 104.293 161.736 104.465 162.392Z" fill="#102048"/>
<path opacity="0.4" d="M98.789 174C99.8501 173.022 99.9169 171.368 98.9382 170.307C97.9595 169.246 96.3059 169.179 95.2448 170.158C94.1837 171.136 94.1169 172.79 95.0956 173.851C96.0743 174.912 97.7278 174.979 98.789 174Z" fill="#EB5D60"/>
<path d="M90.2669 174.532C91.4612 172.985 91.0036 170.63 89.2449 169.273C87.4862 167.916 85.0923 168.07 83.898 169.618C82.7038 171.166 83.1613 173.521 84.92 174.878C86.6788 176.235 89.0726 176.08 90.2669 174.532Z" fill="#F9B384"/>
<path d="M88.6377 173.401C88.4991 173.401 88.3867 173.289 88.3867 173.15C88.3867 172.409 88.0255 171.725 87.4207 171.318C86.9035 170.97 86.2867 170.889 85.7714 171.099C85.6429 171.15 85.4965 171.089 85.4442 170.961C85.3919 170.832 85.4534 170.686 85.5819 170.634C86.2521 170.36 87.0444 170.46 87.7008 170.901C88.4447 171.401 88.8887 172.242 88.8887 173.15C88.8885 173.289 88.7763 173.401 88.6377 173.401Z" fill="#102048"/>
<path d="M52.6663 191.618L43.6101 201.415L44.0313 201.804L53.0875 192.008L52.6663 191.618Z" fill="#102048"/>
<path d="M116.47 233.727L116.303 233.179C122.896 231.169 129.294 228.765 135.092 221.514L135.54 221.873C129.64 229.252 123.153 231.691 116.47 233.727Z" fill="#102048"/>
<path d="M120.479 211.514H64.3967C62.3798 211.514 60.7448 213.283 60.7448 215.464V255.505C60.7448 257.687 62.3798 259.456 64.3967 259.456H120.479C122.496 259.456 124.131 257.687 124.131 255.505V215.464C124.131 213.283 122.496 211.514 120.479 211.514Z" fill="#D3DFFF"/>
<path d="M95.3983 232.954C95.6112 232.954 95.7838 233.141 95.7838 233.371V237.598C95.7838 237.829 95.6112 238.016 95.3983 238.016H89.4771C89.2641 238.016 89.0916 237.829 89.0916 237.598V233.371C89.0916 233.141 89.2641 232.954 89.4771 232.954H95.3983ZM95.3983 231.807H89.4771C88.632 231.807 87.9443 232.508 87.9443 233.371V237.598C87.9443 238.461 88.632 239.163 89.4771 239.163H95.3983C96.2434 239.163 96.931 238.461 96.931 237.598V233.371C96.931 232.508 96.2434 231.807 95.3983 231.807Z" fill="#1F3C88"/>
<path d="M338.137 300.853H0V302H338.137V300.853Z" fill="#102048"/>
</svg>
