<svg width="356" height="439" viewBox="0 0 356 439" fill="none" xmlns="http://www.w3.org/2000/svg">
<path d="M251.4 57.0715H317.151C317.151 57.0715 311.337 46.4905 294.412 48.0305C278.248 49.5015 277.426 42.8255 269.208 42.0035C260.989 41.1815 254.14 47.4825 251.4 57.0715Z" fill="#E0E0E0"/>
<path d="M79.5403 230.891C79.5403 230.891 72.9533 234.454 82.5433 248.211C92.1333 261.968 98.3733 268.574 98.3733 268.574C98.3733 268.574 100.186 271.825 97.3683 272.757C94.5503 273.689 88.0423 273.551 87.2423 277.268C86.4123 281.122 89.5553 284.217 95.3783 286.509C101.202 288.801 113.777 294.291 114.912 294.792C116.027 295.284 117.277 296.74 115.459 297.683C113.641 298.626 99.5253 302.095 101.571 308.695C103.618 315.295 120.891 319.014 122.772 319.457C124.652 319.9 125.184 320.598 125.173 321.598C125.163 322.598 120.308 323.317 116.333 324.468C112.358 325.619 107.951 327.651 109.452 331.36C110.952 335.069 121.808 341.799 145.785 340.857L156.867 339.693L161.586 329.545C170.362 307.211 167.576 294.746 164.567 292.11C161.558 289.473 158.19 292.967 155.796 296.342C153.402 299.717 151.126 304.065 150.178 303.746C149.23 303.427 148.746 302.696 148.946 300.774C149.146 298.852 151.314 281.317 145.755 277.213C140.195 273.109 132.277 285.3 130.788 286.706C129.3 288.113 128.335 286.453 128.238 285.239C128.138 284.002 127.09 270.321 126.84 264.068C126.591 257.814 124.702 253.828 120.789 253.345C117.016 252.879 115.006 259.07 113.199 261.425C111.392 263.78 108.918 260.999 108.918 260.999C108.918 260.999 104.733 252.934 94.8943 239.353C85.0563 225.772 79.4113 230.975 79.4113 230.975" fill="#EBEBEB"/>
<path d="M157.796 342.207C150.61 332.205 138.137 314.213 127.347 298.821C116.561 283.435 106.784 269.513 99.6493 259.476C96.0833 254.469 93.1943 250.414 91.1873 247.597C90.1953 246.203 89.4234 245.116 88.8884 244.365C88.6354 244.002 88.4383 243.721 88.2973 243.519C88.1663 243.327 88.1053 243.224 88.1053 243.224C88.1053 243.224 88.1843 243.314 88.3253 243.498C88.4733 243.695 88.6784 243.969 88.9444 244.323C89.4904 245.065 90.2813 246.139 91.2953 247.517C93.3343 250.293 96.2554 254.33 99.8474 259.332C107.033 269.334 116.844 283.235 127.629 298.621C138.418 314.013 150.859 332.026 157.993 342.063" fill="#E0E0E0"/>
<path d="M96.3373 277.826C96.3423 277.803 96.6264 277.843 97.1364 277.934C97.6464 278.024 98.3803 278.175 99.2853 278.37C101.094 278.765 103.579 279.373 106.308 280.094C108.997 280.815 111.429 281.466 113.289 281.965C114.129 282.184 114.837 282.37 115.407 282.518C115.908 282.646 116.183 282.729 116.178 282.752C116.173 282.775 115.889 282.738 115.378 282.65C114.868 282.559 114.133 282.407 113.23 282.202C111.424 281.79 108.948 281.149 106.219 280.428C103.526 279.727 101.09 279.093 99.2273 278.608C98.3863 278.393 97.6764 278.211 97.1054 278.065C96.6074 277.934 96.3323 277.849 96.3373 277.826Z" fill="#E0E0E0"/>
<path d="M116.836 281.943C116.742 281.923 117.771 276.745 119.133 270.379C120.495 264.011 121.675 258.867 121.769 258.887C121.862 258.907 120.834 264.084 119.472 270.452C118.11 276.818 116.93 281.963 116.836 281.943Z" fill="#E0E0E0"/>
<path d="M132.336 306.322C132.315 306.31 132.443 306.047 132.69 305.58C132.974 305.052 133.329 304.394 133.751 303.611C134.644 301.948 135.867 299.645 137.124 297.056C138.387 294.469 139.449 292.089 140.203 290.359C140.559 289.544 140.859 288.858 141.099 288.309C141.313 287.826 141.442 287.563 141.465 287.572C141.487 287.581 141.401 287.861 141.225 288.36C141.049 288.859 140.781 289.574 140.43 290.452C139.732 292.209 138.703 294.614 137.436 297.209C136.176 299.806 134.915 302.096 133.965 303.731C133.487 304.547 133.093 305.202 132.807 305.648C132.523 306.095 132.357 306.334 132.336 306.322Z" fill="#E0E0E0"/>
<path d="M112.975 306.679C112.974 306.655 113.243 306.624 113.73 306.588C114.291 306.555 114.981 306.516 115.794 306.469C117.537 306.383 119.946 306.289 122.608 306.205C125.27 306.122 127.681 306.066 129.426 306.043C130.241 306.039 130.931 306.036 131.493 306.033C131.981 306.039 132.252 306.053 132.253 306.077C132.254 306.101 131.985 306.132 131.498 306.168C130.937 306.2 130.247 306.24 129.434 306.287C127.69 306.373 125.281 306.467 122.619 306.551C119.958 306.634 117.547 306.69 115.802 306.713C114.988 306.717 114.297 306.72 113.735 306.722C113.246 306.717 112.976 306.703 112.975 306.679Z" fill="#E0E0E0"/>
<path d="M123.925 329.94C123.924 329.916 124.269 329.879 124.893 329.833C125.582 329.791 126.471 329.736 127.538 329.67C129.772 329.548 132.858 329.402 136.269 329.263C139.68 329.124 142.769 329.017 145.005 328.957C146.074 328.936 146.964 328.918 147.654 328.904C148.28 328.899 148.626 328.908 148.627 328.932C148.628 328.956 148.283 328.993 147.659 329.039C146.97 329.081 146.081 329.136 145.014 329.202C142.78 329.324 139.693 329.47 136.282 329.609C132.872 329.748 129.784 329.855 127.547 329.915C126.478 329.936 125.588 329.954 124.898 329.968C124.272 329.972 123.925 329.964 123.925 329.94Z" fill="#E0E0E0"/>
<path d="M148.029 328.791C148.008 328.78 148.16 328.441 148.454 327.839C148.778 327.183 149.2 326.326 149.709 325.295C150.766 323.146 152.214 320.172 153.72 316.844C155.232 313.517 156.52 310.47 157.438 308.258C157.88 307.195 158.246 306.314 158.527 305.638C158.787 305.02 158.941 304.683 158.963 304.691C158.985 304.7 158.874 305.053 158.653 305.687C158.432 306.32 158.098 307.231 157.666 308.349C156.806 310.587 155.55 313.654 154.036 316.987C152.527 320.321 151.042 323.283 149.928 325.406C149.368 326.466 148.907 327.32 148.574 327.902C148.242 328.485 148.05 328.802 148.029 328.791Z" fill="#E0E0E0"/>
<path d="M241.023 181.212C229.117 167.865 230.263 148.597 234.767 132.1C235.518 129.346 235.907 126.347 237.804 124.224C239.702 122.102 243.177 121.167 245.386 122.925C247.218 124.384 247.548 126.995 248.232 129.251C249.141 132.253 250.91 134.978 253.27 137.012C254.82 138.348 256.875 139.427 258.848 138.878C261.555 138.124 262.621 134.883 263.258 132.117C264.444 126.963 265.632 121.809 266.818 116.657C267.455 113.892 268.114 111.071 269.594 108.654C271.073 106.237 273.548 104.252 276.348 104.138C279.149 104.025 282.038 106.308 281.953 109.142C281.917 110.321 281.412 111.435 281.217 112.598C281.022 113.763 281.256 115.157 282.269 115.734C283.294 116.319 284.584 115.798 285.601 115.185C289.111 113.072 291.896 109.939 294.549 106.796C297.202 103.653 299.822 100.412 303.129 97.9845C306.435 95.5565 310.582 93.9945 314.59 94.7065C318.598 95.4195 322.232 98.8575 322.312 102.976C322.392 107.106 319.186 110.517 315.968 113.083C311.195 116.89 305.878 119.996 300.239 122.275C299.222 122.687 298.121 123.13 297.546 124.074C296.51 125.773 297.821 128.014 299.495 129.05C301.391 130.223 303.675 130.538 305.767 131.302C307.86 132.065 309.967 133.568 310.3 135.795C310.762 138.885 307.702 141.284 304.92 142.671C299.351 145.449 293.315 147.256 287.158 147.99C284.951 148.252 282.659 148.398 280.683 149.437C278.707 150.477 277.131 152.724 277.66 154.903C278.189 157.085 280.581 158.309 282.802 158.417C285.022 158.527 287.2 157.823 289.409 157.538C293.543 157.005 298.38 158.427 300.034 162.282C301.121 164.816 300.55 167.851 299.134 170.229C297.718 172.607 295.555 174.432 293.332 176.061C285.561 181.755 276.415 185.655 266.89 186.622C257.364 187.589 249.013 186.483 241.023 181.212Z" fill="#F5F5F5"/>
<path d="M243.435 182.817C245.598 176.371 243.336 179.607 247.786 171.804C252.222 163.991 257.794 155.83 263.916 147.494C265.454 145.416 266.974 143.363 268.471 141.339C269.971 139.323 271.458 137.322 273.034 135.456C276.169 131.709 279.469 128.345 282.702 125.25C285.934 122.152 289.114 119.331 292.106 116.715C295.106 114.104 297.947 111.723 300.63 109.663C305.985 105.523 310.69 102.7 313.999 100.895C315.653 99.9865 316.958 99.3235 317.849 98.8865C318.277 98.6805 318.613 98.5175 318.865 98.3955C319.095 98.2885 319.215 98.2375 319.219 98.2445C319.224 98.2525 319.112 98.3205 318.889 98.4435C318.642 98.5775 318.313 98.7545 317.896 98.9805C317.021 99.4475 315.732 100.139 314.095 101.073C310.821 102.932 306.163 105.792 300.853 109.958C298.192 112.031 295.371 114.422 292.389 117.044C289.411 119.673 286.246 122.502 283.031 125.601C279.816 128.698 276.536 132.057 273.424 135.788C271.86 137.646 270.388 139.63 268.886 141.653C267.39 143.676 265.872 145.729 264.335 147.806C258.219 156.135 252.648 164.268 248.202 172.045C243.743 179.811 245.984 176.529 243.784 182.937" fill="#E0E0E0"/>
<path d="M273.184 135.47C273.148 135.467 273.154 135.026 273.193 134.228C273.229 133.43 273.318 132.279 273.45 130.858C273.711 128.016 274.205 124.105 274.766 119.794C275.328 115.481 275.765 111.573 275.981 108.736C276.093 107.318 276.173 106.168 276.217 105.374C276.266 104.579 276.311 104.139 276.347 104.139C276.383 104.139 276.407 104.58 276.42 105.378C276.438 106.176 276.414 107.332 276.348 108.758C276.225 111.612 275.845 115.542 275.282 119.859C274.718 124.111 274.206 127.958 273.816 130.898C273.648 132.227 273.507 133.347 273.394 134.246C273.293 135.036 273.22 135.473 273.184 135.47Z" fill="#E0E0E0"/>
<path d="M310.253 137.244C310.246 137.28 309.727 137.219 308.797 137.078C307.867 136.943 306.522 136.741 304.853 136.545C301.519 136.125 296.892 135.708 291.768 135.47C286.642 135.242 281.994 135.232 278.632 135.323C276.95 135.356 275.59 135.42 274.649 135.458C273.708 135.5 273.187 135.506 273.183 135.47C273.18 135.433 273.697 135.359 274.636 135.253C275.574 135.153 276.935 135.032 278.62 134.95C281.988 134.764 286.653 134.714 291.795 134.943C296.934 135.182 301.573 135.66 304.905 136.176C306.573 136.42 307.913 136.679 308.834 136.877C309.755 137.08 310.26 137.208 310.253 137.244Z" fill="#E0E0E0"/>
<path d="M248.377 171.254C248.359 171.257 248.311 171.089 248.236 170.764C248.154 170.378 248.054 169.906 247.933 169.336C247.675 168.095 247.35 166.289 246.977 164.053C246.228 159.581 245.387 153.37 244.552 146.505C243.716 139.637 242.934 133.427 242.279 128.946C241.954 126.766 241.687 124.973 241.488 123.64C241.405 123.062 241.337 122.586 241.281 122.195C241.239 121.864 241.226 121.688 241.244 121.684C241.262 121.682 241.309 121.85 241.385 122.176C241.467 122.562 241.567 123.032 241.688 123.603C241.945 124.844 242.271 126.65 242.644 128.886C243.393 133.358 244.234 139.569 245.069 146.437C245.905 153.303 246.687 159.512 247.341 163.994C247.667 166.173 247.933 167.967 248.132 169.299C248.215 169.877 248.283 170.354 248.339 170.745C248.381 171.075 248.395 171.251 248.377 171.254Z" fill="#E0E0E0"/>
<path d="M299.149 167.225C299.15 167.243 298.972 167.271 298.635 167.307C298.237 167.343 297.748 167.388 297.156 167.442C295.793 167.553 293.954 167.702 291.717 167.882C287.124 168.255 280.787 168.843 273.786 169.502C266.782 170.162 260.433 170.692 255.832 170.97C253.531 171.11 251.668 171.204 250.38 171.243C249.785 171.257 249.295 171.269 248.896 171.279C248.556 171.282 248.377 171.273 248.377 171.255C248.376 171.237 248.554 171.209 248.891 171.172C249.288 171.136 249.777 171.092 250.369 171.038C251.732 170.927 253.57 170.779 255.807 170.598C260.4 170.226 266.738 169.637 273.742 168.978C280.744 168.318 287.092 167.788 291.694 167.511C293.995 167.371 295.857 167.277 297.147 167.238C297.742 167.224 298.232 167.211 298.631 167.202C298.97 167.198 299.148 167.206 299.149 167.225Z" fill="#E0E0E0"/>
<path d="M338.533 268.995C338.544 269 338.487 269.159 338.366 269.462C338.229 269.795 338.048 270.237 337.819 270.795C337.311 271.992 336.592 273.685 335.685 275.821C333.806 280.17 331.15 286.313 327.98 293.648L327.933 293.756L327.815 293.775C320.707 294.949 312.416 296.319 303.596 297.776C300.832 298.228 298.12 298.671 295.477 299.104L295.108 299.164L295.2 298.802C297.174 291.012 298.991 283.84 300.535 277.747L300.649 277.98C294.736 275.337 289.856 273.156 286.417 271.619C284.747 270.858 283.428 270.257 282.49 269.83C282.065 269.629 281.727 269.47 281.467 269.347C281.237 269.235 281.121 269.173 281.125 269.163C281.129 269.154 281.254 269.197 281.491 269.291C281.757 269.4 282.103 269.542 282.538 269.72C283.486 270.123 284.82 270.69 286.509 271.409C289.965 272.908 294.869 275.035 300.811 277.612L300.967 277.679L300.926 277.845C299.407 283.943 297.618 291.123 295.676 298.921L295.399 298.619C298.042 298.185 300.754 297.739 303.517 297.285C312.34 295.85 320.635 294.501 327.746 293.345L327.582 293.473C330.82 286.168 333.532 280.049 335.451 275.718C336.405 273.602 337.162 271.925 337.696 270.74C337.951 270.193 338.152 269.759 338.304 269.434C338.444 269.14 338.522 268.99 338.533 268.995Z" fill="#E0E0E0"/>
<path d="M298.315 296.245L297.653 297.988L298.713 299.521L296.851 299.43L295.721 300.912L295.232 299.113L293.473 298.496L295.033 297.475L295.076 295.611L296.529 296.779L298.315 296.245Z" fill="#E0E0E0"/>
<path d="M281.685 267.992L281.356 268.859L281.883 269.621L280.957 269.576L280.395 270.313L280.151 269.419L279.276 269.111L280.052 268.604L280.074 267.677L280.797 268.258L281.685 267.992Z" fill="#E0E0E0"/>
<path d="M328.656 292.558L328.326 293.425L328.854 294.188L327.927 294.143L327.365 294.88L327.122 293.985L326.247 293.678L327.023 293.17L327.044 292.243L327.767 292.824L328.656 292.558Z" fill="#E0E0E0"/>
<path d="M301.551 276.961L301.222 277.828L301.749 278.591L300.823 278.545L300.26 279.283L300.017 278.388L299.142 278.081L299.918 277.573L299.94 276.646L300.662 277.227L301.551 276.961Z" fill="#E0E0E0"/>
<path d="M339.659 268.128L339.33 268.995L339.858 269.758L338.931 269.712L338.369 270.449L338.126 269.555L337.251 269.247L338.027 268.74L338.048 267.812L338.771 268.393L339.659 268.128Z" fill="#E0E0E0"/>
<path d="M36.5643 340.899H88.9143C88.9143 340.899 84.2853 332.475 70.8093 333.701C57.9393 334.872 57.2853 329.557 50.7413 328.902C44.1983 328.248 38.7453 333.265 36.5643 340.899Z" fill="#E0E0E0"/>
<path d="M46.9584 134.786H99.3084C99.3084 134.786 94.6794 126.362 81.2044 127.588C68.3344 128.759 67.6804 123.444 61.1364 122.789C54.5924 122.134 49.1394 127.151 46.9584 134.786Z" fill="#F5F5F5"/>
<path d="M312.838 171.19H355.85C355.85 171.19 352.047 164.268 340.975 165.276C330.401 166.238 329.864 161.871 324.487 161.333C319.11 160.795 314.63 164.917 312.838 171.19Z" fill="#F5F5F5"/>
<path d="M226.951 256.088C229.086 239.97 217.755 226.673 203.595 218.682C189.435 210.691 173.009 208.017 157.37 203.573C142.62 199.382 127.95 193.268 117.025 182.508C106.1 171.748 99.5464 155.573 103.474 140.751C104.46 137.029 106.222 133.291 109.418 131.144C112.614 128.997 117.493 129.052 119.877 132.075C124.954 138.514 115.061 150.046 121.256 155.417C122.678 156.65 124.634 157.104 126.106 158.277C130.023 161.401 128.755 167.474 129.308 172.454C130.402 182.303 139.637 189.142 148.707 193.132C160.855 198.477 174.016 200.989 186.904 204.157C199.792 207.325 212.787 211.316 223.524 219.117C234.261 226.918 243.576 239.13 243.502 252.401C243.481 256.11 243.009 260.67 240.682 263.557C238.355 266.444 235.39 267.044 232.034 265.465C228.677 263.885 226.329 261.443 226.951 256.088Z" fill="#8B70CD"/>
<g opacity="0.8">
<path d="M226.951 256.088C229.086 239.97 217.755 226.673 203.595 218.682C189.435 210.691 173.009 208.017 157.37 203.573C142.62 199.382 127.95 193.268 117.025 182.508C106.1 171.748 99.5464 155.573 103.474 140.751C104.46 137.029 106.222 133.291 109.418 131.144C112.614 128.997 117.493 129.052 119.877 132.075C124.954 138.514 115.061 150.046 121.256 155.417C122.678 156.65 124.634 157.104 126.106 158.277C130.023 161.401 128.755 167.474 129.308 172.454C130.402 182.303 139.637 189.142 148.707 193.132C160.855 198.477 174.016 200.989 186.904 204.157C199.792 207.325 212.787 211.316 223.524 219.117C234.261 226.918 243.576 239.13 243.502 252.401C243.481 256.11 243.009 260.67 240.682 263.557C238.355 266.444 235.39 267.044 232.034 265.465C228.677 263.885 226.329 261.443 226.951 256.088Z" fill="black"/>
</g>
<path d="M158.448 127.965C157.938 121.995 162.385 116.797 167.443 114.01C172.501 111.223 178.294 110.091 183.509 107.619C196.456 101.481 204.689 87.0355 205.297 72.2185C205.905 57.4015 199.483 42.5935 189.434 31.7105C185.351 27.2885 180.328 22.6555 180.268 16.6225C180.205 10.3275 186.311 5.36651 192.41 5.44651C198.509 5.52651 204.129 9.60851 207.78 14.7445C211.431 19.8805 213.451 26.0005 215.417 32.0095C214.016 29.4975 216.893 26.3855 219.665 26.6535C222.437 26.9215 224.625 29.2335 226.336 31.5365C233.683 41.4285 237.32 54.1365 236.306 66.3795C235.292 78.6225 229.639 90.2735 220.807 98.3245C210.942 107.317 197.886 111.536 185.233 115.529C176.428 118.307 167.623 121.086 158.817 123.864" fill="#8B70CD"/>
<g opacity="0.8">
<path d="M158.448 127.965C157.938 121.995 162.385 116.797 167.443 114.01C172.501 111.223 178.294 110.091 183.509 107.619C196.456 101.481 204.689 87.0355 205.297 72.2185C205.905 57.4015 199.483 42.5935 189.434 31.7105C185.351 27.2885 180.328 22.6555 180.268 16.6225C180.205 10.3275 186.311 5.36651 192.41 5.44651C198.509 5.52651 204.129 9.60851 207.78 14.7445C211.431 19.8805 213.451 26.0005 215.417 32.0095C214.016 29.4975 216.893 26.3855 219.665 26.6535C222.437 26.9215 224.625 29.2335 226.336 31.5365C233.683 41.4285 237.32 54.1365 236.306 66.3795C235.292 78.6225 229.639 90.2735 220.807 98.3245C210.942 107.317 197.886 111.536 185.233 115.529C176.428 118.307 167.623 121.086 158.817 123.864" fill="black"/>
</g>
<path d="M151.1 2.51559C148.476 3.61959 147.036 6.94359 148.025 9.61359C149.015 12.2836 152.273 13.8656 154.983 12.9926C157.693 12.1196 159.415 8.93259 158.661 6.18759C157.906 3.44159 154.797 1.5836 152.021 2.2186" fill="#8B70CD"/>
<g opacity="0.8">
<path d="M151.1 2.51559C148.476 3.61959 147.036 6.94359 148.025 9.61359C149.015 12.2836 152.273 13.8656 154.983 12.9926C157.693 12.1196 159.415 8.93259 158.661 6.18759C157.906 3.44159 154.797 1.5836 152.021 2.2186" fill="black"/>
</g>
<path d="M183.671 387.834C180.433 381.12 183.256 372.753 188.414 367.373C193.572 361.993 200.618 358.923 207.439 355.918C222.493 349.287 238.432 341.384 246.087 326.824C248.669 321.914 250.14 316.51 251.592 311.156C254.403 300.792 257.036 289.023 251.386 279.892C249.761 277.266 247.316 274.929 244.275 274.39C240.813 273.775 237.252 275.682 235.118 278.477C232.984 281.272 232.069 284.812 231.628 288.301C230.788 294.938 231.484 301.689 230.786 308.342C230.088 314.995 227.654 321.952 222.166 325.778C215.502 330.424 205.991 329.381 199.518 334.291C194.291 338.255 192.303 345.129 188.215 350.26C184.779 354.572 179.972 357.519 175.568 360.835C171.164 364.151 166.905 368.198 165.408 373.504C163.854 379.016 165.797 385.355 170.174 389.048C174.551 392.741 181.126 393.59 186.298 391.13" fill="#8B70CD"/>
<g opacity="0.8">
<path d="M183.671 387.834C180.433 381.12 183.256 372.753 188.414 367.373C193.572 361.993 200.618 358.923 207.439 355.918C222.493 349.287 238.432 341.384 246.087 326.824C248.669 321.914 250.14 316.51 251.592 311.156C254.403 300.792 257.036 289.023 251.386 279.892C249.761 277.266 247.316 274.929 244.275 274.39C240.813 273.775 237.252 275.682 235.118 278.477C232.984 281.272 232.069 284.812 231.628 288.301C230.788 294.938 231.484 301.689 230.786 308.342C230.088 314.995 227.654 321.952 222.166 325.778C215.502 330.424 205.991 329.381 199.518 334.291C194.291 338.255 192.303 345.129 188.215 350.26C184.779 354.572 179.972 357.519 175.568 360.835C171.164 364.151 166.905 368.198 165.408 373.504C163.854 379.016 165.797 385.355 170.174 389.048C174.551 392.741 181.126 393.59 186.298 391.13" fill="black"/>
</g>
<path d="M83.5454 48.8487C78.2434 44.9157 75.0084 38.3417 75.1254 31.7417C75.2434 25.1417 78.7114 18.6867 84.1504 14.9457C87.2254 12.8307 90.8714 11.5367 93.6054 8.99572C96.0364 6.73672 97.6174 3.60272 100.337 1.70272C103.717 -0.657278 108.62 -0.553275 111.897 1.94773C115.173 4.44973 116.566 9.15272 115.179 13.0347C113.925 16.5447 110.775 19.1087 109.458 22.5947C108.041 26.3477 108.954 30.5517 108.427 34.5287C107.78 39.4157 104.812 43.9437 100.588 46.4857C96.3644 49.0277 90.9734 49.5307 86.3524 47.8137" fill="#8B70CD"/>
<g opacity="0.8">
<path d="M83.5454 48.8487C78.2434 44.9157 75.0084 38.3417 75.1254 31.7417C75.2434 25.1417 78.7114 18.6867 84.1504 14.9457C87.2254 12.8307 90.8714 11.5367 93.6054 8.99572C96.0364 6.73672 97.6174 3.60272 100.337 1.70272C103.717 -0.657278 108.62 -0.553275 111.897 1.94773C115.173 4.44973 116.566 9.15272 115.179 13.0347C113.925 16.5447 110.775 19.1087 109.458 22.5947C108.041 26.3477 108.954 30.5517 108.427 34.5287C107.78 39.4157 104.812 43.9437 100.588 46.4857C96.3644 49.0277 90.9734 49.5307 86.3524 47.8137" fill="black"/>
</g>
<path d="M90.8064 58.1577H89.3424C86.3524 58.1577 83.9294 55.7337 83.9294 52.7447V27.4097H96.2194V52.7447C96.2194 55.7337 93.7964 58.1577 90.8064 58.1577Z" fill="#8B70CD"/>
<path d="M83.9294 27.4097L90.0744 16.1387L96.2194 27.4097H83.9294Z" fill="#FFBE9D"/>
<path d="M87.6404 20.6027C87.6404 20.6027 89.5064 23.4087 92.5084 20.6027L90.0744 16.1387L87.6404 20.6027Z" fill="#8B70CD"/>
<path d="M96.3894 51.5107C96.3894 51.6477 93.5924 51.7587 90.1424 51.7587C86.6914 51.7587 83.8954 51.6477 83.8954 51.5107C83.8954 51.3737 86.6924 51.2627 90.1424 51.2627C93.5924 51.2627 96.3894 51.3737 96.3894 51.5107Z" fill="#263238"/>
<path d="M96.2634 49.6267C96.2634 49.7637 93.5224 49.8747 90.1424 49.8747C86.7604 49.8747 84.0204 49.7637 84.0204 49.6267C84.0204 49.4897 86.7604 49.3787 90.1424 49.3787C93.5234 49.3787 96.2634 49.4897 96.2634 49.6267Z" fill="#263238"/>
<path d="M87.5363 27.5898C87.6733 27.5898 87.7843 32.4958 87.7843 38.5448C87.7843 44.5968 87.6733 49.5008 87.5363 49.5008C87.3993 49.5008 87.2883 44.5968 87.2883 38.5448C87.2883 32.4948 87.3993 27.5898 87.5363 27.5898Z" fill="#FAFAFA"/>
<path d="M92.5084 27.5898C92.6454 27.5898 92.7564 32.4958 92.7564 38.5448C92.7564 44.5968 92.6454 49.5008 92.5084 49.5008C92.3714 49.5008 92.2604 44.5968 92.2604 38.5448C92.2604 32.4948 92.3714 27.5898 92.5084 27.5898Z" fill="#FAFAFA"/>
<path d="M190.704 373.711L246.538 376.099L247.887 379.352L211.293 438.751L145.231 436.825L190.704 373.711Z" fill="#263238"/>
<path d="M142.725 431.034L209.184 434.83L243.896 380.961L219.522 382.942L157.829 404.667L142.725 431.034Z" fill="#E0E0E0"/>
<path d="M133.391 427.039L194.42 428.002C191.885 420.195 197.864 409.198 206.068 405.499C211.506 403.047 221.739 399.871 227.019 397.163C237.052 392.016 246.118 382.27 245.325 373.907L220.26 373.109L188.269 371.873C185.594 379.809 179.872 385.008 171.173 388.135C163.388 390.934 154.528 390.927 146.935 394.107C134.713 399.226 128.84 415.81 133.391 427.039Z" fill="#EBEBEB"/>
<path d="M133.391 427.039C133.391 427.039 133.333 426.909 133.238 426.645C133.139 426.367 133.001 425.977 132.82 425.468C132.607 424.956 132.483 424.282 132.3 423.492C132.081 422.707 132.008 421.768 131.879 420.714C131.724 418.602 131.746 415.962 132.363 412.955C132.984 409.96 134.164 406.585 136.277 403.269C136.825 402.455 137.352 401.594 138.034 400.815C138.365 400.419 138.675 399.997 139.033 399.608C139.405 399.232 139.78 398.851 140.16 398.466C140.526 398.065 140.947 397.715 141.38 397.37C141.812 397.025 142.23 396.651 142.687 396.319C143.644 395.718 144.571 395.016 145.658 394.547C149.887 392.415 154.939 391.516 160.2 390.563C162.838 390.084 165.554 389.581 168.281 388.831C170.996 388.061 173.731 387.032 176.326 385.593C177.63 384.888 178.89 384.065 180.081 383.13C181.281 382.206 182.406 381.156 183.413 379.983C185.465 377.664 187.009 374.844 188.05 371.798L188.106 371.636L188.277 371.643C196.773 371.967 205.691 372.307 214.933 372.659C224.175 373.023 233.747 373.274 243.545 373.602C244.147 373.621 244.747 373.64 245.332 373.659L245.553 373.666L245.572 373.884C245.74 375.817 245.388 377.74 244.765 379.525C244.481 380.433 244.045 381.273 243.647 382.125C243.176 382.938 242.736 383.768 242.188 384.525C240.107 387.632 237.441 390.233 234.627 392.518C231.789 394.786 228.71 396.67 225.503 398.155C222.283 399.602 219.024 400.782 215.831 401.963C212.64 403.144 209.483 404.263 206.486 405.567C205.016 406.252 203.604 407.033 202.381 408.059C201.732 408.522 201.191 409.108 200.598 409.627C200.076 410.217 199.495 410.751 199.031 411.38C197.06 413.798 195.579 416.538 194.763 419.401C193.899 422.244 193.803 425.253 194.612 427.94L194.694 428.211L194.416 428.206C175.931 427.878 160.68 427.607 150.032 427.419C144.726 427.311 140.57 427.227 137.724 427.169C136.319 427.134 135.24 427.107 134.495 427.088C133.766 427.066 133.391 427.039 133.391 427.039C133.391 427.039 133.767 427.024 134.497 427.025C135.242 427.03 136.321 427.037 137.726 427.046C140.573 427.078 144.729 427.125 150.036 427.185C160.684 427.332 175.936 427.543 194.423 427.799L194.227 428.065C193.379 425.281 193.48 422.187 194.355 419.283C195.183 416.357 196.685 413.567 198.688 411.1C199.16 410.459 199.75 409.912 200.283 409.311C200.886 408.78 201.438 408.182 202.101 407.707C203.347 406.658 204.803 405.848 206.301 405.149C209.323 403.829 212.478 402.707 215.668 401.522C218.857 400.338 222.113 399.155 225.303 397.718C228.468 396.249 231.517 394.381 234.321 392.137C237.102 389.876 239.736 387.302 241.778 384.25C242.317 383.506 242.746 382.693 243.208 381.898C243.596 381.066 244.022 380.245 244.297 379.364C244.901 377.63 245.238 375.778 245.078 373.933L245.317 374.158C244.732 374.139 244.131 374.12 243.529 374.101C233.73 373.773 224.158 373.518 214.915 373.148C205.673 372.786 196.755 372.437 188.259 372.104L188.485 371.948C187.423 375.043 185.843 377.917 183.748 380.277C182.719 381.47 181.571 382.538 180.349 383.475C179.135 384.423 177.855 385.256 176.531 385.968C173.897 387.421 171.134 388.453 168.389 389.224C165.637 389.973 162.908 390.471 160.268 390.943C155.004 391.879 149.98 392.763 145.808 394.849C144.737 395.306 143.822 395.995 142.875 396.582C142.423 396.907 142.01 397.275 141.582 397.614C141.153 397.952 140.736 398.295 140.374 398.69C139.997 399.069 139.624 399.443 139.255 399.813C138.899 400.195 138.591 400.611 138.262 401.001C137.584 401.767 137.059 402.617 136.512 403.42C134.403 406.692 133.212 410.033 132.574 413.001C131.941 415.982 131.896 418.602 132.026 420.704C132.143 421.752 132.203 422.688 132.409 423.471C132.579 424.26 132.69 424.934 132.891 425.448C133.056 425.961 133.182 426.354 133.273 426.634C133.357 426.899 133.391 427.039 133.391 427.039Z" fill="#263238"/>
<path d="M205.412 372.862C205.368 372.849 205.492 372.47 205.55 371.771C205.603 371.078 205.557 370.037 205.071 368.889C204.601 367.754 203.665 366.496 202.186 365.798C200.729 365.096 198.803 364.949 197.043 365.613C195.27 366.264 193.993 367.708 193.328 369.189C192.636 370.681 192.542 372.219 192.741 373.44C192.941 374.673 193.408 375.599 193.784 376.187C194.162 376.781 194.444 377.061 194.413 377.091C194.397 377.11 194.066 376.875 193.626 376.298C193.189 375.726 192.651 374.788 192.396 373.503C192.142 372.23 192.201 370.595 192.911 369.003C193.591 367.423 194.95 365.855 196.869 365.149C198.764 364.435 200.826 364.607 202.388 365.387C203.979 366.168 204.946 367.547 205.398 368.759C205.868 369.989 205.858 371.083 205.743 371.794C205.683 372.152 205.611 372.424 205.539 372.601C205.471 372.778 205.428 372.868 205.412 372.862Z" fill="#263238"/>
<path d="M214.977 372.862C214.933 372.849 215.057 372.47 215.115 371.771C215.168 371.078 215.122 370.037 214.636 368.889C214.166 367.754 213.23 366.496 211.751 365.798C210.294 365.096 208.369 364.949 206.608 365.613C204.835 366.264 203.558 367.708 202.893 369.189C202.2 370.681 202.107 372.219 202.306 373.44C202.506 374.673 202.973 375.599 203.349 376.187C203.727 376.781 204.009 377.061 203.978 377.091C203.962 377.11 203.631 376.875 203.191 376.298C202.754 375.726 202.216 374.788 201.961 373.503C201.707 372.23 201.766 370.595 202.476 369.003C203.156 367.423 204.515 365.855 206.434 365.149C208.329 364.435 210.391 364.607 211.953 365.387C213.544 366.168 214.511 367.547 214.963 368.759C215.433 369.989 215.423 371.083 215.308 371.794C215.248 372.152 215.176 372.424 215.104 372.601C215.036 372.778 214.993 372.868 214.977 372.862Z" fill="#263238"/>
<path d="M222.242 373.359C222.197 373.348 222.3 372.963 222.318 372.262C222.332 371.567 222.227 370.531 221.676 369.412C221.142 368.306 220.137 367.102 218.621 366.489C217.126 365.871 215.196 365.833 213.476 366.596C211.743 367.346 210.549 368.86 209.969 370.376C209.362 371.905 209.356 373.445 209.623 374.653C209.893 375.873 210.411 376.771 210.82 377.337C211.231 377.908 211.529 378.172 211.499 378.204C211.484 378.223 211.14 378.008 210.668 377.456C210.2 376.91 209.609 376.004 209.282 374.735C208.956 373.479 208.922 371.843 209.542 370.213C210.131 368.597 211.399 366.954 213.275 366.142C215.126 365.322 217.195 365.376 218.798 366.067C220.43 366.757 221.475 368.079 221.994 369.264C222.533 370.465 222.585 371.558 222.511 372.274C222.472 372.634 222.415 372.91 222.353 373.091C222.296 373.272 222.258 373.363 222.242 373.359Z" fill="#263238"/>
<path d="M230.03 373.802C229.984 373.794 230.066 373.404 230.047 372.702C230.024 372.007 229.865 370.978 229.255 369.889C228.663 368.813 227.596 367.664 226.049 367.132C224.524 366.594 222.594 366.658 220.917 367.511C219.226 368.351 218.114 369.926 217.615 371.472C217.09 373.031 217.165 374.569 217.496 375.761C217.83 376.965 218.395 377.834 218.833 378.377C219.274 378.925 219.585 379.174 219.557 379.207C219.543 379.227 219.188 379.03 218.688 378.504C218.191 377.984 217.554 377.11 217.16 375.86C216.768 374.623 216.648 372.992 217.18 371.331C217.683 369.686 218.862 367.978 220.692 367.068C222.497 366.151 224.566 366.096 226.203 366.701C227.87 367.303 228.982 368.568 229.564 369.724C230.166 370.895 230.276 371.984 230.239 372.703C230.219 373.065 230.177 373.344 230.125 373.527C230.08 373.712 230.047 373.806 230.03 373.802Z" fill="#263238"/>
<path d="M237.834 373.619C237.788 373.612 237.86 373.22 237.821 372.519C237.779 371.825 237.59 370.801 236.951 369.73C236.329 368.67 235.23 367.552 233.669 367.064C232.129 366.569 230.202 366.688 228.55 367.587C226.883 368.475 225.816 370.08 225.361 371.639C224.88 373.212 224.998 374.748 225.363 375.93C225.73 377.124 226.32 377.977 226.773 378.508C227.229 379.044 227.547 379.283 227.52 379.317C227.507 379.338 227.146 379.15 226.631 378.639C226.12 378.133 225.458 377.277 225.029 376.039C224.602 374.813 224.436 373.186 224.922 371.511C225.378 369.853 226.51 368.112 228.313 367.151C230.092 366.184 232.158 366.071 233.812 366.629C235.495 367.184 236.643 368.418 237.257 369.556C237.892 370.71 238.032 371.795 238.016 372.514C238.006 372.876 237.972 373.156 237.925 373.341C237.881 373.527 237.851 373.622 237.834 373.619Z" fill="#263238"/>
<path d="M244.41 374.496C244.364 374.487 244.451 374.098 244.44 373.397C244.425 372.702 244.278 371.671 243.681 370.575C243.102 369.492 242.048 368.33 240.508 367.78C238.989 367.224 237.059 367.266 235.372 368.099C233.671 368.919 232.541 370.481 232.024 372.021C231.48 373.573 231.538 375.113 231.855 376.309C232.174 377.517 232.729 378.392 233.161 378.941C233.596 379.495 233.904 379.746 233.875 379.779C233.861 379.799 233.508 379.598 233.014 379.066C232.524 378.54 231.897 377.658 231.517 376.404C231.14 375.162 231.038 373.53 231.59 371.875C232.112 370.236 233.312 368.542 235.153 367.653C236.969 366.757 239.038 366.727 240.669 367.351C242.328 367.973 243.426 369.251 243.994 370.413C244.583 371.591 244.679 372.681 244.634 373.399C244.61 373.761 244.564 374.039 244.51 374.222C244.46 374.406 244.426 374.499 244.41 374.496Z" fill="#263238"/>
<path d="M273.171 169.645C270.544 169.571 267.757 169.665 264.903 170.019C247.672 172.154 234.832 186.955 234.866 204.318C234.876 209.374 235.416 215.032 237.004 220.666C241.811 237.721 243.295 252.759 242.74 260.079L258.837 268.732C258.837 268.732 266.29 258.026 273.487 253.407C280.685 248.789 304.65 236.444 314.137 223.752C320.253 215.569 321.428 198.777 306.849 184.091C297.94 175.118 285.809 170.001 273.171 169.645Z" fill="#8B70CD"/>
<path d="M235.12 278.705L249.662 286.565L240.196 298.586L230.502 294.18L235.12 278.705Z" fill="#455A64"/>
<path d="M235.826 279.19C235.697 279.143 237.14 274.827 239.049 269.551C240.958 264.273 242.61 260.033 242.739 260.08C242.868 260.127 241.425 264.442 239.516 269.72C237.607 274.996 235.955 279.236 235.826 279.19Z" fill="#263238"/>
<path d="M248.745 285.973C248.627 285.903 250.905 281.826 253.834 276.868C256.763 271.908 259.232 267.944 259.351 268.014C259.469 268.084 257.191 272.16 254.262 277.12C251.333 282.079 248.863 286.043 248.745 285.973Z" fill="#263238"/>
<g opacity="0.4">
<path d="M278.02 170.102C277.367 170.138 269.366 179.504 265.826 185.843C253.918 207.169 253.383 227.925 250.078 252.126C249.606 255.583 247.887 263.037 247.92 262.864C249.682 264.245 255.604 266.994 255.604 266.994C255.604 266.994 261.188 260.254 263.407 256.864C272.294 243.289 281.941 232.707 289.548 218.376C297.155 204.044 304.476 191.336 297.436 176.717C297.436 176.717 285.243 169.697 278.02 170.102Z" fill="black"/>
</g>
<path d="M314.198 225.897C314.186 225.901 314.115 225.743 313.99 225.436C313.856 225.132 313.703 224.664 313.434 224.084C312.909 222.921 312.051 221.246 310.624 219.357C309.192 217.485 307.195 215.37 304.447 213.594C301.743 211.777 298.262 210.338 294.315 209.843L294.218 209.831L294.161 209.754C292.311 207.259 290.19 204.685 287.664 202.296C285.143 199.914 282.191 197.722 278.795 196.189C275.407 194.677 271.757 194.007 268.313 194.191C264.868 194.365 261.638 195.46 259.139 197.248L258.994 197.352L258.86 197.234C255.871 194.605 252.289 193.246 249.063 192.88C245.814 192.505 242.931 193.103 240.733 193.942C238.518 194.785 236.956 195.857 235.948 196.635C235.445 197.028 235.07 197.348 234.826 197.572C234.579 197.794 234.446 197.904 234.438 197.896C234.429 197.887 234.545 197.76 234.777 197.52C235.006 197.278 235.367 196.939 235.861 196.525C236.849 195.706 238.404 194.585 240.638 193.693C242.853 192.806 245.784 192.159 249.106 192.511C252.403 192.854 256.076 194.215 259.157 196.898L258.879 196.884C261.443 195.029 264.763 193.892 268.288 193.707C271.813 193.51 275.538 194.191 279 195.735C282.461 197.296 285.454 199.528 287.998 201.943C290.547 204.365 292.674 206.969 294.522 209.487L294.368 209.398C298.394 209.923 301.925 211.414 304.652 213.283C307.424 215.111 309.421 217.28 310.838 219.195C312.249 221.128 313.077 222.838 313.564 224.026C313.815 224.618 313.946 225.097 314.059 225.409C314.162 225.728 314.21 225.893 314.198 225.897Z" fill="#263238"/>
<path d="M284.275 247.148C284.178 247.182 284.196 245.693 282.887 243.65C282.226 242.658 281.238 241.531 279.796 240.683C278.388 239.81 276.502 239.224 274.469 239.421L274.267 239.44L274.236 239.24C273.914 237.172 273.057 234.972 271.595 233.022C270.141 231.082 268.105 229.351 265.623 228.386C263.585 227.574 261.416 227.29 259.379 227.429C257.338 227.575 255.434 228.154 253.818 229L253.665 229.08L253.547 228.954C251.938 227.23 249.861 226.263 247.957 225.926C246.046 225.54 244.303 225.734 242.945 226.083C240.194 226.833 239.022 228.162 238.967 228.058C238.959 228.049 239.031 227.975 239.18 227.841C239.334 227.713 239.544 227.498 239.862 227.276C240.488 226.822 241.484 226.234 242.874 225.825C244.256 225.429 246.045 225.193 248.025 225.56C249.996 225.878 252.172 226.853 253.878 228.651L253.607 228.605C255.271 227.716 257.236 227.105 259.345 226.946C261.449 226.793 263.694 227.082 265.808 227.924C268.385 228.927 270.489 230.726 271.98 232.737C273.48 234.759 274.347 237.037 274.657 239.176L274.424 238.996C276.575 238.81 278.534 239.457 279.977 240.385C281.455 241.29 282.447 242.476 283.095 243.515C283.739 244.57 284.024 245.508 284.161 246.148C284.231 246.468 284.242 246.722 284.265 246.889C284.284 247.059 284.287 247.146 284.275 247.148Z" fill="#263238"/>
<path d="M246.851 290.35C246.814 290.378 246.693 290.151 246.317 289.996C245.942 289.839 245.337 289.818 244.616 290.048C244.248 290.146 243.829 290.282 243.33 290.283C242.83 290.292 242.276 290.05 241.893 289.649C241.121 288.846 240.828 287.684 240.099 286.881C239.736 286.488 239.264 286.286 238.759 286.316C238.255 286.336 237.748 286.503 237.243 286.619C236.741 286.739 236.209 286.815 235.719 286.7C235.233 286.597 234.835 286.356 234.528 286.09C233.911 285.549 233.641 284.912 233.571 284.474C233.496 284.03 233.567 283.785 233.592 283.788C233.635 283.789 233.633 284.031 233.758 284.427C233.878 284.818 234.175 285.371 234.75 285.818C235.036 286.037 235.393 286.227 235.8 286.296C236.201 286.374 236.654 286.302 237.134 286.174C237.616 286.054 238.132 285.864 238.74 285.829C239.351 285.774 240.032 286.057 240.46 286.539C241.305 287.501 241.571 288.644 242.223 289.331C242.538 289.668 242.933 289.857 243.341 289.871C243.751 289.888 244.156 289.785 244.533 289.706C245.294 289.508 246.006 289.58 246.402 289.822C246.81 290.065 246.873 290.349 246.851 290.35Z" fill="#263238"/>
<path d="M248.518 288.016C248.454 288.137 245.277 286.568 241.424 284.513C237.57 282.457 234.498 280.693 234.563 280.571C234.628 280.45 237.803 282.018 241.658 284.074C245.511 286.131 248.583 287.895 248.518 288.016Z" fill="#263238"/>
<path d="M245.63 291.684C245.638 291.722 245.427 291.784 245.076 291.947C244.899 292.026 244.696 292.146 244.419 292.258C244.142 292.373 243.783 292.416 243.417 292.389C242.691 292.338 241.796 292.11 241.021 291.465C240.636 291.151 240.311 290.691 240.107 290.208C239.893 289.734 239.725 289.246 239.403 288.899C238.738 288.188 237.662 288.112 236.769 288.144C235.851 288.178 234.947 288.205 234.24 287.902C233.543 287.611 233.12 287.116 232.962 286.73C232.799 286.338 232.857 286.097 232.881 286.1C232.924 286.095 232.938 286.321 233.134 286.642C233.324 286.958 233.734 287.356 234.366 287.574C234.993 287.799 235.815 287.749 236.752 287.687C237.664 287.639 238.897 287.654 239.77 288.564C240.184 289.021 240.352 289.564 240.552 290.01C240.74 290.466 240.991 290.829 241.321 291.119C241.976 291.698 242.785 291.951 243.45 292.039C244.123 292.162 244.608 291.88 245.008 291.766C245.398 291.653 245.625 291.656 245.63 291.684Z" fill="#263238"/>
<path d="M135.839 198.289L160.985 194.56L148.962 177.528L142.515 177.908C138.176 178.164 134.351 180.845 132.631 184.837C131.717 186.957 131.463 189.303 131.901 191.57L135.839 198.289Z" fill="#8B70CD"/>
<path opacity="0.4" d="M135.839 198.289L160.985 194.56L148.962 177.528L142.515 177.908C138.176 178.164 134.351 180.845 132.631 184.837C131.717 186.957 131.463 189.303 131.901 191.57L135.839 198.289Z" fill="black"/>
<path d="M243.856 226.154C244.115 226.874 244.398 227.727 244.684 228.746C244.93 229.621 245.016 230.533 244.955 231.44C244.881 232.539 244.722 233.997 244.388 234.767C243.974 235.721 244.935 236.681 245.75 236.204C246.565 235.727 247.769 233.127 247.694 229.78C247.62 226.433 251.034 230.445 252.304 231.884C253.575 233.323 257.714 237.593 258.466 237.553C259.569 237.494 259.709 236.302 258.407 234.894C257.089 233.469 253.497 228.988 254.29 228.354C255.071 227.729 261.438 235.146 261.438 235.146C261.438 235.146 262.542 236.952 263.483 236.249C265.179 234.982 257.83 227.596 257.113 226.911C256.615 226.434 257.452 225.715 257.959 226.255C258.482 226.811 264.138 233.801 265.877 232.527C267.211 231.55 259.888 226.396 259.52 224.294C259.152 222.192 264.676 228.767 265.912 227.782C266.373 227.415 266.665 227.077 262.948 223.759C261.144 222.148 254.284 217.348 254.284 217.348L233.645 158.253L217.706 167.381L243.856 226.154Z" fill="#FFBE9D"/>
<path d="M120.992 114.395L97.9283 86.8699L97.9263 86.8709C97.6273 85.9249 97.2683 85.0019 96.7983 84.1269C95.6453 81.9799 93.7383 80.1089 91.3573 79.5879C89.8944 79.2679 88.2203 79.4219 87.0723 78.4599C86.5593 78.0299 86.2174 77.4179 85.6794 77.0189C85.1424 76.6199 84.2463 76.5429 83.9023 77.1179C83.6573 77.5269 83.8134 78.0509 83.9984 78.4899C84.8544 80.5219 86.2534 82.3169 88.0024 83.6579C85.8394 84.3149 82.7513 85.3089 82.7513 85.3089C82.7513 85.3089 77.8753 80.0189 75.3783 80.0359C72.8813 80.0529 77.3964 84.7589 77.3964 84.7589C77.3964 84.7589 73.3974 81.0639 72.1574 82.1049C70.9174 83.1469 74.0954 85.8899 74.0954 85.8899C73.0854 85.3499 71.9804 84.7939 70.8514 84.9809C69.7224 85.1689 68.7504 86.5019 69.3584 87.4709C69.5914 87.8429 69.9903 88.0709 70.3743 88.2849C72.4203 89.4249 74.4664 90.5659 76.5134 91.7069C77.5404 92.2799 78.6194 92.8669 79.7954 92.9029C82.9094 92.9989 85.2773 91.0709 88.3913 91.1539C88.3913 91.1539 105.783 127.765 107.542 129.653C109.301 131.541 147.509 134.112 147.509 134.112L169.623 115.059L120.992 114.395Z" fill="#FFBE9D"/>
<path d="M190.265 313.82L213.818 324.078L201.205 353.446C198.473 352.069 199.366 334.457 199.366 334.457L184.006 328.504L190.265 313.82Z" fill="#8B70CD"/>
<g opacity="0.6">
<path d="M201.993 324.829C202.393 324.327 203.2 324.209 203.718 324.588C204.236 324.966 204.363 325.787 203.972 326.295C203.581 326.804 202.616 326.975 202.144 326.541C201.672 326.107 201.575 325.135 202.076 324.735" fill="black"/>
</g>
<path opacity="0.6" d="M213.817 324.078L211.403 323.137L200.213 351.647C200.213 351.647 200.22 353.199 201.205 353.447L213.817 324.078Z" fill="black"/>
<path d="M199.012 334.869C199.158 334.926 199.53 334.237 200.295 333.729C201.046 333.201 201.823 333.105 201.823 332.948C201.852 332.804 200.903 332.649 199.988 333.28C199.068 333.903 198.867 334.843 199.012 334.869Z" fill="#263238"/>
<path d="M198.963 338.496C199.088 338.588 199.598 338.072 200.414 337.846C201.223 337.595 201.932 337.754 201.987 337.609C202.068 337.484 201.27 337.024 200.261 337.325C199.25 337.617 198.827 338.434 198.963 338.496Z" fill="#263238"/>
<path d="M201.898 341.829C201.985 341.712 201.354 341.204 200.41 341.235C199.466 341.259 198.866 341.802 198.959 341.914C199.042 342.046 199.65 341.791 200.425 341.778C201.201 341.747 201.823 341.966 201.898 341.829Z" fill="#263238"/>
<path d="M195.662 333.124C195.818 333.12 195.903 332.377 196.306 331.59C196.693 330.795 197.236 330.281 197.145 330.154C197.077 330.026 196.282 330.414 195.82 331.348C195.351 332.277 195.519 333.146 195.662 333.124Z" fill="#263238"/>
<path d="M192.477 330.928C192.536 330.955 192.868 330.426 193.101 329.454C193.216 328.97 193.297 328.376 193.289 327.712C193.284 327.38 193.258 327.032 193.203 326.675C193.174 326.502 193.155 326.304 193.048 326.082C192.967 325.859 192.625 325.605 192.313 325.689C192.023 325.742 191.811 325.966 191.715 326.176C191.615 326.39 191.583 326.584 191.554 326.76C191.493 327.121 191.47 327.474 191.475 327.809C191.489 328.48 191.616 329.074 191.783 329.547C192.121 330.499 192.557 330.962 192.606 330.925C192.681 330.88 192.374 330.356 192.152 329.439C192.041 328.982 191.963 328.425 191.976 327.81C191.984 327.503 192.016 327.181 192.078 326.854C192.13 326.508 192.241 326.242 192.414 326.222C192.479 326.216 192.502 326.221 192.565 326.325C192.62 326.428 192.648 326.59 192.677 326.76C192.735 327.093 192.77 327.417 192.787 327.728C192.821 328.349 192.784 328.914 192.721 329.384C192.597 330.326 192.399 330.897 192.477 330.928Z" fill="#263238"/>
<path d="M192.763 330.829C192.807 330.788 192.415 330.282 191.509 329.831C191.059 329.609 190.48 329.417 189.812 329.34C189.479 329.304 189.124 329.297 188.758 329.331C188.394 329.378 187.915 329.421 187.612 329.95C187.476 330.236 187.6 330.575 187.758 330.741C187.915 330.923 188.077 331.016 188.232 331.123C188.552 331.324 188.891 331.462 189.222 331.549C189.887 331.725 190.517 331.692 191.011 331.573C192.019 331.326 192.447 330.801 192.404 330.768C192.353 330.689 191.861 331.07 190.941 331.195C190.488 331.257 189.929 331.245 189.359 331.067C189.075 330.979 188.788 330.851 188.521 330.675C188.228 330.495 188.027 330.27 188.109 330.167C188.169 330.02 188.511 329.873 188.812 329.859C189.14 329.821 189.461 329.817 189.766 329.837C190.376 329.881 190.918 330.019 191.356 330.182C192.237 330.514 192.708 330.898 192.763 330.829Z" fill="#263238"/>
<path d="M172.125 354.165L181.866 374.574L184.917 392.938C185.137 394.261 186.431 395.122 187.737 394.813C188.468 394.64 189.067 394.13 189.348 393.434C191.139 389 197.645 372.657 196.848 371.203C195.926 369.519 188.001 348.992 188.001 348.992L172.125 354.165Z" fill="#8B70CD"/>
<path opacity="0.6" d="M187.737 394.814L196.223 369.812L196.616 370.686C196.956 371.442 197.02 372.292 196.789 373.088C196.171 375.216 194.336 381.054 189.411 393.408C189.125 394.125 188.494 394.656 187.737 394.814Z" fill="black"/>
<g opacity="0.6">
<path d="M188.999 365.06C188.643 365.65 188.825 366.507 189.4 366.887C189.975 367.267 190.848 367.089 191.215 366.506C191.581 365.923 191.394 364.886 190.78 364.573C190.167 364.26 189.152 364.525 188.936 365.179" fill="black"/>
</g>
<path d="M188.4 383.682C188.309 383.791 187.358 382.92 185.87 382.891C184.383 382.817 183.374 383.62 183.291 383.504C183.25 383.461 183.439 383.184 183.892 382.899C184.339 382.613 185.067 382.368 185.888 382.395C186.709 382.425 187.418 382.721 187.844 383.037C188.275 383.352 188.444 383.642 188.4 383.682Z" fill="#263238"/>
<path d="M188.173 387.105C188.115 387.238 187.151 386.865 185.947 387.039C184.739 387.186 183.907 387.798 183.816 387.685C183.709 387.606 184.505 386.723 185.881 386.547C187.255 386.356 188.255 387.001 188.173 387.105Z" fill="#263238"/>
<path d="M189.544 378.912C189.491 379.053 188.012 378.472 186.116 378.579C184.218 378.656 182.802 379.377 182.736 379.241C182.653 379.146 184.057 378.171 186.092 378.083C188.126 377.974 189.617 378.81 189.544 378.912Z" fill="#263238"/>
<path d="M187.101 372.461C187.101 372.609 185.748 372.645 184.241 373.258C182.725 373.85 181.719 374.756 181.617 374.648C181.515 374.573 182.43 373.438 184.057 372.797C185.678 372.142 187.123 372.336 187.101 372.461Z" fill="#263238"/>
<path d="M184.393 366.397C184.383 366.545 182.928 366.372 181.394 367.148C179.843 367.889 179.091 369.147 178.968 369.065C178.915 369.037 179.024 368.677 179.376 368.188C179.724 367.701 180.346 367.112 181.175 366.702C182.006 366.295 182.852 366.162 183.45 366.184C184.051 366.204 184.403 366.338 184.393 366.397Z" fill="#263238"/>
<path d="M180.912 365.98C180.886 365.992 180.715 365.736 180.533 365.212C180.354 364.692 180.169 363.891 180.235 362.89C180.286 362.407 180.296 361.809 180.75 361.279C180.975 361.013 181.425 360.874 181.793 361.038C182.155 361.195 182.384 361.499 182.538 361.823C183.105 363.142 182.55 364.914 181.162 365.764C179.756 366.591 178.037 366.349 176.944 365.481C176.684 365.246 176.434 364.927 176.438 364.506C176.437 364.084 176.793 363.755 177.112 363.673C177.766 363.489 178.311 363.668 178.788 363.769C179.756 364.021 180.466 364.424 180.916 364.739C181.369 365.056 181.572 365.287 181.553 365.309C181.505 365.395 180.576 364.53 178.707 364.111C178.246 364.028 177.703 363.906 177.244 364.063C177.02 364.138 176.873 364.307 176.874 364.515C176.87 364.717 177.03 364.956 177.244 365.136C178.155 365.839 179.727 366.056 180.904 365.339C182.081 364.635 182.566 363.076 182.12 362.011C182.009 361.756 181.826 361.531 181.623 361.441C181.423 361.353 181.201 361.403 181.046 361.566C180.717 361.908 180.643 362.463 180.585 362.922C180.396 364.826 181.013 365.959 180.912 365.98Z" fill="#263238"/>
<path d="M204.948 316.313L178.242 298.336L187.08 211.543L161.783 196.77L138.65 191.41C138.65 191.41 128.988 211.509 124.692 224.376C115.554 251.741 109.14 261.548 110.606 281.384C111.07 287.662 134.253 303.366 148.894 312.091C149.095 314.094 149.351 315.844 149.671 317.288C154.674 339.905 169.945 369.983 169.945 369.983L193.154 359.193L185.665 333.547L193.465 338.096L204.948 316.313ZM147.542 260.348L150.658 246.436C149.999 255.281 149.397 264.51 148.966 273.359C147.466 269.269 146.955 264.724 147.542 260.348Z" fill="#263238"/>
<path d="M169.944 369.982C169.936 369.985 169.875 369.861 169.764 369.616C169.646 369.348 169.487 368.985 169.283 368.521C168.863 367.53 168.26 366.108 167.489 364.288C165.947 360.605 163.74 355.266 161.084 348.64C158.443 342.008 155.297 334.109 152.129 325.212C151.34 322.987 150.566 320.693 149.839 318.325C149.517 317.125 149.113 315.944 148.902 314.675C148.841 314.362 148.77 314.047 148.719 313.733L148.608 312.786C148.537 312.153 148.467 311.517 148.395 310.878C148.123 308.322 147.898 305.715 147.731 303.065C147.647 301.74 147.575 300.405 147.523 299.059C147.475 297.719 147.414 296.349 147.492 294.987C147.884 284.081 148.801 273.744 149.555 264.334C150.341 254.934 151.049 246.466 151.644 239.346C152.22 232.232 152.623 226.471 152.851 222.487C152.975 220.495 153.044 218.948 153.091 217.898C153.119 217.392 153.14 216.996 153.156 216.704C153.173 216.435 153.187 216.298 153.195 216.298C153.203 216.298 153.207 216.436 153.207 216.706C153.203 216.998 153.198 217.394 153.192 217.901C153.177 218.952 153.14 220.502 153.045 222.496C152.876 226.485 152.527 232.253 151.995 239.372C151.43 246.495 150.758 254.966 150.012 264.37C149.284 273.777 148.38 284.125 147.99 294.996C147.913 296.355 147.973 297.693 148.02 299.039C148.072 300.38 148.142 301.712 148.225 303.033C148.39 305.676 148.612 308.276 148.88 310.826C148.95 311.463 149.02 312.097 149.09 312.729L149.199 313.673C149.25 313.982 149.319 314.285 149.377 314.59C149.577 315.812 149.979 317.002 150.295 318.188C151.013 320.544 151.78 322.835 152.562 325.059C155.701 333.952 158.813 341.863 161.411 348.509C164.046 355.122 166.181 360.481 167.668 364.213C168.402 366.048 168.976 367.481 169.376 368.481C169.561 368.953 169.705 369.322 169.811 369.595C169.907 369.848 169.952 369.979 169.944 369.982Z" fill="#455A64"/>
<path d="M152.094 213.365C152.072 213.391 151.86 213.219 151.485 212.872C151.137 212.506 150.715 211.89 150.356 211.057C149.637 209.386 149.272 206.892 149.218 204.171C149.168 201.443 149.37 198.986 149.549 197.217C149.733 195.448 149.884 194.359 149.95 194.364C150.02 194.369 149.993 195.471 149.899 197.244C149.81 199.017 149.665 201.464 149.714 204.161C149.768 206.851 150.073 209.291 150.683 210.929C150.988 211.746 151.344 212.358 151.633 212.748C151.947 213.116 152.115 213.339 152.094 213.365Z" fill="#455A64"/>
<path d="M142.106 192.708C142.156 192.697 142.397 193.618 142.305 195.136C142.222 196.64 141.709 198.758 140.391 200.694C139.071 202.63 137.288 203.882 135.918 204.51C134.538 205.151 133.594 205.264 133.586 205.213C133.562 205.131 134.464 204.897 135.76 204.196C137.05 203.507 138.72 202.264 139.981 200.414C141.241 198.564 141.787 196.556 141.956 195.103C142.133 193.641 142.021 192.716 142.106 192.708Z" fill="#455A64"/>
<path d="M183.605 243.169C183.614 243.17 183.612 243.259 183.6 243.434C183.583 243.636 183.562 243.89 183.535 244.206C183.463 244.92 183.364 245.911 183.238 247.169C182.954 249.779 182.549 253.489 182.052 258.059C181.008 267.281 179.572 279.959 177.987 293.963C177.374 300.974 177.986 307.722 179.302 313.667C179.952 316.646 180.814 319.413 181.72 321.973C182.618 324.537 183.455 326.927 184.221 329.112C185.726 333.455 186.949 336.981 187.809 339.461C188.213 340.659 188.531 341.603 188.761 342.283C188.857 342.585 188.935 342.828 188.997 343.021C189.048 343.188 189.069 343.275 189.061 343.278C189.053 343.281 189.015 343.199 188.949 343.038C188.875 342.849 188.782 342.611 188.667 342.316C188.416 341.643 188.069 340.71 187.627 339.525C186.732 337.058 185.458 333.549 183.891 329.228C183.108 327.048 182.252 324.665 181.333 322.109C180.407 319.549 179.523 316.761 178.857 313.766C177.507 307.785 176.875 300.985 177.493 293.92C179.055 279.877 180.607 267.21 181.704 258.022C182.268 253.46 182.725 249.756 183.047 247.15C183.213 245.896 183.343 244.908 183.437 244.196C183.484 243.882 183.521 243.63 183.551 243.429C183.578 243.256 183.597 243.168 183.605 243.169Z" fill="#455A64"/>
<path d="M138.65 191.243L142.746 180.776L152.094 194.715L139.631 191.599" fill="#FFBE9D"/>
<path d="M236.472 159.776L225.377 134.905C224.051 130.906 221.563 130.285 219.479 127.965L191.686 112.29C171.431 103.994 160.403 131.817 160.403 131.817L141.993 173.809C120.344 180.986 135.673 197.613 135.673 197.613C135.673 197.613 129.784 187.377 135.575 183.684C141.639 179.817 148.362 190.005 154.821 199.682C162.447 211.106 187.227 218.527 187.227 218.527C190.126 215.465 189.315 204.776 191.584 199.039C192.304 197.22 209.464 157.473 209.464 157.473L216.116 173.589C216.116 173.589 224.643 163.592 228.775 162.003C232.908 160.412 236.472 159.776 236.472 159.776Z" fill="#8B70CD"/>
<path d="M187.227 177.451C187.243 177.477 186.952 177.698 186.386 178.038C185.821 178.379 184.966 178.817 183.857 179.236C181.659 180.083 178.332 180.74 174.724 180.183C171.115 179.626 168.141 177.996 166.3 176.526C165.37 175.792 164.687 175.117 164.251 174.621C163.814 174.126 163.603 173.827 163.626 173.807C163.695 173.742 164.629 174.872 166.512 176.245C168.373 177.617 171.292 179.15 174.8 179.692C178.307 180.233 181.552 179.652 183.74 178.905C185.949 178.164 187.181 177.368 187.227 177.451Z" fill="#263238"/>
<path d="M141.169 138.012L158.321 139.63L185.759 110.629L169.622 110.075L140.885 112.911C140.885 112.911 143.43 124.889 141.169 138.012Z" fill="#8B70CD"/>
<path d="M164.992 122.731C165.007 122.739 164.934 122.922 164.782 123.263C164.602 123.65 164.374 124.14 164.094 124.743C163.465 126.086 162.602 127.928 161.549 130.177C159.416 134.773 156.586 141.175 153.519 148.274C150.452 155.376 147.661 161.801 145.552 166.412C144.499 168.719 143.63 170.577 143.005 171.85C142.709 172.446 142.468 172.93 142.278 173.312C142.107 173.644 142.01 173.815 141.994 173.807C141.978 173.8 142.045 173.615 142.187 173.269C142.355 172.876 142.568 172.379 142.829 171.768C143.423 170.409 144.236 168.545 145.23 166.268C147.258 161.558 150.015 155.153 153.062 148.075C156.13 140.974 159.014 134.588 161.23 130.026C162.335 127.743 163.254 125.908 163.92 124.655C164.234 124.069 164.49 123.592 164.692 123.216C164.874 122.891 164.976 122.724 164.992 122.731Z" fill="#263238"/>
<path d="M217.339 131.166C217.387 131.25 216.323 131.805 214.872 133.04C214.141 133.65 213.349 134.465 212.554 135.437C211.782 136.427 211.02 137.583 210.379 138.883C209.756 140.192 209.32 141.507 209.021 142.726C208.751 143.952 208.601 145.079 208.575 146.03C208.505 147.934 208.728 149.112 208.632 149.127C208.598 149.133 208.526 148.844 208.423 148.311C208.366 148.045 208.311 147.718 208.289 147.332C208.262 146.948 208.203 146.509 208.224 146.023C208.205 145.05 208.321 143.89 208.574 142.626C208.855 141.369 209.29 140.011 209.931 138.666C210.59 137.33 211.386 136.147 212.198 135.148C213.033 134.166 213.872 133.357 214.648 132.769C215.017 132.451 215.397 132.225 215.716 132.009C216.032 131.788 216.324 131.628 216.568 131.508C217.051 131.258 217.323 131.135 217.339 131.166Z" fill="#263238"/>
<path d="M222.132 91.3338L206.041 121.411C203.414 126.322 197.437 128.365 192.354 126.09C186.757 123.586 184.441 116.869 187.308 111.449C188.825 108.58 190.084 106.237 190.084 106.237C190.084 106.237 183.088 101.703 186.36 94.1438C189.279 87.3998 199.995 68.3648 202.271 64.3398L215.833 70.4088C223.449 74.3658 226.298 83.8298 222.132 91.3338Z" fill="#FFBE9D"/>
<path d="M190.12 106.124C190.12 106.124 194.698 108.636 201.167 107.724C201.167 107.724 196.429 112.098 189.231 108.064L190.12 106.124Z" fill="#EB996E"/>
<path d="M195.288 82.0758C195.014 82.6338 195.261 83.3258 195.838 83.6228C196.414 83.9188 197.104 83.7078 197.378 83.1498C197.652 82.5918 197.405 81.8998 196.829 81.6038C196.252 81.3068 195.561 81.5178 195.288 82.0758Z" fill="#263238"/>
<path d="M195.349 81.1188C195.42 81.3178 196.502 81.0808 197.656 81.6008C198.816 82.1038 199.398 83.0778 199.586 82.9918C199.676 82.9568 199.653 82.6438 199.404 82.2098C199.161 81.7798 198.657 81.2418 197.936 80.9228C197.215 80.6048 196.491 80.5988 196.022 80.7138C195.545 80.8268 195.311 81.0268 195.349 81.1188Z" fill="#263238"/>
<path d="M206.096 87.3931C205.822 87.9511 206.069 88.6431 206.647 88.9391C207.223 89.2351 207.913 89.0241 208.187 88.4661C208.461 87.9081 208.214 87.2151 207.638 86.9191C207.06 86.6231 206.37 86.8351 206.096 87.3931Z" fill="#263238"/>
<path d="M206.608 86.4159C206.679 86.6159 207.762 86.3779 208.915 86.8979C210.075 87.4009 210.657 88.3749 210.846 88.2889C210.935 88.2539 210.914 87.9409 210.664 87.5059C210.42 87.0759 209.917 86.5379 209.196 86.2189C208.474 85.9009 207.751 85.8949 207.281 86.0099C206.805 86.1249 206.571 86.3239 206.608 86.4159Z" fill="#263238"/>
<path d="M198.582 93.1069C198.617 93.0439 197.954 92.5979 196.857 91.9289C196.576 91.7669 196.323 91.5829 196.363 91.3589C196.389 91.1149 196.655 90.8519 196.951 90.5729C197.548 89.9829 198.173 89.3649 198.829 88.7169C201.472 86.0609 203.526 83.8239 203.418 83.7179C203.31 83.6129 201.081 85.6799 198.438 88.3359C197.793 88.9939 197.178 89.6209 196.591 90.2219C196.329 90.5069 195.967 90.8019 195.92 91.3109C195.901 91.5669 196.046 91.8239 196.212 91.9589C196.375 92.1009 196.54 92.1789 196.682 92.2529C197.824 92.8399 198.548 93.1709 198.582 93.1069Z" fill="#263238"/>
<path d="M201.624 95.4277C201.441 95.3327 200.878 96.5857 199.406 96.9957C197.935 97.4087 196.661 96.6697 196.573 96.8407C196.52 96.9117 196.762 97.2177 197.319 97.4857C197.864 97.7527 198.752 97.9367 199.652 97.6857C200.551 97.4327 201.158 96.8307 201.432 96.3347C201.714 95.8317 201.713 95.4587 201.624 95.4277Z" fill="#263238"/>
<path d="M208.336 81.7549C208.309 82.1199 209.529 82.4869 210.812 83.2569C212.11 84.0009 213.025 84.8869 213.331 84.6859C213.472 84.5869 213.413 84.2059 213.107 83.7039C212.805 83.2039 212.235 82.6029 211.462 82.1479C210.688 81.6949 209.885 81.4909 209.302 81.4709C208.715 81.4489 208.354 81.5839 208.336 81.7549Z" fill="#263238"/>
<path d="M197.27 77.9648C197.356 78.3178 198.273 78.4018 199.236 78.8178C200.213 79.1998 200.924 79.7848 201.234 79.5938C201.375 79.4968 201.365 79.1768 201.122 78.7708C200.884 78.3668 200.391 77.9038 199.724 77.6288C199.057 77.3558 198.381 77.3378 197.928 77.4578C197.47 77.5768 197.238 77.7968 197.27 77.9648Z" fill="#263238"/>
<path d="M217.072 95.8418C217.225 95.8438 222.921 96.6258 220.457 101.692C217.993 106.758 213.415 103.239 213.477 103.09C213.539 102.94 217.072 95.8418 217.072 95.8418Z" fill="#FFBE9D"/>
<path d="M215.958 101.923C215.988 101.918 216.016 102.028 216.132 102.169C216.245 102.306 216.473 102.474 216.785 102.503C217.416 102.567 218.28 101.936 218.748 101.035C218.985 100.58 219.102 100.094 219.116 99.6508C219.142 99.2048 219.028 98.8298 218.782 98.6508C218.544 98.4578 218.275 98.5267 218.143 98.6387C218.006 98.7477 217.989 98.8638 217.958 98.8598C217.938 98.8658 217.89 98.7217 218.033 98.5327C218.103 98.4427 218.22 98.3518 218.387 98.3128C218.557 98.2728 218.76 98.3097 218.938 98.4207C219.316 98.6377 219.492 99.1678 219.478 99.6548C219.484 100.154 219.363 100.705 219.097 101.216C218.568 102.221 217.581 102.922 216.745 102.778C216.344 102.698 216.098 102.446 216.003 102.251C215.908 102.05 215.936 101.924 215.958 101.923Z" fill="#EB996E"/>
<path d="M220.01 96.9478C219.311 96.4078 217.631 96.5238 216.969 97.1088C216.306 97.6928 215.86 98.4918 215.199 99.0768C214.537 99.6618 213.487 99.9888 212.785 99.4529C212.301 99.0828 212.141 98.4018 212.239 97.8008C212.337 97.1988 212.649 96.6568 212.966 96.1358C214.343 93.8708 215.913 91.7168 217.091 89.3428C218.269 86.9688 219.049 84.3028 218.701 81.6758C218.353 79.0478 216.7 76.4908 214.201 75.6058C212.546 75.0198 210.708 75.1968 209.022 74.7088C207.023 74.1308 205.331 72.5758 204.585 70.6328C204.489 70.3838 203.924 69.4958 203.924 69.4958C203.98 69.3718 204.578 68.3508 205.176 68.1488C209.627 66.6458 215.664 68.3718 219.354 71.2798C223.044 74.1878 225.628 78.8678 225.673 83.5648C225.716 88.2628 222.76 93.4448 220.01 96.9478Z" fill="#263238"/>
<path d="M220.059 96.4399C221.466 94.0469 223.75 92.3108 225.494 90.1508C227.237 87.9898 228.435 84.9449 227.194 82.4619C226.77 81.6129 226.091 80.9018 225.737 80.0219C225.381 79.1369 225.38 78.1569 225.243 77.2129C224.82 74.2959 222.976 71.6179 220.401 70.1829C218.621 69.1899 216.566 68.7829 214.762 67.8349C211.905 66.3329 209.815 63.5489 206.813 62.3619C205.817 61.9679 204.651 61.7769 203.698 62.2679C202.746 62.7589 202.235 64.1398 202.929 64.9568C202.806 63.9988 201.564 63.4728 200.683 63.8708C199.803 64.2688 199.352 65.3169 199.412 66.2809C199.472 67.2449 199.95 68.1339 200.503 68.9259C202.326 71.5368 205.114 73.4569 208.203 74.2289L215.106 73.6908L220.765 77.8848L224.954 84.5508L217.359 94.4179L220.059 96.4399Z" fill="#263238"/>
<path d="M176.871 57.0908C176.003 43.6548 164.407 33.4668 150.971 34.3348C137.535 35.2028 127.347 46.7988 128.215 60.2348C128.844 69.9628 135.097 77.9838 143.599 81.3428C143.785 84.2258 143.995 87.4798 143.995 87.4798L165.318 86.1018C165.318 86.1018 165.224 82.6488 165.073 79.5708C172.647 75.0248 177.48 66.5138 176.871 57.0908Z" fill="#8B70CD"/>
<path d="M157.601 86.4999C157.601 86.4999 157.597 86.3969 157.606 86.1979C157.616 85.9869 157.63 85.6929 157.649 85.3139C157.693 84.5369 157.757 83.3919 157.877 81.9189C157.999 80.4459 158.171 78.6439 158.503 76.5679C158.845 74.4969 159.341 72.1389 160.273 69.6549C160.74 68.4139 161.291 67.1379 162.039 65.8849C162.425 65.2709 162.919 64.6639 163.606 64.2839C164.292 63.8999 165.177 63.8419 165.921 64.2099C166.289 64.3919 166.612 64.7179 166.753 65.1229C166.908 65.5199 166.897 65.9849 166.732 66.3779C166.406 67.1719 165.723 67.7539 164.957 68.1189C163.387 68.7849 161.526 68.7629 159.876 68.0879C158.221 67.4139 156.842 65.9989 156.179 64.2509C155.859 63.3819 155.653 62.4199 155.854 61.4539C156.022 60.4959 156.885 59.5919 157.955 59.6209C158.485 59.6259 158.986 59.9549 159.249 60.3989C159.522 60.8399 159.619 61.3759 159.541 61.8859C159.372 62.9159 158.689 63.7229 157.987 64.4139C156.536 65.7799 154.493 66.6189 152.423 66.4259C150.367 66.2319 148.452 65.0049 147.492 63.2229C146.993 62.3489 146.816 61.2599 147.137 60.2869C147.299 59.8069 147.642 59.3459 148.134 59.1419C148.617 58.9189 149.184 58.9729 149.641 59.1829C150.103 59.3899 150.491 59.7549 150.737 60.1839C150.991 60.6109 151.127 61.0889 151.199 61.5609C151.329 62.5099 151.255 63.4659 151.009 64.3649C150.53 66.1669 149.366 67.7369 147.843 68.6659C146.327 69.6049 144.518 69.9449 142.854 69.6829C142.032 69.5559 141.182 69.2859 140.589 68.6629C140.009 68.0549 139.792 67.0469 140.303 66.3279C140.558 65.9819 140.961 65.7799 141.362 65.7229C141.765 65.6679 142.172 65.7239 142.537 65.8739C143.282 66.1839 143.767 66.8249 144.134 67.4469C144.831 68.7269 145.404 69.9769 145.98 71.1689C148.242 75.9469 149.884 79.8979 150.989 82.6369C151.541 84.0069 151.953 85.0779 152.23 85.8049C152.362 86.1609 152.464 86.4359 152.538 86.6339C152.606 86.8219 152.633 86.9199 152.633 86.9199C152.633 86.9199 152.586 86.8289 152.509 86.6449C152.429 86.4489 152.317 86.1769 152.174 85.8259C151.874 85.0949 151.439 84.0369 150.881 82.6799C149.743 79.9549 148.073 76.0189 145.789 71.2589C145.211 70.0769 144.622 68.8119 143.935 67.5629C143.579 66.9599 143.109 66.3639 142.447 66.0949C141.805 65.8289 140.933 65.8869 140.503 66.4729C140.081 67.0549 140.258 67.9539 140.775 68.4849C141.304 69.0409 142.1 69.3019 142.895 69.4209C144.497 69.6679 146.243 69.3359 147.698 68.4289C149.158 67.5339 150.274 66.0229 150.733 64.2879C150.969 63.4239 151.037 62.5009 150.912 61.6009C150.79 60.7159 150.357 59.8099 149.521 59.4459C149.12 59.2639 148.649 59.2229 148.253 59.4079C147.849 59.5759 147.563 59.9529 147.417 60.3799C147.132 61.2529 147.282 62.2559 147.755 63.0779C148.661 64.7629 150.496 65.9419 152.451 66.1239C154.421 66.3099 156.388 65.5069 157.783 64.1939C158.463 63.5299 159.105 62.7489 159.249 61.8389C159.318 61.3949 159.231 60.9269 158.999 60.5509C158.772 60.1739 158.376 59.9169 157.945 59.9109C157.515 59.8959 157.082 60.0849 156.761 60.3799C156.434 60.6709 156.232 61.0809 156.138 61.5139C155.952 62.3879 156.14 63.3149 156.447 64.1469C157.079 65.8229 158.401 67.1839 159.983 67.8309C161.557 68.4849 163.368 68.5029 164.847 67.8779C165.565 67.5419 166.207 66.9849 166.494 66.2829C166.802 65.5849 166.474 64.7379 165.808 64.4289C165.156 64.1009 164.339 64.1449 163.722 64.4919C163.087 64.8399 162.613 65.4099 162.235 66.0069C161.499 67.2269 160.94 68.5019 160.472 69.7279C159.534 72.1889 159.025 74.5319 158.669 76.5939C158.322 78.6599 158.134 80.4579 157.994 81.9269C157.871 83.3889 157.776 84.5289 157.71 85.3159C157.679 85.6939 157.655 85.9869 157.638 86.1979C157.618 86.3989 157.601 86.4999 157.601 86.4999Z" fill="#263238"/>
<path d="M163.932 90.1569L145.625 91.3399C144.866 91.3889 144.211 90.8139 144.162 90.0549C144.113 89.2959 144.688 88.6409 145.447 88.5919L163.754 87.4089C164.513 87.3599 165.168 87.9349 165.217 88.6939C165.266 89.4529 164.691 90.1079 163.932 90.1569Z" fill="#263238"/>
<path d="M164.01 91.3569L145.703 92.5399C144.944 92.5889 144.369 93.2439 144.418 94.0029C144.467 94.7619 145.122 95.3369 145.881 95.2879L147.89 95.1579L150.884 100.06C151.227 100.621 151.852 100.945 152.507 100.903L159.049 100.48C159.711 100.437 160.294 100.027 160.558 99.4179L162.822 94.1929L164.188 94.1049C164.947 94.0559 165.522 93.4009 165.473 92.6419C165.423 91.8829 164.769 91.3079 164.01 91.3569Z" fill="#263238"/>
<g opacity="0.2">
<path d="M135.912 44.1717C137.45 42.5557 139.096 41.3847 140.575 40.6187C142.054 39.8487 143.34 39.4387 144.254 39.2867C145.169 39.1317 145.698 39.1867 145.755 39.3777C145.889 39.8127 144.087 40.5867 141.71 42.4067C139.34 44.1907 136.422 47.2327 134.81 51.3697C133.21 55.5117 133.313 59.7267 133.86 62.6427C134.388 65.5907 135.197 67.3757 134.804 67.6067C134.633 67.7087 134.205 67.3927 133.634 66.6617C133.062 65.9327 132.388 64.7637 131.816 63.1977C131.241 61.6347 130.815 59.6607 130.769 57.4297C130.719 55.2037 131.087 52.7207 132.017 50.2867" fill="black"/>
</g>
<g opacity="0.2">
<path d="M151.673 40.0488C150.13 40.1338 148.742 39.8008 148.532 38.9938C148.438 38.5938 148.695 38.1438 149.23 37.7708C149.762 37.3988 150.573 37.1139 151.495 37.0589C152.417 37.0049 153.256 37.1908 153.828 37.4968C154.404 37.8038 154.713 38.2199 154.667 38.6289" fill="black"/>
</g>
<path d="M160.244 99.8737C160.225 99.9207 159.751 99.7397 158.961 99.5677C158.173 99.3937 157.056 99.2647 155.83 99.3767C154.605 99.4937 153.531 99.8287 152.789 100.146C152.045 100.462 151.613 100.727 151.586 100.685C151.567 100.659 151.961 100.327 152.701 99.9527C153.437 99.5777 154.538 99.1987 155.803 99.0777C157.068 98.9617 158.22 99.1297 159.013 99.3607C159.809 99.5917 160.258 99.8447 160.244 99.8737Z" fill="#455A64"/>
<path d="M162.864 94.2529C162.869 94.3349 159.564 94.6159 155.482 94.8799C151.399 95.1439 148.085 95.2909 148.08 95.2079C148.075 95.1259 151.379 94.8449 155.463 94.5809C159.545 94.3169 162.859 94.1699 162.864 94.2529Z" fill="#455A64"/>
<path d="M161.859 96.4979C161.864 96.5379 161.18 96.6559 160.068 96.7979C158.956 96.9399 157.417 97.1039 155.712 97.2389C154.007 97.3729 152.46 97.4529 151.34 97.4859C150.22 97.5199 149.526 97.5109 149.524 97.4699C149.522 97.4279 150.212 97.3619 151.328 97.2739C152.534 97.1819 154.031 97.0669 155.688 96.9399C157.343 96.8059 158.84 96.6849 160.045 96.5869C161.162 96.4989 161.854 96.4559 161.859 96.4979Z" fill="#455A64"/>
<path d="M30.0184 218.969L33.9934 225.338C33.9934 225.338 50.9544 209.73 67.7804 214.142C67.7804 214.142 52.6594 201.32 30.0184 218.969Z" fill="#8B70CD"/>
<path d="M67.7804 214.142C67.7804 214.142 80.2304 200.623 98.4854 203.707L103.463 204.457L101.873 201.581C101.873 201.581 70.1244 190.707 67.7804 214.142Z" fill="#8B70CD"/>
<path d="M41.5024 168.557C41.5024 168.557 16.5644 164.267 0.207397 173.116L26.1794 222.016C26.1794 222.016 47.4384 201.524 67.7814 214.143L41.5024 168.557Z" fill="#F5F5F5"/>
<path d="M41.5024 168.557C41.5054 168.552 41.5504 168.619 41.6354 168.756C41.7284 168.91 41.8514 169.112 42.0094 169.372C42.3454 169.94 42.8254 170.752 43.4464 171.802C44.7064 173.96 46.5354 177.091 48.8524 181.059C53.4984 189.071 60.1004 200.458 67.9724 214.033C68.0334 214.138 67.9974 214.273 67.8924 214.333C67.8204 214.375 67.7324 214.37 67.6654 214.329C64.8444 212.597 61.6034 211.283 58.1044 210.659C56.3514 210.371 54.5454 210.249 52.7144 210.285C50.8844 210.359 49.0354 210.59 47.1924 210.98C39.8264 212.614 32.6704 216.614 26.5644 221.995L26.3504 222.194C26.2514 222.289 26.0944 222.286 25.9994 222.188C25.9844 222.172 25.9684 222.15 25.9584 222.132C16.3104 203.932 7.36838 187.063 0.0253836 173.212C-0.0286164 173.115 0.00638652 172.993 0.103387 172.939L0.108384 172.936C5.82738 169.979 11.6304 168.697 16.7314 168.016C21.8554 167.355 26.3554 167.333 30.0334 167.438C33.7144 167.56 36.5864 167.856 38.5334 168.096C39.5074 168.214 40.2504 168.328 40.7494 168.411C40.9864 168.453 41.1714 168.486 41.3154 168.512C41.4444 168.537 41.5054 168.552 41.5024 168.557C41.4994 168.561 41.4314 168.555 41.3064 168.541C41.1624 168.523 40.9774 168.501 40.7404 168.472C40.2394 168.41 39.4944 168.316 38.5194 168.217C36.5704 168.016 33.7014 167.759 30.0274 167.672C26.3574 167.603 21.8714 167.657 16.7754 168.344C11.7034 169.049 5.94438 170.354 0.304383 173.295L0.387383 173.02C7.75138 186.859 16.7214 203.714 26.3984 221.899L26.0064 221.837L26.2284 221.63C29.3064 218.873 32.6724 216.562 36.1714 214.654C39.6774 212.763 43.3524 211.316 47.0904 210.51C48.9604 210.117 50.8384 209.885 52.6994 209.813C54.5614 209.779 56.3984 209.906 58.1824 210.203C61.7434 210.845 65.0384 212.191 67.8954 213.956L67.5884 214.253C59.8024 200.667 53.2714 189.272 48.6764 181.253C46.3984 177.25 44.6004 174.09 43.3614 171.912C42.7584 170.84 42.2924 170.01 41.9664 169.429C41.8174 169.157 41.7014 168.945 41.6134 168.784C41.5364 168.638 41.4984 168.562 41.5024 168.557Z" fill="#263238"/>
<path d="M80.7014 158.523C80.7014 158.523 61.8374 146.5 41.8224 168.557L68.1014 214.142C68.1014 214.142 73.4644 195.64 104.837 202.075L80.7014 158.523Z" fill="#F5F5F5"/>
<path d="M80.7014 158.523C80.7054 158.519 80.7474 158.583 80.8264 158.714C80.9134 158.862 81.0264 159.055 81.1724 159.304C81.4824 159.848 81.9244 160.623 82.4954 161.625C83.6544 163.687 85.3344 166.676 87.4634 170.464C91.7274 178.113 97.7904 188.987 105.028 201.969C105.087 202.074 105.049 202.207 104.944 202.266C104.899 202.291 104.849 202.299 104.802 202.291L104.793 202.289C103.265 202.038 101.708 201.782 100.122 201.521C99.3324 201.362 98.5234 201.318 97.7094 201.253C96.8954 201.188 96.0744 201.123 95.2474 201.057C94.4204 200.96 93.5844 200.98 92.7424 200.996C91.9004 201.007 91.0524 201.017 90.1974 201.028C89.3434 201.048 88.4934 201.202 87.6324 201.282C86.7744 201.391 85.8994 201.437 85.0534 201.671C84.1994 201.864 83.3404 202.058 82.4754 202.254C81.6394 202.546 80.7994 202.84 79.9544 203.136C79.1084 203.429 78.3304 203.895 77.5074 204.268C77.0904 204.448 76.7084 204.691 76.3304 204.943L75.1804 205.68C74.4224 206.186 73.7434 206.809 73.0274 207.385C72.3974 208.054 71.6874 208.658 71.1364 209.409C69.9574 210.829 68.9504 212.466 68.3404 214.209L68.3354 214.222C68.2904 214.351 68.1484 214.419 68.0194 214.374C67.9614 214.354 67.9154 214.313 67.8864 214.264C67.5514 213.684 67.1894 213.056 66.8274 212.426C57.5354 196.279 48.8774 181.232 41.6424 168.659C41.5954 168.579 41.6094 168.479 41.6684 168.414C46.1124 163.568 51.0164 159.87 55.9044 157.711C60.7814 155.498 65.5394 154.947 69.3324 155.191C73.1504 155.427 76.0434 156.357 77.9224 157.116C78.8674 157.497 79.5614 157.855 80.0234 158.104C80.2384 158.23 80.4074 158.328 80.5384 158.404C80.6514 158.481 80.7054 158.519 80.7014 158.523C80.6974 158.527 80.6354 158.496 80.5204 158.434C80.3864 158.365 80.2144 158.277 79.9934 158.164C79.5234 157.934 78.8224 157.597 77.8754 157.237C75.9904 156.519 73.1054 155.635 69.3184 155.436C65.5554 155.23 60.8554 155.808 56.0414 158.025C51.2164 160.188 46.3734 163.871 41.9764 168.698L42.0024 168.453C49.2574 181.015 57.9384 196.048 67.2554 212.181C67.6184 212.81 67.9804 213.438 68.3144 214.019L67.8614 214.074C68.5144 212.208 69.5384 210.567 70.7514 209.099C71.3184 208.329 72.0434 207.71 72.6914 207.025C73.4234 206.435 74.1214 205.798 74.8964 205.281L76.0724 204.529C76.4604 204.272 76.8514 204.025 77.2754 203.841C78.1144 203.46 78.9104 202.986 79.7724 202.689C80.6334 202.389 81.4894 202.091 82.3404 201.795C83.2184 201.597 84.0914 201.401 84.9584 201.206C85.8194 200.969 86.7044 200.924 87.5734 200.815C88.4454 200.734 89.3074 200.581 90.1704 200.562C91.0334 200.553 91.8904 200.543 92.7414 200.534C93.5924 200.519 94.4364 200.501 95.2694 200.6C96.1034 200.668 96.9304 200.736 97.7514 200.803C98.5714 200.87 99.3884 200.918 100.181 201.079C101.776 201.345 103.343 201.607 104.879 201.864L104.644 202.184C97.4824 189.182 91.4824 178.291 87.2624 170.63C85.1754 166.811 83.5294 163.797 82.3934 161.719C81.8444 160.699 81.4184 159.908 81.1204 159.354C80.9854 159.096 80.8804 158.895 80.7994 158.741C80.7314 158.6 80.6974 158.527 80.7014 158.523Z" fill="#263238"/>
<path d="M7.23145 149.61L35.3554 203.761C35.3554 203.761 58.2125 202.761 67.8865 213.9L41.8224 168.556C41.8224 168.556 26.5384 149.61 7.23145 149.61Z" fill="#F5F5F5"/>
<path d="M7.23142 149.61C7.23142 149.61 7.46342 149.614 7.94442 149.633C8.45542 149.654 9.17842 149.683 10.1124 149.722C10.3514 149.736 10.6084 149.739 10.8724 149.767C11.1334 149.81 11.4074 149.855 11.6934 149.902C12.2694 149.998 12.8964 150.102 13.5734 150.215C14.2594 150.297 14.9644 150.527 15.7274 150.729C16.4824 150.959 17.3144 151.114 18.1394 151.443C24.8604 153.68 33.8744 159.101 41.9794 168.429L41.9944 168.449L41.9974 168.455C49.4184 181.339 58.4014 196.937 68.1004 213.776C68.1684 213.895 68.1284 214.046 68.0094 214.115C67.9104 214.172 67.7884 214.153 67.7114 214.076L67.6984 214.063C67.3504 213.717 66.9734 213.342 66.5954 212.966C64.5034 210.938 62.0274 209.338 59.3964 208.208C56.7794 207.052 54.0764 206.158 51.3514 205.572C45.9154 204.351 40.4904 203.891 35.3654 203.993H35.3594C35.2684 203.995 35.1884 203.944 35.1494 203.868C26.9504 187.969 19.9464 174.387 14.9814 164.758C12.5324 159.987 10.5864 156.196 9.24242 153.577C8.58942 152.299 8.08342 151.307 7.73042 150.616C7.56842 150.295 7.44342 150.046 7.34942 149.859C7.26542 149.691 7.22542 149.607 7.23142 149.61C7.23742 149.613 7.28842 149.705 7.38342 149.88C7.48642 150.072 7.62242 150.327 7.79842 150.656C8.16742 151.355 8.69642 152.356 9.37742 153.648C10.7544 156.268 12.7474 160.061 15.2564 164.836C20.2554 174.393 27.3074 187.874 35.5624 203.654L35.3464 203.529C40.5304 203.416 45.9694 203.87 51.4614 205.096C54.2114 205.684 56.9454 206.585 59.6014 207.757C62.2694 208.902 64.7984 210.53 66.9444 212.611C67.3314 212.997 67.7184 213.382 68.0754 213.737L67.6724 214.023C58.0024 197.167 49.0454 181.554 41.6464 168.658L41.6644 168.684C37.7054 164.03 33.3894 160.385 29.3544 157.545C25.2814 154.746 21.4074 152.8 18.0654 151.662C17.2474 151.327 16.4234 151.165 15.6754 150.927C14.9194 150.717 14.2194 150.479 13.5394 150.389C12.8674 150.267 12.2444 150.154 11.6734 150.05C11.3884 149.998 11.1164 149.948 10.8574 149.901C10.5994 149.869 10.3544 149.862 10.1234 149.842C8.40542 149.705 7.60742 149.64 7.23142 149.61Z" fill="#263238"/>
<path d="M95.0173 303.192L95.6213 304.195C96.2993 305.321 97.2853 306.23 98.4633 306.812L99.5133 307.331L98.5093 307.935C97.3833 308.613 96.4743 309.599 95.8923 310.777L95.3733 311.827L94.7693 310.824C94.0913 309.698 93.1053 308.789 91.9273 308.207L90.8773 307.688L91.8803 307.084C93.0063 306.406 93.9153 305.42 94.4973 304.242L95.0173 303.192Z" fill="#8B70CD"/>
<path d="M39.5743 96.9268L40.1783 97.9297C40.8563 99.0557 41.8423 99.9648 43.0203 100.547L44.0703 101.066L43.0673 101.67C41.9413 102.348 41.0323 103.334 40.4493 104.512L39.9303 105.562L39.3263 104.559C38.6483 103.433 37.6623 102.524 36.4843 101.942L35.4343 101.423L36.4383 100.819C37.5643 100.141 38.4733 99.1547 39.0553 97.9767L39.5743 96.9268Z" fill="#8B70CD"/>
<path d="M296.16 132.514L296.764 133.518C297.442 134.644 298.428 135.553 299.606 136.135L300.656 136.654L299.653 137.258C298.527 137.936 297.618 138.922 297.035 140.1L296.516 141.15L295.912 140.147C295.234 139.021 294.248 138.112 293.07 137.53L292.02 137.011L293.023 136.407C294.149 135.729 295.058 134.743 295.64 133.565L296.16 132.514Z" fill="#8B70CD"/>
<path d="M265.859 316.146L266.463 317.15C267.141 318.276 268.127 319.185 269.305 319.767L270.355 320.286L269.352 320.89C268.226 321.568 267.317 322.554 266.735 323.732L266.216 324.782L265.612 323.779C264.934 322.653 263.948 321.744 262.77 321.161L261.72 320.642L262.724 320.038C263.85 319.36 264.759 318.374 265.341 317.196L265.859 316.146Z" fill="#8B70CD"/>
<path d="M271.627 354.736L271.916 354.852C272.24 354.982 272.595 355.017 272.939 354.952L273.245 354.894L273.129 355.183C272.999 355.507 272.964 355.862 273.029 356.206L273.087 356.512L272.798 356.396C272.474 356.266 272.118 356.231 271.775 356.296L271.469 356.354L271.585 356.065C271.716 355.741 271.75 355.385 271.685 355.042L271.627 354.736Z" fill="#8B70CD"/>
<path d="M289.074 93.8037L289.363 93.9197C289.687 94.0507 290.042 94.0847 290.386 94.0197L290.692 93.9617L290.576 94.2507C290.446 94.5747 290.411 94.9307 290.476 95.2737L290.534 95.5797L290.245 95.4637C289.921 95.3327 289.565 95.2987 289.222 95.3637L288.916 95.4217L289.032 95.1327C289.162 94.8077 289.197 94.4537 289.132 94.1097L289.074 93.8037Z" fill="#8B70CD"/>
<path d="M50.8493 69.9797L51.1383 70.0957C51.4623 70.2257 51.8173 70.2607 52.1613 70.1957L52.4673 70.1377L52.3513 70.4267C52.2213 70.7507 52.1863 71.1067 52.2513 71.4497L52.3093 71.7557L52.0203 71.6397C51.6953 71.5087 51.3403 71.4747 50.9973 71.5397L50.6913 71.5977L50.8073 71.3087C50.9383 70.9847 50.9723 70.6297 50.9073 70.2857L50.8493 69.9797Z" fill="#8B70CD"/>
<path d="M80.2503 273.151L80.5393 273.267C80.8633 273.397 81.2193 273.432 81.5623 273.367L81.8683 273.309L81.7523 273.598C81.6213 273.922 81.5873 274.278 81.6523 274.621L81.7103 274.927L81.4213 274.811C81.0973 274.68 80.7413 274.646 80.3983 274.711L80.0923 274.769L80.2083 274.48C80.3383 274.156 80.3733 273.801 80.3083 273.457L80.2503 273.151Z" fill="#8B70CD"/>
<path d="M112.125 351.683C112.125 351.683 112.038 351.787 111.852 351.975C111.651 352.174 111.376 352.448 111.021 352.8C110.268 353.533 109.183 354.59 107.79 355.947C104.953 358.683 100.866 362.625 95.8034 367.509L95.8504 367.391C96.4204 379.939 97.1944 396.993 98.0564 415.959L98.0764 416.388L97.7183 416.149C96.3433 415.23 94.8724 414.247 93.3904 413.256C83.5164 406.646 74.1704 400.389 65.9454 394.882L65.8894 394.845L65.8684 394.782C61.7734 382.553 58.3194 372.238 55.8814 364.959C54.6844 361.339 53.7364 358.475 53.0814 356.495C52.7684 355.528 52.5254 354.777 52.3554 354.249C52.2804 354.006 52.2214 353.816 52.1764 353.669C52.1374 353.538 52.1204 353.471 52.1254 353.469C52.1304 353.467 52.1574 353.531 52.2064 353.658C52.2594 353.802 52.3274 353.988 52.4154 354.228C52.5994 354.752 52.8614 355.496 53.1994 356.455C53.8784 358.426 54.8614 361.279 56.1034 364.884C58.5774 372.151 62.0834 382.449 66.2394 394.657L66.1624 394.557C74.3944 400.053 83.7494 406.298 93.6314 412.895C95.1134 413.886 96.5844 414.87 97.9594 415.789L97.6213 415.979C96.8093 397.011 96.0784 379.955 95.5414 367.405L95.5384 367.335L95.5894 367.287C100.693 362.446 104.812 358.538 107.672 355.826C109.089 354.495 110.194 353.457 110.96 352.738C111.328 352.399 111.613 352.136 111.821 351.944C112.017 351.765 112.125 351.683 112.125 351.683Z" fill="#8B70CD"/>
<path d="M99.3493 410.247L99.2623 413.078L101.545 414.756L98.8253 415.547L97.9353 418.237L96.3423 415.894L93.5093 415.879L95.2443 413.64L94.3833 410.941L97.0493 411.9L99.3493 410.247Z" fill="#8B70CD"/>
<path d="M66.2904 391.031L66.3454 392.863L67.8864 393.857L66.1604 394.477L65.6914 396.249L64.5694 394.798L62.7394 394.9L63.7714 393.385L63.1094 391.676L64.8694 392.189L66.2904 391.031Z" fill="#8B70CD"/>
<path d="M52.0493 350.104L53.4323 351.88L55.6783 351.747L54.4173 353.611L55.2373 355.706L53.0753 355.082L51.3363 356.51L51.2613 354.262L49.3663 353.048L51.4813 352.281L52.0493 350.104Z" fill="#8B70CD"/>
<path d="M110.743 348.33L112.125 350.105L114.371 349.973L113.11 351.836L113.93 353.932L111.768 353.308L110.029 354.735L109.954 352.486L108.059 351.273L110.174 350.507L110.743 348.33Z" fill="#8B70CD"/>
<path d="M95.3343 365.476L96.2173 366.609L97.6503 366.524L96.8453 367.714L97.3693 369.051L95.9893 368.653L94.8793 369.564L94.8313 368.129L93.6223 367.355L94.9723 366.865L95.3343 365.476Z" fill="#8B70CD"/>
<path d="M42.4114 289.847C53.4268 289.847 62.3564 280.917 62.3564 269.902C62.3564 258.886 53.4268 249.957 42.4114 249.957C31.3961 249.957 22.4664 258.886 22.4664 269.902C22.4664 280.917 31.3961 289.847 42.4114 289.847Z" fill="#8B70CD"/>
<g opacity="0.3">
<path d="M39.8195 276.128C39.8195 277.925 38.3635 279.381 36.5665 279.381C34.7695 279.381 33.3135 277.925 33.3135 276.128C33.3135 274.332 34.7695 272.875 36.5665 272.875C38.3635 272.875 39.8195 274.331 39.8195 276.128Z" fill="black"/>
</g>
<g opacity="0.3">
<path d="M35.2054 266.741C35.2054 267.786 34.3584 268.633 33.3134 268.633C32.2684 268.633 31.4214 267.786 31.4214 266.741C31.4214 265.696 32.2684 264.849 33.3134 264.849C34.3584 264.849 35.2054 265.696 35.2054 266.741Z" fill="black"/>
</g>
<path d="M23.0634 274.753C23.1524 275.099 5.99338 291.563 10.4164 295.071C14.8394 298.579 33.4464 289.58 49.3074 276.769C65.1684 263.958 79.6574 248.401 75.6924 244.283C71.7274 240.165 51.9044 252.357 51.9044 252.357L54.2734 253.867C54.2734 253.867 66.2584 246.178 70.0494 249.162C73.8404 252.147 63.0334 263.803 47.7824 274.937C32.5314 286.071 17.7944 293.886 15.5074 290.836C13.2194 287.786 24.0144 277.611 24.0144 277.611L23.0634 274.753Z" fill="#8B70CD"/>
<g opacity="0.3">
<path d="M23.0634 274.753C23.1524 275.099 5.99338 291.563 10.4164 295.071C14.8394 298.579 33.4464 289.58 49.3074 276.769C65.1684 263.958 79.6574 248.401 75.6924 244.283C71.7274 240.165 51.9044 252.357 51.9044 252.357L54.2734 253.867C54.2734 253.867 66.2584 246.178 70.0494 249.162C73.8404 252.147 63.0334 263.803 47.7824 274.937C32.5314 286.071 17.7944 293.886 15.5074 290.836C13.2194 287.786 24.0144 277.611 24.0144 277.611L23.0634 274.753Z" fill="black"/>
</g>
<g opacity="0.3">
<path d="M31.4214 255.853C31.5824 256.045 30.2304 257.193 28.7004 259.496C27.1694 261.764 25.5684 265.355 25.4804 269.52C25.4024 273.687 26.8594 277.34 28.2984 279.667C29.7354 282.029 31.0404 283.229 30.8714 283.415C30.7704 283.554 29.1674 282.629 27.3934 280.277C26.5104 279.11 25.6304 277.576 24.9714 275.738C24.3104 273.905 23.9024 271.758 23.9364 269.489C23.9934 267.222 24.4864 265.094 25.2194 263.288C25.9514 261.478 26.8914 259.981 27.8204 258.849C29.6864 256.572 31.3254 255.71 31.4214 255.853Z" fill="black"/>
</g>
<path d="M273.567 94.9609C280.127 88.6742 280.349 78.2597 274.062 71.6995C267.776 65.1392 257.361 64.9175 250.801 71.2043C244.241 77.491 244.019 87.9055 250.306 94.4657C256.592 101.026 267.007 101.248 273.567 94.9609Z" fill="#8B70CD"/>
<g opacity="0.4">
<path d="M267.547 76.7907C267.582 75.3087 268.812 74.1367 270.293 74.1717C271.775 74.2067 272.947 75.4367 272.912 76.9177C272.877 78.3987 271.647 79.5717 270.166 79.5367C268.684 79.5017 267.512 78.2717 267.547 76.7907Z" fill="black"/>
</g>
<g opacity="0.4">
<path d="M272.913 83.0547C272.933 82.1927 273.649 81.5107 274.511 81.5307C275.373 81.5507 276.055 82.2667 276.034 83.1287C276.014 83.9907 275.298 84.6727 274.437 84.6517C273.575 84.6317 272.893 83.9167 272.913 83.0547Z" fill="black"/>
</g>
<g opacity="0.4">
<path d="M270.819 87.8478C271.137 87.8558 271.388 88.1188 271.381 88.4368C271.373 88.7548 271.11 89.0058 270.792 88.9988C270.474 88.9908 270.223 88.7278 270.23 88.4098C270.237 88.0918 270.501 87.8408 270.819 87.8478Z" fill="black"/>
</g>
</svg>
