<svg width="246" height="210" viewBox="0 0 246 210" fill="none" xmlns="http://www.w3.org/2000/svg">
<path d="M246 184.26H0V184.401H246V184.26Z" fill="#EBEBEB"/>
<path d="M221.351 193.318H205.055V193.459H221.351V193.318Z" fill="#EBEBEB"/>
<path d="M162.96 194.845H158.683V194.986H162.96V194.845Z" fill="#EBEBEB"/>
<path d="M204.563 188.093H195.12V188.233H204.563V188.093Z" fill="#EBEBEB"/>
<path d="M47.0608 189.038H25.8098V189.179H47.0608V189.038Z" fill="#EBEBEB"/>
<path d="M54.5574 189.038H51.4416V189.179H54.5574V189.038Z" fill="#EBEBEB"/>
<path d="M110.772 191.414H64.6837V191.555H110.772V191.414Z" fill="#EBEBEB"/>
<path d="M116.611 159.164H21.6062C20.0579 159.164 18.7979 157.723 18.7979 155.952V3.21201C18.7979 1.44113 20.0579 0 21.6062 0H116.611C118.159 0 119.419 1.44113 119.419 3.21201V155.952C119.419 157.723 118.159 159.164 116.611 159.164ZM21.6062 0.141242C20.1253 0.141242 18.9209 1.51878 18.9209 3.21257V155.953C18.9209 157.647 20.1253 159.024 21.6062 159.024H116.611C118.091 159.024 119.296 157.647 119.296 155.953V3.21201C119.296 1.51878 118.091 0.14068 116.611 0.14068L21.6062 0.141242Z" fill="#EBEBEB"/>
<path d="M223.029 159.164H128.024C126.476 159.164 125.216 157.723 125.216 155.952V3.21201C125.216 1.44113 126.476 0 128.024 0H223.029C224.577 0 225.837 1.44113 225.837 3.21201V155.952C225.837 157.723 224.577 159.164 223.029 159.164ZM128.024 0.141242C126.544 0.141242 125.339 1.51878 125.339 3.21257V155.953C125.339 157.647 126.544 159.024 128.024 159.024H223.029C224.509 159.024 225.714 157.647 225.714 155.953V3.21201C225.714 1.51878 224.509 0.14068 223.029 0.14068L128.024 0.141242Z" fill="#EBEBEB"/>
<path d="M216.167 47.1841L200.705 36.8964H188.793L173.075 46.6968V113.372H216.167V47.1841Z" fill="#E0E0E0"/>
<path d="M172.632 47.1841L173.075 46.6968C178.825 40.3769 186.398 36.8964 194.399 36.8964C202.4 36.8964 209.974 40.3774 215.723 46.6968L216.166 47.1841V113.372H172.631V47.1841H172.632ZM213.279 48.601C208.127 43.1775 201.447 40.199 194.4 40.199C187.352 40.199 180.672 43.1775 175.52 48.601V110.068H213.28V48.601H213.279Z" fill="#FAFAFA"/>
<path d="M195.482 110.466H193.316V88.3386H174.972V85.8615H193.316V63.2295H174.972V60.7524H193.316V39.7719H195.482V60.7524H213.826V63.2295H195.482V85.8615H213.826V88.3386H195.482V110.466Z" fill="#F0F0F0"/>
<path d="M171.188 46.5099L171.611 46.026C184.176 31.6547 204.622 31.6547 217.188 46.026L217.611 46.5099V115.023H171.187V46.5099H171.188ZM214.723 47.8875C203.393 35.4345 185.404 35.435 174.075 47.8875V111.72H214.723V47.8875Z" fill="#F0F0F0"/>
<path d="M37.0997 53.0285C37.0997 53.0285 36.6791 49.857 38.7017 47.8233C40.7243 45.7897 40.5462 44.5804 39.9686 44.4222C39.391 44.2647 38.8572 46.2978 37.9686 46.8571C37.9686 46.8571 37.9406 43.9591 38.8434 42.8916C39.7467 41.8242 40.2205 39.0736 39.361 39.0252C38.5014 38.9768 38.4129 40.6588 38.2348 41.8512C38.0572 43.0436 37.0997 44.7216 37.0997 44.7216C37.0997 44.7216 36.9128 42.1286 36.3293 41.0611C35.7458 39.9936 37.3015 37.5531 36.7012 36.4856C36.101 35.4182 35.0343 37.4518 35.1234 39.7393C35.2124 42.0267 36.5457 44.4673 36.2348 46.8566C36.2348 46.8566 35.6464 45.1791 35.1185 45.0266C34.59 44.8741 34.0567 43.7644 33.7015 43.3531C33.3458 42.9417 32.9015 44.3654 33.7015 45.6872C34.5015 47.0091 36.5462 50.5452 36.2353 53.4038L37.0997 53.0285Z" fill="#E6E6E6"/>
<path d="M38.3086 51.5857L38.9708 56.339C39.1755 57.8071 38.1836 59.1363 36.8838 59.1363H36.1773C34.8774 59.1363 33.8855 57.8071 34.0902 56.339L34.7524 51.5857H38.3086Z" fill="#E6E6E6"/>
<path d="M28.2913 60.1337L75.1066 60.1337V57.3825L28.2913 57.3825V60.1337Z" fill="#E0E0E0"/>
<path d="M70.8894 57.3825H72.9519V47.2417H70.8894V57.3825Z" fill="#EBEBEB"/>
<path d="M60.9165 57.3825H62.979V47.2417H60.9165V57.3825Z" fill="#EBEBEB"/>
<path d="M48.0865 56.9811L50.119 57.3817L51.6245 47.3879L49.592 46.9874L48.0865 56.9811Z" fill="#EBEBEB"/>
<path d="M68.3336 57.3824H70.3961V48.5781H68.3336V57.3824Z" fill="#EBEBEB"/>
<path d="M63.5934 57.3824H65.6558V48.5781H63.5934V57.3824Z" fill="#EBEBEB"/>
<path d="M51.6273 57.3824H53.6898V48.5781H51.6273V57.3824Z" fill="#EBEBEB"/>
<path d="M56.5385 56.8696L58.5519 57.3813L60.2216 48.7865L58.2082 48.2749L56.5385 56.8696Z" fill="#EBEBEB"/>
<path d="M66.5503 57.3821H67.5816V46.7377H66.5503V57.3821Z" fill="#EBEBEB"/>
<path d="M54.2827 57.3821H55.3139V46.7377H54.2827V57.3821Z" fill="#EBEBEB"/>
<path d="M75.1068 77.9204H28.2915V80.6715H75.1068V77.9204Z" fill="#E0E0E0"/>
<path d="M32.5084 67.7791H30.446V77.9198H32.5084V67.7791Z" fill="#EBEBEB"/>
<path d="M42.4813 67.7791H40.4188V77.9198H42.4813V67.7791Z" fill="#EBEBEB"/>
<path d="M53.809 67.5257L51.7765 67.9265L53.2829 77.9203L55.3154 77.5195L53.809 67.5257Z" fill="#EBEBEB"/>
<path d="M35.0644 69.1155H33.0019V77.9199H35.0644V69.1155Z" fill="#EBEBEB"/>
<path d="M39.8048 69.1155H37.7423V77.9199H39.8048V69.1155Z" fill="#EBEBEB"/>
<path d="M51.7707 69.1155H49.7082V77.9199H51.7707V69.1155Z" fill="#EBEBEB"/>
<path d="M45.1919 68.8132L43.1785 69.3249L44.8482 77.9197L46.8615 77.408L45.1919 68.8132Z" fill="#EBEBEB"/>
<path d="M36.8479 67.276H35.8166V77.9204H36.8479V67.276Z" fill="#EBEBEB"/>
<path d="M49.1154 67.276H48.0841V77.9204H49.1154V67.276Z" fill="#EBEBEB"/>
<path d="M70.6148 69.8938H60.5652V77.8293H70.6148V69.8938Z" fill="#EBEBEB"/>
<path d="M121.227 41.7606C126.332 41.7606 130.471 37.0271 130.471 31.1882C130.471 25.3492 126.332 20.6158 121.227 20.6158C116.122 20.6158 111.984 25.3492 111.984 31.1882C111.984 37.0271 116.122 41.7606 121.227 41.7606Z" fill="#E0E0E0"/>
<path d="M121.227 40.1776C125.568 40.1776 129.087 36.1529 129.087 31.1882C129.087 26.2234 125.568 22.1987 121.227 22.1987C116.887 22.1987 113.368 26.2234 113.368 31.1882C113.368 36.1529 116.887 40.1776 121.227 40.1776Z" fill="#F0F0F0"/>
<path d="M120.856 25.0219V31.3058L117.216 28.9491" fill="#F0F0F0"/>
<path d="M120.856 25.0219V31.3058L117.216 28.9491" stroke="#E0E0E0" stroke-width="1.5953" stroke-miterlimit="10" stroke-linecap="round" stroke-linejoin="round"/>
<path d="M123 209.675C175.684 209.675 218.393 206.822 218.393 203.303C218.393 199.784 175.684 196.931 123 196.931C70.3157 196.931 27.6066 199.784 27.6066 203.303C27.6066 206.822 70.3157 209.675 123 209.675Z" fill="#F5F5F5"/>
<path d="M152.419 201.521V127.889H148.021V201.521L145.222 202.504V204.027H155.218V202.504L152.419 201.521Z" fill="#2E353A"/>
<path d="M96.4379 127.889H92.0394V201.521L89.2404 202.504V204.027H99.2374V202.504L96.4379 201.521V127.889Z" fill="#2E353A"/>
<g opacity="0.2">
<path d="M152.419 133.835H148.021V201.521L145.222 202.504V204.027H155.218V202.504L152.419 201.521V133.835Z" fill="white"/>
<path d="M96.4379 133.835H92.0394V201.521L89.2404 202.504V204.027H99.2374V202.504L96.4379 201.521V133.835Z" fill="white"/>
</g>
<path d="M166.014 129.719V48.3121L78.4444 48.3121L78.4444 129.719H166.014Z" fill="#2E353A"/>
<path opacity="0.2" d="M166.014 129.719V48.3121L78.4444 48.3121L78.4444 129.719H166.014Z" fill="white"/>
<path d="M164.068 50.5717H80.3909V127.415H164.068V50.5717Z" fill="#C5B4F0"/>
<path opacity="0.3" d="M164.068 50.5717H80.3909V127.415H164.068V50.5717Z" fill="white"/>
<path opacity="0.6" d="M164.068 50.5717H80.3909V127.415H164.068V50.5717Z" fill="white"/>
<g opacity="0.4">
<path d="M121.245 54.1011C122.252 64.1147 121.927 70.8618 121.245 80.9114C121.099 83.0525 121.923 88.4349 121.775 90.5761C121.587 93.3165 121.594 96.0694 121.601 98.8188C121.622 107.26 121.644 115.701 121.665 124.142" stroke="black" stroke-miterlimit="10" stroke-linecap="round" stroke-linejoin="round"/>
<path d="M85.6513 64.472C85.5136 66.306 85.3753 68.1399 85.2375 69.9738" stroke="black" stroke-miterlimit="10" stroke-linecap="round" stroke-linejoin="round"/>
<path d="M86.7381 63.5137C86.8587 63.5542 86.9423 63.6764 87.0122 63.7957C87.8737 65.261 87.8579 67.1568 87.8107 68.9215C87.8014 69.2653 87.792 69.6131 87.7074 69.9434C87.4678 70.8814 86.6914 71.4835 85.9687 72.0063" stroke="black" stroke-miterlimit="10" stroke-linecap="round" stroke-linejoin="round"/>
<path d="M90.7563 67.8321C91.4048 67.4781 92.0527 67.1247 92.7012 66.7708C92.5664 67.5136 93.4731 68.0363 94.0793 67.728C94.6854 67.4196 95.0052 66.6701 95.2763 65.9774C95.3787 66.3887 95.4805 66.8 95.5823 67.2114C96.2524 67.4275 96.9875 67.3701 97.6256 67.0516C97.6497 67.4461 98.0743 67.652 98.4158 67.5924C98.7572 67.5327 99.0593 67.3065 99.3944 67.2091C100.061 67.0156 100.745 67.3493 101.413 67.5383C102.08 67.7274 102.918 67.6987 103.293 67.0386C103.582 67.9289 104.611 68.0729 105.442 68.069C108.513 68.0544 111.584 68.0403 114.655 68.0257" stroke="black" stroke-miterlimit="10" stroke-linecap="round" stroke-linejoin="round"/>
<path d="M90.3706 78.5896C90.7524 79.0263 91.6065 78.4067 91.8741 78.943C91.9765 79.1484 91.9228 79.4472 92.0827 79.5969C92.2589 79.7617 92.5245 79.5901 92.6662 79.3864C92.8084 79.1827 92.9354 78.9233 93.1587 78.8721C93.4579 78.8034 93.6955 79.1467 93.9784 79.2778C94.4576 79.5001 94.9604 79.0899 95.4416 78.8738C96.7262 78.2964 98.1427 79.1231 99.5218 79.185C100.329 79.221 101.126 78.9914 101.908 78.7635" stroke="black" stroke-miterlimit="10" stroke-linecap="round" stroke-linejoin="round"/>
<path d="M105.847 77.3887C106.045 76.8997 106.31 76.4141 106.724 76.1564C107.432 75.7158 108.409 76.1598 108.759 76.9903C109.108 77.8215 108.868 78.8828 108.286 79.5209C107.858 79.9908 107.198 80.4893 107.389 81.1325" stroke="black" stroke-miterlimit="10" stroke-linecap="round" stroke-linejoin="round"/>
<path d="M107.531 83.0379C107.39 83.2399 107.291 83.4808 107.247 83.734C107.422 83.837 107.649 83.8111 107.804 83.6715" stroke="black" stroke-miterlimit="10" stroke-linecap="round" stroke-linejoin="round"/>
<path d="M85.115 94.5427C85.3861 94.393 85.7035 94.3576 85.9947 94.4442C86.1005 95.2518 86.1891 96.1487 85.7812 96.8189C85.4658 97.3366 84.8833 97.6557 84.7451 98.2668C85.2085 98.3287 85.6769 98.3428 86.1423 98.3085" stroke="black" stroke-miterlimit="10" stroke-linecap="round" stroke-linejoin="round"/>
<path d="M87.2912 93.8568C88.0956 94.4302 88.5147 95.5719 88.4528 96.6535C88.3908 97.735 87.8988 98.744 87.2287 99.511" stroke="black" stroke-miterlimit="10" stroke-linecap="round" stroke-linejoin="round"/>
<path d="M90.8139 97.6483C91.0471 97.3417 91.2808 97.0355 91.514 96.7289C91.9199 97.5082 93.1135 97.4469 93.4559 96.6287C93.4515 97.291 94.2062 97.663 94.7553 97.4514C95.3044 97.2398 95.6802 96.6782 96.0551 96.1735C96.4301 95.6687 96.896 95.1606 97.4746 95.1307C97.5085 95.8415 97.5425 96.5522 97.5764 97.2629C97.8131 96.7604 98.1329 96.3102 98.5142 95.9422C98.6893 96.3276 98.8084 96.7463 98.866 97.1757C99.1985 96.6523 99.5311 96.129 99.8637 95.6051C100.131 96.062 100.309 96.5882 100.379 97.1323C100.787 96.9871 101.168 96.7469 101.493 96.4306C101.638 96.685 101.78 96.9416 101.918 97.2004C101.682 96.7615 102.237 96.2089 102.663 96.3783C103.088 96.5477 103.294 97.1031 103.352 97.614C105.02 97.6185 106.683 96.9207 107.953 95.6833C107.986 96.3738 108.019 97.0648 108.052 97.7553C110.479 97.8318 112.912 97.6528 115.311 97.2224" stroke="black" stroke-miterlimit="10" stroke-linecap="round" stroke-linejoin="round"/>
<path d="M90.7996 106.005C90.932 106.301 91.0638 106.598 91.1962 106.894C91.8825 106.6 92.5201 106.158 93.0658 105.599C93.2198 105.967 93.3993 106.321 93.6025 106.656C93.6616 106.461 93.8889 106.412 94.0665 106.453C94.2441 106.495 94.4168 106.594 94.5964 106.57C94.7528 106.55 94.8877 106.44 95.021 106.343C95.4475 106.034 95.9356 105.836 96.437 105.768C96.5934 105.746 96.7656 105.742 96.8935 105.847C96.9978 105.933 97.0529 106.075 97.1243 106.197C97.478 106.804 98.3592 106.866 98.7749 106.313" stroke="black" stroke-miterlimit="10" stroke-linecap="round" stroke-linejoin="round"/>
<path d="M102.286 104.904C102.011 104.387 102.396 103.718 102.851 103.409C103.387 103.047 104.081 102.935 104.638 103.254C105.195 103.573 105.539 104.38 105.31 105.042C105.075 105.718 104.383 106.032 104.034 106.64C103.791 107.064 103.738 107.623 103.896 108.096" stroke="black" stroke-miterlimit="10" stroke-linecap="round" stroke-linejoin="round"/>
<path d="M104.257 109.797C104.075 109.917 103.891 110.058 103.797 110.272C103.703 110.486 103.736 110.791 103.919 110.908C104.103 111.024 104.385 110.798 104.303 110.577" stroke="black" stroke-miterlimit="10" stroke-linecap="round" stroke-linejoin="round"/>
<path d="M126.278 65.7601C126.54 65.521 126.981 65.6875 127.115 66.0398C127.248 66.3921 127.097 66.8321 126.817 67.0442C126.658 67.1647 126.469 67.2215 126.307 67.3374C126.146 67.4533 126.009 67.6644 126.055 67.8754C126.13 68.217 126.581 68.2547 126.722 68.5681C126.891 68.9434 126.507 69.3216 126.179 69.5174C125.92 69.6727 125.661 69.8275 125.401 69.9828C125.27 70.0616 125.123 70.2562 125.237 70.3654" stroke="black" stroke-miterlimit="10" stroke-linecap="round" stroke-linejoin="round"/>
<path d="M127.662 64.2931C128.328 65.553 129.021 66.9435 128.85 68.4032C128.7 69.689 127.91 70.7391 127.154 71.7064C126.932 71.9922 126.666 72.3006 126.331 72.3012" stroke="black" stroke-miterlimit="10" stroke-linecap="round" stroke-linejoin="round"/>
<path d="M132.449 68.2592C132.422 67.8298 132.762 67.3976 133.137 67.4438C133.511 67.4899 133.756 68.074 133.516 68.406C133.67 68.1826 133.824 67.9587 133.977 67.7353C134.169 68.1281 134.362 68.5214 134.554 68.9142C134.749 68.4437 135.181 67.8861 135.559 68.1764C135.745 68.3194 135.821 68.6345 136.038 68.6992C136.244 68.7606 136.43 68.5546 136.567 68.3689C137.329 67.3369 138.091 66.3054 138.852 65.2734C138.779 66.4821 138.924 67.7077 139.273 68.8517C140.184 68.4218 141.018 67.7831 141.713 66.9852C142.039 67.1647 141.778 67.8467 142.063 68.1027C142.431 68.4325 142.884 67.535 143.331 67.692C143.496 67.7499 143.597 67.9384 143.739 68.0498C143.942 68.208 144.206 68.1978 144.45 68.1821C145.288 68.1275 146.126 68.0724 146.964 68.0172" stroke="black" stroke-miterlimit="10" stroke-linecap="round" stroke-linejoin="round"/>
<path d="M149.312 68.0104C149.714 67.9384 150.116 67.8669 150.518 67.7955C150.606 67.7797 150.709 67.769 150.772 67.8416C150.831 67.9092 150.826 68.0166 150.849 68.1084C150.922 68.3998 151.256 68.4798 151.517 68.4297C151.779 68.379 152.045 68.2535 152.3 68.3368" stroke="black" stroke-miterlimit="10" stroke-linecap="round" stroke-linejoin="round"/>
<path d="M155.845 66.4663C155.717 66.1315 155.886 65.7421 156.109 65.4804C156.536 64.9791 157.209 64.7343 157.788 64.9616C158.367 65.1889 158.78 65.9312 158.635 66.6109C158.479 67.3391 157.819 67.7555 157.452 68.3762C157.154 68.8798 157.06 69.5348 157.2 70.1212" stroke="black" stroke-miterlimit="10" stroke-linecap="round" stroke-linejoin="round"/>
<path d="M157.138 71.8409C157.102 71.9979 157.011 72.1307 156.966 72.2843C156.921 72.4379 156.946 72.6439 157.075 72.7086C157.205 72.7733 157.36 72.528 157.237 72.4481" stroke="black" stroke-miterlimit="10" stroke-linecap="round" stroke-linejoin="round"/>
<path d="M126.87 83.5381C126.425 84.6928 125.778 85.7446 124.977 86.6117C125.89 86.6207 126.804 86.4345 127.659 86.0659" stroke="black" stroke-miterlimit="10" stroke-linecap="round" stroke-linejoin="round"/>
<path d="M127.211 84.5139C127.211 85.5898 127.211 86.6658 127.211 87.7417" stroke="black" stroke-miterlimit="10" stroke-linecap="round" stroke-linejoin="round"/>
<path d="M127.897 82.6024C127.944 83.254 128.259 83.8341 128.474 84.4396C129.038 86.0231 128.907 87.9082 128.132 89.3702C128.034 89.5553 127.888 89.7562 127.699 89.7348" stroke="black" stroke-miterlimit="10" stroke-linecap="round" stroke-linejoin="round"/>
<path d="M130.96 86.426C132.063 85.8819 133.07 85.0817 133.901 84.0885C133.724 84.8324 134.755 85.4559 135.193 84.8707C135.313 85.2432 135.433 85.6157 135.553 85.9882C136.235 85.7435 136.899 85.4306 137.534 85.0547C137.584 85.3231 137.636 85.5915 137.686 85.8605C138.305 85.2117 138.924 84.5629 139.542 83.9141C139.798 84.2877 139.968 84.7373 140.031 85.2066C140.348 85.2989 140.704 85.1875 140.936 84.9236C141.014 85.134 141.233 85.2168 141.428 85.2646C142.496 85.5251 143.629 85.4283 144.651 84.9894C145.013 84.8347 145.395 84.6338 145.769 84.7446C146 84.8133 146.194 84.9939 146.422 85.0749C146.928 85.2556 147.457 84.914 147.987 84.8842C148.516 84.8544 149.123 85.5673 148.739 85.9854C149.175 86.2842 149.753 85.4041 150.17 85.7367C150.306 85.8447 150.372 86.0614 150.531 86.1143C150.693 86.1683 150.847 86.0243 150.982 85.9095C152.454 84.6568 154.752 86.2297 156.325 85.1487" stroke="black" stroke-miterlimit="10" stroke-linecap="round" stroke-linejoin="round"/>
<path d="M131.702 94.2991C131.782 94.4285 131.861 94.5573 131.941 94.6868C132.484 94.294 132.96 93.7802 133.333 93.1826C133.495 93.294 133.618 93.4752 133.673 93.6818C134.055 93.5276 134.436 93.3728 134.818 93.2186C134.86 93.5214 135.042 93.9215 135.287 93.7982C135.404 93.7397 135.461 93.5748 135.579 93.5219C135.736 93.4516 135.9 93.612 135.985 93.7791C136.07 93.9457 136.134 94.146 136.284 94.2349C136.436 94.3255 136.622 94.2664 136.779 94.1893C137.482 93.8472 138.134 93.1629 138.888 93.2991" stroke="black" stroke-miterlimit="10" stroke-linecap="round" stroke-linejoin="round"/>
<path d="M142.692 91.7528C142.617 91.5434 142.723 91.2925 142.89 91.1709C143.057 91.0494 143.266 91.0325 143.463 91.0482C144.047 91.0955 144.677 91.5119 144.744 92.1765C144.797 92.6897 144.498 93.1691 144.147 93.4938C143.795 93.8185 143.379 94.0475 143.048 94.3992C142.717 94.7509 142.475 95.29 142.618 95.7801" stroke="black" stroke-miterlimit="10" stroke-linecap="round" stroke-linejoin="round"/>
<path d="M142.969 98.7867C142.872 98.7496 142.775 98.7124 142.678 98.6747" stroke="black" stroke-miterlimit="10" stroke-linecap="round" stroke-linejoin="round"/>
<path d="M126.53 106.776C126.035 106.773 125.539 106.771 125.044 106.768C124.952 107.636 124.936 108.514 124.995 109.385C125.222 109.173 125.463 108.955 125.752 108.897C126.041 108.838 126.387 109.004 126.453 109.331C126.518 109.655 126.296 109.957 126.075 110.172C125.764 110.474 125.374 110.745 124.971 110.668" stroke="black" stroke-miterlimit="10" stroke-linecap="round" stroke-linejoin="round"/>
<path d="M127.223 105.979C127.773 106.665 127.931 107.644 127.993 108.571C128.047 109.39 128.043 110.227 127.83 111.012C127.618 111.796 127.173 112.526 126.529 112.887" stroke="black" stroke-miterlimit="10" stroke-linecap="round" stroke-linejoin="round"/>
<path d="M130.759 108.558C131.451 108.2 132.143 107.842 132.834 107.484C132.643 107.904 132.858 108.49 133.252 108.638C133.645 108.785 134.117 108.469 134.206 108.007C134.414 108.335 134.519 108.746 134.498 109.151C135.28 108.787 136.013 108.287 136.665 107.675C136.814 108.244 136.962 108.813 137.111 109.383C137.85 109.361 138.581 109.038 139.142 108.486C139.272 108.704 139.402 108.921 139.533 109.139C140.029 108.999 140.524 108.859 141.02 108.72C141.601 108.556 142.474 108.632 142.476 109.316C143.5 108.441 144.934 108.767 146.171 109.133C146.447 109.214 146.79 109.405 146.745 109.727C147.295 109.388 147.773 108.908 148.332 108.588C149.357 108.002 150.631 108.02 151.642 108.638" stroke="black" stroke-miterlimit="10" stroke-linecap="round" stroke-linejoin="round"/>
<path d="M156.018 107.666C156.022 107.299 156.026 106.932 156.029 106.565C156.719 106.421 157.47 106.874 157.756 107.606C157.81 107.743 157.849 107.889 157.857 108.039C157.883 108.539 157.569 108.98 157.218 109.279C156.866 109.577 156.459 109.794 156.153 110.151C155.847 110.509 155.664 111.082 155.886 111.513" stroke="black" stroke-miterlimit="10" stroke-linecap="round" stroke-linejoin="round"/>
<path d="M156.018 114.011C155.92 113.825 155.823 113.64 155.726 113.454" stroke="black" stroke-miterlimit="10" stroke-linecap="round" stroke-linejoin="round"/>
</g>
<path opacity="0.2" d="M158.36 88.2442C157.637 89.2813 157.036 90.4337 156.233 91.4596C156.067 91.6717 155.963 91.8974 155.904 92.1247C155.32 92.2187 154.68 92.132 154.029 91.7983C151.77 90.6397 149.712 88.6803 147.923 86.7468C147.543 86.336 147.149 85.9455 146.756 85.5521C148.523 87.8058 150.285 90.0623 152.072 92.2952C152.665 93.0357 152.894 93.8607 152.871 94.6519C152.011 95.6867 151.165 96.766 150.152 97.5932C149.969 97.7418 149.819 97.9241 149.699 98.125C149.08 98.0794 148.452 97.7609 147.897 97.0704C144.075 92.3188 140.29 87.6533 136.065 83.3907C136.404 83.9343 136.747 84.4723 137.075 85.0282C139.29 88.7917 141.665 92.4089 144.143 95.9506C145.889 98.448 148.904 101.518 149.463 104.829C149.347 104.991 149.231 105.153 149.113 105.313C148.958 105.522 148.796 105.726 148.63 105.924C148.477 105.959 148.327 106.017 148.19 106.12C147.449 106.677 146.977 107.808 147.57 108.737C147.699 108.942 147.859 109.113 148.034 109.249C148.933 110.544 149.814 111.856 150.657 113.204C150.703 113.276 150.741 113.35 150.78 113.423C150.174 115.401 148.738 116.837 147.337 118.192C146.864 118.063 146.411 117.78 146.021 117.295C144.335 115.203 142.405 113.364 140.845 111.147C139.173 108.771 137.79 106.148 136.2 103.702C136.175 103.663 136.147 103.625 136.121 103.586C134.201 101.138 132.272 98.6984 130.406 96.2022C128.779 94.3199 127.118 92.4803 125.531 90.6408C122.999 87.7045 120.425 84.7553 117.758 81.9411C118.419 83.0627 119.084 84.1808 119.764 85.2882C122.771 90.1844 126.107 94.8044 129.324 99.5155C130.909 101.837 132.36 104.268 133.898 106.628C135.109 108.485 136.925 110.182 137.879 112.223C138.09 112.673 138.208 113.116 138.253 113.542C138.146 113.648 138.045 113.764 137.957 113.896C137.229 114.994 136.102 115.818 135.047 116.439C134.764 116.606 134.578 116.829 134.461 117.076C134.042 116.939 133.628 116.693 133.242 116.315C131.745 114.848 130.321 113.236 128.98 111.537C129.406 112.378 129.778 113.246 130.013 114.169C130.769 117.121 127.89 119.294 125.676 117.982C125.612 117.943 125.55 117.9 125.485 117.861C125.046 119.518 123.335 120.727 121.791 120.305C120.935 121.606 119.437 122.29 118.098 121.119C112.564 116.282 107.287 110.926 102.062 105.652C101.588 105.172 101.117 104.687 100.646 104.203C101.549 105.812 102.495 107.363 103.568 108.916C104.768 110.653 106.44 112.47 107.075 114.632C107.014 114.682 106.952 114.729 106.893 114.792C105.542 116.241 104.406 117.861 103.527 119.729C103.519 119.745 103.516 119.761 103.509 119.777C101.178 119.181 98.739 117.457 96.7656 116.157C94.1895 114.461 91.8579 112.42 89.6006 110.239C89.6026 109.983 89.5681 109.72 89.4717 109.419C89.424 109.27 89.3512 109.128 89.2842 108.986C89.2897 108.827 89.2961 108.67 89.298 108.509C89.4963 108.043 89.6488 107.606 89.759 107.155C90.1172 106.948 90.4355 106.657 90.6446 106.266C90.8606 105.864 90.9477 105.322 90.9403 104.857C90.9251 104.725 90.9093 104.593 90.8931 104.46C91.1253 104.239 91.267 103.971 91.3374 103.689C91.8299 103.792 92.3223 104.041 92.7809 104.496C93.3983 105.108 94.0242 105.7 94.6559 106.28C93.8515 104.74 93.0781 103.171 92.2972 101.668C90.9256 99.0281 89.4806 96.4644 87.9111 93.9699C86.7135 92.0667 85.1077 90.4129 84.9133 88.3072C86.0277 87.2307 86.8021 85.8678 87.7674 84.6146C87.8191 84.5477 87.8624 84.4751 87.9052 84.4025C88.8203 84.4222 89.7713 84.8949 90.7086 85.5836C90.4527 85.2359 90.2028 84.8831 89.9686 84.5167C87.853 81.204 84.8676 78.5322 82.9512 75.0838C82.7042 74.6399 82.5586 74.2077 82.4927 73.7941C82.7146 73.4756 82.9345 73.1548 83.1569 72.8352C83.5283 72.3012 83.6848 71.6271 83.4782 71.0289C83.4944 71.0143 83.5092 70.9985 83.5259 70.9844C83.4481 70.877 83.3684 70.7717 83.2912 70.6642C83.2877 70.6592 83.2838 70.6541 83.2804 70.6491C82.9547 70.1921 82.7357 69.6502 82.6132 69.0875C83.5534 67.5119 84.5778 66.0235 85.8629 64.9048C87.6026 65.0517 89.143 66.3426 90.6682 67.3515C91.7118 68.042 92.7548 68.7454 93.7836 69.4741C93.2729 68.7094 92.8099 67.9109 92.4798 67.0206C92.3489 66.6672 92.2697 66.3099 92.2298 65.9554C92.315 65.8997 92.3971 65.8367 92.4763 65.7669C93.7118 64.6752 94.9983 63.5233 96.0384 62.157C96.1968 62.2234 96.3567 62.3017 96.5191 62.4013C97.5154 63.0107 98.491 63.7248 99.4475 64.503C99.295 63.9876 99.2153 63.4727 99.2177 62.9634C99.6684 63.0478 100.148 62.8779 100.52 62.5132C101.359 61.69 102.039 60.6309 102.871 59.7925C103.134 59.8701 103.389 59.9911 103.625 60.1734C105.823 61.8762 107.684 64.117 109.786 65.9768C110.313 66.4433 110.844 66.9041 111.377 67.3633C111.231 66.8828 111.188 66.3774 111.225 65.8817C111.421 65.8215 111.616 65.7123 111.8 65.5429C112.808 64.615 113.795 63.6578 114.791 62.7124C115.027 62.812 115.267 62.9561 115.509 63.1502C116.49 63.9397 117.419 64.862 118.321 65.84C118.343 65.6386 118.384 65.4416 118.435 65.2498C118.841 65.4293 119.302 65.4349 119.647 65.1305C120.446 64.4248 121.265 63.7642 121.974 62.9634C123.137 63.3191 123.945 64.2881 124.884 65.0984C125.047 65.2379 125.208 65.3786 125.37 65.5187C125.427 65.3831 125.501 65.2582 125.576 65.1344C125.875 65.1715 126.176 65.1074 126.415 64.9065C126.82 64.5649 127.191 64.2008 127.553 63.8036C127.604 63.7484 127.655 63.6944 127.707 63.6404C128.116 63.5599 128.529 63.5582 128.907 63.6741C131.061 64.3353 132.989 66.0342 134.838 67.526C134.474 67.042 134.11 66.5592 133.758 66.0634C132.408 64.1654 130.428 62.1081 129.742 59.7086C129.827 59.6119 129.908 59.5044 129.979 59.3721C130.239 58.8888 130.525 58.4014 130.832 57.9243C131.842 57.2192 132.813 56.3678 133.548 55.3616C133.694 55.4083 133.84 55.4663 133.983 55.5355C136.154 56.5889 137.774 58.5995 139.4 60.492C140.559 61.8402 141.677 63.2307 142.763 64.6533C142.825 64.4664 142.912 64.2914 143.009 64.1221C143.525 64.3387 144.112 64.1699 144.563 63.7484C145.034 63.3089 145.535 62.9021 146.035 62.4907C146.863 62.5538 147.688 62.9764 148.305 63.8942C150.728 67.4956 157.523 77.3235 155.258 82.8741C156.382 84.2067 157.432 85.6151 158.07 87.1767C158.217 87.5402 158.308 87.897 158.36 88.2442Z" fill="white"/>
<path opacity="0.2" d="M87.7802 85.3878C88.4577 84.4149 89.022 83.3344 89.7748 82.3728C89.9303 82.1741 90.0277 81.9625 90.0828 81.7487C90.6304 81.6603 91.2306 81.7419 91.8407 82.0548C93.9588 83.1414 95.8894 84.9781 97.5661 86.7912C97.9223 87.1767 98.2923 87.543 98.6603 87.911C97.0042 85.798 95.3516 83.6816 93.6754 81.5883C93.1194 80.8939 92.9044 80.1207 92.927 79.3785C93.7329 78.4078 94.5265 77.3961 95.4766 76.6206C95.6473 76.4816 95.7885 76.3106 95.9002 76.1221C96.4803 76.1648 97.0697 76.4631 97.5902 77.1107C101.174 81.5658 104.723 85.941 108.685 89.9374C108.367 89.4276 108.045 88.9234 107.738 88.4017C105.661 84.8729 103.434 81.4814 101.111 78.1602C99.4731 75.8187 96.6461 72.9404 96.1226 69.8353C96.2318 69.684 96.3405 69.532 96.4507 69.3818C96.5959 69.1848 96.7479 68.9946 96.9034 68.8084C97.0475 68.7763 97.1882 68.7212 97.3157 68.6255C98.0109 68.1027 98.4542 67.0426 97.8982 66.1709C97.7762 65.9796 97.6266 65.8186 97.4623 65.6909C96.6195 64.4766 95.7934 63.2465 95.0033 61.9826C94.9605 61.9145 94.9245 61.8453 94.8881 61.7766C95.4564 59.9219 96.803 58.5759 98.1166 57.3052C98.5594 57.4251 98.9845 57.6913 99.3511 58.146C100.931 60.1076 102.741 61.8318 104.205 63.911C105.772 66.1383 107.07 68.5979 108.559 70.8916C108.583 70.9287 108.61 70.9642 108.634 71.0007C110.434 73.2955 112.243 75.583 113.993 77.9239C115.518 79.6891 117.075 81.4139 118.563 83.1386C120.938 85.892 123.351 88.6572 125.852 91.2958C125.232 90.2446 124.608 89.1957 123.971 88.1575C121.152 83.5668 118.023 79.235 115.007 74.8171C113.52 72.6405 112.16 70.3609 110.717 68.1477C109.583 66.4067 107.879 64.8159 106.985 62.9015C106.788 62.4795 106.676 62.0642 106.635 61.6646C106.735 61.5656 106.829 61.457 106.912 61.3326C107.595 60.3034 108.651 59.5302 109.641 58.9478C109.906 58.792 110.081 58.5826 110.19 58.3508C110.583 58.4791 110.971 58.7104 111.333 59.0643C112.737 60.439 114.072 61.9511 115.33 63.5447C114.93 62.7558 114.582 61.9415 114.36 61.0766C113.652 58.3086 116.352 56.271 118.426 57.5011C118.487 57.5371 118.545 57.5776 118.605 57.6147C119.018 56.0605 120.621 54.9272 122.07 55.3234C122.872 54.1028 124.276 53.4613 125.532 54.5592C130.721 59.0947 135.67 64.117 140.568 69.0622C141.013 69.5118 141.454 69.9665 141.896 70.4206C141.05 68.9114 140.162 67.4578 139.156 66.001C138.031 64.3725 136.463 62.6685 135.868 60.6411C135.925 60.5949 135.983 60.551 136.038 60.4914C137.305 59.1324 138.37 57.6136 139.195 55.8619C139.203 55.8467 139.205 55.8315 139.212 55.8163C141.398 56.3751 143.685 57.9918 145.535 59.2106C147.951 60.8014 150.137 62.7147 152.253 64.7596C152.252 65.0005 152.284 65.2464 152.374 65.5283C152.419 65.669 152.487 65.8012 152.55 65.9346C152.545 66.0831 152.539 66.2311 152.537 66.3814C152.351 66.8186 152.209 67.2288 152.105 67.6514C151.769 67.845 151.471 68.1185 151.275 68.4843C151.072 68.8618 150.991 69.37 150.997 69.8055C151.012 69.9299 151.027 70.0537 151.042 70.178C150.824 70.3857 150.691 70.6361 150.625 70.9006C150.164 70.8043 149.702 70.5708 149.272 70.1443C148.693 69.5703 148.106 69.0149 147.513 68.4707C148.268 69.9153 148.993 71.3862 149.725 72.7953C151.012 75.2712 152.366 77.6752 153.838 80.0138C154.96 81.7982 156.466 83.3491 156.648 85.3236C155.603 86.3332 154.877 87.6111 153.972 88.7861C153.924 88.8491 153.883 88.9166 153.843 88.9853C152.985 88.9667 152.093 88.5233 151.215 87.8778C151.455 88.2037 151.689 88.5345 151.908 88.8784C153.892 91.9846 156.691 94.4898 158.488 97.7232C158.719 98.1396 158.856 98.5448 158.918 98.9325C158.71 99.2313 158.504 99.5318 158.295 99.8317C157.947 100.332 157.8 100.964 157.994 101.525C157.979 101.539 157.965 101.554 157.949 101.567C158.022 101.668 158.097 101.766 158.169 101.867C158.172 101.872 158.176 101.877 158.179 101.881C158.484 102.309 158.69 102.817 158.805 103.345C157.923 104.823 156.963 106.218 155.758 107.267C154.127 107.13 152.682 105.919 151.252 104.973C150.274 104.326 149.296 103.666 148.331 102.983C148.81 103.7 149.244 104.449 149.554 105.284C149.677 105.615 149.751 105.951 149.788 106.283C149.709 106.335 149.632 106.394 149.558 106.459C148.399 107.483 147.193 108.563 146.218 109.845C146.069 109.782 145.919 109.709 145.767 109.616C144.833 109.044 143.918 108.375 143.021 107.645C143.164 108.128 143.239 108.611 143.236 109.088C142.814 109.01 142.364 109.169 142.016 109.51C141.229 110.283 140.591 111.275 139.811 112.061C139.564 111.989 139.325 111.875 139.104 111.704C137.043 110.108 135.298 108.006 133.327 106.262C132.833 105.825 132.335 105.393 131.835 104.963C131.972 105.413 132.012 105.887 131.977 106.352C131.793 106.408 131.611 106.511 131.438 106.669C130.493 107.539 129.567 108.437 128.634 109.324C128.412 109.23 128.187 109.095 127.96 108.913C127.04 108.172 126.169 107.308 125.324 106.391C125.302 106.58 125.264 106.764 125.216 106.944C124.836 106.776 124.404 106.771 124.08 107.056C123.33 107.718 122.563 108.338 121.898 109.088C120.807 108.755 120.05 107.846 119.168 107.086C119.016 106.955 118.865 106.823 118.713 106.692C118.66 106.82 118.59 106.937 118.52 107.053C118.239 107.019 117.957 107.078 117.733 107.267C117.353 107.588 117.006 107.929 116.666 108.301C116.618 108.353 116.57 108.404 116.522 108.454C116.138 108.53 115.751 108.531 115.397 108.423C113.378 107.803 111.57 106.21 109.837 104.811C110.177 105.265 110.519 105.718 110.849 106.183C112.115 107.962 113.971 109.891 114.615 112.141C114.535 112.232 114.459 112.333 114.393 112.457C114.149 112.91 113.881 113.367 113.593 113.814C112.645 114.475 111.735 115.274 111.046 116.217C110.909 116.173 110.773 116.119 110.638 116.054C108.603 115.066 107.083 113.181 105.559 111.406C104.472 110.142 103.424 108.839 102.406 107.504C102.348 107.679 102.266 107.844 102.175 108.002C101.691 107.799 101.141 107.957 100.718 108.353C100.277 108.765 99.8067 109.146 99.3378 109.532C98.5609 109.473 97.7885 109.077 97.2094 108.216C94.9378 104.839 88.5659 95.6242 90.6899 90.4196C89.6355 89.1704 88.6515 87.8497 88.0528 86.3855C87.9145 86.0479 87.8289 85.7142 87.7802 85.3878Z" fill="white"/>
<path d="M147.48 192.773C147.88 192.004 147.316 190.846 146.533 190.833C146.876 189.73 146.537 188.395 145.731 187.673C145.63 187.582 145.513 187.496 145.384 187.496C145.245 187.496 145.122 187.592 145.01 187.685C144.272 188.291 143.535 188.897 142.797 189.503C142.628 189.641 142.454 189.788 142.358 189.999C141.906 191.001 143.537 192.285 142.866 193.113C142.674 193.35 142.364 193.399 142.124 193.571C141.597 193.947 141.534 194.774 141.288 195.427C141.043 196.079 140.187 196.585 139.859 195.982C140.101 195.356 139.37 194.817 138.775 194.737C138.189 194.659 137.561 194.621 137.233 193.983C136.39 194.825 134.502 192.474 134.545 191.526C133.853 191.587 133.381 192.329 133.229 193.071C133.071 193.841 133.169 194.644 133.158 195.433C133.137 196.968 132.704 198.471 132.727 200.007C132.746 201.201 133.149 202.527 134.105 203.008C134.566 203.239 135.085 203.239 135.588 203.235C139.217 203.209 142.846 203.183 146.475 203.156C146.737 203.153 147.009 203.149 147.241 203.01C147.732 202.717 147.836 201.979 147.881 201.348C148.076 198.643 148.271 195.938 148.466 193.232C148.137 193.079 147.808 192.926 147.48 192.773Z" fill="#C5B4F0"/>
<path opacity="0.3" d="M147.48 192.773C147.88 192.004 147.316 190.846 146.533 190.833C146.876 189.73 146.537 188.395 145.731 187.673C145.63 187.582 145.513 187.496 145.384 187.496C145.245 187.496 145.122 187.592 145.01 187.685C144.272 188.291 143.535 188.897 142.797 189.503C142.628 189.641 142.454 189.788 142.358 189.999C141.906 191.001 143.537 192.285 142.866 193.113C142.674 193.35 142.364 193.399 142.124 193.571C141.597 193.947 141.534 194.774 141.288 195.427C141.043 196.079 140.187 196.585 139.859 195.982C140.101 195.356 139.37 194.817 138.775 194.737C138.189 194.659 137.561 194.621 137.233 193.983C136.39 194.825 134.502 192.474 134.545 191.526C133.853 191.587 133.381 192.329 133.229 193.071C133.071 193.841 133.169 194.644 133.158 195.433C133.137 196.968 132.704 198.471 132.727 200.007C132.746 201.201 133.149 202.527 134.105 203.008C134.566 203.239 135.085 203.239 135.588 203.235C139.217 203.209 142.846 203.183 146.475 203.156C146.737 203.153 147.009 203.149 147.241 203.01C147.732 202.717 147.836 201.979 147.881 201.348C148.076 198.643 148.271 195.938 148.466 193.232C148.137 193.079 147.808 192.926 147.48 192.773Z" fill="white"/>
<path d="M148.115 179.611H146.892H143.527H142.3H138.939H137.712H134.35H133.124H131.223L131.362 181.563L131.461 182.957L131.719 186.584L131.866 188.668L132.06 191.441L132.143 192.631L132.171 192.985L132.27 194.383L132.405 196.299L132.489 197.488L132.576 198.696L132.675 200.094L132.75 201.152L132.834 202.342L132.869 202.86H135.092H136.969H139.68H141.558H144.269H146.146H148.372L148.408 202.342L148.491 201.157L148.567 200.09L148.666 198.691L148.754 197.488L148.837 196.299L148.972 194.379L149.071 192.985L149.095 192.631L149.178 191.441L149.377 188.668L149.524 186.589L149.778 182.957L149.877 181.563L150.016 179.611H148.115ZM149.132 180.892L148.806 180.519H149.159L149.132 180.892ZM149.048 182.077L149.016 182.549L147.504 184.279L145.77 182.295L147.321 180.52H147.687L149.048 182.077ZM148.612 188.259L147.504 189.526L145.77 187.542L147.504 185.563L148.703 186.934L148.612 188.259ZM132.537 186.933L133.735 185.563L135.47 187.542L133.735 189.525L132.632 188.259L132.537 186.933ZM146.945 184.918L145.21 186.902L143.476 184.918L145.21 182.934L146.945 184.918ZM144.217 180.519H146.202L145.21 181.654L144.217 180.519ZM144.646 187.542L142.916 189.525L141.182 187.542L142.916 185.563L144.646 187.542ZM138.887 190.166L140.621 188.187L142.352 190.166L140.621 192.15L138.887 190.166ZM140.058 192.79L138.324 194.773L136.593 192.794L138.328 190.811L140.058 192.79ZM142.916 190.811L144.646 192.794L142.916 194.773L141.181 192.79L142.916 190.811ZM140.622 186.902L138.888 184.918L140.622 182.934L142.352 184.918L140.622 186.902ZM140.058 187.542L138.328 189.525L136.593 187.542L138.328 185.563L140.058 187.542ZM136.03 186.902L134.299 184.918L136.03 182.934L137.764 184.918L136.03 186.902ZM136.03 188.187L137.764 190.166L136.03 192.15L134.299 190.166L136.03 188.187ZM137.764 195.418L136.03 197.397L134.299 195.418L136.03 193.435L137.764 195.418ZM138.324 196.058L140.058 198.042L138.328 200.025L136.593 198.042L138.324 196.058ZM138.887 195.418L140.621 193.435L142.352 195.418L140.621 197.397L138.887 195.418ZM142.916 196.058L144.646 198.042L142.916 200.025L141.181 198.042L142.916 196.058ZM145.21 198.682L146.944 200.666L145.821 201.95H144.599L143.476 200.666L145.21 198.682ZM143.476 195.418L145.21 193.435L146.944 195.418L145.21 197.397L143.476 195.418ZM143.476 190.166L145.21 188.187L146.944 190.166L145.21 192.15L143.476 190.166ZM144.646 182.294L142.916 184.278L141.182 182.294L142.734 180.52H143.099L144.646 182.294ZM140.622 181.654L139.63 180.519H141.61L140.622 181.654ZM140.058 182.294L138.328 184.278L136.593 182.294L138.145 180.52H138.51L140.058 182.294ZM137.022 180.519L136.03 181.654L135.041 180.519H137.022ZM133.918 180.519L135.47 182.294L133.735 184.277L132.227 182.548L132.195 182.075L133.553 180.518H133.918V180.519ZM132.434 180.519L132.112 180.887L132.084 180.519H132.434ZM132.326 183.947L133.176 184.918L132.454 185.744L132.326 183.947ZM132.799 190.597L132.731 189.658L133.176 190.166L132.799 190.597ZM132.882 191.791L133.735 190.811L135.47 192.794L133.735 194.773L133.037 193.974L132.882 191.791ZM133.14 195.459L133.136 195.373L133.176 195.418L133.14 195.459ZM133.442 199.685L133.223 196.644L133.735 196.058L135.47 198.042L133.735 200.021L133.442 199.685ZM133.601 201.951L133.569 201.497L133.735 201.306L134.299 201.951H133.601ZM134.299 200.666L136.03 198.682L137.764 200.666L136.641 201.95H135.418L134.299 200.666ZM137.764 201.951L138.328 201.306L138.892 201.951H137.764ZM140.01 201.951L138.887 200.666L140.621 198.682L142.352 200.666L141.233 201.951H140.01ZM142.352 201.951L142.916 201.306L143.48 201.951H142.352ZM147.639 201.951H146.94L147.504 201.306L147.671 201.497L147.639 201.951ZM147.802 199.685L147.504 200.021L145.77 198.042L147.504 196.059L148.016 196.644L147.802 199.685ZM148.107 195.368L148.099 195.459L148.063 195.418L148.107 195.368ZM148.207 193.974L147.504 194.773L145.77 192.794L147.504 190.811L148.361 191.791L148.207 193.974ZM148.445 190.602L148.064 190.166L148.513 189.657L148.445 190.602ZM148.917 183.942L148.79 185.749L148.064 184.918L148.917 183.942Z" fill="#C5B4F0"/>
<g opacity="0.6">
<path d="M148.115 179.611H146.892H143.527H142.3H138.939H137.712H134.35H133.124H131.223L131.362 181.563L131.461 182.957L131.719 186.584L131.866 188.668L132.06 191.441L132.143 192.631L132.171 192.985L132.27 194.383L132.405 196.299L132.489 197.488L132.576 198.696L132.675 200.094L132.75 201.152L132.834 202.342L132.869 202.86H135.092H136.969H139.68H141.558H144.269H146.146H148.372L148.408 202.342L148.491 201.157L148.567 200.09L148.666 198.691L148.754 197.488L148.837 196.299L148.972 194.379L149.071 192.985L149.095 192.631L149.178 191.441L149.377 188.668L149.524 186.589L149.778 182.957L149.877 181.563L150.016 179.611H148.115ZM149.132 180.892L148.806 180.519H149.159L149.132 180.892ZM149.048 182.077L149.016 182.549L147.504 184.279L145.77 182.295L147.321 180.52H147.687L149.048 182.077ZM148.612 188.259L147.504 189.526L145.77 187.542L147.504 185.563L148.703 186.934L148.612 188.259ZM132.537 186.933L133.735 185.563L135.47 187.542L133.735 189.525L132.632 188.259L132.537 186.933ZM146.945 184.918L145.21 186.902L143.476 184.918L145.21 182.934L146.945 184.918ZM144.217 180.519H146.202L145.21 181.654L144.217 180.519ZM144.646 187.542L142.916 189.525L141.182 187.542L142.916 185.563L144.646 187.542ZM138.887 190.166L140.621 188.187L142.352 190.166L140.621 192.15L138.887 190.166ZM140.058 192.79L138.324 194.773L136.593 192.794L138.328 190.811L140.058 192.79ZM142.916 190.811L144.646 192.794L142.916 194.773L141.181 192.79L142.916 190.811ZM140.622 186.902L138.888 184.918L140.622 182.934L142.352 184.918L140.622 186.902ZM140.058 187.542L138.328 189.525L136.593 187.542L138.328 185.563L140.058 187.542ZM136.03 186.902L134.299 184.918L136.03 182.934L137.764 184.918L136.03 186.902ZM136.03 188.187L137.764 190.166L136.03 192.15L134.299 190.166L136.03 188.187ZM137.764 195.418L136.03 197.397L134.299 195.418L136.03 193.435L137.764 195.418ZM138.324 196.058L140.058 198.042L138.328 200.025L136.593 198.042L138.324 196.058ZM138.887 195.418L140.621 193.435L142.352 195.418L140.621 197.397L138.887 195.418ZM142.916 196.058L144.646 198.042L142.916 200.025L141.181 198.042L142.916 196.058ZM145.21 198.682L146.944 200.666L145.821 201.95H144.599L143.476 200.666L145.21 198.682ZM143.476 195.418L145.21 193.435L146.944 195.418L145.21 197.397L143.476 195.418ZM143.476 190.166L145.21 188.187L146.944 190.166L145.21 192.15L143.476 190.166ZM144.646 182.294L142.916 184.278L141.182 182.294L142.734 180.52H143.099L144.646 182.294ZM140.622 181.654L139.63 180.519H141.61L140.622 181.654ZM140.058 182.294L138.328 184.278L136.593 182.294L138.145 180.52H138.51L140.058 182.294ZM137.022 180.519L136.03 181.654L135.041 180.519H137.022ZM133.918 180.519L135.47 182.294L133.735 184.277L132.227 182.548L132.195 182.075L133.553 180.518H133.918V180.519ZM132.434 180.519L132.112 180.887L132.084 180.519H132.434ZM132.326 183.947L133.176 184.918L132.454 185.744L132.326 183.947ZM132.799 190.597L132.731 189.658L133.176 190.166L132.799 190.597ZM132.882 191.791L133.735 190.811L135.47 192.794L133.735 194.773L133.037 193.974L132.882 191.791ZM133.14 195.459L133.136 195.373L133.176 195.418L133.14 195.459ZM133.442 199.685L133.223 196.644L133.735 196.058L135.47 198.042L133.735 200.021L133.442 199.685ZM133.601 201.951L133.569 201.497L133.735 201.306L134.299 201.951H133.601ZM134.299 200.666L136.03 198.682L137.764 200.666L136.641 201.95H135.418L134.299 200.666ZM137.764 201.951L138.328 201.306L138.892 201.951H137.764ZM140.01 201.951L138.887 200.666L140.621 198.682L142.352 200.666L141.233 201.951H140.01ZM142.352 201.951L142.916 201.306L143.48 201.951H142.352ZM147.639 201.951H146.94L147.504 201.306L147.671 201.497L147.639 201.951ZM147.802 199.685L147.504 200.021L145.77 198.042L147.504 196.059L148.016 196.644L147.802 199.685ZM148.107 195.368L148.099 195.459L148.063 195.418L148.107 195.368ZM148.207 193.974L147.504 194.773L145.77 192.794L147.504 190.811L148.361 191.791L148.207 193.974ZM148.445 190.602L148.064 190.166L148.513 189.657L148.445 190.602ZM148.917 183.942L148.79 185.749L148.064 184.918L148.917 183.942Z" fill="white"/>
</g>
<path d="M130.95 181.329H150.291C150.737 181.329 151.099 180.915 151.099 180.404V179.726C151.099 179.215 150.737 178.802 150.291 178.802H130.95C130.503 178.802 130.142 179.216 130.142 179.726V180.404C130.141 180.915 130.503 181.329 130.95 181.329Z" fill="#C5B4F0"/>
<path d="M148.779 204.027H132.461C132.014 204.027 131.653 203.612 131.653 203.102V202.424C131.653 201.913 132.015 201.499 132.461 201.499H148.779C149.226 201.499 149.588 201.914 149.588 202.424V203.102C149.588 203.612 149.226 204.027 148.779 204.027Z" fill="#C5B4F0"/>
<path d="M191.352 154.755H182.559C182.304 154.755 182.083 154.556 182.023 154.274L180.78 148.412H176.876L178.473 155.559C178.716 156.646 179.573 157.407 180.554 157.407H191.352V154.755Z" fill="#263238"/>
<path opacity="0.4" d="M191.352 154.755H182.559C182.304 154.755 182.083 154.556 182.023 154.274L180.78 148.412H176.876L178.473 155.559C178.716 156.646 179.573 157.407 180.554 157.407H191.352V154.755Z" fill="white"/>
<path d="M192.243 137.088L187.641 175.522L189.964 175.886L194.567 137.452L192.243 137.088Z" fill="#263238"/>
<path d="M206.781 137.087L202.179 175.521L204.502 175.885L209.104 137.451L206.781 137.087Z" fill="#263238"/>
<g opacity="0.3">
<path d="M192.243 137.088L187.641 175.522L189.964 175.886L194.567 137.452L192.243 137.088Z" fill="white"/>
</g>
<g opacity="0.4">
<path d="M206.781 137.087L202.179 175.521L204.502 175.885L209.104 137.451L206.781 137.087Z" fill="white"/>
</g>
<path d="M190.479 203.824H187.211L186.809 184.059L186.64 175.708H191.048L190.879 184.059L190.479 203.824Z" fill="#263238"/>
<path opacity="0.4" d="M190.479 203.824H187.211L186.809 184.059L186.64 175.708H191.048L190.879 184.059L190.479 203.824Z" fill="white"/>
<path opacity="0.2" d="M186.64 175.708L186.809 184.29H190.879L191.048 175.708H186.64Z" fill="black"/>
<path d="M173.786 203.824L175.207 176.298H179.038L177.049 203.824H173.786Z" fill="#263238"/>
<path opacity="0.5" d="M177.052 203.824H173.787L174.994 180.374L175.205 176.245H179.036L178.741 180.374L177.052 203.824Z" fill="white"/>
<path opacity="0.2" d="M179.036 176.245L178.741 180.535H174.994L175.205 176.245H179.036Z" fill="black"/>
<path d="M200.642 203.824L198.652 176.298H202.483L203.904 203.824H200.642Z" fill="#263238"/>
<path opacity="0.5" d="M200.639 203.824L198.949 180.374L198.654 176.245H202.485L202.696 180.374L203.903 203.824H200.639Z" fill="white"/>
<path opacity="0.2" d="M198.653 176.245L198.949 180.535H202.696L202.485 176.245H198.653Z" fill="black"/>
<path d="M175.566 171.596H202.124C203.456 171.596 204.536 172.831 204.536 174.354V177.865H173.154V174.354C173.154 172.831 174.234 171.596 175.566 171.596Z" fill="#263238"/>
<path d="M172.621 174.731H205.07C205.605 174.731 206.04 175.228 206.04 175.84V176.756C206.04 177.369 205.605 177.866 205.07 177.866H172.621C172.085 177.866 171.65 177.369 171.65 176.756V175.84C171.65 175.228 172.085 174.731 172.621 174.731Z" fill="#263238"/>
<path opacity="0.6" d="M172.621 174.731H205.07C205.605 174.731 206.04 175.228 206.04 175.84V176.756C206.04 177.369 205.605 177.866 205.07 177.866H172.621C172.085 177.866 171.65 177.369 171.65 176.756V175.84C171.65 175.228 172.085 174.731 172.621 174.731Z" fill="white"/>
<path d="M190.647 150.119H208.176C209.13 150.119 209.936 149.307 210.057 148.224L211.301 137.121C211.413 136.118 210.73 135.231 209.846 135.231H192.317C191.363 135.231 190.557 136.042 190.435 137.125L189.192 148.228C189.08 149.231 189.762 150.119 190.647 150.119Z" fill="#263238"/>
<path opacity="0.6" d="M190.647 150.119H208.176C209.13 150.119 209.936 149.307 210.057 148.224L211.301 137.121C211.413 136.118 210.73 135.231 209.846 135.231H192.317C191.363 135.231 190.557 136.042 190.435 137.125L189.192 148.228C189.08 149.231 189.762 150.119 190.647 150.119Z" fill="white"/>
<path d="M179.538 131.261C178.549 129.651 177.631 128.029 176.762 126.331C176.322 125.485 175.907 124.621 175.497 123.728C175.291 123.282 175.098 122.815 174.905 122.333C174.714 121.841 174.519 121.285 174.377 120.773C173.829 118.762 173.506 116.883 173.196 114.95C172.891 113.03 172.66 111.109 172.491 109.162C172.437 108.531 172.839 107.97 173.391 107.907C173.859 107.854 174.284 108.178 174.435 108.663L174.438 108.673C175 110.48 175.548 112.302 176.074 114.108C176.345 115.009 176.601 115.913 176.881 116.795C177.146 117.68 177.43 118.566 177.725 119.356C177.867 119.749 178.012 120.074 178.196 120.443C178.384 120.817 178.592 121.196 178.801 121.586C179.222 122.365 179.679 123.145 180.128 123.933C181.039 125.497 181.965 127.092 182.861 128.668L182.87 128.685C183.476 129.75 183.211 131.175 182.28 131.867C181.37 132.544 180.158 132.267 179.538 131.261Z" fill="#E9B376"/>
<path d="M163.714 174.731C162.779 176.935 183.936 177.866 183.936 177.866C183.936 177.866 182.498 171.018 176.121 169.958C169.744 168.896 165.29 171.016 163.714 174.731Z" fill="#C5B4F0"/>
<path opacity="0.2" d="M163.714 174.731C162.779 176.935 183.936 177.866 183.936 177.866C183.936 177.866 182.498 171.018 176.121 169.958C169.744 168.896 165.29 171.016 163.714 174.731Z" fill="black"/>
<path d="M170.307 200.916L173.623 200.512C173.623 200.512 170.909 178.379 172.245 176.18C173.375 174.33 178.735 173.944 186.285 173.509C187.692 173.428 189.179 173.348 190.726 173.256C200.569 172.667 179.987 161.242 179.987 161.242C179.987 161.242 168.636 164.983 165.199 170.169C162.038 174.938 170.307 200.916 170.307 200.916Z" fill="#EBB376"/>
<path opacity="0.1" d="M170.307 200.916L173.623 200.512C173.623 200.512 170.909 178.379 172.245 176.18C173.375 174.33 178.735 173.944 186.285 173.509C187.692 173.428 189.179 173.348 190.726 173.256C200.569 172.667 179.987 161.242 179.987 161.242C179.987 161.242 168.636 164.983 165.199 170.169C162.038 174.938 170.307 200.916 170.307 200.916Z" fill="black"/>
<path d="M169.605 199.053L173.826 198.752C173.972 198.734 174.104 198.855 174.12 199.023C174.12 199.025 174.12 199.026 174.12 199.028L174.535 202.836C174.557 203.252 174.283 203.612 173.92 203.643C172.446 203.72 171.738 203.674 169.88 203.789C168.74 203.867 166.494 204.144 164.92 203.97C163.347 203.796 163.54 202.022 164.219 201.938C165.83 201.728 167.964 200.374 168.972 199.347C169.149 199.171 169.372 199.067 169.605 199.053Z" fill="#263238"/>
<path d="M167.593 199.719C167.458 199.581 167.405 199.366 167.456 199.167C167.469 199.037 167.539 198.924 167.643 198.868C168.093 198.632 169.204 199.386 169.33 199.473C169.357 199.497 169.373 199.534 169.369 199.574C169.366 199.613 169.341 199.645 169.307 199.654C168.983 199.771 168.649 199.847 168.311 199.88C168.062 199.931 167.806 199.873 167.593 199.719ZM167.717 199.068C167.666 199.095 167.631 199.152 167.626 199.216C167.597 199.342 167.628 199.475 167.708 199.568C167.897 199.753 168.391 199.742 169.056 199.543C168.602 199.257 167.957 198.941 167.717 199.068Z" fill="#C5B4F0"/>
<path d="M169.24 199.663C168.852 199.437 168.242 198.576 168.301 198.103C168.325 197.928 168.449 197.794 168.603 197.777C168.739 197.748 168.879 197.789 168.985 197.89C169.384 198.283 169.367 199.541 169.369 199.579C169.365 199.613 169.349 199.643 169.325 199.661C169.312 199.665 169.299 199.664 169.287 199.658C169.273 199.667 169.256 199.669 169.24 199.663ZM168.634 197.99C168.51 198.016 168.481 198.088 168.477 198.147C168.453 198.462 168.848 199.114 169.188 199.405C169.176 199 169.111 198.295 168.869 198.061C168.818 198.005 168.748 197.977 168.677 197.983L168.634 197.99Z" fill="#C5B4F0"/>
<path d="M176.412 170.594C177.134 167.49 182.003 162.681 186.013 161.944L191.809 173.286C185.734 173.571 183.864 175.6 183.727 176.245C183.074 179.325 185.135 200.916 185.135 200.916H181.616C181.616 200.916 174.63 178.257 176.412 170.594Z" fill="#EBB376"/>
<path d="M183.089 156.908C183.089 156.908 172.424 161.895 167.615 166.562C163.664 170.398 163.714 174.73 163.714 174.73C163.714 174.73 166.775 171.595 171.65 172.716C177.88 174.147 183.935 177.865 183.935 177.865C183.935 177.865 186.56 174.346 194.553 173.348C202.546 172.349 202.582 163.607 198.592 156.491L183.089 156.908Z" fill="#C5B4F0"/>
<path d="M181.329 199.053L185.549 198.752C185.696 198.734 185.827 198.855 185.843 199.023C185.843 199.025 185.844 199.026 185.844 199.028L186.258 202.836C186.281 203.252 186.007 203.612 185.643 203.643C184.169 203.72 183.461 203.674 181.604 203.789C180.464 203.867 178.217 204.144 176.644 203.97C175.071 203.796 175.263 202.022 175.943 201.938C177.553 201.728 179.687 200.374 180.695 199.347C180.872 199.171 181.095 199.067 181.329 199.053Z" fill="#263238"/>
<path d="M179.317 199.719C179.182 199.581 179.128 199.366 179.179 199.167C179.192 199.037 179.263 198.924 179.366 198.868C179.817 198.632 180.928 199.386 181.053 199.473C181.081 199.497 181.096 199.534 181.093 199.574C181.09 199.613 181.064 199.645 181.03 199.654C180.707 199.771 180.373 199.847 180.035 199.88C179.786 199.931 179.53 199.873 179.317 199.719ZM179.44 199.068C179.39 199.095 179.355 199.152 179.349 199.216C179.321 199.342 179.352 199.475 179.431 199.568C179.62 199.753 180.115 199.742 180.78 199.543C180.325 199.257 179.68 198.941 179.44 199.068Z" fill="#C5B4F0"/>
<path d="M180.964 199.663C180.576 199.437 179.966 198.576 180.025 198.103C180.049 197.928 180.173 197.794 180.327 197.777C180.463 197.748 180.603 197.789 180.71 197.89C181.109 198.283 181.091 199.541 181.092 199.579C181.089 199.613 181.073 199.643 181.049 199.661C181.036 199.665 181.023 199.664 181.011 199.658C180.997 199.667 180.979 199.669 180.964 199.663ZM180.358 197.99C180.234 198.016 180.205 198.088 180.201 198.147C180.177 198.462 180.571 199.114 180.912 199.405C180.9 199 180.835 198.295 180.593 198.061C180.541 198.005 180.472 197.977 180.401 197.983L180.358 197.99Z" fill="#C5B4F0"/>
<path d="M176.459 128.002L180.65 124.316C180.65 124.316 180.674 124.337 180.723 124.38C180.748 124.402 180.781 124.43 180.818 124.46C180.813 124.464 180.817 124.465 180.817 124.465C180.822 124.466 180.826 124.472 180.835 124.474C180.835 124.474 180.834 124.479 180.839 124.48C180.962 124.586 181.142 124.748 181.357 124.955C181.422 125.017 181.494 125.086 181.569 125.15C181.584 125.169 181.601 125.184 181.621 125.204C181.693 125.278 181.766 125.348 181.843 125.423C181.94 125.519 182.036 125.619 182.137 125.721C182.683 126.282 185.587 129.066 186.048 129.744C186.127 129.867 186.206 129.986 186.275 130.108C186.431 130.361 186.559 130.614 186.651 130.853C186.668 130.894 186.68 130.934 186.687 130.973C186.698 130.997 186.707 131.025 186.712 131.054C186.727 131.105 186.741 131.167 186.749 131.227C186.757 131.267 186.764 131.311 186.771 131.355C186.775 131.388 186.779 131.421 186.782 131.459C186.789 131.531 186.797 131.602 186.803 131.678C186.804 131.759 186.805 131.84 186.809 131.926C186.81 132.007 186.806 132.092 186.806 132.178C186.807 132.199 186.803 132.225 186.804 132.247L186.803 132.252C186.802 132.316 186.796 132.379 186.795 132.443C186.79 132.534 186.784 132.629 186.773 132.723C186.762 132.818 186.756 132.913 186.745 133.007C186.734 133.106 186.722 133.205 186.707 133.304C186.321 136.047 182.621 137.522 181.54 136.847C179.385 135.488 177.286 130.238 176.654 128.537C176.526 128.199 176.459 128.002 176.459 128.002Z" fill="#C5B4F0"/>
<path opacity="0.6" d="M186.808 131.929C186.808 132.008 186.804 132.092 186.804 132.176C186.808 132.197 186.804 132.223 186.804 132.245V132.25C186.799 132.319 186.794 132.382 186.794 132.445C186.79 132.535 186.785 132.63 186.771 132.724C186.762 132.819 186.757 132.914 186.744 133.009C186.734 133.104 186.72 133.204 186.707 133.304C186.389 135.576 183.794 136.978 182.296 137.01C181.987 137.015 181.725 136.963 181.541 136.847C180.891 136.436 180.246 135.682 179.651 134.77C179.568 134.649 179.49 134.523 179.412 134.396C178.126 132.32 177.071 129.658 176.652 128.54C176.527 128.198 176.458 128.003 176.458 128.003L180.652 124.319C180.652 124.319 180.675 124.34 180.725 124.382C180.748 124.403 180.78 124.429 180.817 124.461C180.822 124.466 180.827 124.466 180.836 124.477C180.836 124.477 180.836 124.482 180.841 124.482C180.961 124.587 181.14 124.751 181.357 124.956C181.421 125.014 181.495 125.083 181.569 125.151C181.582 125.171 181.601 125.182 181.619 125.204C181.693 125.272 181.767 125.34 181.845 125.425C181.942 125.52 182.034 125.619 182.135 125.72C182.684 126.284 185.587 129.067 186.048 129.741C186.126 129.868 186.204 129.984 186.274 130.11C186.43 130.364 186.56 130.616 186.652 130.854C186.665 130.896 186.679 130.933 186.688 130.975C186.698 130.997 186.707 131.028 186.712 131.055C186.725 131.108 186.739 131.166 186.748 131.229C186.758 131.266 186.762 131.313 186.772 131.355C186.776 131.392 186.776 131.424 186.781 131.46C186.79 131.534 186.795 131.603 186.804 131.682C186.804 131.76 186.804 131.839 186.808 131.929Z" fill="white"/>
<path d="M176.1 127.734L180.322 123.534L180.927 124.022L181.139 124.19L180.839 124.48L180.806 124.511L176.654 128.538L176.541 128.647L176.1 127.734Z" fill="#C5B4F0"/>
<path opacity="0.2" d="M182.296 137.009C181.987 137.014 181.725 136.962 181.541 136.846C180.891 136.435 180.246 135.681 179.651 134.77C180.49 133.368 182.025 132.519 182.025 132.519C183.094 134 182.702 135.544 182.296 137.009Z" fill="black"/>
<path d="M199.546 158.236C199.546 158.236 199.276 140.476 197.802 136.833C196.329 133.19 193.949 128.21 183.644 131.091C183.644 131.091 179.738 132.35 180.405 137.859C181.072 143.368 181.291 157.661 181.291 157.661L199.546 158.236Z" fill="#C5B4F0"/>
<path opacity="0.6" d="M180.4 137.857C180.598 139.481 180.755 141.858 180.879 144.409C180.907 144.999 180.935 145.605 180.963 146.211C181.023 147.613 181.073 149.026 181.115 150.354C181.124 150.586 181.128 150.817 181.138 151.044C181.244 154.755 181.29 157.659 181.29 157.659L199.546 158.239C199.546 158.239 199.276 140.471 197.801 136.835C196.326 133.193 193.948 128.207 183.644 131.095C183.644 131.095 179.737 132.35 180.4 137.857Z" fill="white"/>
<path d="M185.208 134.392L184.015 132.182L182.373 134.392C182.373 134.392 182.837 128.526 188.801 128.391C191.246 128.335 191.824 130.702 191.824 130.702C190.778 132.633 188.007 134.733 188.007 134.733L186.906 132.822L185.208 134.392Z" fill="#C5B4F0"/>
<path d="M174.201 137.782L171.3 146.375" stroke="#263238" stroke-width="2.0077" stroke-miterlimit="10"/>
<path d="M189.851 123.42C189.851 123.42 189.576 125.466 189.707 127.446C189.763 128.401 189.914 129.331 190.232 130.066C190.232 130.066 188.64 131.83 187.203 132.205L185.613 133.555L185.717 131.714C185.717 131.714 185.729 131.62 185.735 131.455C185.774 130.742 185.723 128.506 183.956 127.668C181.524 126.506 189.851 123.42 189.851 123.42Z" fill="#EBB376"/>
<path opacity="0.2" d="M189.851 123.42C189.851 123.42 189.576 125.466 189.707 127.446C188.698 129.167 187.401 130.812 185.736 131.455C185.774 130.742 185.723 128.506 183.957 127.668C181.524 126.506 189.851 123.42 189.851 123.42Z" fill="black"/>
<path d="M171.028 143.452L171.941 143.011C172.284 142.846 172.676 142.88 172.993 143.103L174.476 144.147C175.068 144.564 175.448 145.284 175.493 146.078L175.522 146.57C174.052 147.419 171.917 147.099 171.917 147.099L171.299 147.085C170.749 147.072 170.328 146.594 170.332 145.985L170.341 144.585C170.343 144.101 170.617 143.651 171.028 143.452Z" fill="#EBB376"/>
<path opacity="0.2" d="M180.88 144.409C180.907 144.999 180.935 145.605 180.963 146.212C181.023 147.613 181.074 149.026 181.115 150.354C181.124 150.586 181.129 150.818 181.138 151.045C194.244 150.359 196.295 139.286 196.295 139.286C196.295 139.286 192.894 135.228 190.986 135.665C189.078 136.108 184.751 142.079 184.751 142.079L184.931 142.907C184.433 143.528 182.004 144.151 180.88 144.409Z" fill="black"/>
<path d="M194.612 140.488C193.95 141.367 193.305 142.08 192.618 142.83C191.931 143.561 191.217 144.261 190.469 144.922C189.725 145.589 188.937 146.208 188.119 146.788C187.299 147.369 186.425 147.882 185.513 148.336L185.364 148.41C185.295 148.444 185.22 148.468 185.148 148.479C184.855 148.524 184.527 148.588 184.262 148.599C184.002 148.608 183.725 148.629 183.479 148.617C182.978 148.604 182.499 148.567 182.03 148.518C181.094 148.416 180.188 148.253 179.292 148.074C178.398 147.883 177.514 147.672 176.638 147.43C175.762 147.176 174.897 146.926 174.024 146.612C173.495 146.422 173.201 145.777 173.368 145.172C173.507 144.665 173.927 144.346 174.371 144.369L174.378 144.37L177.006 144.509L179.617 144.633C180.481 144.671 181.338 144.676 182.17 144.669L182.786 144.649L183.375 144.602C183.572 144.586 183.735 144.549 183.916 144.53C184.092 144.505 184.197 144.455 184.342 144.43L183.978 144.573C184.667 144.141 185.346 143.654 186.014 143.118C186.676 142.568 187.331 141.993 187.968 141.376C188.602 140.755 189.23 140.117 189.84 139.453C190.447 138.808 191.062 138.081 191.593 137.449L191.638 137.395C192.407 136.478 193.68 136.448 194.481 137.327C195.256 138.175 195.303 139.568 194.612 140.488Z" fill="#E9B376"/>
<path d="M195.295 133.048C192.359 129.95 186.401 141.5 186.401 141.5L190.006 146.582C190.006 146.582 201.656 139.761 195.295 133.048Z" fill="#C5B4F0"/>
<path opacity="0.6" d="M195.295 133.048C192.359 129.95 186.401 141.5 186.401 141.5L190.006 146.582C190.006 146.582 201.656 139.761 195.295 133.048Z" fill="white"/>
<path d="M190.76 146.81L186.401 140.745L185.591 142.092L189.362 147.815L190.76 146.81Z" fill="#C5B4F0"/>
<path d="M193.14 114.413C193.14 114.413 194.872 111.907 198.552 112.729C202.232 113.55 203.831 118.55 200.574 123.456C197.317 128.362 199.288 129.674 198.52 131.074C197.753 132.476 196.501 132.166 196.501 132.166C196.501 132.166 197.941 131.815 196.239 130.098C194.537 128.38 194.594 124.25 195.45 122.2C196.307 120.15 194.853 118.848 193.564 119.504L193.14 114.413Z" fill="#263238"/>
<path d="M183.089 112.231C183.089 112.231 180.606 114.026 181.181 117.343C181.757 120.66 186.287 114.715 186.287 114.715L183.089 112.231Z" fill="#263238"/>
<path d="M193.241 120.456C191.618 124.545 190.874 127.038 188.093 128.292C183.903 130.189 179.438 126.098 179.822 121.489C180.149 117.335 182.756 111.358 187.34 111.414C191.923 111.468 194.862 116.372 193.241 120.456Z" fill="#EBB376"/>
<path d="M185.909 116.909C185.891 116.864 185.885 116.815 185.889 116.766C185.922 116.643 186.033 116.571 186.142 116.605C186.778 116.785 187.297 117.311 187.529 118.013C187.563 118.135 187.504 118.265 187.397 118.304C187.291 118.337 187.18 118.271 187.142 118.153C186.947 117.598 186.527 117.189 186.017 117.057C185.965 117.027 185.926 116.973 185.909 116.909Z" fill="#263238"/>
<path d="M181.385 115.763C181.347 115.739 181.317 115.703 181.296 115.66C181.259 115.539 181.312 115.407 181.417 115.36C182.024 115.077 182.714 115.153 183.263 115.563C183.353 115.639 183.372 115.784 183.306 115.888C183.237 115.986 183.114 116.008 183.022 115.937C182.579 115.62 182.028 115.573 181.549 115.81C181.491 115.82 181.432 115.803 181.385 115.763Z" fill="#263238"/>
<path d="M182.781 119.83L181.596 120.366C181.596 120.366 181.732 120.899 182.625 121.322L182.781 119.83Z" fill="#D58745"/>
<path d="M181.878 122.605C182.034 123.304 182.097 124.566 182.097 124.566C182.198 124.58 182.299 124.594 182.401 124.602C183.775 124.753 184.456 124.304 184.794 123.761C184.978 123.462 185.057 123.132 185.09 122.858C185.13 122.542 185.096 122.307 185.096 122.307C184.326 122.724 183.035 122.696 182.347 122.648C182.058 122.632 181.878 122.605 181.878 122.605Z" fill="#263238"/>
<path d="M182.347 122.648L182.425 123.224C183.719 123.363 184.647 123.262 185.09 122.858C185.13 122.542 185.096 122.307 185.096 122.307C184.326 122.724 183.035 122.697 182.347 122.648Z" fill="white"/>
<path d="M182.401 124.603C183.775 124.754 184.456 124.305 184.794 123.761C184.324 123.73 183.755 123.753 183.24 123.939C182.845 124.08 182.583 124.335 182.401 124.603Z" fill="#DE5753"/>
<path d="M189.318 123.41C189.318 123.41 188.538 121.842 188.875 119.702C188.875 119.702 185.57 117.288 184.861 114.492C184.861 114.492 185.058 117.143 186.718 119.14C186.718 119.14 181.973 115.997 182.631 112.643C183.29 109.288 187.425 109.246 191.504 111.673C195.582 114.099 195.684 118.628 194.433 121.439C194.433 121.439 193.41 127.458 189.66 127.279C189.66 127.279 190.91 124.454 189.318 123.41Z" fill="#263238"/>
<path d="M189.279 122.053C189.279 122.053 190.746 119.917 191.657 121.007C192.567 122.097 191.418 126.053 189.801 125.56C188.186 125.068 188.247 123.125 189.279 122.053Z" fill="#EBB376"/>
<path d="M184.876 119.638C184.794 120.085 184.938 120.499 185.199 120.562C185.46 120.625 185.738 120.314 185.821 119.866C185.904 119.418 185.759 119.004 185.498 118.941C185.238 118.879 184.959 119.19 184.876 119.638Z" fill="#263238"/>
<path d="M185.603 118.989L184.822 118.402C184.822 118.402 185.095 119.323 185.603 118.989Z" fill="#263238"/>
<path d="M181.299 118.3C181.216 118.748 181.361 119.162 181.622 119.225C181.883 119.288 182.161 118.976 182.244 118.528C182.326 118.081 182.182 117.667 181.921 117.603C181.66 117.541 181.382 117.853 181.299 118.3Z" fill="#263238"/>
<path d="M182.026 117.652L181.245 117.065C181.245 117.065 181.518 117.986 182.026 117.652Z" fill="#263238"/>
<path d="M174.959 110.45L175.328 106.139L172.023 106.376C172.023 106.376 171.395 109.348 173.204 110.79L174.959 110.45Z" fill="#EBB376"/>
<path d="M174.301 103.288L171.875 104.139L172.023 106.376L175.328 106.139L174.301 103.288Z" fill="#EBB376"/>
<path d="M164.613 145.804C165.768 145.76 168.655 146.003 168.655 146.003L169.991 145.435C169.991 145.435 176.737 146.638 177.496 146.581C178.256 146.524 180.324 147.446 180.324 147.446L165.434 148.193L164.613 145.804Z" fill="#C5B4F0"/>
<path opacity="0.9" d="M164.613 145.804C165.768 145.76 168.655 146.003 168.655 146.003L169.991 145.435C169.991 145.435 176.737 146.638 177.496 146.581C178.256 146.524 180.324 147.446 180.324 147.446L165.434 148.193L164.613 145.804Z" fill="white"/>
<path d="M161.378 147.446C161.378 147.446 163.976 144.626 166.391 146.374C166.391 146.374 169.618 144.261 172.927 146.374L177.332 147.267L161.378 147.446Z" fill="#C5B4F0"/>
<path opacity="0.7" d="M161.378 147.446C161.378 147.446 163.976 144.626 166.391 146.374C166.391 146.374 169.618 144.261 172.927 146.374L177.332 147.267L161.378 147.446Z" fill="white"/>
<path d="M155.465 149.556H188.066C188.447 149.556 188.756 149.202 188.756 148.766V148.058C188.756 147.622 188.447 147.268 188.066 147.268H155.465C155.083 147.268 154.774 147.622 154.774 148.058V148.766C154.774 149.202 155.083 149.556 155.465 149.556Z" fill="#263238"/>
<path opacity="0.6" d="M154.772 148.034V148.79C154.772 149.214 155.073 149.557 155.447 149.557H188.086C188.456 149.557 188.756 149.214 188.756 148.79V148.034C188.756 147.61 188.456 147.267 188.086 147.267H155.447C155.073 147.267 154.772 147.61 154.772 148.034Z" fill="white"/>
<path opacity="0.3" d="M154.772 148.034V148.79C154.772 149.214 155.073 149.557 155.447 149.557H171.204C171.574 149.557 171.874 149.214 171.874 148.79V148.034C171.874 147.61 171.574 147.267 171.204 147.267H155.447C155.073 147.267 154.772 147.61 154.772 148.034Z" fill="white"/>
<path d="M78.8504 191.588L71.9466 191.665L74.2418 201.127L80.013 201.074L78.8504 191.588Z" fill="#EBB376"/>
<path opacity="0.2" d="M78.8494 191.591L71.9432 191.668L73.2298 196.967L79.5018 196.904L78.8494 191.591Z" fill="black"/>
<path d="M61.1989 154.742C57.3052 142.597 51.5552 124.428 53.535 118.843L74.9463 118.283C74.9463 118.283 76.2521 144.873 77.0905 156.079C77.9633 167.731 79.8245 195.275 79.8245 195.275L72.3451 195.298C72.3451 195.298 62.1908 168.603 61.1989 154.742Z" fill="#263238"/>
<path d="M73.2617 204.019H74.7667L75.1746 203.321L75.9648 204.027H85.049C85.2272 202.994 84.6614 201.647 84.6614 201.647C84.6614 201.647 81.9445 201.364 80.9 199.815C80.8193 199.696 80.6934 199.631 80.5645 199.662C79.6597 199.879 76.0666 200.656 74.0888 199.842C73.8743 199.753 73.6479 199.92 73.6445 200.18C73.6199 201.969 73.2617 204.019 73.2617 204.019Z" fill="#263238"/>
<path d="M53.0022 191.578L46.0836 191.654L46.5752 201.127L52.3562 201.074L53.0022 191.578Z" fill="#EBB376"/>
<path opacity="0.2" d="M53.0007 191.58L46.0797 191.657L46.3562 196.962L52.64 196.899L53.0007 191.58Z" fill="black"/>
<path d="M42.374 154.69C40.7956 142.531 38.5088 124.342 41.5533 118.751L63.0719 118.19C63.0719 118.19 59.3091 144.81 58.0112 156.029C56.6631 167.693 53.2737 195.268 53.2737 195.268L45.7899 195.291C45.7899 195.291 40.7238 168.566 42.374 154.69Z" fill="#263238"/>
<path d="M71.2219 77.5434C72.4494 78.4291 73.3483 79.4915 74.0106 80.4707C74.6816 81.4543 75.1535 82.3783 75.5545 83.2387C76.3544 84.9516 76.8696 86.4597 77.4044 87.8429C78.4135 90.6047 79.3483 92.8877 80.5483 94.6934C80.8415 95.1526 81.1529 95.5786 81.4865 95.9736L81.611 96.1227L81.673 96.1981C81.6946 96.224 81.6858 96.2167 81.6931 96.228C81.705 96.255 81.7113 96.2904 81.7635 96.3428C81.7945 96.3906 81.853 96.448 81.92 96.5088C81.9746 96.5673 82.0621 96.6365 82.1394 96.7068C82.8149 97.2819 83.9012 97.8587 85.0053 98.4124C87.2483 99.5114 89.8239 100.482 92.2864 101.552L92.4119 101.607C93.7343 102.182 94.3986 103.874 93.8957 105.386C93.5489 106.43 92.7326 107.116 91.8274 107.251C90.3194 107.472 88.9064 107.557 87.4343 107.541C86.7022 107.542 85.9681 107.507 85.2272 107.445C84.4848 107.393 83.7369 107.305 82.9787 107.171C81.4481 106.916 79.9136 106.548 78.1434 105.724C77.918 105.614 77.6986 105.511 77.4619 105.366C77.2322 105.234 76.997 105.092 76.7481 104.916C76.5104 104.761 76.2482 104.555 75.9904 104.342L75.8093 104.191L75.6789 104.073L75.4187 103.837C74.724 103.204 74.0721 102.517 73.4694 101.798C72.2571 100.358 71.2588 98.7743 70.4022 97.2167C69.5447 95.6501 68.8633 94.0823 68.2296 92.6254C67.6274 91.1685 67.062 89.804 66.5755 88.7595C66.3295 88.2447 66.0972 87.8243 65.9354 87.5688C65.7666 87.3128 65.6963 87.2436 65.7769 87.2751C63.4271 85.556 62.7408 81.9833 64.2444 79.2963C65.7489 76.6093 68.8721 75.8243 71.2219 77.5434Z" fill="#C5B4F0"/>
<path d="M92.0581 106.925L92.3917 103.612C93.7978 100.498 96.9845 103.258 96.9845 103.258L99.8962 104.1C100.575 104.31 101.009 105.141 100.922 106.064L100.705 108.382C100.606 109.439 99.8656 110.232 99.0647 110.14L96.3542 109.71C95.8308 109.65 95.3279 109.443 94.891 109.106L92.0581 106.925Z" fill="#EBB376"/>
<path d="M69.2682 76.589C63.7415 74.5706 56.0299 72.7659 49.7687 72.2043C45.7766 71.8459 42.7149 75.3139 43.0618 79.6936C44.4699 97.4688 40.0896 115.941 41.7654 119.985C41.7654 119.985 63.3829 123.35 75.2155 124.066C80.3047 107.672 75.366 96.0361 73.766 81.7396C73.489 79.2625 71.4044 77.369 69.2682 76.589Z" fill="#C5B4F0"/>
<path d="M66.4638 76.8187C66.4401 76.0657 66.0283 74.8092 65.3371 74.2313C65.3474 73.3169 65.6446 72.3737 66.3048 71.3535L59.2997 65.4495C58.7635 69.1938 57.4119 72.1503 55.6668 73.5644C57.0031 75.3398 59.469 78.5462 63.1093 79.4049C66.7491 80.2636 66.5149 78.464 66.4638 76.8187Z" fill="#EBB376"/>
<path opacity="0.2" d="M66.1125 71.6641L59.2997 65.4495C59.2997 71.3468 63.4837 74.4918 65.3632 73.803C65.4399 73.1154 65.6775 72.4114 66.1125 71.6641Z" fill="black"/>
<path d="M63.3273 79.4533L62.363 77.6014L59.9433 78.2305C59.9433 78.2305 60.7148 79.9761 63.3273 79.4533Z" fill="#C5B4F0"/>
<path opacity="0.3" d="M63.3273 79.4533L62.363 77.6014L59.9433 78.2305C59.9433 78.2305 60.7148 79.9761 63.3273 79.4533Z" fill="black"/>
<path d="M57.1561 71.3474C57.1561 71.3474 58.5952 76.3398 62.3634 77.602C59.6776 78.2339 58.241 81.0717 58.241 81.0717C58.241 81.0717 53.8292 78.7584 55.0749 72.5386C55.992 71.7345 57.1561 71.3474 57.1561 71.3474Z" fill="#C5B4F0"/>
<path d="M63.3273 79.4533L65.647 78.1467L67.523 79.4747C67.523 79.4747 65.1309 81.1775 63.3273 79.4533Z" fill="#C5B4F0"/>
<path opacity="0.3" d="M63.3273 79.4533L65.647 78.1467L67.523 79.4747C67.523 79.4747 65.1309 81.1775 63.3273 79.4533Z" fill="black"/>
<path d="M65.3371 74.2313C65.3371 74.2313 66.1031 76.6656 65.647 78.1467C67.2318 79.2322 66.9858 82.5516 66.9858 82.5516C66.9858 82.5516 68.9031 78.2305 66.938 75.0843C66.4431 74.3697 65.3371 74.2313 65.3371 74.2313Z" fill="#C5B4F0"/>
<path opacity="0.7" d="M57.1561 71.3474C57.1561 71.3474 58.5952 76.3398 62.3634 77.602C59.6776 78.2339 58.241 81.0717 58.241 81.0717C58.241 81.0717 53.8292 78.7584 55.0749 72.5386C55.992 71.7345 57.1561 71.3474 57.1561 71.3474Z" fill="white"/>
<path opacity="0.7" d="M65.3371 74.2313C65.3371 74.2313 66.1031 76.6656 65.647 78.1467C67.2318 79.2322 66.9858 82.5516 66.9858 82.5516C66.9858 82.5516 68.9031 78.2305 66.938 75.0843C66.4431 74.3697 65.3371 74.2313 65.3371 74.2313Z" fill="white"/>
<path d="M45.5951 204.019H47.1001L47.508 203.321L48.2981 204.027H57.3824C57.5605 202.994 56.9947 201.647 56.9947 201.647C56.9947 201.647 54.2779 201.364 53.2334 199.815C53.1527 199.696 53.0268 199.631 52.8979 199.662C51.9931 199.879 48.4 200.656 46.4221 199.842C46.2076 199.753 45.9818 199.92 45.9779 200.18C45.9533 201.969 45.5951 204.019 45.5951 204.019Z" fill="#263238"/>
<path d="M70.5385 55.7549C70.5385 55.7549 75.0954 60.3658 71.0231 64.79C66.9513 69.2146 67.0763 54.1562 70.5385 55.7549Z" fill="#263238"/>
<path d="M59.0769 59.3068C58.5337 64.1085 58.2602 67.3891 60.4648 70.0806C64.8456 75.4281 68.3299 73.6781 70.1941 69.2315C71.8718 65.2288 72.4785 58.0491 68.4883 55.0346C64.5573 52.0646 59.62 54.5045 59.0769 59.3068Z" fill="#EBB376"/>
<path d="M66.6148 62.2723C66.5361 62.6854 66.664 63.0663 66.9011 63.1226C67.1378 63.1794 67.3936 62.8902 67.4724 62.4771C67.5511 62.0641 67.4232 61.6837 67.186 61.6269C66.9494 61.57 66.6935 61.8593 66.6148 62.2723Z" fill="#263238"/>
<path d="M70.3274 63.3111C70.2487 63.7241 70.3766 64.1045 70.6138 64.1613C70.8504 64.2176 71.1063 63.9289 71.185 63.5159C71.2637 63.1029 71.1358 62.7219 70.8987 62.6656C70.662 62.6088 70.4062 62.898 70.3274 63.3111Z" fill="#263238"/>
<path d="M69.0231 63.3291L68.3368 66.7955C68.3368 66.7955 68.8278 67.0628 69.3916 67.1151C69.7159 67.1455 69.9309 66.7229 69.7572 66.4078C69.1506 65.3082 69.0231 63.3291 69.0231 63.3291Z" fill="#D58745"/>
<path d="M64.9174 60.6145C64.8835 60.6005 64.852 60.5774 64.8264 60.5436C64.7482 60.4407 64.7585 60.2837 64.85 60.1942C65.7642 59.2933 66.7324 59.5932 66.7732 59.6067C66.8889 59.6439 66.9548 59.7812 66.9213 59.9128C66.8879 60.0439 66.7673 60.1205 66.6522 60.0839C66.6202 60.0743 65.8635 59.8492 65.1339 60.5684C65.0719 60.6292 64.9888 60.6438 64.9174 60.6145Z" fill="#263238"/>
<path d="M71.983 62.5442C71.9146 62.5261 71.8551 62.4704 71.829 62.39C71.4979 61.3658 70.7382 61.1531 70.7058 61.1447C70.5892 61.1137 70.5168 60.9815 70.5444 60.8481C70.572 60.7153 70.6881 60.6315 70.8047 60.6607C70.847 60.6725 71.8231 60.932 72.2379 62.2155C72.2792 62.3438 72.2211 62.4867 72.1085 62.5346C72.0666 62.552 72.0234 62.5543 71.983 62.5442Z" fill="#263238"/>
<path d="M69.5206 68.7667C69.5206 68.7667 68.1139 67.9338 63.9142 66.6992C64.082 68.2872 64.7354 69.7357 66.8913 70.3451C69.0472 70.9545 69.5206 68.7667 69.5206 68.7667Z" fill="#263238"/>
<path d="M66.1489 68.9169C67.1895 69.2107 67.8783 69.7019 68.3348 70.3035C67.9722 70.4672 67.496 70.5134 66.8938 70.3429C65.8537 70.0491 65.1673 69.5657 64.7127 68.958C65.0753 68.7943 65.5467 68.7464 66.1489 68.9169Z" fill="#A02724"/>
<path d="M69.3395 68.6699C69.1511 68.9428 68.9636 69.2163 68.5208 69.1926C67.6303 69.0036 65.4552 68.061 64.8854 67.7403C64.5164 67.5551 64.2217 67.3081 64.0958 66.7527C67.3277 67.7127 68.8524 68.4211 69.3395 68.6699Z" fill="white"/>
<path d="M60.45 63.8935C60.45 63.8935 63.4936 60.0642 62.762 56.2411C62.762 56.2411 64.8603 57.7008 69.3395 57.4228C69.3395 57.4228 67.985 58.9393 65.4256 58.0485C65.4256 58.0485 68.4268 59.7164 71.4876 58.1178C74.5483 56.5191 70.9912 52.9644 67.0438 52.2002C63.0965 51.4355 60.268 51.5154 59.9438 53.7398C59.9438 53.7398 55.6668 53.7398 56.9859 62.5503L60.45 63.8935Z" fill="#263238"/>
<path d="M56.4466 63.9695C56.853 65.2874 57.7578 66.2637 58.6754 66.7381C60.056 67.4516 60.9873 66.1045 60.8058 64.4793C60.6424 63.0168 59.7273 60.883 58.2444 60.8532C56.7837 60.8245 55.9817 62.4631 56.4466 63.9695Z" fill="#EBB376"/>
<path d="M50.3021 84.0423L49.873 84.3928L49.3919 84.798L48.4162 85.6303C47.7707 86.1997 47.1203 86.7658 46.4955 87.3572C45.2325 88.5238 44.0399 89.7505 42.9442 90.9845C42.3986 91.6041 41.8879 92.2349 41.4229 92.8663C40.9491 93.4903 40.526 94.1172 40.1678 94.7272C39.4549 95.9517 39.048 97.0737 38.9639 97.7484L38.653 95.8447C38.4704 95.6287 38.4832 96.0276 38.8099 96.4891C38.9757 96.7175 39.1834 96.9831 39.4259 97.2549C39.6704 97.5267 39.9607 97.7884 40.2613 98.0641C40.868 98.6167 41.5627 99.158 42.2908 99.6966C42.6559 99.9639 43.0278 100.241 43.4082 100.503L43.9779 100.907C44.1589 101.042 44.3749 101.188 44.5122 101.305L44.952 101.68C46.0738 102.637 46.3051 104.453 45.4682 105.736C44.9811 106.484 44.2254 106.885 43.4687 106.902L42.6141 106.914L41.8052 106.886C41.2704 106.846 40.7327 106.797 40.1959 106.713C39.1209 106.549 38.0424 106.279 36.9339 105.881C35.8368 105.456 34.6904 104.933 33.5224 104.042C32.9374 103.591 32.3367 103.049 31.7468 102.345C31.1564 101.646 30.593 100.746 30.1551 99.6307C29.9657 99.1479 29.8678 98.6448 29.8536 98.1468L29.8442 97.727C29.8024 96.0124 30.0513 94.4138 30.4228 92.9889C30.7913 91.5546 31.3138 90.3003 31.8629 89.1332C32.9748 86.812 34.2855 84.8886 35.6616 83.1385C37.0318 81.3834 38.4955 79.8314 40.0006 78.379C40.7597 77.6605 41.5218 76.9565 42.3154 76.2964C42.7115 75.965 43.1085 75.6335 43.5184 75.3145L44.1422 74.8379L44.832 74.3303C47.1764 72.605 50.2996 73.3798 51.8081 76.0612C53.2693 78.6587 52.6789 82.0924 50.5092 83.8729L50.3021 84.0423Z" fill="#C5B4F0"/>
<path d="M62.3925 95.2315L61.4247 93.6446L55.9256 92.5214L50.1422 86.9854L46.2736 91.8833C46.2736 91.8833 43.3142 98.0732 43.6 98.3168C43.8859 98.5605 50.9112 102.911 50.9112 102.911L55.6885 102.229L62.3925 95.2315Z" fill="#E0E0E0"/>
<path d="M48.215 86.4637L39.8358 98.0501L48.3331 104.08L55.3387 105.494L63.6367 94.8465L55.6855 93.0993L48.215 86.4637Z" fill="#263238"/>
<path opacity="0.4" d="M55.6855 93.0993L48.3326 104.082L39.8358 98.0529L48.2145 86.4648L55.6855 93.0993Z" fill="white"/>
<path opacity="0.2" d="M55.6855 93.0993L48.3331 104.08L55.3387 105.494L63.6368 94.8465L55.6855 93.0993Z" fill="white"/>
<path d="M43.5616 102.12L43.1336 105.418C43.787 108.842 47.4898 107.12 47.4898 107.12L49.5631 107.114C50.2656 107.113 50.8733 106.438 50.9982 105.521L51.3126 103.218C51.4563 102.167 50.921 101.183 50.1264 101.034L48.3409 100.701C47.8214 100.604 47.289 100.655 46.7911 100.851L43.5616 102.12Z" fill="#EBB376"/>
</svg>
